<?xml version="1.0" encoding="utf-8"?>
<!-- Generator: Adobe Illustrator 23.0.1, SVG Export Plug-In . SVG Version: 6.00 Build 0)  -->
<svg version="1.1" id="Layer_1" xmlns="http://www.w3.org/2000/svg" xmlns:xlink="http://www.w3.org/1999/xlink" x="0px" y="0px"
	 viewBox="0 0 239.3 35.1" style="enable-background:new 0 0 239.3 35.1;" xml:space="preserve">
<style type="text/css">
	.st0{fill:#CC3366;}
</style>
<title>Artboard 30</title>
<path class="st0" d="M150.3,32.8c-0.9,0-1.9,0-2.9,0c-1.7,0-3.3,0.1-5,0.2c-1.1,0-2.3,0.2-3.4,0.2c-0.6,0-1.1,0-1.7,0.1
	c-0.1-0.2-0.3-0.4-0.4-0.6s-0.2-0.5-0.4-0.7c1-0.5,2.1-1,3.2-1.4c2-0.7,3.9-1.6,5.8-2.5c0.4-0.2,0.5-0.5,0.2-0.9
	c-0.1,0-0.2-0.1-0.3,0l-9.4,4c-1-1.7-1.9-3.5-3.8-4.5c1.6-1.5,3.1-3.1,4.5-4.8c-0.6-0.4-0.9-0.5-1.3-0.1c-0.7,0.6-1.3,1.3-1.9,1.9
	c-0.7,0.8-1.5,1.6-2.4,2.3c-1.2-0.6-2.6-0.6-3.6-1.6l0.1-0.7c0-0.4,0.1-0.9,0.1-1.3c0-0.3-0.2-0.5-0.4-0.6c0,0,0,0,0,0
	c-0.3,0-0.5,0.2-0.6,0.5s-0.1,0.6-0.2,0.9c0,0.4-0.1,0.7-0.4,1c-2.3-0.1-4.5-0.8-6.8-0.6c-0.1-0.2-0.2-0.5-0.3-0.7
	c-0.2-0.9-0.4-1.8-0.6-2.7c-0.1-0.3-0.1-0.7-0.2-1c-0.1-1.3-0.4-2.5-0.7-3.7c-0.1-0.3-0.2-0.5-0.7-0.4c-0.2,0.4-0.3,0.9-0.2,1.3
	c0.2,1.3,0.3,2.6,0.5,3.9s0.5,2.5,0.8,3.8l-1,0.1c-0.2,0-0.5,0-0.7,0.1c-0.8,0.3-1.5,0.6-2.3,0.9c-0.7-0.6-1.4-1.2-2.1-1.7
	c-0.7-0.6-1.4-1.3-2-2c-0.8-0.9-1.7-1.7-2.6-2.5c-0.1-0.1-0.3-0.2-0.5-0.3c-0.3-0.1-0.6,0-0.6,0.4c1.1,0.9,2.1,2,3,3.1
	c0.8,1,1.7,1.8,2.7,2.5c0.3,0.2,0.6,0.5,1,0.8c-1,0.8-1.9,1.5-2.8,2.2c-0.3,0.2-0.8,0.3-1.1,0.1c-1.8-0.5-3.5-1.2-5.3-1.6
	c-0.1,0-0.2-0.1-0.3-0.1c-2.2-0.7-4.3-1.4-6.4-2.1c-0.6-0.2-1.2-0.4-1.8-0.7c-1.1-0.5-2.2-0.9-3.3-1.2c-0.6-0.2-1.2-0.3-1.9-0.4
	c-0.2,0-0.5,0.1-1,0.3c0.4,0.3,0.6,0.5,0.7,0.5c1.1,0.2,2.2,0.6,3.3,1.1c1.5,0.5,2.8,1.2,4.3,1.6c1.7,0.5,3.4,1.1,5.1,1.6
	c0.5,0.2,1.1,0.4,1.7,0.5c1.6,0.2,3.1,1.1,4.7,1.4c0.1,0,0.3,0.2,0.4,0.3l-1.4,3c-1.3-0.1-2.6-0.3-3.8-0.3c-1.3-0.1-2.6,0-3.8,0.2
	c0.2,0.3,0.2,0.5,0.3,0.5c0.3,0.1,0.6,0.2,0.9,0.2c1.9,0,3.7-0.1,5.6,0.1l0.8,0.1c0.3,1,1.2,1.6,2.2,1.4c1.1-0.1,2.3-0.1,3.4,0.1
	c0.2,0,0.5,0,0.7,0c0.6,0,1.3,0,1.9-0.1c1.1-0.1,2.2-0.1,3.3-0.1c2.2,0.1,4.4-0.1,6.7-0.1c0.3,0,0.6,0,0.9,0.1
	c1.1,0.7,2.4,0.3,3.6,0.5c1,0,2,0.1,2.9,0.2c0.7,0.2,1.5-0.1,2.2,0.1c0.8,0.3,1.6,0,2-0.8c0,0,0-0.1,0-0.1c1.3,0,2.6-0.1,3.9-0.2
	c2.7,0,5.4-0.1,8.1-0.1c0.2,0,0.4,0,0.6,0c0.5,0,0.7-0.3,0.7-0.6S150.5,32.8,150.3,32.8z M135.3,33.5c-1,0-2,0-3.1-0.1
	c-1.6-0.2-3.2-0.1-4.7-0.8c-0.1,0-0.3,0-0.4,0c-1.2,0-2.3,0-3.5,0c-1.8,0-3.7,0.1-5.5,0.2c-0.9,0-1.8,0-2.7-0.2
	c-0.9-0.1-1.8-0.1-2.7,0c-0.4,0-0.8,0.1-1.2,0.2c-0.8,0-1.6,0-2.6,0c0.2-1,0.7-1.9,1.3-2.6c0.2-0.2,0.4-0.5,0.6-0.8
	c0.6-1,1.5-1.7,2.6-2c1-0.2,1.9-0.5,2.8-1.1c0.1-0.1,0.1-0.1,0.2-0.1c1.2,0.1,2.3-0.6,3.5-0.8c1.7-0.2,3.4-0.1,5,0.4
	c1.7,0.5,3.4,1,5.1,1.5c0.6,0.1,1.1,0.4,1.4,0.9c0.5,0.5,1.1,0.9,1.6,1.4c0.5,0.5,0.9,1.1,1.2,1.7c0.4,0.7,0.7,1.5,1.1,2.2
	C135.4,33.3,135.4,33.5,135.3,33.5L135.3,33.5z"/>
<path class="st0" d="M96.9,31.4c-0.2,0-0.4,0-0.6,0c-0.8,0-1.5,0-2.2,0l-8.4-0.1c-0.7,0-1.4,0-2.1,0c-2.3,0-4.7-0.1-7,0
	c-1.9,0.1-72.8,0.1-74.7,0.1c-0.4,0-0.9,0-1.3,0.1c-0.3,0-0.6,0.3-0.6,0.6c0,0,0,0.1,0,0.1c0.2,0.1,0.3,0.1,0.5,0.2
	c1.4,0.1,62.8,0.2,64.1,0.2c1.4,0,11.5-0.1,12.8-0.2c1.5,0,3.1,0,4.6,0c1.3,0,2.5,0,3.8,0s2.4,0.1,3.7,0.2c0.5,0,1-0.1,1.4-0.1
	l5.5,0.1c0.2,0,0.3,0,0.5,0c0.2,0,0.4-0.2,0.4-0.5C97.4,31.7,97.2,31.5,96.9,31.4z"/>
<path class="st0" d="M168.7,28.5c0.2,0.2,0.5,0.4,0.8,0.4c0.3,0,0.5-0.1,0.7-0.3c0.2-0.2,0.1-0.5-0.1-0.8s-0.4-0.3-0.5-0.5l-0.6-0.5
	c0.1-0.6,0.7-0.5,0.9-0.7c0.2-0.1,0.3-0.3,0.4-0.5c0-0.3-0.2-0.5-0.5-0.5c-0.2,0-0.3,0-0.5,0c-0.3,0-0.5,0.1-0.8,0.2
	c-0.5,0.2-1.1,0-1.3-0.5c0,0,0-0.1,0-0.1c-0.1-0.2-0.1-0.5-0.3-0.8c-0.2-0.3-0.6-0.5-0.9-0.4c-0.3,0.1-0.5,0.5-0.4,0.8
	c0,0.3,0.1,0.5,0.2,0.9l-0.5,0.1l-1.4,0.3c-0.3,0-0.5,0.3-0.5,0.6c0,0.3,0.3,0.5,0.6,0.6s0.7,0,1.1,0s0.4,0,0.6,0
	c0.3,0.5,0,0.9-0.1,1.3s-0.1,0.7,0.3,0.9c0.3,0.2,0.8,0.1,1-0.2c0.3-0.3,0.6-0.6,1-1.1C168.2,27.9,168.4,28.2,168.7,28.5z"/>
<path class="st0" d="M81,27.6c0.5,0.2,1,0.4,1.5,0.6l-0.4,1.3c0.8,0.6,0.9,0.5,2.2-0.9c0.1,0,0.2,0,0.3,0.1c0.4,0.2,0.7,0.5,1,0.8
	s0.9,0.4,1.2,0s0-0.7-0.2-0.9s-0.7-0.6-0.8-1.2c0.3-0.2,0.6-0.3,0.9-0.5c0.3-0.2,0.4-0.5,0.3-0.8c-0.1-0.3-0.4-0.3-0.7-0.3l-1.5,0.3
	c-0.1-0.7-0.2-1.4-1.2-1.3L83,26.4h-1.8c-0.3,0-0.6,0.2-0.7,0.6C80.5,27.3,80.7,27.6,81,27.6z"/>
<path class="st0" d="M127.2,20.1c0.2,0,0.4-0.1,0.5-0.3c0.1-0.3,0.2-0.5,0.2-0.8c0-0.5,0.1-0.9,0.1-1.4c0.2-1.5,0.4-2.9,0.5-4.4
	c0.2-2.1,0.3-4.2,0.5-6.4c0.1-0.8,0-1.5-0.4-2.2c-0.2,0.4-0.5,0.6-0.5,0.8c-0.3,1.9-0.5,3.8-0.7,5.7c-0.2,2.1-0.4,4.2-0.6,6.4
	c-0.1,0.7-0.1,1.4-0.1,2.1C126.8,19.9,126.9,20.1,127.2,20.1z"/>
<path class="st0" d="M137.6,27c0.5,0,1,0,1.6-0.1c0.1,0.4,0.3,0.8,0.4,1.2c0.1,0.2,0.3,0.3,0.6,0.3c0.2,0,0.4-0.2,0.5-0.4
	c0.2-0.5,0.2-1,0.7-1.4c0.3,0,0.6-0.1,0.9-0.2c0.5-0.1,0.6-0.5,0.2-0.9c-0.2-0.2-0.4-0.4-0.7-0.5c-0.3-0.1-0.6-0.2-0.9-0.3
	c0-0.2,0.1-0.3,0.1-0.5c0.2-0.2,0.1-0.5-0.1-0.7c0,0,0,0,0,0c-0.3-0.2-0.6-0.1-0.9,0.1c-0.2,0.2-0.4,0.5-0.5,0.7
	c-0.5-0.2-0.9-0.4-1.3-0.5c-0.3-0.1-0.7,0-0.8,0.3c-0.2,0.3-0.1,0.5,0.1,0.8s0.4,0.5,0.6,0.8c-0.3,0.1-0.4,0.1-0.6,0.2
	c-0.3,0-0.5,0.2-0.5,0.5c0,0,0,0,0,0.1C137,26.8,137.3,27,137.6,27C137.6,27,137.6,27,137.6,27z"/>
<path class="st0" d="M157.6,22.7c0.6-0.3,1.2-0.6,1.9-1c0.6-0.3,1.2-0.7,1.7-1.1c0.2-0.2,0.3-0.4,0.3-0.7c0-0.2-0.3-0.3-0.5-0.6
	c-0.3,0.3-0.6,0.6-1,0.8c-1.2,0.5-2.3,1.1-3.3,1.9c-0.1,0.1-0.2,0.1-0.3,0.1c-1.6,0.5-3.1,1.2-4.5,2.1c-0.1,0.1-0.3,0.1-0.4,0.1
	c-0.9,0.4-1.8,0.7-2.6,1.1c-0.4,0.1-0.6,0.5-0.6,0.9c0.3,0,0.6,0.2,0.8,0.1c1.3-0.5,2.7-1,4-1.5c1.1-0.5,2.2-1,3.4-1.5
	C156.7,23.2,157.1,22.9,157.6,22.7z"/>
<path class="st0" d="M120.3,2.6c0.3,0.2,0.7,0.3,1,0.5c-0.3,0.3-0.6,0.6-0.8,1c-0.2,0.3-0.2,0.6,0.1,0.9c0.2,0.2,0.6,0.2,0.7-0.1
	c0,0,0,0,0,0l1.1-0.9c0.2-0.2,0.5-0.4,0.8-0.2c0.2,0.3,0.4,0.7,0.7,1c0.1,0.3,0.4,0.4,0.7,0.2c0,0,0,0,0,0c0.3-0.1,0.4-0.4,0.3-0.7
	c-0.1-0.4-0.2-0.8-0.4-1.3c0.3-0.1,0.5-0.2,0.8-0.4c0.2-0.2,0.2-0.4,0.2-0.6c-0.1-0.2-0.3-0.3-0.5-0.4c-0.3,0-0.6,0-0.9,0
	c-0.4-0.6-0.5-1.4-1.3-1.5c-0.8,0.3-0.4,1.2-0.9,1.6c-0.4,0-0.9,0-1.3,0.1c-0.2,0.1-0.3,0.2-0.4,0.4C120,2.3,120.1,2.5,120.3,2.6z"
	/>
<path class="st0" d="M139,19.1c0.1,0,0.1-0.2,0.2-0.2l3.5-3.6c0.6-0.7,1.2-1.3,1.9-1.8c0.5-0.5,1-1,1.3-1.7c0.2-0.3,0-0.5-0.4-0.8
	c-0.2,0.1-0.4,0.3-0.6,0.4c-1.2,1.2-2.5,2.4-3.7,3.7c-0.9,0.9-1.7,1.7-2.5,2.6c-0.2,0.2-0.4,0.4-0.5,0.7c0,0.2,0,0.5,0.2,0.6
	C138.5,19.1,138.8,19.1,139,19.1z"/>
<path class="st0" d="M238.6,32.7c-0.5,0-62,0-62.5,0c-2.2,0.1-4.3,0.3-6.5,0.4c-0.8,0-1.6,0.1-2.5,0.2l-0.1,0.3
	c0.2,0.1,0.3,0.4,0.5,0.4c1.2,0.1,2.5,0.1,3.8,0.1c0.3,0,0.7-0.2,1-0.2c1.6,0,64.1,0,65.7,0c0.4,0,0.7-0.1,1.1-0.1
	c0.1-0.1,0.2-0.2,0.3-0.3c0-0.2-0.1-0.4-0.2-0.5C238.9,32.8,238.7,32.7,238.6,32.7z"/>
<path class="st0" d="M115.9,11.8c0,0.3,0.1,0.6,0.1,0.8c0.1,0.3,0.3,0.5,0.6,0.4c0.3,0,0.5-0.3,0.5-0.6c0,0,0,0,0,0
	c0-0.6-0.1-1.3-0.2-1.9c-0.2-1.3-0.5-2.6-0.8-3.9c-0.1-0.4-0.2-0.8-0.8-0.8c-0.1,0.6-0.1,1.2,0,1.7C115.5,9,115.7,10.4,115.9,11.8z"
	/>
<path class="st0" d="M162.6,33.5c-0.2-0.1-0.5-0.1-0.7-0.1c-1.1,0-2.2,0-3.3-0.1c-0.9,0-1.9,0-2.8,0.2c-0.1,0-0.2,0.2-0.4,0.3
	c0.3,0.4,0.8,0.6,1.2,0.5c1.3-0.1,2.6-0.1,3.9,0c0.7,0,1.3,0,2,0c0.2,0,0.3-0.2,0.4-0.4C162.9,33.8,162.8,33.6,162.6,33.5z"/>
<path class="st0" d="M102.1,15c0.7,0.6,1.3,1.2,2,1.8c0.2,0.2,0.5,0.2,0.8,0.2c0.2,0,0.4-0.3,0.7-0.5c-0.9-0.6-1.7-1.2-2.5-1.8
	s-1.2-1.6-2.3-1.9c-0.1,0.8-0.1,0.8,0.1,1S101.7,14.6,102.1,15z"/>
</svg>
