<svg id="Layer_1" data-name="Layer 1" xmlns="http://www.w3.org/2000/svg" viewBox="0 0 185 138"><defs><style>.cls-1{fill:#a6cf58;}.cls-2{fill:#a7d059;}</style></defs><title>Artboard 2</title><path class="cls-1" d="M96.73,103.16a12.09,12.09,0,0,0,1.32.92c1,.52,2,1,3,1.48a4.13,4.13,0,0,0,2.29.46,1.72,1.72,0,0,1,.32,0,.85.85,0,0,1,.79.84.65.65,0,0,1-.45.73,2.54,2.54,0,0,1-.45.13,5.54,5.54,0,0,1-2.93-.37c-.73-.29-1.44-.64-2.15-1s-1.66-.89-2.5-1.33a8.33,8.33,0,0,1-1.31-.88,10,10,0,0,0-2.11-1.38,4.83,4.83,0,0,1-.91-.61,3.34,3.34,0,0,0-1.76-.62,15.23,15.23,0,0,1-5.14-1.43,3.18,3.18,0,0,0-.57-.25,15.15,15.15,0,0,1-4.24-2.06.46.46,0,0,0-.29-.11.35.35,0,0,0-.25.12.93.93,0,0,0-.2.75,4.94,4.94,0,0,0,1.08,2.58,1.17,1.17,0,0,1,.17.26A4.43,4.43,0,0,0,82.09,103c.36.22.7.47,1,.71a6.16,6.16,0,0,0,2.74,1.15,3.28,3.28,0,0,1,.77.15,5.14,5.14,0,0,0,2.33.29,1.19,1.19,0,0,1,.32,0,.71.71,0,0,1,.61.43,8.77,8.77,0,0,0,1.22,2.2c.56.82,1,1.7,1.54,2.56a4.49,4.49,0,0,0,1.44,1.65,4.87,4.87,0,0,1,1.23,1.21,9.91,9.91,0,0,0,3.9,3.12c1.46.62,2.77,1.52,4.18,2.22a6,6,0,0,1,1.9,1.64,25.7,25.7,0,0,1,2.17,3.1,9.19,9.19,0,0,0,1.28,2,1.83,1.83,0,0,1,.28.73.58.58,0,0,1-.22.55,3,3,0,0,1-.89.31,1.57,1.57,0,0,1-1.24-.59,2.06,2.06,0,0,1-.21-.42,24.68,24.68,0,0,0-2.16-3.49c-.37-.5-.78-1-1.18-1.47a4.57,4.57,0,0,0-1.36-1.07c-1-.52-1.92-1.09-2.88-1.63-.43-.24-.7-.18-.89.26a1.12,1.12,0,0,1-.77.71c-.71.18-1.39.44-2.1.64a1.19,1.19,0,0,0-.77.73,2.15,2.15,0,0,0-.17,1.39,1.6,1.6,0,0,1-.35,1.32.81.81,0,0,1-.64.41,10.66,10.66,0,0,0-3.07.66,6.58,6.58,0,0,1-2,.26c-.84,0-1.68,0-2.53,0s-1.47,0-2.2,0a3.47,3.47,0,0,1-2.52-1.15c-.21-.23-.41-.48-.65-.74a2.81,2.81,0,0,1-.06-.59c.07-1.09-.26-1.26-1.29-1.33a15.68,15.68,0,0,0-2.37.11,1.71,1.71,0,0,1-1.44-.48c-.47-.45-.48-.68-.14-1.21,1-1.59,2.3-3,3.45-4.51a6,6,0,0,0,1.23-2.18c.14-.56.4-1.08.59-1.63a.51.51,0,0,0-.32-.63l-.3-.1a10.45,10.45,0,0,1-3.41-1.6,1.13,1.13,0,0,0-1.33,0c-.13.09-.28.14-.41.22l-.26.19a6.85,6.85,0,0,1-2.87,1.22,29.51,29.51,0,0,1-4.39.5,5.19,5.19,0,0,0-2,.52,55,55,0,0,0-7.33,4.32c-.39.27-.77.55-1.15.83a6,6,0,0,1-.76.57,14.91,14.91,0,0,0-2.89,2.18,1.12,1.12,0,0,1-1.65-.21,6,6,0,0,1-.3-.56.78.78,0,0,1,.24-1c.56-.47,1.14-.93,1.73-1.37.8-.6,1.63-1.15,2.42-1.76,1.34-1,2.8-1.88,4.22-2.77.76-.48,1.52-1,2.28-1.42s1.64-.68,2.39-1.18a1.27,1.27,0,0,1,.59-.21,14.77,14.77,0,0,1,1.88-.18,13.37,13.37,0,0,0,4.34-.74,8.76,8.76,0,0,0,1.31-.53c1.7-1,1.68-.66.68-2.4-.29-.5-.57-1-.87-1.5-.18-.3,0-.83-.51-.89s-.62.34-.91.55c-.56.4-1.08.84-1.62,1.26l-.24.2a1.51,1.51,0,0,1-2,0,2.61,2.61,0,0,1-.32-.34.36.36,0,0,1,0-.43,3.43,3.43,0,0,1,.33-.33l.92-.62a12.48,12.48,0,0,0,1.66-1.19,13.22,13.22,0,0,0,1.08-1.54c.67-.88,1.37-1.73,2-2.65a15.11,15.11,0,0,0,2.23-5,23.93,23.93,0,0,0,.69-3.55,11.65,11.65,0,0,0-.1-2.83c-.17-1.15-.27-2.3-.41-3.45a1.55,1.55,0,0,1,.23-1,18.83,18.83,0,0,0,1.83-5.84,5.07,5.07,0,0,0,.05-1.1c0-.21-.07-.42-.06-.63a6.73,6.73,0,0,0-1.17-4A3.22,3.22,0,0,0,75,69s-.1-.07-.13-.06-.22.1-.22.16a23.19,23.19,0,0,0,0,2.36,11.06,11.06,0,0,1-.56,3.88A2.48,2.48,0,0,1,73,76.82a3.14,3.14,0,0,0-1.13,1.46,8.2,8.2,0,0,0-.72,3,18.16,18.16,0,0,1-.41,3.28,1.83,1.83,0,0,0,0,.47,10,10,0,0,1-.76,3.37,7,7,0,0,1-.43,1,5.62,5.62,0,0,0-.67,1.76.92.92,0,0,1-1.1.63,3.29,3.29,0,0,1-.81-.47.53.53,0,0,1-.18-.57,5.31,5.31,0,0,1,.7-1.75,8.9,8.9,0,0,0,1.36-4.31,4,4,0,0,1,.07-.78,20,20,0,0,0,.35-3.61,10.79,10.79,0,0,1,.14-1.26,1.11,1.11,0,0,1,.25-.55,2.74,2.74,0,0,0,.67-1.24,2.86,2.86,0,0,1,1.23-1.77,1.65,1.65,0,0,0,.63-.89c.17-.6.28-1.22.41-1.84,0-.11-.22-.3-.33-.25a14.29,14.29,0,0,0-4,1.87,5.74,5.74,0,0,1-1,.58c-.28.14-.58.23-.88.35a3.9,3.9,0,0,0-.34.72c-.35,1.53-1.14,2.94-1.33,4.52a1.07,1.07,0,0,1-.12.45,12,12,0,0,0-.9,2.52,20.79,20.79,0,0,1-1.31,3.21c-.15.27-.34.52-.52.79A17.92,17.92,0,0,0,60.45,90a5.75,5.75,0,0,1-.7,1.23c-1.46,1.86-2.82,3.81-4.45,5.53a45.68,45.68,0,0,1-3.59,3.77,26.4,26.4,0,0,1-3.88,2.7,6.9,6.9,0,0,0-1.72,1.1,2.34,2.34,0,0,1-.51.36,1.16,1.16,0,0,1-1.3-.22,6,6,0,0,1-.39-.49.55.55,0,0,1,.14-.71c.25-.18.51-.37.77-.54.66-.43,1.33-.86,2-1.27s1.39-.94,2.07-1.44a33.68,33.68,0,0,0,2.88-2.46c.62-.57,1.11-1.26,1.72-1.83a9.65,9.65,0,0,0,1.62-1.93,3.74,3.74,0,0,1,.48-.63,31.16,31.16,0,0,0,2.46-3.28,12.42,12.42,0,0,0,1.29-2.17,19.24,19.24,0,0,1,1.13-1.89,6,6,0,0,0,.55-.95c.45-1.24.87-2.48,1.3-3.73a4.58,4.58,0,0,0,.11-.56,1.54,1.54,0,0,0-.61-.56,1,1,0,0,1-.5-1.06,6.32,6.32,0,0,0-.11-1.89c-.11-.87-.31-1-1.12-.73a3.16,3.16,0,0,1-1.39.2,6.62,6.62,0,0,0-1.72.18l-2.48.49A4.48,4.48,0,0,1,52,77a1.5,1.5,0,0,1-1-1.34c0-.26,0-.52,0-.78A18.66,18.66,0,0,0,51,72.48a43.51,43.51,0,0,1-.28-4.41c0-.79-.09-1.58-.13-2.36-.09-1.42-.34-2.83-.3-4.25,0-.11,0-.21,0-.32-.18-1.41-.15-2.83-.21-4.25,0-1-.21-2-.3-3a10.18,10.18,0,0,1-.07-1.74,31.78,31.78,0,0,0,0-3.78,12.55,12.55,0,0,1,0-2.21q0-.32,0-.63c0-1.58,0-3.15,0-4.73a2.92,2.92,0,0,0-.1-.94,2.44,2.44,0,0,1,.11-1.39.51.51,0,0,1,.47-.36,1.37,1.37,0,0,1,1.3.39,2.28,2.28,0,0,0,.34.29,3.39,3.39,0,0,0,1.62-.6,9.15,9.15,0,0,1,1-.55,2,2,0,0,0,1.11-1.61,7.48,7.48,0,0,0,0-.95c0-.16,0-.31,0-.47a1.18,1.18,0,0,1,1-1.06c.42,0,.84-.06,1.25-.12a1.76,1.76,0,0,0,1.08-.61A4.53,4.53,0,0,0,59.8,31a.45.45,0,0,0-.25-.36,2,2,0,0,0-.31-.07l-3.62-.1a3.85,3.85,0,0,1-.48,0c-1.94-.24-3.89,0-5.83,0a23.44,23.44,0,0,1-3.93,0,40.11,40.11,0,0,0-5.37.07,1.46,1.46,0,0,1-.91-.2,1.19,1.19,0,0,1-.69-1.43.58.58,0,0,1,.54-.48c.21,0,.42,0,.63,0a35.55,35.55,0,0,0,4.73,0,5.19,5.19,0,0,1,1.42.06,4.73,4.73,0,0,0,1.72,0A10.36,10.36,0,0,1,49,28.38c1.16,0,2.32,0,3.48-.06.94-.06,1.88.07,2.83,0,1.21-.06,2.42,0,3.64,0a2.87,2.87,0,0,1,1.38.24c.86-.22,1.38.3,1.91.84.11.11.2.23.33.38A13.51,13.51,0,0,0,62,32.19a1.51,1.51,0,0,1-.35.69,3.9,3.9,0,0,0-.83,1.31,1,1,0,0,1-.54.56,1.72,1.72,0,0,0-.55.3,2.27,2.27,0,0,1-1.74.58s-.08.06-.19.14a13.19,13.19,0,0,0-.3,1.3A5,5,0,0,1,57,38.4a2.27,2.27,0,0,1-1.34,1.25c-.89.33-1.67.89-2.56,1.21-.39.14-.77.32-1.21.49a3.8,3.8,0,0,0-.15.58A10.32,10.32,0,0,0,51.69,43c0,1.21,0,2.42,0,3.63s0,2.21.07,3.31a18,18,0,0,1,0,2.84,10.65,10.65,0,0,0,.11,2.52c.06.68.16,1.36.24,2a3.38,3.38,0,0,1,.07.63c0,1.43.11,2.84.22,4.26s.27,2.93.41,4.39a11.49,11.49,0,0,1,.12,1.42,30.13,30.13,0,0,0,.31,4.24c.05.47.05,1,.1,1.42a4.13,4.13,0,0,0,.13.61.68.68,0,0,0,.6.45c.31,0,.62-.07.93-.13a15,15,0,0,1,3.12-.41A4.66,4.66,0,0,0,59.5,74a3.91,3.91,0,0,1,2.17-.18,2.1,2.1,0,0,0,.79,0,2.6,2.6,0,0,1,1.52.28.47.47,0,0,0,.66-.23c.18-.53.48-.8,1-.7a1.07,1.07,0,0,0,.76-.14c.72-.44,1.45-.85,2.16-1.3a4.08,4.08,0,0,0,.6-.5.24.24,0,0,0,0-.39,1.24,1.24,0,0,1-.48-1.1c0-1.47,0-2.94,0-4.41a38.5,38.5,0,0,1,0-5.37,13.45,13.45,0,0,0,0-1.42,15,15,0,0,1,0-2.68,4.07,4.07,0,0,0,0-.78,16.11,16.11,0,0,1-.06-3.47,11.48,11.48,0,0,0-.09-2.68,11,11,0,0,1-.07-1.41c0-1.32,0-2.63-.13-4-.06-.72,0-1.47,0-2.2a8.28,8.28,0,0,0,0-1.41c-.07-.35.3-.67.69-.72L70.66,39A2.81,2.81,0,0,0,71,39a.44.44,0,0,0,.33-.47,4.44,4.44,0,0,1,0-1.41,13.23,13.23,0,0,0-.18-3.14.54.54,0,0,0-.43-.4,1.94,1.94,0,0,0-1.09.1,2.64,2.64,0,0,1-1.55,0,1.53,1.53,0,0,1-.56-.27.6.6,0,0,1-.29-.53c0-.68,0-1.36.06-2l-.45-.69c-.51-.78-.5-.82.16-1.45a5,5,0,0,1,1.15-.83,42.37,42.37,0,0,0,5-3.29,23.91,23.91,0,0,1,2.27-1.41A28.51,28.51,0,0,0,78.84,21c1-.75,2.07-1.45,3.1-2.17.26-.18.5-.39.75-.58a18.69,18.69,0,0,1,1.56-1.07c1.09-.63,2.23-1.17,3.31-1.82.72-.43,1.39-1,2.14-1.33.38-.18.72-.43,1.09-.62a6.54,6.54,0,0,0,1.66-1.19,7.32,7.32,0,0,1,1.13-.86,1,1,0,0,1,1,0,3.42,3.42,0,0,1,.4.26c1,.77,2,1.5,3.07,2.21s2.3,1.68,3.45,2.51c.72.52,1.52.94,2.2,1.54a3.78,3.78,0,0,0,.69.37,21.33,21.33,0,0,1,3.37,2,36.62,36.62,0,0,0,3.27,1.9,2.7,2.7,0,0,1,.67.4c1,.79,2.15,1.33,3.07,2.2,1.19.57,2.07,1.62,3.28,2.15a1.06,1.06,0,0,1,.63.86,2.91,2.91,0,0,1,.06,1.55,19,19,0,0,0,.28,2.81,1,1,0,0,1-.06.91,1.38,1.38,0,0,1-1.19.68c-.85-.06-1.68.14-2.52.13-.49,0-.6.14-.65.68a10.78,10.78,0,0,0,.16,3.92.53.53,0,0,1,0,.3c-.1.22.06.29.19.33l1.23.3a1.1,1.1,0,0,1,.87,1.15c0,1,0,2-.08,3a39.9,39.9,0,0,0,0,4.89c.12,1.72.14,3.47.11,5.2,0,1.15-.07,2.31,0,3.46s0,2.22,0,3.32c0,.58.09,1.15.15,1.73a16.84,16.84,0,0,1,.13,3.62,25.13,25.13,0,0,0,.13,5.2c0,.31.07.62.11.94a1.52,1.52,0,0,1-.44,1.43,5,5,0,0,0-.49.81,1,1,0,0,1-.79.46,7.37,7.37,0,0,1-.94,0c-.26,0-.52-.06-.78-.07a.93.93,0,0,0-1,.95,13.8,13.8,0,0,0,.28,3.14c.08.41.17.82.22,1.24a2.27,2.27,0,0,1,0,.78,3.31,3.31,0,0,0,0,1.71.62.62,0,0,1-.27.53,3.36,3.36,0,0,1-.43.2,3,3,0,0,0-.75.24,3.73,3.73,0,0,1-2.58.43,11.72,11.72,0,0,0-2.51-.14,1.47,1.47,0,0,1-.47,0,28.18,28.18,0,0,0-3.78-.3A22.22,22.22,0,0,1,99.41,83c-.06,0-.15.1-.2.17a.14.14,0,0,0,0,.15c.36.38.7.78,1.09,1.12.6.52,1.24,1,1.86,1.47a11.77,11.77,0,0,0,2.75,1.83,1.53,1.53,0,0,1,1,1.17,5.93,5.93,0,0,0,.93,2.16,6.35,6.35,0,0,1,.73,1.39,31.68,31.68,0,0,0,1.54,3.29,23.21,23.21,0,0,1,.93,2.17,24.94,24.94,0,0,0,2.36,5,6.89,6.89,0,0,1,.53,1,44.76,44.76,0,0,0,2.18,4c.83,1.4,1.62,2.83,2.44,4.23.29.5.65,1,1,1.45a18.77,18.77,0,0,1,1.22,1.83,5.15,5.15,0,0,0,.64.91,9.87,9.87,0,0,1,1.54,2.18,2.71,2.71,0,0,0,.6.72c.3.3.62.57.91.88a.89.89,0,0,1,.13,1,.63.63,0,0,1-.46.39,1.87,1.87,0,0,1-1.75-.48,7.15,7.15,0,0,1-1.38-1.72c-.37-.64-.8-1.23-1.23-1.83a70.76,70.76,0,0,1-4.63-7.34c-.6-1.11-1.25-2.2-1.86-3.3-1-1.85-1.92-3.74-2.94-5.58-.46-.83-.78-1.73-1.17-2.59-.86-1.92-1.71-3.84-2.59-5.75-.28-.62-.64-1.21-1-1.81a7.55,7.55,0,0,1-.52-1,2.94,2.94,0,0,0-1-1.35c-1-.77-2-1.57-3-2.36S98,84.64,97,83.7c0,0-.13-.06-.15,0a.51.51,0,0,0-.14.23.66.66,0,0,0,0,.31c.17.55.36,1.1.52,1.65.21.71.43,1.41.6,2.13.32,1.28.59,2.56.91,3.84a13.86,13.86,0,0,1,.36,4.54c0,.26,0,.52,0,.79a7.1,7.1,0,0,1-.56,2.6c-.28.68-.51,1.37-.73,2.08A2.31,2.31,0,0,1,96.73,103.16ZM80.12,52.63c-.24-.22-.47-.44-.71-.64s-.51-.36-.76-.56A3.05,3.05,0,0,1,78.2,51a4.77,4.77,0,0,1-1.26-2.32c0-.15-.13-.29-.17-.44a.48.48,0,0,1,0-.3c.23-.67,0-1.52.82-2a7.12,7.12,0,0,0,.82-1.33A3.81,3.81,0,0,0,78.6,42,9.55,9.55,0,0,0,77.92,40a.66.66,0,0,1,0-.15.77.77,0,0,1,.89-1c.26.06.52.11.77.19.65.21,1.3.43,1.94.66a3.84,3.84,0,0,0,1.87.19,17.72,17.72,0,0,1,3.92-.06,2.79,2.79,0,0,0,1.54-.18.66.66,0,0,1,.79.35,3.9,3.9,0,0,1,.31,2.59,8.86,8.86,0,0,0-.21,1.87.27.27,0,0,1-.1.11c-.07,0-.17-.09-.18-.15,0-.68,0-1.37,0-2A11.15,11.15,0,0,0,89.15,41a.53.53,0,0,0-.42-.42l-.15,0a38.18,38.18,0,0,0-4.41-.08.55.55,0,0,0-.3.11c-.07.06-.15.19-.13.25.17.38.37.75.55,1.13a3.32,3.32,0,0,1,.41,1.18,4.9,4.9,0,0,1-.4,2.62,8.92,8.92,0,0,1-.85,1.69,1,1,0,0,0-.11,1,8.09,8.09,0,0,1,.42,3.42,10.59,10.59,0,0,0,0,1.26,12.83,12.83,0,0,1-.21,3.45c-.23,1.14-.24,2.3-.45,3.43a1.46,1.46,0,0,0,.29,1.2c.44.52.76,1.12,1.25,1.62a50.51,50.51,0,0,1,3.77,4.24c.1.12.21.24.32.35a.78.78,0,0,0,.88.1.42.42,0,0,0,.18-.55,2.51,2.51,0,0,1,0-1.09,4,4,0,0,0,0-1.09A8.45,8.45,0,0,1,89.77,63a8.56,8.56,0,0,0-.11-2.2,1.43,1.43,0,0,1,0-.46,13.18,13.18,0,0,0,0-3.14,12.46,12.46,0,0,1,0-1.73c0-.2.14-.41.13-.61,0-.79-.1-1.57-.15-2.36l-.18-2.67c0-.27,0-.53,0-.79a19.15,19.15,0,0,1-.06-3.3c0-.05,0-.09.06-.14s.21.06.25.12a2.4,2.4,0,0,1,.16,1.54,1.82,1.82,0,0,0,0,.77,16.55,16.55,0,0,1,.3,3c.05.94.19,1.88.19,2.83a36.77,36.77,0,0,0,.25,5,13.88,13.88,0,0,1-.08,1.57,14.48,14.48,0,0,1,.16,1.72,12.31,12.31,0,0,0,.06,2.19,7,7,0,0,1,0,.79c0,.74,0,1.47.08,2.21a.54.54,0,0,0,.34.49c.48.21,1,.38,1.46.59a7.86,7.86,0,0,0,2.25.7,3.7,3.7,0,0,1,.87.33c.14,0,.34-.09.32-.23A30.49,30.49,0,0,1,95.93,66c0-.53-.05-1-.07-1.58,0-.84,0-1.68,0-2.52,0-.68.08-1.37.1-2,0-2.21,0-4.42.1-6.63s-.08-4.42,0-6.63c0-1.69,0-3.37.07-5.06,0-.21,0-.42,0-.63,0-.55.26-.79.77-.75,2.26.16,4.53.15,6.79.17a8.06,8.06,0,0,0,2.8-.37,2.1,2.1,0,0,1,1.24.05.78.78,0,0,1,.56.51,2.49,2.49,0,0,1,.18.75c0,.58-.06,1.16-.08,1.74,0,1.1,0,2.21,0,3.31,0,1.69-.07,3.37,0,5.06a39.23,39.23,0,0,1,0,5.2c-.14,1.79-.12,3.58-.12,5.37,0,1.16,0,2.32,0,3.48a35.07,35.07,0,0,0,.07,4.1,1.49,1.49,0,0,1,0,.47,3.73,3.73,0,0,0,0,1.56.65.65,0,0,1-.87.77c-.15,0-.3-.11-.45-.14a23.2,23.2,0,0,0-2.31-.5,25.44,25.44,0,0,0-6-.21,3.12,3.12,0,0,1-2.37-.62,1.68,1.68,0,0,0-.36-.1,4,4,0,0,0-1.11,1.71,7.9,7.9,0,0,0,.53.91,8.24,8.24,0,0,1,1.39,3.31,7.41,7.41,0,0,1,.19,3,1.61,1.61,0,0,0,0,.31.73.73,0,0,0,.68.74c1.16.1,2.31.17,3.46.29a22.87,22.87,0,0,0,3.31.16,6.23,6.23,0,0,1,2.49.33,2,2,0,0,0,.77.13,11.28,11.28,0,0,1,2.66.13.86.86,0,0,0,.16,0,.81.81,0,0,0,.75-.69,8.88,8.88,0,0,0,0-2.36c-.15-1.09-.27-2.19-.35-3.29-.06-.73,0-1.47,0-2.21a.72.72,0,0,1,.64-.61,1.58,1.58,0,0,1,.76.11,3.74,3.74,0,0,0,2.16.28,1.39,1.39,0,0,0,.44-.16.52.52,0,0,0,.38-.45,18,18,0,0,0-.06-2.84,10.72,10.72,0,0,1,0-2.83,15.58,15.58,0,0,0,0-4.26c0-.31-.06-.62-.08-.94-.18-2.21-.1-4.42-.07-6.63,0-1.16,0-2.31,0-3.47s-.14-2.21-.16-3.31c0-1.74,0-3.48,0-5.21a3.67,3.67,0,0,0-.12-1.4.32.32,0,0,0-.15-.06,5.68,5.68,0,0,1-2.36-.81.45.45,0,0,1-.28-.51,2.41,2.41,0,0,0,0-1.25c-.09-.51-.16-1-.24-1.56a1,1,0,0,1,.18-.75,1.35,1.35,0,0,0,.24-1,14.9,14.9,0,0,1,0-1.89,1.07,1.07,0,0,1,.72-.95,4.17,4.17,0,0,1,2-.39,5.9,5.9,0,0,0,.94,0,.94.94,0,0,0,.92-1.06,11.58,11.58,0,0,1-.16-2.2,1.14,1.14,0,0,0-.46-1,31.36,31.36,0,0,0-2.5-1.93c-1.91-1.2-3.72-2.57-5.73-3.63-.09-.05-.17-.12-.26-.18q-2-1.24-4-2.48a50.71,50.71,0,0,1-4.89-3.2c-1-.77-2.06-1.46-3.1-2.18-.25-.17-.54-.3-.81-.45-1,.5-2,1-3,1.56-1.57,1-3.17,1.89-4.75,2.83a6.78,6.78,0,0,1-.86.41,6.82,6.82,0,0,0-1.88,1.13,59,59,0,0,1-6.69,4.47c-.73.41-1.44.86-2.15,1.32-1.59,1-3.16,2.08-4.74,3.12l-.61.39c-.13.42-.26.76-.35,1.11s-.13.62-.17.93c-.06.48.14.71.59.7.63,0,1.26,0,1.89,0a5.2,5.2,0,0,1,.78.1.51.51,0,0,1,.39.44s0,.1,0,.15c0,1.21,0,2.42.07,3.63a4.43,4.43,0,0,0,.15,1.4,1.46,1.46,0,0,1,.07.77,7.72,7.72,0,0,0-.07,1.73.5.5,0,0,1-.34.48,1.81,1.81,0,0,1-.6.18c-.26,0-.52,0-.79,0-.5,0-.72.17-.92.68a4.55,4.55,0,0,0-.3,1.86c.13,2.26-.11,4.52.1,6.78a6.8,6.8,0,0,1,0,.78c0,1.53-.11,3-.11,4.58,0,1.84,0,3.68.07,5.53a7.45,7.45,0,0,0,.12,1.25,7.89,7.89,0,0,1,0,2.52,7.4,7.4,0,0,0-.06,1.41c0,.37,0,.74,0,1.11,0,.57,0,1.15.11,1.73A4.33,4.33,0,0,0,71,70.42a1.93,1.93,0,0,0,.57-.21c.3-.23.74-.17,1-.49s0-.82,0-1.23c0-.11,0-.21,0-.32,0-.32.1-.65.43-.78a1.11,1.11,0,0,0,.63-.66c.07-.17.28-.28.4-.38a3.62,3.62,0,0,1,2.4,1.19,1,1,0,0,0,.13.09.52.52,0,0,0,.71,0,4.09,4.09,0,0,0,.92-1.27q.41-.86.75-1.74c.35-.93.65-1.89,1-2.8a5.2,5.2,0,0,0,.42-1.67.93.93,0,0,1,.26-.72,1.93,1.93,0,0,0,.57-1.58A11.59,11.59,0,0,0,80.12,52.63Zm8.71,55.63a3.93,3.93,0,0,0-.75-1.28l-2-.53c-.31-.08-.61-.19-.92-.25a10,10,0,0,1-5.77-3.58c-.11-.12-.19-.25-.3-.37a4.63,4.63,0,0,1-1.32-2.8,1.14,1.14,0,0,0-.09-.3,3.3,3.3,0,0,1,.18-2.61A.87.87,0,0,1,79,96c.34.15.66.33,1,.45a7.44,7.44,0,0,1,2.56,1.17.94.94,0,0,0,.28.15l4.58,1.69a1.67,1.67,0,0,0,.31,0,.4.4,0,0,0,.43-.36C88,98.44,88,97.71,87.86,97c0-.41-.16-.82-.19-1.24s-.48-.68-.61-1.08a3.39,3.39,0,0,1-.19-.76,5.58,5.58,0,0,1,.06-1.73,1,1,0,0,1,.68-.81,4.71,4.71,0,0,1,.76-.2.82.82,0,0,1,1,.75,12.37,12.37,0,0,0,.18,1.73c.15.67.24,1.34.35,2,.19,1.09.36,2.18.56,3.26a3.6,3.6,0,0,0,.35.87.6.6,0,0,0,.84,0,2.47,2.47,0,0,0,.29-.72c.11-.57.16-1.15.24-1.72a5,5,0,0,1,.13-.77,1.52,1.52,0,0,1,2.15-.94c.27.13.48.58.32.8a3,3,0,0,0-.58,1.77,1.91,1.91,0,0,1-.13.61,20.19,20.19,0,0,0-.42,2.3,5.87,5.87,0,0,0,1.14.89.39.39,0,0,0,.42-.11c.3-.67.55-1.36.9-2a6.29,6.29,0,0,0,.78-3c0-.58,0-1.16.05-1.74a9.15,9.15,0,0,0-.24-2.5c-.37-1.59-.66-3.2-1.09-4.77s-1-3.32-1.52-5-1.46-3.14-2-4.81a2.26,2.26,0,0,0-.28-.56,9.27,9.27,0,0,1-.7-1.58c-.39-1-.67-2-1.14-2.94A41,41,0,0,0,86.11,67a7.08,7.08,0,0,0-.52-.59l-1.38-1.51c-.32-.36-.62-.72-.95-1.06a6.05,6.05,0,0,0-.6-.52c-.41-.34-.63-.29-.82.17-.45,1.07-.9,2.13-1.31,3.22a3.74,3.74,0,0,1-.8,1.34c-.26.26-.48.56-.71.84l-.79,1c.24.68.48,1.32.71,2a3.82,3.82,0,0,1,.26.9,16.22,16.22,0,0,1-.11,3.94,22.26,22.26,0,0,1-1.37,4.68,5.12,5.12,0,0,0-.43,2,9.76,9.76,0,0,0,.17,2.35,11.29,11.29,0,0,1,.19,3.93A16.35,16.35,0,0,1,77,92.58a9,9,0,0,0-.76,2.55,1.73,1.73,0,0,1-.3.72c-.35.59-.71,1.17-1.08,1.75a15.88,15.88,0,0,0-1.23,2c0,.46,0,.94.1,1.41a5.79,5.79,0,0,0,.76,2.38c.43.66.82,1.34,1.23,2A6.29,6.29,0,0,0,78,107.61a11.12,11.12,0,0,0,1.71.81,28.85,28.85,0,0,0,4.77,1.07,5.43,5.43,0,0,0,4.29-1.08S88.8,108.32,88.83,108.26Zm8.32-37.85c.7.08,1.38.2,2.06.22a32.71,32.71,0,0,1,4.08.22,2.22,2.22,0,0,0,.63,0,6.15,6.15,0,0,1,2.17.33,6.63,6.63,0,0,0,.77.18.49.49,0,0,0,.49-.3,2.72,2.72,0,0,0,.1-.46c0-.58.06-1.16.1-1.74.14-2.47,0-4.94,0-7.41.11-4.42.06-8.84.09-13.26,0-1.89,0-3.79.07-5.68a3.77,3.77,0,0,0-.11-1.25.64.64,0,0,0-.54-.49,10.89,10.89,0,0,0-2.21.05c-.62,0-1.25,0-1.88.06-.37,0-.74,0-1.11,0H97.49A1.39,1.39,0,0,0,97,41a.39.39,0,0,0-.21.21,2,2,0,0,0-.08,1.24,6.38,6.38,0,0,1,0,2.18,45.26,45.26,0,0,0-.11,5.21c0,2.57,0,5.15,0,7.73,0,1.52-.07,3.05,0,4.57a43.47,43.47,0,0,0,.16,5.35A8.74,8.74,0,0,0,97,69.8,2.28,2.28,0,0,0,97.15,70.41Zm-.93,46.67a3,3,0,0,0-.92-.84,6.2,6.2,0,0,1-1.42-1.47,9.32,9.32,0,0,0-1.75-1.8s-.12,0-.14,0-.15.15-.14.22a2.69,2.69,0,0,0,.14.61c.12.29.29.56.39.86a1.54,1.54,0,0,1-.21,1.49.56.56,0,0,1-.67.25,1.68,1.68,0,0,1-1.1-1c-.37-1-.74-2.08-1.15-3.11-.15-.38-.11-.88-.47-1.15s-.78.14-1.18.18a12.47,12.47,0,0,1-2.51.23.86.86,0,0,0-.77.22c0,.16-.06.37-.1.57a16.14,16.14,0,0,1-.62,2.92,1.11,1.11,0,0,1-.9.77c-.27.05-.43,0-.42-.28,0-.79,0-1.58,0-2.37a2.63,2.63,0,0,0-.12-.61s-.08-.07-.13-.09-.11,0-.13,0a2.69,2.69,0,0,0-.46.62,3.76,3.76,0,0,1-.77,1.18,21.47,21.47,0,0,0-2.23,3,11.41,11.41,0,0,0-.72,1.39s.09.22.14.22a23.42,23.42,0,0,1,3.11.5,1.7,1.7,0,0,1,.93.54,2.12,2.12,0,0,1,.29.38,1.32,1.32,0,0,0,1,.71c.36.05.51.35.59.66a8,8,0,0,1,.15.87c.1.06.15.1.19.1,1.21,0,2.42,0,3.62,0a3.89,3.89,0,0,0,1.08-.19c.85-.28,1.69-.59,2.53-.89a.86.86,0,0,0,.59-.84c0-.42,0-.85,0-1.26a1.19,1.19,0,0,1,.23-.57,1.86,1.86,0,0,1,1-.76c.46-.13.9-.3,1.34-.46s1-.39,1.46-.59C96.09,117.25,96.14,117.15,96.22,117.08ZM78.5,40a6.43,6.43,0,0,0,.8,2.4,1.87,1.87,0,0,1-.22,2.32c-.29.38-.56.76-.85,1.13a2.44,2.44,0,0,0-.55,1.45,3.7,3.7,0,0,0,1.17,3c.35.32.7.64,1.07.92a4.3,4.3,0,0,1,1.67,2.58,9.84,9.84,0,0,0,.44,2,1.81,1.81,0,0,1,0,.93A6.3,6.3,0,0,0,82,58.26c0,.14.07.21.19.18s.09,0,.1-.07a8.22,8.22,0,0,0,.39-2.31,20.59,20.59,0,0,0,.06-5.49c0-.41-.09-.83-.14-1.25s-.58-.72-.84-1.1a.57.57,0,0,1,.12-.58c.18-.11.35-.23.53-.33a1.5,1.5,0,0,0,.67-.65,5.19,5.19,0,0,0,.44-4.38,2,2,0,0,0-.61-.9,3.32,3.32,0,0,0-.64-.44,11.68,11.68,0,0,0-3.29-1A1.36,1.36,0,0,0,78.5,40ZM95.15,78.63a2.62,2.62,0,0,0,0-.29,16.73,16.73,0,0,0-.65-3,2.37,2.37,0,0,0-.35-.69,1.94,1.94,0,0,0-1.09-.83c-.11,0-.36.13-.34.24a9.41,9.41,0,0,0,.89,2.65c.38.74.72,1.49,1.08,2.24a.2.2,0,0,0,.12.1A.34.34,0,0,0,95,79s.1,0,.11-.07A2.49,2.49,0,0,0,95.15,78.63Zm-2-7.8c-.07-.11-.1-.25-.17-.27a12.35,12.35,0,0,1-2-.77s-.12,0-.15,0-.2.15-.18.19a4.67,4.67,0,0,0,.95,1.75.66.66,0,0,0,1,0C92.81,71.43,93,71.12,93.2,70.83ZM63.49,77s.08,0,.1-.06a.5.5,0,0,0,0-.55c0-.06-.16-.08-.25-.09a.19.19,0,0,0-.11.09.57.57,0,0,0,.08.56S63.44,77,63.49,77Z"/><path class="cls-1" d="M126.05,32.27c-.09.15-.17.29,0,.44s.28.31.42.47a2.22,2.22,0,0,0,2,.76,9.62,9.62,0,0,1,1.42,0,1.07,1.07,0,0,1,.94,1.07c0,.36-.08.73-.09,1.09a4.84,4.84,0,0,0,.08.94,1.07,1.07,0,0,0,.93.94c.52.07,1,.12,1.57.16s.95,0,1.42.07a1.2,1.2,0,0,1,1.09,1.14,17.83,17.83,0,0,1,.13,2.83,35.63,35.63,0,0,0,.12,4.73c.09.88,0,1.78.05,2.68.05,1.78.12,3.57.19,5.36,0,.84,0,1.68.12,2.52.16,1.84.15,3.68.26,5.51.11,2,.27,4,.3,6,0,.32.06.63.09,1a5.16,5.16,0,0,1,.08.78,38.57,38.57,0,0,0,.22,4.56.54.54,0,0,1-.31.5,1.79,1.79,0,0,1-.44.16,19,19,0,0,1-2.82.28,37.47,37.47,0,0,0-5.19.31.45.45,0,0,0-.41.41c0,.42,0,.84,0,1.25.12,1.37.27,2.73.4,4.09a.48.48,0,0,0,.42.39l2.84.07a5,5,0,0,1,1.72.14.39.39,0,0,0,.3,0,3.1,3.1,0,0,1,1.71,0,2.51,2.51,0,0,0,1.25-.06,8,8,0,0,1,3-.21,8.83,8.83,0,0,0,1.26,0c1.25-.13,2.5-.31,3.75-.42A24.19,24.19,0,0,1,147.6,82a13.65,13.65,0,0,0,1.57-.12,3.73,3.73,0,0,1,.47,0,1,1,0,0,1,.84.81,1.73,1.73,0,0,1-.12.93.86.86,0,0,1-.68.58,4.53,4.53,0,0,1-1.1.07,33.41,33.41,0,0,0-5.83.29,39.19,39.19,0,0,1-4.72.26c-.95,0-1.9.08-2.84.11-.58,0-1.16,0-1.74,0-1.63,0-3.26,0-4.89,0-.58,0-1.15.06-1.72.09a3.53,3.53,0,0,0-.32-.39,1.69,1.69,0,0,1-.47-2,3.7,3.7,0,0,0,.17-1.87c-.16-1.31-.29-2.61-.43-3.92a3.43,3.43,0,0,1,0-.78c0-.42-.12-.85.12-1.31l1.23-.53a11.85,11.85,0,0,0,4.4.12,18.71,18.71,0,0,1,2.37-.09l.78,0a.62.62,0,0,0,.55-.66,2.66,2.66,0,0,0,0-.63,10.73,10.73,0,0,1-.11-2.83c0-.36,0-.73,0-1.1-.07-1.42-.13-2.84-.2-4.26,0-.68-.11-1.36-.14-2s0-1.16,0-1.74q0-1.26-.12-2.52c-.11-1-.12-2-.16-3-.07-1.41-.17-2.83-.2-4.25s0-2.84,0-4.26c0-.63-.07-1.26-.09-1.89,0-.9-.05-1.79-.08-2.68,0-.63,0-1.27-.09-1.89,0-.42-.2-.62-.56-.64a23.45,23.45,0,0,1-2.63-.5,2.63,2.63,0,0,1-1.92-1.46,5.27,5.27,0,0,1-.57-1.63.88.88,0,0,0-.75-.72,4.52,4.52,0,0,1-.91-.25A3.56,3.56,0,0,1,124.82,34a.7.7,0,0,0-.21-.24,2.23,2.23,0,0,1-1-1.88,7.7,7.7,0,0,1-.1-.94.49.49,0,0,1,.22-.39,2.94,2.94,0,0,1,1.78-.5c1.57.16,3.15.07,4.72.34a1.41,1.41,0,0,0,.61-.05,3.58,3.58,0,0,1,1.26-.08c.31,0,.62.09.93.1,1.47,0,2.95,0,4.42,0a6.73,6.73,0,0,0,.77-.09c.37,0,.73-.08,1.1-.09l2.52,0c.37,0,.74,0,1.11,0,.52,0,1-.08,1.57-.1s.84,0,1.26,0a10.51,10.51,0,0,1,3.45.08,4.39,4.39,0,0,0,2-.15.68.68,0,0,1,.81.57,1.73,1.73,0,0,1,0,.93,1.15,1.15,0,0,1-1.13.92,13.39,13.39,0,0,1-1.42,0,55,55,0,0,0-7.26,0c-1.47.06-2.95,0-4.42,0a14.22,14.22,0,0,0-1.73.05,15.08,15.08,0,0,1-3.15,0,33.51,33.51,0,0,0-3.47-.1c-.95,0-1.9,0-2.84-.06C126.46,32.25,126.25,32.26,126.05,32.27Z"/><path class="cls-1" d="M42.66,82.45c.73-.09,1.46-.14,2.18-.27,1.09-.19,2.17-.41,3.27-.5.42,0,.84-.06,1.25-.08l1.73-.11,1.73-.13a8.55,8.55,0,0,0,1.25-.09,11.12,11.12,0,0,1,2.82-.12A7,7,0,0,0,59.7,81a1.08,1.08,0,0,1,.6.09c.2.06.37.19.57.26a.75.75,0,0,1,.48.74c0,.44-.29,1-.62,1a5,5,0,0,1-2.46.22,4.55,4.55,0,0,0-1.88-.08c-1,.13-2.09.14-3.14.21-.68,0-1.36.1-2,.19a10.32,10.32,0,0,1-1.57.07,10.76,10.76,0,0,0-2,.21c-1.44.25-2.89.49-4.35.63-.16,0-.32,0-.47.06a1.33,1.33,0,0,1-1.13-.45,3.09,3.09,0,0,1-.45-.64.79.79,0,0,1,.66-1.15c.26,0,.52,0,.78,0Z"/><path class="cls-1" d="M45.21,60.69a7,7,0,0,1,0,1.17,10,10,0,0,0,.2,3.13,2.25,2.25,0,0,0,.33.87c.19.3,0,.5-.24.63a1.72,1.72,0,0,1-.45.16,16.8,16.8,0,0,1-2.33.35,13.2,13.2,0,0,0-2.51.18.51.51,0,0,1-.51-.29.44.44,0,0,1,.16-.66,1.88,1.88,0,0,1,.45-.12,1.9,1.9,0,0,1,.63,0,6.77,6.77,0,0,0,3-.11.58.58,0,0,0,.55-.63A28.7,28.7,0,0,0,44.44,62c-.06-.67.07-1.37,0-2a14,14,0,0,1,0-2,6.36,6.36,0,0,0-.11-1.57,6.63,6.63,0,0,1-.14-1.72,3.69,3.69,0,0,0,0-.47l-.33-5.51c-.06-.89-.13-1.78-.18-2.68a2.69,2.69,0,0,1,0-.94c.35-1.2,0-2.41.12-3.61a1.48,1.48,0,0,0-.08-.46c-.12-.62-.33-.79-1-.71-.46.05-.93.16-1.39.23A2.1,2.1,0,0,1,39.55,40a.31.31,0,0,1-.1-.27.87.87,0,0,1,.29-.34.43.43,0,0,1,.3,0,9.71,9.71,0,0,1,1.05.31,1.47,1.47,0,0,0,.92.09c.41-.11.82-.22,1.23-.31a2.36,2.36,0,0,1,.46,0,.81.81,0,0,1,.59.47c.07.32.25,3.25.23,3.6,0,1-.12,2.1-.11,3.15,0,.73.15,1.46.22,2.19.17,1.68.19,3.36.21,5a19.78,19.78,0,0,0,.14,2c.14,1.41.18,2.84.24,4.25A4.1,4.1,0,0,1,45.21,60.69Z"/><path class="cls-1" d="M144.17,47.74c-.12.31-.24.6-.33.9a1.49,1.49,0,0,0-.07.62,7,7,0,0,1,.06,1.89,5.14,5.14,0,0,0,.07.78c0,.31.1.63.12.94.14,1.94.4,3.86.44,5.81a7.68,7.68,0,0,0,.2,1.71,6.56,6.56,0,0,1,.09,1.26c0,.26.05.52.08.78a.54.54,0,0,0,.43.4l.15,0a12.09,12.09,0,0,0,2.82,0,.6.6,0,0,1,.44.14.62.62,0,0,1,.16.4c0,.08-.1.17-.17.24a.27.27,0,0,1-.14.07c-.84.06-1.68.17-2.51.15a6.26,6.26,0,0,0-1.56.08.57.57,0,0,1-.64-.53,10.85,10.85,0,0,0-.17-2.67,20.73,20.73,0,0,0-.18-4.09.42.42,0,0,1,0-.16,8,8,0,0,0,0-2.49c-.09-.84-.09-1.68-.13-2.52a48.22,48.22,0,0,1,0-5.51,2.8,2.8,0,0,0-.17-1.4.88.88,0,0,1,0-.76,1.86,1.86,0,0,0-.16-1.94c-.08-.12-.2-.32-.15-.42.19-.4-.19-.71-.13-1.06a5.57,5.57,0,0,1,.36-1,.3.3,0,0,1,.26-.13c.31,0,.62.09.93.11a7.47,7.47,0,0,0,1.89,0,5.3,5.3,0,0,1,1.26-.06,4.52,4.52,0,0,0,2.15-.32.76.76,0,0,1,.16,0,.58.58,0,0,1,.48.33.51.51,0,0,1-.19.55,1.46,1.46,0,0,1-.44.16c-.73,0-1.47.1-2.2.13l-2.52.08a.73.73,0,0,0-.68.32,2.69,2.69,0,0,0-.33,1.18,11.67,11.67,0,0,0,.1,2,6.61,6.61,0,0,1,0,1.72A4.75,4.75,0,0,0,144.17,47.74Z"/><path class="cls-2" d="M28,133.46a20.41,20.41,0,0,1-15-6A17,17,0,0,1,7.83,116c0-13.37,0-23.19-.19-30.81-.27-12.15-.55-22.43-.81-32.37S6.29,32.6,6,20.44c-.08-3.85.1-8.18,3.34-10.75,1.93-1.53,4.49-2,7-2.32,29.08-4,61.68-2.91,93.21-1.89,20.65.66,40.15,1.29,58.8.63a9.69,9.69,0,0,1,6.9,2.54,8.4,8.4,0,0,1,2.71,5.87c1.27,40.07,1.94,71.49-1,111a8.68,8.68,0,0,1-9.29,7.76c-17.3-.7-62.56-.36-98.93-.08C52.08,133.35,37.74,133.46,28,133.46ZM8.07,20.39c.27,12.15.54,22.44.81,32.38S9.42,73,9.69,85.16c.17,7.64.2,17.47.19,30.86a15.14,15.14,0,0,0,4.55,10A18.41,18.41,0,0,0,28,131.4c9.73,0,24.06-.11,40.65-.23,36.4-.28,81.69-.63,99,.08a6.64,6.64,0,0,0,7.16-5.87c3-39.43,2.29-70.79,1-110.79a6.32,6.32,0,0,0-2.06-4.44,7.59,7.59,0,0,0-5.43-2c-18.72.66-38.25,0-58.94-.63C78,6.51,45.49,5.47,16.58,9.4c-2.27.31-4.43.69-6,1.9C8.12,13.29,8,17,8.07,20.39Z"/></svg>