<svg id="Layer_1" data-name="Layer 1" xmlns="http://www.w3.org/2000/svg" viewBox="0 0 185 138"><defs><style>.cls-1{fill:#a6cf58;}.cls-2{fill:#a7d059;}</style></defs><title>Artboard 7</title><path class="cls-1" d="M138.42,35a1.11,1.11,0,0,0,.72.06l.84-.18a.84.84,0,0,1,.87.31.87.87,0,0,1,.1.93c-.07.15-.17.31-.34.31-.7,0-1.35.3-2.05.32A2.62,2.62,0,0,0,138,37c-.81.27-1.62.55-2.44.81a2.34,2.34,0,0,1-.59.09,6.7,6.7,0,0,0-2,.33c-1.23.43-2.47.85-3.72,1.24a42.44,42.44,0,0,0-5.11,2c-1,.48-2.07,1-3.12,1.43A8.22,8.22,0,0,0,119.2,44a6.67,6.67,0,0,1-.67.52c-1.42.89-2.86,1.75-4.21,2.73a3.75,3.75,0,0,1-.44.24c-1.8,1-3.63,1.86-5.51,2.65-.45.19-.89.41-1.33.63-.06,0-.14.15-.12.18a.53.53,0,0,0,.24.25,1.45,1.45,0,0,0,.47.09h.74c.61,0,1.22,0,1.83,0a5.11,5.11,0,0,0,1.94-.25,13.55,13.55,0,0,1,1.91-.43,16.08,16.08,0,0,0,2.27-.48,11.25,11.25,0,0,0,1.93-.73c.44-.23.88-.43,1.37-.67.36.07.76.13,1.15.23a.73.73,0,0,1,.38.29,3.45,3.45,0,0,1,.28.54.78.78,0,0,1,0,.6,6.92,6.92,0,0,1-1.11,2.16c-.46.52-.88,1.08-1.3,1.63a11.9,11.9,0,0,0-.7,1,5,5,0,0,1-1.29,1.46,2.49,2.49,0,0,0-.46.4,5.37,5.37,0,0,1-2,1.32,33.55,33.55,0,0,0-3.24,1.73s-.08.13-.1.2.1.19.25.19h.25a.25.25,0,0,0,.12,0c1-.37,2.15-.45,3.22-.73a21.13,21.13,0,0,1,3.62-.56,11,11,0,0,0,2.62-.57l.57-.22a7.11,7.11,0,0,1,2.48-.65.76.76,0,0,0,.68-.43c.12-.22.24-.43.35-.65a9,9,0,0,1,1.26-1.8c.43-.49.81-1,1.19-1.56s.93-1.34,1.35-2a6.44,6.44,0,0,1,1.68-1.77q1.51-1.14,3.06-2.25c.36-.26.76-.48,1.14-.7l2.55-1.47a3.55,3.55,0,0,1,.44-.21c.94-.41,1.87-.82,2.81-1.2.42-.17.86-.28,1.29-.41a13.47,13.47,0,0,0,2.63-1,9.47,9.47,0,0,1,1.48-.58A.6.6,0,0,1,147,42l.15.19a.73.73,0,0,1-.25,1l-.11,0c-1.5.52-3,1.14-4.49,1.61a15.69,15.69,0,0,0-3.79,1.69c-1,.63-2,1.19-3.06,1.79a11.24,11.24,0,0,0-1.82,1.24,7.34,7.34,0,0,1-.71.48,15.53,15.53,0,0,0-1.62,1.29,4.58,4.58,0,0,0-.66.73c-.59.83-1.15,1.68-1.74,2.52a17.7,17.7,0,0,1-1.19,1.55,7.8,7.8,0,0,0-1,1.37c-.13.21-.25.43-.38.63a1,1,0,0,0-.2.69.85.85,0,0,1-.46.8.64.64,0,0,1-.69.1,1.25,1.25,0,0,0-1-.05c-.83.2-1.65.43-2.47.68a13,13,0,0,1-2.76.53,13.38,13.38,0,0,0-3,.53,15.68,15.68,0,0,1-2,.5c-1.08.19-1,.21-.54,1.08l1.7,3.12c.18.32.39.62.6.92a7.68,7.68,0,0,1,1.22,2.25,5.6,5.6,0,0,0,.52,1,3.84,3.84,0,0,0,0,.48,10.4,10.4,0,0,1-.1,3,1.94,1.94,0,0,0,0,.24,53.3,53.3,0,0,0,0,5.51c.06.61,0,1.23,0,1.84a2.68,2.68,0,0,0,0,.49,18.48,18.48,0,0,1,.08,3.79,21.39,21.39,0,0,0,.15,3.3,4,4,0,0,1,.07.48c0,2.09.34,4.16.35,6.24,0,.33,0,.66,0,1,.2,2.28.27,4.57.34,6.85,0,.57.06,1.14.11,1.71a1,1,0,0,0,.17.45,1.37,1.37,0,0,1,.08,1.29.56.56,0,0,1-.3.37,8.35,8.35,0,0,1-1.24.52,8.47,8.47,0,0,0-2.19.75c-.92.21-1.76.64-2.65.92s-1.69.61-2.53.91a4.26,4.26,0,0,1-.47.15,34.91,34.91,0,0,0-5.48,1.74c-2.69,1.06-5.39,2.11-8.14,3l-.46.17a43.49,43.49,0,0,1-4.72,1.7,21.09,21.09,0,0,0-2.3.84,9.24,9.24,0,0,1-1.15.41c-2,.57-4,1.25-5.93,1.93q-.65.21-1.29.39c-1.46.4-2.87.93-4.3,1.42a41.92,41.92,0,0,1-4.1,1.22,10.12,10.12,0,0,0-1.86.61c-1,.46-2.1.89-3.16,1.33a7.28,7.28,0,0,0-1.53.76,1,1,0,0,1-.81.16,6.33,6.33,0,0,1-1.6-.6,15.62,15.62,0,0,0-3-1.41,28.17,28.17,0,0,1-4.29-1.92,2.75,2.75,0,0,0-.41.17,2.1,2.1,0,0,1-.9.37,3.33,3.33,0,0,0-1.15.39,16,16,0,0,0-2.13,1.21,7.38,7.38,0,0,1-1.07.58c-.63.3-1.27.56-1.91.85A2.58,2.58,0,0,1,46,126a2.44,2.44,0,0,1-.36.36.73.73,0,0,1-1.1,0,6.88,6.88,0,0,0-1.47-1.1l-1.19-.62-1.53-.78a19.55,19.55,0,0,0-3.21-1.5.46.46,0,0,1-.3-.35,1.61,1.61,0,0,1-.06-.61,10.61,10.61,0,0,0-.14-2.18c0-.2,0-.41,0-.61a.68.68,0,0,1,.27-.53,1.47,1.47,0,0,1,1-.38,8.73,8.73,0,0,0,2.53-.44,1.29,1.29,0,0,0,.23-.12,1.7,1.7,0,0,0,.07-.34c0-.65-.06-1.3-.1-2a2.37,2.37,0,0,1,.3-1.17.38.38,0,0,1,.28-.2c.75,0,1.41-.42,2.15-.48a.47.47,0,0,0,.43-.5c0-.61,0-1.23-.06-1.84a.71.71,0,0,0-.46-.66l-.33-.16a.51.51,0,0,1-.22-.11c-.08-.09-.19-.21-.18-.3a.82.82,0,0,0-.15-.68,2.31,2.31,0,0,1-.24-.56.51.51,0,0,1,.36-.56l.12,0a25.89,25.89,0,0,0,4.94-.83,24.33,24.33,0,0,0,4.17-1.4c.15-.07.31-.13.45-.21a.75.75,0,0,0,.4-.58,1,1,0,0,0,0-.24,13.17,13.17,0,0,0-.09-2.08,30.92,30.92,0,0,1-.46-4.5,8.14,8.14,0,0,0-.08-.85c0-.2-.07-.41-.08-.61A38.2,38.2,0,0,0,51.45,92c-.05-.4-.05-.81-.07-1.22a19.74,19.74,0,0,0-.19-2.44,3.2,3.2,0,0,1,0-.61c0-1.19-.22-2.36-.3-3.54,0-.25-.11-.36-.39-.39A3.49,3.49,0,0,1,49,83.25c-.44-.3-.9-.56-1.36-.83a2.19,2.19,0,0,1-1.06-1.29,7.67,7.67,0,0,0-.36-.86A3.44,3.44,0,0,0,45,79.65a2.38,2.38,0,0,1-1.33-1.2,1.2,1.2,0,0,0-.18-.31A2.3,2.3,0,0,1,43,76.65a2.87,2.87,0,0,1,.41-2l1.75-.54a1.24,1.24,0,0,1,.35-.1,3.05,3.05,0,0,0,1.39-.39,3.63,3.63,0,0,1,1.57-.21,2.31,2.31,0,0,0,.95-.15A4,4,0,0,1,50.73,73a1.06,1.06,0,0,0,.67-.26.72.72,0,0,1,.3-.2,3,3,0,0,0,1.77-1.41,9.92,9.92,0,0,1,2.24-2.24,2.59,2.59,0,0,0,.71-.83,9.1,9.1,0,0,1,2-2.43,1.23,1.23,0,0,0,.26-.25A6.68,6.68,0,0,1,60.07,64a1.11,1.11,0,0,0,.24-.28,6.56,6.56,0,0,1,1.81-1.79,2,2,0,0,0,.67-.7.67.67,0,0,1,.62-.33l.85-.08a7.25,7.25,0,0,0,2.15-.46,4.59,4.59,0,0,1,.83-.21c1.12-.2,2.21-.55,3.32-.85l2.6-.71L79,57.08c1.1-.29,2.21-.58,3.28-1,.33-.11.39-.21.37-.53-.06-.81-.12-1.63-.17-2.44a.66.66,0,0,0-.45-.66,1.44,1.44,0,0,1-.33-.16c-.16-.12-.33-.28-.27-.5a1.25,1.25,0,0,0,0-.72c-.17-.46-.33-.92-.49-1.39a.46.46,0,0,1,.39-.61c.2,0,.41,0,.61,0a4.1,4.1,0,0,0,.48-.1.42.42,0,0,0,.26-.37c0-.41-.11-.81-.16-1.22a3.7,3.7,0,0,1-.08-.48c0-.49.22-.75.73-.72a1.63,1.63,0,0,1,.48.09,10.27,10.27,0,0,0,2.64.5c.2,0,.41,0,.61.07a15.49,15.49,0,0,0,4.51.2,2,2,0,0,1,.94.17,1.32,1.32,0,0,1,.74.92c.08.23-.12.37-.18.56a.36.36,0,0,0,.21.49c.2.06.4.07.6.13a3,3,0,0,1,.56.23.73.73,0,0,1,.41.82A10.78,10.78,0,0,1,94,52.73a1.42,1.42,0,0,0-.12.46c0,.05.08.17.13.17a2.4,2.4,0,0,0,.6-.07,11.35,11.35,0,0,1,2.15-.49,5.82,5.82,0,0,0,2-.6,9.21,9.21,0,0,1,.93-.31,1.39,1.39,0,0,1,1.67.33s.08,0,.12,0,.14-.08.16-.14c.15-.46.32-.93.43-1.4a10.4,10.4,0,0,0,.34-1.93,22.09,22.09,0,0,0,0-3.9,13.31,13.31,0,0,1,.2-3.78,22.84,22.84,0,0,1,.73-3,26.05,26.05,0,0,1,2-4.58,2.67,2.67,0,0,1,.52-.68,16.45,16.45,0,0,0,1.31-1.46,1.9,1.9,0,0,1,.88-.61,14.76,14.76,0,0,0,2.38-.95,1.2,1.2,0,0,1,.59-.12c.69.06,1.38.15,2.07.23.44.06.49,0,.49-.42a.67.67,0,0,1,.27-.63,2.55,2.55,0,0,0,.44-.43,3.47,3.47,0,0,1,1.07-1,.63.63,0,0,0,.3-.63.49.49,0,0,0,0-.12,1.51,1.51,0,0,1,.73-1.56.61.61,0,0,1,.32-.16,8.76,8.76,0,0,0,1.88-.53c.19-.06.41,0,.61-.23a3.75,3.75,0,0,0,0-.42c0-.41,0-.82-.06-1.22,0-.21,0-.41,0-.61a1.25,1.25,0,0,1,.48-1l.5-.35a1.19,1.19,0,0,1,.8-.26,6.66,6.66,0,0,0,1.34-.09.86.86,0,0,0,.59-.4,3.37,3.37,0,0,0,.19-.32,6,6,0,0,1,1.54-1.72.78.78,0,0,1,.68-.19c.64.11,1.29.16,1.93.31a11.22,11.22,0,0,1,1.28.41,1.43,1.43,0,0,0,.84.11.27.27,0,0,0,.17-.16,1.09,1.09,0,0,0,0-.36,10.23,10.23,0,0,1,0-2.07c0-.86,0-1.72,0-2.57,0-.41,0-.82,0-1.23a2.6,2.6,0,0,1,.09-.47c.09-.32.19-.62.28-.94s.27-.49.6-.49a1.86,1.86,0,0,1,.84.14l2.22,1a4.38,4.38,0,0,1,1.21.82,21.2,21.2,0,0,0,2.59,2.05,9.92,9.92,0,0,1,1.42,1.17,6.83,6.83,0,0,0,1.43,1.14.65.65,0,0,1,.36.6,1.13,1.13,0,0,1-.21.55,4.44,4.44,0,0,1-.43.44,1.61,1.61,0,0,0-.19.31.33.33,0,0,0,.11.42l2.39.93a.8.8,0,0,0,.36.09,2.3,2.3,0,0,1,1.14.37.59.59,0,0,1,.36.47c0,.12.05.24.07.36a.57.57,0,0,1-.21.54c-.09.08-.18.19-.29.21A4.9,4.9,0,0,0,141.76,23a7.48,7.48,0,0,1-1.14.71,9,9,0,0,0-1.56,1l-2.63,2a.45.45,0,0,0-.21.41c.1.64.22,1.28.34,1.92,0,.05.12.12.19.13a1.55,1.55,0,0,0,.48,0,3.32,3.32,0,0,1,1.79.29,2.22,2.22,0,0,1,1,.85,1.37,1.37,0,0,1,.35,1.13,1.15,1.15,0,0,0,0,.37,1.88,1.88,0,0,1-.68,1.51,11.84,11.84,0,0,0-1.25,1.5c0,.05,0,.15,0,.23l-.06,0ZM88.17,66.38c0,.16.09.24.19.33.24.28.49.55.71.84a2.06,2.06,0,0,0,.74.61A6.44,6.44,0,0,0,93,69c.49,0,1,0,1.46,0a2.11,2.11,0,0,0,.93-.25,7.75,7.75,0,0,0,1.21-1,12.82,12.82,0,0,0,1.31-2.19.69.69,0,0,0,0-.24.67.67,0,0,0-.1-.21.13.13,0,0,0-.12,0,1.68,1.68,0,0,0-.42.22,6,6,0,0,1-1.65,1c-.29.14-.59.27-.88.42a3.81,3.81,0,0,1-.92.3,6.33,6.33,0,0,1-2.52.26,2.47,2.47,0,0,0-.61,0,1.65,1.65,0,0,1-1.45-.46,1,1,0,0,0-.32-.17.66.66,0,0,0-.58,0c0-.18,0-.3-.19-.34,0-.12,0-.27-.16-.08S88.09,66.43,88.17,66.38ZM74.55,62.43c-.16-.09-.3-.12-.42.06a10.74,10.74,0,0,1-1.83,2.1c-.15.13-.26.31-.41.45a6.17,6.17,0,0,1-.54.48,5.72,5.72,0,0,1-1.75,1.07c-.1,0-.23.15-.23.24s.12.21.22.25a7.16,7.16,0,0,0,.7.22,1.75,1.75,0,0,0,1.7-.41,6.67,6.67,0,0,0,2.14-3.33,3.86,3.86,0,0,1,.42-1.13c0-.12,0-.23,0-.34s0-.16-.08-.11,0,.08,0,.11S74.53,62.32,74.55,62.43ZM66.82,87.5a5.7,5.7,0,0,0,0,.72.35.35,0,0,0,.21.25,3.12,3.12,0,0,0,1.48.22c-.24-.3-.56-.38-.79-.57s-.41-.51-.73-.61a.62.62,0,0,0-.23,0,2,2,0,0,0,0-.24c-.12-.33-.32-.58-.71-.54a2.86,2.86,0,0,1-1.19-.22c-.76-.29-1.49-.66-2.22-1a13.65,13.65,0,0,0-3-1.12,6.74,6.74,0,0,1-1-.36l-2.27-.92a8.88,8.88,0,0,1-1.74-.88,6.39,6.39,0,0,0-2.14-.87.28.28,0,0,0-.29.3c.06.73.12,1.47.19,2.2a2.65,2.65,0,0,0,.07.48,8.14,8.14,0,0,1,.2,1.7c0,.49.07,1,.1,1.47L52.84,89c.08,1.6.2,3.18.42,4.76.13.93.23,1.86.33,2.8,0,.48.07,1,.12,1.46a17.92,17.92,0,0,0,.36,2.92,3.85,3.85,0,0,1,0,.49,6,6,0,0,0,.06.73,9.44,9.44,0,0,1,.18,2.19.58.58,0,0,0,.39.57,11.51,11.51,0,0,0,2.41.85s.07,0,.11,0a4.54,4.54,0,0,0,.26-2.62c0-.16,0-.33,0-.49-.19-1.5-.14-3-.4-4.51a4.16,4.16,0,0,1,0-.61,13.06,13.06,0,0,0-.21-2.93,3.91,3.91,0,0,1,0-.48c-.09-1.59-.2-3.18-.27-4.76a7.86,7.86,0,0,0-.33-2.17A5.16,5.16,0,0,1,56,85.7a.52.52,0,0,1,.77-.47c.3.14.58.31.86.47a4.94,4.94,0,0,0,.75.4,12.79,12.79,0,0,0,2.09.69.52.52,0,0,1,.45.5,5.3,5.3,0,0,1,.14,1c-.06,1.1.1,2.19.1,3.29,0,.21,0,.41,0,.61.08.65.19,1.3.25,1.95s.09,1.38.13,2.07c.07,1.34.17,2.68.27,4a8.44,8.44,0,0,0,.17,2.07,13.36,13.36,0,0,0,.14,2.19c.09.77.17,1.55.28,2.31a5.39,5.39,0,0,0,.23.81,16.72,16.72,0,0,0,3.36,1.22,2.26,2.26,0,0,0,1.18.24,1.71,1.71,0,0,0,.13-1c-.05-.41-.08-.82-.14-1.22a10.81,10.81,0,0,1-.13-1.7c0-.86-.06-1.72-.14-2.56-.16-1.59-.32-3.17-.35-4.76a16.92,16.92,0,0,0-.24-3.41,1.8,1.8,0,0,1,0-.61c.09-1.15,0-2.29,0-3.43a6,6,0,0,0-.14-1.58,7.56,7.56,0,0,1-.12-1,.37.37,0,0,1,.29-.34C66.49,87.49,66.66,87.5,66.82,87.5ZM102.31,111a1.86,1.86,0,0,0,.12-1c0-1.23-.07-2.45-.11-3.67a.28.28,0,0,1,.3-.31,3.54,3.54,0,0,0,1.44-.19c.73-.24,1.44-.57,2.19-.77s1.51-.58,2.32-.73a3.25,3.25,0,0,0,1.16-.39,5.94,5.94,0,0,1,1.34-.59,8.18,8.18,0,0,0,1-.48c.11,0,.21-.12.32-.16a.71.71,0,0,1,1,.45,3.18,3.18,0,0,1,.11,1c0,.65,0,1.31,0,2a1.22,1.22,0,0,0,.22.81.37.37,0,0,0,.3.15c.69-.23,1.38-.48,2.07-.74a.45.45,0,0,0,.22-.28,3.46,3.46,0,0,0,.09-.72q0-3.2,0-6.37c0-.2,0-.41,0-.61-.08-1.18-.17-2.35-.19-3.54a7.12,7.12,0,0,0-.09-1.46,12.89,12.89,0,0,1-.18-3.28,12.25,12.25,0,0,0-.09-1.71c-.06-.65-.16-1.29-.23-1.94a1.45,1.45,0,0,1,0-.36c0-.25.07-.49.08-.73,0-.9.08-1.8,0-2.7s0-1.79,0-2.68c0-.33-.06-.65-.11-1a2.91,2.91,0,0,1,0-.72c0-.74.08-1.47.11-2.2,0-.45,0-.9,0-1.35a14.69,14.69,0,0,1,0-2.2,3.11,3.11,0,0,0,0-.61.35.35,0,0,0-.44-.29c-.11,0-.24,0-.35.08q-3.13,1-6.17,2.34l-1.36.55c-1.21.49-2.48.82-3.72,1.22-.73.24-1.51.34-2.25.52a39.61,39.61,0,0,0-4.79,1.48,39.68,39.68,0,0,1-3.93,1.36c-.87.23-1.71.54-2.59.75s-1.71.53-2.56.8c-.43.13-.85.31-1.28.44-1.44.43-2.87.92-4.3,1.4-.34.12-.7.21-1.05.32a5.72,5.72,0,0,0-.59.17l-2.29.85a.56.56,0,0,0-.42.54,26.86,26.86,0,0,0,0,2.69c.06.52.06,1.06.09,1.59a12,12,0,0,0,.14,1.58,3.69,3.69,0,0,1,0,1.1,22.19,22.19,0,0,0,0,3.91c.08,2,.2,3.91.14,5.87a6.11,6.11,0,0,0,0,.74c.12,1.58.12,3.18.15,4.77s.17,3.09.21,4.64a3.89,3.89,0,0,0,0,.49,16.32,16.32,0,0,1,.24,3.42,5.66,5.66,0,0,0,.09,1.09,8.7,8.7,0,0,1,.15,1.83,3.44,3.44,0,0,0,.06.72.37.37,0,0,0,.27.21,1.13,1.13,0,0,0,.48-.08l4.19-1.34a.91.91,0,0,0,.22-.11.53.53,0,0,0,.3-.49,4.15,4.15,0,0,1,0-.61,5.84,5.84,0,0,0,0-1.82,12.82,12.82,0,0,0-.35-1.93.34.34,0,0,1,.22-.39,1.55,1.55,0,0,1,.23-.07,4.62,4.62,0,0,0,1.4-.42c.25-.12.53-.19.8-.3a5.79,5.79,0,0,0,1.24-.51,1,1,0,0,1,.46-.14,4.22,4.22,0,0,0,1.39-.42,9.27,9.27,0,0,1,1.49-.56,11.41,11.41,0,0,0,1.73-.6c.22-.1.44-.2.66-.32a1.5,1.5,0,0,1,1-.07.53.53,0,0,1,.38.43,1.46,1.46,0,0,1,0,.36c-.09,1.18.07,2.36.07,3.55,0,0,0,.07,0,.11s.19.24.26.22a5.65,5.65,0,0,0,.71-.17c1.51-.52,3-1,4.5-1.59A7.59,7.59,0,0,0,102.31,111ZM72.42,76.56c.17.37.31.75.5,1.11a9.75,9.75,0,0,1,.81,1.77,4.61,4.61,0,0,0,.64,1.32,17.59,17.59,0,0,1,1.07,1.63.37.37,0,0,0,.42.18A9.32,9.32,0,0,0,77,82.21c1.52-.59,3.07-1.09,4.63-1.59s3.18-1,4.76-1.57c1.31-.45,2.64-.84,4-1.22A37.91,37.91,0,0,0,94,76.67L95.71,76A27,27,0,0,1,99,75c1-.24,2.06-.5,3.08-.78a31.91,31.91,0,0,0,4.76-1.56,3.9,3.9,0,0,1,.8-.31,6.06,6.06,0,0,0,1.14-.43,32.86,32.86,0,0,1,3.76-1.46c.54-.16,1.08-.35,1.62-.53.71-.24.83-.54.5-1.2-.09-.18-.22-.34-.32-.51-.87-1.44-1.83-2.81-2.56-4.32-.23-.47-.53-.91-.81-1.37a.43.43,0,0,0-.42-.2,10.86,10.86,0,0,1-1.71,0c-.77,0-1.55,0-2.32.09a4,4,0,0,0-.48.09,14.43,14.43,0,0,0-3,1.08,10.45,10.45,0,0,1-2.3.8c-.52.11-1,.28-1.56.34a.64.64,0,0,0-.58.54A10,10,0,0,1,97.89,67a5.65,5.65,0,0,1-1.79,2.12,3.3,3.3,0,0,1-1.58.6,4.45,4.45,0,0,1-.73,0,3,3,0,0,0-.73,0,2.84,2.84,0,0,1-1.33-.06,7.47,7.47,0,0,1-2-.8,6.13,6.13,0,0,1-1.51-1.23,10.36,10.36,0,0,1-1.68-2.38,1,1,0,0,0-.16-.19s-.06-.07-.09-.07-.17-.06-.23,0a.23.23,0,0,0-.11.19,4.68,4.68,0,0,1-.24,2.16,2.92,2.92,0,0,0-.08.73,3.71,3.71,0,0,1-.24,1.19c-.34.83-.63,1.68-1,2.48A6.87,6.87,0,0,1,83.42,73a2.16,2.16,0,0,1-1.71.81c-.65,0-1.3,0-2,0A3.92,3.92,0,0,1,78,73.36a8,8,0,0,1-2.12-1.43,2.8,2.8,0,0,0-.48-.37,3.73,3.73,0,0,1-.94-1c-.19-.27-.36-.54-.57-.8a2.78,2.78,0,0,0-.43-.41.31.31,0,0,0-.23,0c-.06,0-.13.13-.12.18a14.18,14.18,0,0,1,.12,2,8.52,8.52,0,0,1-.11,2.08A6.19,6.19,0,0,0,73,74.82a2.18,2.18,0,0,1-.3,1.17C72.6,76.16,72.53,76.35,72.42,76.56Zm49.07-42.45a3.57,3.57,0,0,0-1.22-.52c-.6-.09-1.21-.13-1.81-.22a1.12,1.12,0,0,0-1.16.55c-.31.48-.61,1-.93,1.43s-.54.82-.84,1.21a.61.61,0,0,1-1-.05.88.88,0,0,1-.08-1c0-.07.1-.13.14-.19q.84-1.22,1.65-2.43a1.28,1.28,0,0,0,.17-.46.25.25,0,0,0-.1-.2A.76.76,0,0,0,116,32c-.74-.22-1.47-.47-2.23-.65a11.62,11.62,0,0,0-1.57-.21,1.81,1.81,0,0,0-.61.06,11.37,11.37,0,0,0-2.51.95,3,3,0,0,0-.77.59,12.25,12.25,0,0,0-2.41,3.66c-.21.53-.45,1-.68,1.57a13.91,13.91,0,0,0-.89,3.18s0,.08,0,.12c-.17.76-.14,1.54-.24,2.31A5.47,5.47,0,0,0,104,45a35.92,35.92,0,0,1,0,4.64,6.33,6.33,0,0,1-.41,2,3,3,0,0,0-.22.7,8.06,8.06,0,0,1-.81,2.8.56.56,0,0,0,0,.12,11.29,11.29,0,0,1-.87,2,5.75,5.75,0,0,0-.44,1.13,11.38,11.38,0,0,1-1.42,3.11,9.59,9.59,0,0,0-.6,1.2.72.72,0,0,0,0,.36s.12.15.16.14c.24-.05.47-.14.71-.18a10.25,10.25,0,0,0,2.55-.81,1.09,1.09,0,0,1,.23-.09,11.36,11.36,0,0,1,2.53-.89,1.09,1.09,0,0,0,.33-.15c.36-.19.71-.41,1.09-.57a7.58,7.58,0,0,0,2.12-1.17c1.56-.8,3-1.75,4.64-2.47a5,5,0,0,0,1.25-.76c.46-.41.92-.81,1.36-1.24a1.58,1.58,0,0,0,.34-.5,8.35,8.35,0,0,1,1.38-2,.66.66,0,0,0,.15-.19,2,2,0,0,0,.1-.35,1,1,0,0,0-.33-.08c-.19,0-.38.12-.58.16a10.35,10.35,0,0,1-1.32.28,9.25,9.25,0,0,0-1.79.4,7.24,7.24,0,0,1-1.29.35,16.5,16.5,0,0,1-2.81.15c-.32,0-.65,0-1,0a7.75,7.75,0,0,1-4.29-1.24,1,1,0,0,1-.31-.36,1.39,1.39,0,0,1,0-1.3,1.13,1.13,0,0,1,.58-.6l1.14-.45c.63-.27,1.26-.58,1.9-.83a17.07,17.07,0,0,0,2.33-1.1,2.45,2.45,0,0,1,.66-.3,4.81,4.81,0,0,0,1.11-.49,14.89,14.89,0,0,0,1.67-1c1-.61,2-1.18,2.93-1.78a13.52,13.52,0,0,0,1.4-1A11.21,11.21,0,0,1,120.85,41c.83-.35,1.63-.75,2.44-1.13a.38.38,0,0,0,.25-.39,2.42,2.42,0,0,1,.14-1.19,4.79,4.79,0,0,0,.16-.84,3.15,3.15,0,0,0-.54-2.21.26.26,0,0,0-.31-.13.33.33,0,0,0-.19.13c-.14.29-.26.6-.39.89-.28.6-.53,1.2-.83,1.78s-.64,1.13-1,1.69a.66.66,0,0,1-1,.11c-.51-.54-.55-.79-.1-1.38a14.8,14.8,0,0,0,1.4-2.44A7.49,7.49,0,0,0,121.49,34.11Zm-6.23-3.61c.21.07.32.12.44.15a4.62,4.62,0,0,1,1.78.77,1.86,1.86,0,0,0,1.14.38,10.52,10.52,0,0,1,2.29.43c.15,0,.31.09.47.12s.17,0,.19-.09a.3.3,0,0,0-.06-.22c-.38-.37-.76-.74-1.15-1.09a.9.9,0,0,1-.33-.87.38.38,0,0,1,.21-.27.75.75,0,0,1,.46-.09,2,2,0,0,1,1.26.69c.57.69,1.17,1.37,1.73,2.07.38.48.72,1,1.06,1.49a.81.81,0,0,1,.17.45,2.94,2.94,0,0,0,.42,1.64,3.57,3.57,0,0,1,.34,1.54,3.85,3.85,0,0,1,0,.48,2,2,0,0,1,0,.25c0,.25.16.38.39.31,1.72-.51,3.44-1,5.12-1.64a10.52,10.52,0,0,1,3-.73.86.86,0,0,0,.62-.35A7.86,7.86,0,0,1,136,34.57a10.24,10.24,0,0,0,2.12-2.19c.12-.16.26-.31.39-.47a2.39,2.39,0,0,0,.13-.21.6.6,0,0,0-.44-.91,4,4,0,0,0-1.1.08,2.65,2.65,0,0,1-1.45,0c-.13,0-.33.1-.36.25-.21,1.21-.78,2.32-.92,3.55a.46.46,0,0,1-.43.38l-.12,0a.84.84,0,0,1-1-.77,2.08,2.08,0,0,1,0-.61,5,5,0,0,1,.17-.84,26.43,26.43,0,0,1,1.44-4.41,1.19,1.19,0,0,0,0-.29c-.13-.2-.3-.42-.46-.66a.72.72,0,0,1,0-.9A.6.6,0,0,0,134,26c-.36-1.17-.84-2.3-1.13-3.49a1.4,1.4,0,0,0-.62-.86c-1-.66-2.06-1-3-1.59a1.4,1.4,0,0,0-.35-.1c-.47-.15-.93-.31-1.41-.43a8.46,8.46,0,0,0-1.31-.27.85.85,0,0,0-.79.27,4,4,0,0,0-1.25,1.76.39.39,0,0,1-.37.27c-.29,0-.58,0-.86,0s-.81,0-1.22.07a.81.81,0,0,0-.6.38,1.21,1.21,0,0,0-.26.67,5.4,5.4,0,0,0,.33,2.64c0,.08,0,.24-.09.33a.79.79,0,0,1-.63.34,4.46,4.46,0,0,1-.73,0,3.66,3.66,0,0,0-1.9.34.62.62,0,0,0-.4.57,2.1,2.1,0,0,0,.13,1.08.36.36,0,0,1-.21.5c-.3.13-.62.22-.91.36a1.61,1.61,0,0,0-1,1.16C115.36,30.1,115.31,30.26,115.26,30.5ZM71.73,99.1v2.83a16.44,16.44,0,0,0,0,2.33c.17,1.17.22,2.36.34,3.53.11,1,.34,1.93.5,2.89a.6.6,0,0,0,.36.47l3.12,1.39.12,0c.24.06.43-.08.39-.31a8.73,8.73,0,0,1-.11-1.7,4.44,4.44,0,0,1,0-1.09.63.63,0,0,0,0-.36,2.87,2.87,0,0,1-.14-1c0-.94-.11-1.88-.14-2.82,0-.44,0-.89,0-1.34s0-1,0-1.46a.87.87,0,0,1,0-.36,1.5,1.5,0,0,0,0-.84,5.31,5.31,0,0,1-.09-1c0-.49,0-1,0-1.47a11.66,11.66,0,0,1,0-2,3,3,0,0,0-.09-.84c0-.45-.13-.89-.15-1.34a18.4,18.4,0,0,1,0-3.06.28.28,0,0,0-.24-.34l-1.22-.11A3.72,3.72,0,0,1,71.94,90c-.06-.06-.11-.14-.18-.16s-.26-.08-.35,0a1,1,0,0,1-.82,0c-.5-.17-1-.27-1.52-.45a5.92,5.92,0,0,0-1.56-.26c-.58,0-.77.14-.75.68a10,10,0,0,0,.1,1.1,5,5,0,0,1,0,1.34c0,.28,0,.57-.07.86a7,7,0,0,0,.11,2.19,9.73,9.73,0,0,1,.2,2.8,5.93,5.93,0,0,0,0,.73c.06.81.12,1.63.19,2.44,0,.49.07,1,.11,1.46.07.7.15,1.38.22,2.08.06.52.1,1,.17,1.58a2,2,0,0,0,.33,1.15.59.59,0,0,1,.09.35,10.14,10.14,0,0,0,0,1.46c.37.43,1,.4,1.4.69.2.14.44.22.65.34a3,3,0,0,0,1,.38.27.27,0,0,0,.35-.22,12,12,0,0,0,0-1.34c-.07-.77-.17-1.55-.29-2.31s0-1.31-.13-1.95a4.14,4.14,0,0,1,0-.61c0-1.76,0-3.51-.08-5.27,0-1.14-.08-2.28,0-3.42a7.62,7.62,0,0,0,0-1.35,9.54,9.54,0,0,1,0-2.07,6,6,0,0,0,.09-1.69c0-.06.08-.14.13-.2a.26.26,0,0,1,.33,0c.05,0,.13.12.13.18,0,.61-.08,1.22-.09,1.83a8,8,0,0,0,0,2.19,3.22,3.22,0,0,1,0,1,14,14,0,0,0,0,1.83C71.68,97.94,71.7,98.59,71.73,99.1Zm-8-36c-.13,0-.27,0-.35.09-.4.34-.8.69-1.17,1.06-.53.52-1,1-1.54,1.58s-1.06,1-1.52,1.6-1.12,1.3-1.66,2a11.53,11.53,0,0,1-1.18,1.24c-.43.39-.82.8-1.23,1.2-.11.12-.2.25-.3.38a.31.31,0,0,0,.05.33,14.28,14.28,0,0,0,2.35,1.32c2.49,1.13,5,2.25,7.4,3.53a9.26,9.26,0,0,0,1.11.51,44.71,44.71,0,0,1,4.33,2c.67.32,1.34.6,2,.87.1,0,.17,0,.2-.06a1,1,0,0,0,0-.24A12.47,12.47,0,0,0,71,77.65a21.68,21.68,0,0,1-1.9-3.83,6.83,6.83,0,0,0-.56-1.23c-.51-.89-.9-1.83-1.33-2.75s-.92-1.91-1.4-2.86c-.28-.55-.59-1.07-.88-1.61C64.57,64.61,64.18,63.85,63.78,63.07Zm10.16,50.32c0-.08,0-.19-.09-.22a7.31,7.31,0,0,0-2.11-1,9.78,9.78,0,0,1-2.29-.82,16.27,16.27,0,0,0-2.51-1c-1-.3-2-.61-2.92-.93l-6.72-2.31c-.34-.12-.7-.2-1.06-.3-.51-.14-1-.28-1.52-.44a1.75,1.75,0,0,0-1.31,0c-.72.31-1.44.59-2.16.88a17.26,17.26,0,0,1-3.51,1c-.6.11-1.19.29-1.78.43-.12,0-.23,0-.28.17s0,.22.18.29c.48.22,1,.47,1.45.66,1.48.56,3,1,4.5,1.54a23.45,23.45,0,0,1,3.41,1.34c.77.4,1.59.64,2.39,1,1.29.51,2.48,1.24,3.79,1.69.54.19,1.07.43,1.6.62a3.09,3.09,0,0,0,1.21.13,7.4,7.4,0,0,0,1.68-.36,17.34,17.34,0,0,1,2.47-.68,4.26,4.26,0,0,0,.47-.15c1.23-.43,2.47-.84,3.73-1.19A5.65,5.65,0,0,0,73.94,113.39ZM45.82,75.85a.52.52,0,0,0,.32.34c.56.25,1.11.51,1.65.8.9.48,1.83.91,2.73,1.38a13.65,13.65,0,0,1,1.51.81,27,27,0,0,0,4.36,2.2c1.27.55,2.59,1,3.89,1.49a3.87,3.87,0,0,0,.83.2,3.44,3.44,0,0,1,.93.28c.63.3,1.27.56,1.89.87a3.37,3.37,0,0,0,2.34.45.64.64,0,0,1,.36,0,2.13,2.13,0,0,0,1.2,0,38.5,38.5,0,0,0,4.34-1.27,2.11,2.11,0,0,0,.33-.18,1.56,1.56,0,0,0-.13-.19c-.86-.63-1.8-1.11-2.71-1.66a4.57,4.57,0,0,0-.68-.26,12.85,12.85,0,0,1-1.58-.66c-.89-.5-1.82-.9-2.74-1.34-.33-.16-.67-.31-1-.5-1.15-.71-2.41-1.19-3.58-1.87A22.92,22.92,0,0,0,57,75.34c-.84-.34-1.63-.76-2.43-1.17-.25-.13-.51-.26-.77-.37a.42.42,0,0,0-.54.15.87.87,0,0,1-.84.4,4.74,4.74,0,0,0-1.46.13l-2.17.35a12.46,12.46,0,0,0-2.8.87C45.92,75.72,45.87,75.8,45.82,75.85Zm32.79-6a11.68,11.68,0,0,0,1.79-.22,6.37,6.37,0,0,0,1.23-.51,1.85,1.85,0,0,0,.68-.49,3.47,3.47,0,0,1,.47-.39,4.09,4.09,0,0,0,1.3-1.75,9.24,9.24,0,0,0,.63-2.6.43.43,0,0,0,0-.11c0-.08-.07-.18-.12-.2a4.54,4.54,0,0,0-.93-.29,17.5,17.5,0,0,1-2.26-.49A5.17,5.17,0,0,1,79.6,62c-.94-.65-2-1.14-2.94-1.74a2.8,2.8,0,0,0-.57-.22.4.4,0,0,0-.41.18c-.12.31-.26.61-.35.92-.23.82-.46,1.65-.66,2.48a6.19,6.19,0,0,1-1,2.32c-.15.2-.28.41-.41.61-.22.35-.21.47.08.74l.36.33a4.88,4.88,0,0,0,1.45,1.11,9,9,0,0,0,2.38.89A9.49,9.49,0,0,0,78.61,69.83Zm-2.08,44.75a13.31,13.31,0,0,0-1.47.22,30.81,30.81,0,0,0-4.79,1.47,8.08,8.08,0,0,1-2.1.63,7.78,7.78,0,0,0-.84.16l-2.49.64a3.49,3.49,0,0,0-.44.2.28.28,0,0,0-.16.3c0,.2.09.4.09.6,0,1.51.32,3,.29,4.52,0,.08,0,.16,0,.24,0,.25.19.37.41.3.54-.19,1.07-.41,1.62-.56a5.85,5.85,0,0,0,1.45-.63,2,2,0,0,1,.53-.29,20.26,20.26,0,0,1,3-.84,1.57,1.57,0,0,0,.35-.11c.74-.21,1.5-.4,2.23-.64a17.22,17.22,0,0,0,2.73-1c0-.4,0-.76,0-1.12,0-1.26-.17-2.52-.27-3.78C76.69,114.76,76.58,114.66,76.53,114.58Zm15.08-48c.59,0,1,0,1.48-.11A8.21,8.21,0,0,0,96,65.32a3.78,3.78,0,0,0,.67-.54.59.59,0,0,0,.17-.31c.06-.27,0-.59.21-.81s.07-.63.14-.94a1.89,1.89,0,0,1,.19-.44c.17-.33.35-.64.53-1a.26.26,0,0,0-.2-.36,2.11,2.11,0,0,1-1.2-.55c-.36-.33-.74-.64-1.12-.95a8.45,8.45,0,0,1-1.59-1.68c-.21-.3-.44-.59-.67-.88A.31.31,0,0,0,93,56.8s-.09.12-.09.18a4.86,4.86,0,0,1,0,1.7,1,1,0,0,0,.07.47c0,.15.11.3.14.46a.54.54,0,0,1-.39.54.72.72,0,0,1-.25,0A1.87,1.87,0,0,1,91,59.47a8.1,8.1,0,0,0-.7-.85c-.38-.37-.79-.7-1.2-1a1.89,1.89,0,0,0-.3-.19.15.15,0,0,0-.21.07,3.51,3.51,0,0,0-.24,1.19A5,5,0,0,1,87.68,61a8.08,8.08,0,0,1-1.39,1.85.43.43,0,0,0-.14.32,1.9,1.9,0,0,0,.59,1.31c.21.19.46.34.68.52.64.51,1.43.77,2.07,1.27a.53.53,0,0,0,.34.13C90.48,66.41,91.09,66.77,91.61,66.58ZM58.23,106a.93.93,0,0,0,.22.16,24.46,24.46,0,0,0,2.89,1,.48.48,0,0,0,.12,0c.09,0,.25-.14.24-.23s-.05-.41-.05-.61c0-1.59-.19-3.17-.22-4.76a2.43,2.43,0,0,0-.08-.61,4,4,0,0,1-.11-1A30.61,30.61,0,0,0,61,95.65a5.82,5.82,0,0,1,0-.73c0-.61-.07-1.22-.12-1.83s-.12-1.14-.14-1.71c0-1.18-.26-2.35-.25-3.54a.53.53,0,0,0,0-.12.34.34,0,0,0-.33-.3c-.19,0-.42.09-.58-.09a3.7,3.7,0,0,0-1-.61c-.39-.22-.8-.42-1.2-.61a.38.38,0,0,0-.23,0c-.07,0-.18.07-.18.11a5.79,5.79,0,0,0,0,1.1c.19,1.17.13,2.36.36,3.52a2,2,0,0,1,0,.49,20.47,20.47,0,0,0,.14,2.93,25.8,25.8,0,0,1,.29,4,2,2,0,0,0,.05.49c.09.64.23,1.28.27,1.93.07,1.22.33,2.43.3,3.66a1.15,1.15,0,0,0,0,.49A2.11,2.11,0,0,1,58.23,106ZM87.12,54.3c.24.14.41.26.59.35A3.73,3.73,0,0,1,89,55.73a7.18,7.18,0,0,0,1.89,1.53.22.22,0,0,0,.28-.16,1.36,1.36,0,0,0,.07-.35c0-.94,0-1.87-.06-2.8a.49.49,0,0,1,.4-.54A.65.65,0,0,0,92.1,53c.1-.35.24-.69.36-1,.05-.15.09-.31.13-.47.09-.37,0-.55-.37-.62-.12,0-.24,0-.36,0a1.22,1.22,0,0,1-1-1.33,3,3,0,0,0,0-.6.48.48,0,0,0-.22-.27.81.81,0,0,0-.35-.06,15.9,15.9,0,0,1-3.76-.38,2.52,2.52,0,0,0-.48-.06,6.34,6.34,0,0,1-1.68-.27c-.17-.07-.4.15-.41.35a1.08,1.08,0,0,0,.14.58,3.94,3.94,0,0,1,.32.51.53.53,0,0,1-.21.64A3.33,3.33,0,0,1,83,50.3c-.38,0-.45.24-.3.61a1.53,1.53,0,0,0,.68.82,4.14,4.14,0,0,1,.65.54c0,.44,0,.84,0,1.25s0,.73,0,1.1.3.66.74.52a3.93,3.93,0,0,0,.56-.24A7.45,7.45,0,0,1,87.12,54.3Zm7.08,55.57a3.64,3.64,0,0,0-2.32.48,1.32,1.32,0,0,1-.56.21,5.22,5.22,0,0,0-2,.65c-.33.15-.69.25-1,.37-.81.29-1.62.56-2.42.86a6.46,6.46,0,0,0-.87.44.49.49,0,0,0-.24.4,3.11,3.11,0,0,0,0,.61,8.44,8.44,0,0,1,.11,2.07,3.13,3.13,0,0,0,.1.73.45.45,0,0,0,.44.33,2.54,2.54,0,0,0,.48-.09c.74-.24,1.48-.46,2.2-.73,1-.35,1.9-.74,2.88-1,.83-.22,1.6-.6,2.43-.83a5.58,5.58,0,0,0,.66-.3.75.75,0,0,0,.49-.77,18.36,18.36,0,0,0-.24-3.05A1.68,1.68,0,0,0,94.2,109.87Zm36.91-93.75h0c0,1,0,1.95.06,2.93a.71.71,0,0,0,.34.61c.11.06.21.14.31.19a7.84,7.84,0,0,1,2.56,1.6.26.26,0,0,0,.23,0,.77.77,0,0,0,.31-.19,4.18,4.18,0,0,0,.5-.69,6.38,6.38,0,0,1,1.21-1.53,4.27,4.27,0,0,0,.41-.44,5.35,5.35,0,0,1,1-1.23.37.37,0,0,0,0-.45,6.75,6.75,0,0,0-.57-.63,17.66,17.66,0,0,0-1.53-1.21,14.09,14.09,0,0,1-2.08-1.69,5.18,5.18,0,0,0-2.09-1.21.37.37,0,0,0-.41.19,2.28,2.28,0,0,0-.23,1.06Zm-18.54,91.43a6.12,6.12,0,0,0,.15-3.56.67.67,0,0,0-.89-.4l-.41.26a3.51,3.51,0,0,1-1.33.57,22.59,22.59,0,0,0-3,1,21.5,21.5,0,0,1-2.31.76A7.86,7.86,0,0,0,103,107c0,.51,0,1-.07,1.48s.18.88,0,1.33c.08.19.14.38.23.56a.41.41,0,0,0,.42.17l.7-.22c1.2-.39,2.39-.84,3.6-1.16A37.2,37.2,0,0,0,112.57,107.55ZM63.06,122.68h0c-.15-1.45-.32-2.91-.45-4.37a1.06,1.06,0,0,0-.68-.93c-.11,0-.21-.11-.33-.15-1.12-.39-2.16-1-3.24-1.43a9.07,9.07,0,0,0-.92-.32l-.11,0c-.08,0-.28.15-.26.22a20.46,20.46,0,0,1,.19,2.92,12.19,12.19,0,0,0,.09,2.56c0,.06,0,.15-.06.23,0,.31,0,.37.21.49A13.46,13.46,0,0,0,60,122.94a11.38,11.38,0,0,1,2.12.91c.74.41.91.24.94-.56C63.07,123.08,63.06,122.88,63.06,122.68ZM67.26,66l.45.1a2.51,2.51,0,0,0,2.2-.41,5,5,0,0,1,.62-.39,4.24,4.24,0,0,0,1.33-1.05,3.46,3.46,0,0,1,.6-.61A4.56,4.56,0,0,0,73.72,62l.78-1.52a2.19,2.19,0,0,0,.1-.34.61.61,0,0,0-.6,0c-1.13.33-2.29.57-3.41.95a9.43,9.43,0,0,1-1.54.4c-1.09.17-2.13.54-3.21.78l-.11,0a.34.34,0,0,0-.15.31A13.86,13.86,0,0,0,67.26,66Zm7.31,3.3s-.07.06-.07.09a.63.63,0,0,0,0,.24,3.77,3.77,0,0,0,1.13,1.43c.59.43,1.21.83,1.82,1.24a6.92,6.92,0,0,0,2.38.89A12.71,12.71,0,0,0,82,73,1.76,1.76,0,0,0,83,72.5a5.12,5.12,0,0,0,1-1.63,7.11,7.11,0,0,1,.4-.89,8.2,8.2,0,0,0,.76-2.69,9.78,9.78,0,0,1,.2-1.32,1.62,1.62,0,0,0,0-.49c0-.11-.07-.15-.17-.11s-.08,0-.1,0a1,1,0,0,0-.1.21,6.25,6.25,0,0,1-1.76,3.16,3.49,3.49,0,0,1-.43.43,5.73,5.73,0,0,1-3,1.25c-.33,0-.66,0-1,.06a4.28,4.28,0,0,1-2-.32C76,69.94,75.33,69.56,74.57,69.29Zm3-10.11c0,.1,0,.22,0,.24a2.77,2.77,0,0,0,.65.31,15.55,15.55,0,0,0,3.45.71c.69,0,1.38.08,2.07.07a2,2,0,0,0,.48-.07,12.29,12.29,0,0,0,1.54-1,18.63,18.63,0,0,0,2-2.56.83.83,0,0,0,.08-.22c.08-.24-.26-.61-.5-.56a1.29,1.29,0,0,0-.35.1,7.06,7.06,0,0,1-1.94.71,13.2,13.2,0,0,0-1.51.47,31.34,31.34,0,0,1-5,1.46C78.24,58.94,77.9,59.08,77.56,59.18ZM68.11,86.63c.42.49.55.6,1,.63a8.25,8.25,0,0,0,2.67,0,1,1,0,0,1,.71.11l.52.31a.73.73,0,0,1,.38.59,10.09,10.09,0,0,0,.12,1.09.73.73,0,0,0,.59.55,4.77,4.77,0,0,0,1.46,0,.41.41,0,0,0,.33-.31,5.81,5.81,0,0,0,0-.72c0-1-.11-1.95-.18-2.92a5.41,5.41,0,0,0-.12-.72,1.66,1.66,0,0,0-.15-.33.59.59,0,0,0-.5-.29l-.36.06c-.69.13-1.33.37-2,.56-1.28.38-2.58.72-3.87,1.08A1.06,1.06,0,0,0,68.11,86.63ZM46.7,122a8.35,8.35,0,0,0-.18,1,9.93,9.93,0,0,0,0,1.22.13.13,0,0,0,.17.13,3.32,3.32,0,0,0,.71-.15,17,17,0,0,0,1.87-.9,18.22,18.22,0,0,1,3.41-1.66,12.86,12.86,0,0,0,2.48-1.33.74.74,0,0,0,.35-.73c0-.12,0-.24,0-.36a.36.36,0,0,0-.38-.38,2.22,2.22,0,0,0-.94.24,4.56,4.56,0,0,1-1.64.48A3.57,3.57,0,0,0,51,120c-.33.17-.63.37-.94.57a4.53,4.53,0,0,1-1.81.72,2,2,0,0,0-.59.14C47.38,121.61,47,121.64,46.7,122ZM94.34,55.46a.2.2,0,0,0,0,.11,2.94,2.94,0,0,0,1.36,1.34,6.44,6.44,0,0,1,.63.36,3.32,3.32,0,0,0,1.73.53A1.88,1.88,0,0,0,100,56.74a21.72,21.72,0,0,0,1.23-3c0-.14-.12-.29-.29-.28a2.67,2.67,0,0,0-.92.29,4.09,4.09,0,0,1-.79.32c-.63.15-1.26.28-1.9.39a10.34,10.34,0,0,0-2.78.87C94.44,55.32,94.39,55.4,94.34,55.46ZM45,123.47c0-.38,0-.54,0-.7a1.31,1.31,0,0,0-.78-1.27A34.57,34.57,0,0,0,40.85,120l-.23-.08a9.9,9.9,0,0,1-2-.56c-.21-.07-.45.1-.41.3a11.78,11.78,0,0,0,.24,1.32.71.71,0,0,0,.28.38c1.05.63,2.05,1.33,3.15,1.88.77.38,1.51.8,2.27,1.2a3.31,3.31,0,0,0,.33.15.31.31,0,0,0,.37-.22C44.91,124,45,123.62,45,123.47ZM134.62,22.36a1,1,0,0,0,0,.27,9.94,9.94,0,0,0,.72,2.2.16.16,0,0,0,.08.1c.07,0,.16.08.22.06a2.1,2.1,0,0,0,.53-.29,9.23,9.23,0,0,1,1.38-1c1.16-.75,2.28-1.58,3.45-2.32a.39.39,0,0,0,.18-.28.38.38,0,0,0-.22-.26,4.06,4.06,0,0,0-2-.28,4.05,4.05,0,0,1-1.1,0,.74.74,0,0,0-.66.23,3.57,3.57,0,0,0-.7.85c-.15.24-.31.48-.48.71a.76.76,0,0,1-.87.21ZM70.9,73.23a4.28,4.28,0,0,0,.73-2c.08-.85.14-1.71.2-2.56a1.13,1.13,0,0,0-.06-.36.34.34,0,0,0-.33-.29,2.47,2.47,0,0,1-.72,0,9.52,9.52,0,0,1-2.44-.78.27.27,0,0,0-.12,0,.76.76,0,0,0-.21.08s0,.07,0,.1c.61,1.33,1.21,2.67,1.82,4a5,5,0,0,0,.5.84C70.47,72.53,70.5,72.93,70.9,73.23ZM88,58.49a2.09,2.09,0,0,0,0-.25s0-.1,0-.1-.18,0-.21,0a9.91,9.91,0,0,1-2.34,2.45,2.79,2.79,0,0,1-2.26.65A10,10,0,0,0,81.28,61a4.6,4.6,0,0,1-1.56-.22,2.19,2.19,0,0,0-.36,0s-.11,0-.11,0,0,.18,0,.21a7.19,7.19,0,0,0,1.92,1c1,.33,2.08.38,3.11.65a.94.94,0,0,0,.59-.07,8.35,8.35,0,0,0,1.53-.75,3.46,3.46,0,0,0,.8-1.21,2.26,2.26,0,0,0,.13-.2A4.41,4.41,0,0,0,88,58.49ZM45.53,112.32l.34.27c.59.4,1.1,1,1.91,1a.21.21,0,0,1,.11,0c.81.48,1.78.58,2.56,1.11a.45.45,0,0,0,.11,0,.34.34,0,0,0,.42-.32c0-.48-.08-1-.15-1.45a.43.43,0,0,0-.21-.27,5.94,5.94,0,0,0-.78-.34l-3.12-1-.93-.28a.28.28,0,0,0-.28.16A2.8,2.8,0,0,0,45.53,112.32Zm3.69,5.42a2.25,2.25,0,0,0,0,1.16.22.22,0,0,0,.18.12c.27-.09.53-.19.79-.3a6.18,6.18,0,0,1,1.62-.54,6.26,6.26,0,0,0,2.07-.7,2.37,2.37,0,0,1,1.16-.34c.24,0,.41-.26.38-.53s-.11-.64-.18-1a.27.27,0,0,0-.39-.15l-1.27.74a.85.85,0,0,1-.92.07.55.55,0,0,0-.36,0,1.56,1.56,0,0,0-.33.14,4.79,4.79,0,0,1-1.92.73c-.11,0-.21.12-.32.18Zm1.1-37.66c-.79-.42-1.52-.88-2.3-1.2s-1.59-.79-2.4-1.15c-.15-.07-.3-.12-.45-.18a.15.15,0,0,0-.21.08.14.14,0,0,0,0,.11,1.24,1.24,0,0,0,.51.8,2,2,0,0,0,1.22.5,2.76,2.76,0,0,1,1.06.22.59.59,0,0,1,.39.57,2.81,2.81,0,0,0,.06,1.08,1,1,0,0,0,.21.43,3.7,3.7,0,0,0,1.88,1.07c.08,0,.27-.12.27-.2a.52.52,0,0,0,0-.11C50.49,81.41,50.4,80.73,50.32,80.08Zm-8.11,35.79v.32c0,.08,0,.16,0,.24a.56.56,0,0,0,.5.46,1.87,1.87,0,0,1,1.17.27A21.69,21.69,0,0,0,47,118.84a1,1,0,0,0,.23.07.31.31,0,0,0,.36-.24.89.89,0,0,0-.21-.8,5,5,0,0,0-1.79-1.25c-1-.38-2-.79-2.95-1.18l-.12,0a.29.29,0,0,0-.29.17Zm6.43.69.94-.65a.3.3,0,0,0,0-.43,1.43,1.43,0,0,0-.3-.2l-3.45-1.23a.56.56,0,0,0-.35,0c-.41.16-.81,0-1.2,0a.55.55,0,0,0-.3.18.21.21,0,0,0,0,.2,1.86,1.86,0,0,0,.91.57,6.92,6.92,0,0,1,1.93,1A2.46,2.46,0,0,0,48.64,116.56ZM97.49,60.07a1.62,1.62,0,0,0,1.66-1.16.23.23,0,0,0-.22-.32A5.17,5.17,0,0,1,97,58.32a4.41,4.41,0,0,1-1.19-.59,6.2,6.2,0,0,0-.93-.56,1.78,1.78,0,0,1-.86-.83,1.18,1.18,0,0,0-.23-.28c-.07-.08-.15-.09-.18,0s-.07.17,0,.23A5.63,5.63,0,0,0,94.7,58a14.9,14.9,0,0,0,2.23,1.88A1.91,1.91,0,0,0,97.49,60.07ZM72.28,69.79c0,.37-.06.73-.1,1.09s-.11.81-.16,1.22a2.27,2.27,0,0,1-.38,1,3.51,3.51,0,0,0-.27.4,1.15,1.15,0,0,0-.13,1,3.52,3.52,0,0,0,.66,1.29s.14,0,.22.07a2.57,2.57,0,0,0,.4-1.27c0-.65.11-1.29.18-1.94a11.05,11.05,0,0,0,0-2.44A.37.37,0,0,0,72.28,69.79ZM41.13,118.51l1.16.54a12.27,12.27,0,0,0,1.19.62c.72.29,1.46.53,2.2.76a1.37,1.37,0,0,0,.59-.07c.15,0,.25-.16.21-.24s-.08-.17-.14-.19c-1.06-.44-2.08-1-3.1-1.47a2.54,2.54,0,0,0-.91-.32c-.21,0-.44.17-.67.25A4.88,4.88,0,0,1,41.13,118.51Zm12.71-4.35c0-.1,0-.19-.05-.23a1.61,1.61,0,0,0-1.09-.46.31.31,0,0,0-.26.19.9.9,0,0,0,.07.7c0,.06.13.14.18.13C53.08,114.39,53.46,114.27,53.84,114.16ZM71.22,88.83a.94.94,0,0,0-.22-.07c-.52,0-1,0-1.56-.05,0,0-.11.07-.15.13s0,.08,0,.1a1.82,1.82,0,0,0,1.82.1S71.2,88.91,71.22,88.83ZM73.1,68.9a.86.86,0,0,0,.2-.13c.21-.23.2-.41,0-.59A1.14,1.14,0,0,0,73,68s-.07,0-.09,0-.06.07,0,.09A1.61,1.61,0,0,0,73.1,68.9Z"/><path class="cls-1" d="M105.36,82a10.64,10.64,0,0,0,.13,2.56.45.45,0,0,1,0,.12c0,.36-.16.7,0,1.09a3.94,3.94,0,0,1,0,1.09,2.53,2.53,0,0,1-.08.48c0,.06-.11.1-.18.14s-.06,0-.07,0c-.08-.6-.19-1.21-.24-1.81s-.06-1.23,0-1.84a3.16,3.16,0,0,0-.35-1.65.34.34,0,0,1,.13-.42c.22-.11.43-.23.66-.32.42-.17.84-.33,1.27-.46a2.6,2.6,0,0,0,.87-.42,1.13,1.13,0,0,1,.33-.16.86.86,0,0,1,1.2.79,8.26,8.26,0,0,0,0,1.22c.07,1,0,2,.17,2.93a51,51,0,0,1,.08,5.39A11.91,11.91,0,0,0,109.4,93a2.09,2.09,0,0,1,0,.61,1.56,1.56,0,0,0,.15.82,3.79,3.79,0,0,1,.1.84.79.79,0,0,1-.37.84,3.1,3.1,0,0,1-.87.44c-.89.29-1.79.55-2.69.82l-.35.07c-.12,0-.33-.23-.28-.34a3.41,3.41,0,0,0,.21-1.92s0-.08,0-.12c0-1.92-.18-3.83-.27-5.75a2.1,2.1,0,0,1,.1-1,.14.14,0,0,1,.07-.08c.1,0,.18,0,.19.09a18.15,18.15,0,0,1,.24,3c0,.82.08,1.63.17,2.44a8.45,8.45,0,0,1,.13,2.07.64.64,0,0,0,.26.53.44.44,0,0,0,.44.13,1.51,1.51,0,0,0,.57-.22,2.24,2.24,0,0,1,1.1-.46.53.53,0,0,0,.43-.39,2.44,2.44,0,0,0,.15-.59,8.14,8.14,0,0,0-.08-.85q-.12-1.65-.09-3.3c0-1.84,0-3.68-.06-5.51,0-1-.17-2-.24-2.93a2.11,2.11,0,0,0-.32-.91c-.19-.32-.39-.41-.7-.28C106.74,81.4,106.08,81.7,105.36,82Z"/><path class="cls-1" d="M88.39,99.67c0,.76,0,1.45,0,2.15,0,.12,0,.24,0,.36a.6.6,0,0,1-.39.43,1.06,1.06,0,0,1-.23,0,4.35,4.35,0,0,0-2.11.56c-.51.25-1,.44-1.57.66-.11,0-.24.06-.35.09a.41.41,0,0,1-.42-.36c.09-1.1-.13-2.19-.06-3.29a9.13,9.13,0,0,0-.14-1.46A12,12,0,0,1,83,97.4a25.65,25.65,0,0,0-.16-4,1.53,1.53,0,0,1,0-.37,14.2,14.2,0,0,0,0-2.44,9.93,9.93,0,0,0-.18-1.2.43.43,0,0,1,.2-.42,6,6,0,0,1,1.56-.69,6.12,6.12,0,0,0,1.59-.6,6.28,6.28,0,0,1,1.73-.57c.08,0,.24.14.25.23,0,.61,0,1.22,0,1.83l.06,2.93a2.17,2.17,0,0,0,0,.36A13.92,13.92,0,0,1,88.27,96c-.06.7.12,1.37.12,2.07A11.08,11.08,0,0,1,88.39,99.67ZM83.48,89.46c0,.31-.07.6-.07.88,0,1.55,0,3.1,0,4.65,0,1,.19,2,.12,3.05a2.42,2.42,0,0,0,0,.25c.11,1.34.21,2.68.34,4a4.64,4.64,0,0,0,.19.82.35.35,0,0,0,.4.19c.41-.19.81-.4,1.22-.57.57-.24,1.14-.45,1.71-.68.28-.11.44-.3.37-.55a3.71,3.71,0,0,1,0-1.69,4,4,0,0,0,0-.85,6.37,6.37,0,0,1-.06-2,10.69,10.69,0,0,1,0-2.19c0-.37,0-.73-.06-1.1s-.08-.49-.08-.73c0-1.51-.19-3-.13-4.52,0-.67,0-1-.8-.56a9.83,9.83,0,0,1-1.48.57A5.22,5.22,0,0,0,83.48,89.46Z"/><path class="cls-1" d="M98.71,86c0,.61.07,1.14.1,1.67s.09,1.14.07,1.71c0,1.26.06,2.51.11,3.77,0,.12,0,.25,0,.37a40.9,40.9,0,0,1,.17,5.86.43.43,0,0,1-.45.47,8.41,8.41,0,0,0-2.47.64,1.92,1.92,0,0,1-.48.07.61.61,0,0,1-.55-.41c0-.61-.13-1.22-.13-1.83A8.47,8.47,0,0,0,95,97a2.77,2.77,0,0,1,0-.49c.07-1.06-.14-2.11-.17-3.17-.06-1.63-.19-3.25-.32-4.87,0-.41,0-.82-.06-1.22a3,3,0,0,0-.2-1.08,1.84,1.84,0,0,1-.14-.84.6.6,0,0,1,.36-.58l.78-.35a13.94,13.94,0,0,0,1.67-.75,2.15,2.15,0,0,1,1.28-.28.45.45,0,0,1,.5.42A6.14,6.14,0,0,1,98.71,86Zm-.56-2a3.27,3.27,0,0,0-.81,0c-.73.24-1.45.51-2.18.79a.49.49,0,0,0-.28.37,2.45,2.45,0,0,0,0,1A9,9,0,0,1,95,88.28c0,.21,0,.41,0,.61.08,1.34.34,2.67.29,4a2.7,2.7,0,0,0,0,.49,29.58,29.58,0,0,1,.26,3.65,1.46,1.46,0,0,0,0,.36,10.19,10.19,0,0,1,.17,1.82,2.08,2.08,0,0,0,.11.48.4.4,0,0,0,.39.23,1.4,1.4,0,0,0,.47-.08,7.5,7.5,0,0,1,1.72-.61.38.38,0,0,0,.26-.37c0-.41-.09-.81-.09-1.21,0-1.15,0-2.29,0-3.43a2.89,2.89,0,0,0-.08-.72,9,9,0,0,1-.13-1.71c0-1.3-.09-2.6-.13-3.91,0-.77,0-1.55,0-2.32A5.79,5.79,0,0,0,98.15,84Z"/><path class="cls-1" d="M105.13,40a3.87,3.87,0,0,1,.17-.76,13.54,13.54,0,0,1,1.22-2.51,2.85,2.85,0,0,1,.31-.38.6.6,0,0,1,.77-.07.43.43,0,0,1,.22.51c-.13.3-.26.6-.41.88a11.25,11.25,0,0,0-.9,2.25,2,2,0,0,0,0,1.42.33.33,0,0,1-.18.41.52.52,0,0,1-.33.09.93.93,0,0,1-.67-.48A2.31,2.31,0,0,1,105.13,40Z"/><path class="cls-1" d="M131.15,35.21a1.22,1.22,0,0,1-1-1,7.93,7.93,0,0,1-.08-1,14.39,14.39,0,0,0-.22-2.07,12.56,12.56,0,0,0-.64-2.35,10.58,10.58,0,0,0-.74-1.81,6,6,0,0,0-.44-.74c-.54-.61-.9-1.36-1.5-1.93a1.36,1.36,0,0,1-.26-.54.42.42,0,0,1,.48-.52l.12,0a1.91,1.91,0,0,1,1.45,1,24.56,24.56,0,0,1,1.59,2.46,5.15,5.15,0,0,1,.42.89,27.84,27.84,0,0,1,1.15,4.11,1.87,1.87,0,0,1,0,.25,11.57,11.57,0,0,0,.26,2.42.65.65,0,0,1-.41.69A.93.93,0,0,1,131.15,35.21Z"/><path class="cls-1" d="M126.36,33.9a8.13,8.13,0,0,0-.26-2.3,15.58,15.58,0,0,0-.92-2.64,1.87,1.87,0,0,0-.9-1,2.08,2.08,0,0,0-.55-.25c-.45-.1-.66-.45-.92-.76a.37.37,0,0,1,.15-.51,1.59,1.59,0,0,1,.48-.07,3.66,3.66,0,0,1,1.6.53,3.72,3.72,0,0,1,1.67,1.87c.43,1.06.77,2.14,1.1,3.23a2.7,2.7,0,0,1,.09.48c.09.69.17,1.37.24,2.06a4,4,0,0,1,0,.49.54.54,0,0,1-.5.45,1.53,1.53,0,0,1-.81-.21,1,1,0,0,1-.48-.8C126.35,34.3,126.36,34.1,126.36,33.9Z"/><path class="cls-2" d="M27.11,134.15A20.5,20.5,0,0,1,12,128.1a17,17,0,0,1-5.14-11.43c0-13.54,0-23.49-.2-31.24-.27-12.32-.55-22.75-.82-32.83S5.29,32.08,5,19.76H5C4.93,15.9,5.11,11.58,8.32,9c1.91-1.52,4.38-2,7-2.31,29.46-4,62.51-2.95,94.47-1.92,20.94.67,40.71,1.31,59.63.64A9.6,9.6,0,0,1,176.22,8a8.32,8.32,0,0,1,2.69,5.81c1.28,40.62,2,72.47-1,112.54a8.6,8.6,0,0,1-9.21,7.68c-17.54-.71-63.44-.36-100.32-.08C51.51,134,37,134.15,27.11,134.15ZM6.69,19.72C7,32,7.24,42.47,7.51,52.55s.55,20.52.82,32.84c.17,7.77.21,17.73.2,31.28a15.54,15.54,0,0,0,4.66,10.26,18.88,18.88,0,0,0,13.92,5.55c9.86,0,24.39-.11,41.22-.24,36.9-.28,82.82-.64,100.4.08a6.93,6.93,0,0,0,7.47-6.14c3-40,2.32-71.79,1-112.36a6.64,6.64,0,0,0-2.16-4.64,7.89,7.89,0,0,0-5.65-2.07c-19,.67-38.78,0-59.75-.64-31.89-1-64.86-2.09-94.19,1.9-2.33.32-4.55.71-6.13,2C6.75,12.41,6.61,16.27,6.69,19.72Z"/></svg>