<svg id="Layer_1" data-name="Layer 1" xmlns="http://www.w3.org/2000/svg" viewBox="0 0 185 138"><defs><style>.cls-1{fill:#fc3;}</style></defs><title>Artboard 5</title><path class="cls-1" d="M103.24,58.46c.14,0,.3.09.41,0q.66-.28,1.29-.63l4.59-2.63a4.62,4.62,0,0,0,.82-.57,3.7,3.7,0,0,0,1.2-1.89,19,19,0,0,0,.67-3.5c0-.43.12-.85.18-1.27a4.45,4.45,0,0,0,.09-.71,17.8,17.8,0,0,1,.69-4.23,17.37,17.37,0,0,1,.79-2.15c.19-.48.39-1,.57-1.46a8.17,8.17,0,0,1,1.58-2.7c.34-.39.66-.81,1-1.22s.55-.66.85-1a41.84,41.84,0,0,1,7-5.7l2-1.36a29.44,29.44,0,0,1,5.14-2.81,12.28,12.28,0,0,0,2.18-1.08,1.34,1.34,0,0,1,.39-.16.94.94,0,0,1,.7,0,1.62,1.62,0,0,1,.8.79.59.59,0,0,1-.07.54,3.3,3.3,0,0,1-1.53,1c-.45.13-.91.26-1.36.41a10,10,0,0,0-1.94.9c-1.77,1-3.47,2.19-5.16,3.36a37.53,37.53,0,0,0-6.28,5.18c-.36.38-.7.78-1,1.18s-.6.74-.94,1.08a5.09,5.09,0,0,0-1.09,1.66c-.15.35-.29.7-.45,1.05a1.1,1.1,0,0,0,.17,1.2,2,2,0,0,0,.18.23,19.37,19.37,0,0,0,2.15,2.29,4.91,4.91,0,0,1,.51.51q2.68,3,5.37,5.94a8.65,8.65,0,0,1,.71.89,18.87,18.87,0,0,0,2.36,2.69c.51.49,1,1,1.53,1.5a3.2,3.2,0,0,1,1,1.51,1,1,0,0,0,.7.66,2.14,2.14,0,0,0,.82.23,1.32,1.32,0,0,1,.28,0,1.13,1.13,0,0,1,.92,1.24c-.19,2.43-.17,4.86-.18,7.3,0,1.67,0,3.34,0,5,0,.71,0,1.43-.08,2.14a23,23,0,0,0,0,3c0,1,0,2.1,0,3.15,0,1.48.07,3,.13,4.43.1,2.43.13,4.86.18,7.29,0,1.86.1,3.72.16,5.58,0,1.19.12,2.38.18,3.57,0,.67.07,1.33.1,2a5,5,0,0,1,0,.86,2.15,2.15,0,0,0,.16,1.25,2,2,0,0,1,.09.42.58.58,0,0,1-.34.71,1.28,1.28,0,0,0-.86.68.83.83,0,0,1-.41.37,4.49,4.49,0,0,1-.78.34c-1.14.36-2.27.75-3.42,1-1.63.41-3.2,1-4.78,1.5a4.08,4.08,0,0,1-.67.23,22.47,22.47,0,0,0-3.38,1.16c-.26.1-.54.18-.81.27a13.47,13.47,0,0,0-1.34.49,24.44,24.44,0,0,1-4.33,1.44,17.57,17.57,0,0,0-1.9.62c-.85.32-1.68.66-2.52,1l-.27.11a34.88,34.88,0,0,0-4.34,1.41,17.13,17.13,0,0,0-2.22.55,7.55,7.55,0,0,0-1.72.69c-.38.2-.78.37-1.17.55a17.52,17.52,0,0,1-2.13.79,20,20,0,0,0-1.87.71,10.73,10.73,0,0,1-2.6.8,4.15,4.15,0,0,0-1.34.48c-.5.27-1,.5-1.52.79a14.62,14.62,0,0,1-3,1.27c-.63.2-1.25.44-1.87.7a13.05,13.05,0,0,1-2,.64,9.1,9.1,0,0,0-2.23.94c-.55.3-1.1.57-1.65.85a11.1,11.1,0,0,1-2.31.74,1,1,0,0,1-.42-.06.48.48,0,0,1-.32-.43.88.88,0,0,1,0-.28,13.49,13.49,0,0,0,.5-3,2.89,2.89,0,0,0,0-.72c-.13-1.18-.12-2.38-.36-3.55a10.83,10.83,0,0,1-.1-1.71.51.51,0,0,1,.37-.39,1.63,1.63,0,0,1,1.24.15,1.09,1.09,0,0,0,1,.08c1-.29,1.92-.57,2.87-.88a7,7,0,0,0,.81-.36c-.11-.15-.17-.3-.28-.36-1.14-.69-2.3-1.37-3.44-2-.83-.49-1.65-1-2.52-1.37a6.2,6.2,0,0,1-1.11-.65c-.92-.67-1.85-1.35-2.74-2.06a10.31,10.31,0,0,0-2-1.18,12.14,12.14,0,0,1-2.31-1.42,10.45,10.45,0,0,0-2.85-1.62c-.13,0-.25-.12-.39-.18a2.34,2.34,0,0,0-.13-.4.3.3,0,0,0-.21-.16A1.48,1.48,0,0,0,63,105a24.26,24.26,0,0,1-5.08,1.89c-1.27.41-2.56.75-3.86,1a28.6,28.6,0,0,0-2.81,1,3.75,3.75,0,0,1-1.6-.94.73.73,0,0,1-.16-.23,3.39,3.39,0,0,1-.18-.39,4.25,4.25,0,0,1-.48-1.18,5.63,5.63,0,0,1,.21-1.25,11.1,11.1,0,0,0,.13-1.28c.07-1.29.11-2.58.16-3.86,0-.15,0-.29,0-.43a.68.68,0,0,1,1-.51,4.14,4.14,0,0,1,.62.35.87.87,0,0,0,.68.15,9.11,9.11,0,0,0,2.22-.54,4.63,4.63,0,0,1,1.95-.39,5.57,5.57,0,0,0,3-.81,2.36,2.36,0,0,1,1.48-.43,4.78,4.78,0,0,0,2.06-.51c0-.23.07-.42.08-.6,0-.72,0-1.43.08-2.15a5,5,0,0,0-.18-1.55,9.44,9.44,0,0,1-.21-3.13,23.62,23.62,0,0,0,0-3.57c-.07-1-.12-2.1-.14-3.15-.05-2.43-.15-4.86-.08-7.3a10.84,10.84,0,0,0,0-1.14,3.16,3.16,0,0,0-.13-.53,6.52,6.52,0,0,1-4-2.39l-.84-1-.71.06a3.58,3.58,0,0,1-1.56-.09,3.42,3.42,0,0,0-.85-.12,4,4,0,0,1-1.62-.49,1.4,1.4,0,0,1-.85-.91c-.17-.59-.44-1.16-.64-1.74a.62.62,0,0,1,.44-.78L54,65.46a8.42,8.42,0,0,0,2.12-.25,2.28,2.28,0,0,0,.69-.19,7.3,7.3,0,0,1,2.89-.73c.6,0,1.07-.4,1.64-.48a1.3,1.3,0,0,0,.48-.32,18.41,18.41,0,0,0,2.7-2.74,11.28,11.28,0,0,1,1.61-1.63,11.55,11.55,0,0,0,1.33-1.29c.88-.94,1.71-1.92,2.62-2.83s1.7-2.19,2.58-3.26c.15-.18.29-.37.43-.57a1.55,1.55,0,0,1,1.64-.59.69.69,0,0,1,.48.28c.38.55.81,1.07,1.16,1.63A24.91,24.91,0,0,0,78.3,54.8a.87.87,0,0,0,.58.4c-.09-.4-.17-.77-.25-1.14s-.13-.75-.18-1.13-.09-.76-.12-1.14c-.06-.76-.12-1.52-.15-2.28,0-.95,0-1.91,0-2.86,0-.34,0-.67,0-1a3.74,3.74,0,0,1,.66-2l.48-.71a1.21,1.21,0,0,0,.14-1.34,1.14,1.14,0,0,1,0-1c.12-.31.28-.61.4-.92a1.42,1.42,0,0,0-.1-1.37,5.66,5.66,0,0,0-.56-.82.85.85,0,0,1-.1-1.06,8.45,8.45,0,0,1,1.17-1.62,1.66,1.66,0,0,0,.57-.86,10.28,10.28,0,0,0-.69-1,1.54,1.54,0,0,1-.39-1.19c0-.33,0-.66.1-1a.45.45,0,0,1,.34-.42,12.58,12.58,0,0,0,2.33-1.07.74.74,0,0,0,.32-.44c.15-.45.26-.92.39-1.38a3,3,0,0,1,1-1.7c.06,0,.06-.17.1-.31-.34-.29-.72-.58-1.06-.91a5.61,5.61,0,0,1-1.56-2.19c-.08-.22-.14-.45-.21-.68s-.13-.56-.23-.83a2.75,2.75,0,0,0-1.16-1.58,1.06,1.06,0,0,1-.55-.79c0-.17.08-.47.2-.5a15.23,15.23,0,0,0,2.62-1.13,9.92,9.92,0,0,1,1.37-.42,6.35,6.35,0,0,0,1.62-.56.38.38,0,0,0,.14-.49L83.94,12.8a1.92,1.92,0,0,0-.18-.22.84.84,0,0,1,.55-1.4c.61-.11,1.21-.26,1.82-.38a1.37,1.37,0,0,1,.28-.05,24.06,24.06,0,0,1,4.57-.1,6.93,6.93,0,0,0,1.29,0,24.26,24.26,0,0,1,3.71.25c.8.1,1.58.31,2.38.47l.83.19c.1,0,.21,0,.28.05a8.11,8.11,0,0,0,2.13.77.74.74,0,0,1,.35.23.67.67,0,0,1,.15.37,3.2,3.2,0,0,1-.12.7c-.09.27-.21.54-.31.8a24.09,24.09,0,0,0-1.15,4.57,12.11,12.11,0,0,1-.48,1.79A6,6,0,0,0,99.75,22a.82.82,0,0,0,.24.79,3.23,3.23,0,0,1,.93,1.24,2.67,2.67,0,0,0,.4.59.51.51,0,0,0,.37.15,3.38,3.38,0,0,0,.84-.16c.41-.13.8-.3,1.21-.45A2.47,2.47,0,0,1,105,24a16.26,16.26,0,0,1,2,.36,1.23,1.23,0,0,1,1,.95c.09.41.24.82.37,1.25a1.07,1.07,0,0,0,.38-.13A33.65,33.65,0,0,0,112.14,23,74,74,0,0,0,117,16.27a12.08,12.08,0,0,0,1.54-3.22.51.51,0,0,1,.71-.27,1.29,1.29,0,0,1,.73,1.53,4.65,4.65,0,0,1-.33.8,17.92,17.92,0,0,1-1.76,3.1,39.53,39.53,0,0,1-2.74,4.18c-.31.48-.69.91-1,1.36a3.92,3.92,0,0,0-.27.33A18.26,18.26,0,0,1,109.86,28c-.89.73-1.79,1.43-2.69,2.14a5.55,5.55,0,0,1-1.35.79c-.53.23-1,.46-1.55.73a27.91,27.91,0,0,1-2.76,1.18,6,6,0,0,0-.79.33,1.15,1.15,0,0,0-.43.36q-.5.7-.93,1.44c-.22.37-.41.75-.61,1.13a5,5,0,0,0-.36.78,14.59,14.59,0,0,1-1.56,3.2c-.45.79-1,1.54-1.42,2.32a9,9,0,0,1-1.34,1.67c-.16.18-.35.33-.51.51a27.05,27.05,0,0,1-4.07,3.79c-.08.06-.08.24-.11.36a8,8,0,0,0,3.3-.14,1.2,1.2,0,0,0,.27-.08,9.28,9.28,0,0,0,3-1.89,10.7,10.7,0,0,1,1-1,10.14,10.14,0,0,0,1.9-2.13,5,5,0,0,1,.53-.68,5.09,5.09,0,0,0,1.09-1.66,2.64,2.64,0,0,1,.84-1.14,10.72,10.72,0,0,0,2.13-2.32c.25,0,.48-.07.72-.07a.88.88,0,0,1,.73.38,4.84,4.84,0,0,1,.33.46.57.57,0,0,1,0,.55,1.54,1.54,0,0,1-.53.66,2.4,2.4,0,0,0-.39.39c-.07.07,0,.36.11.37.47,0,.94.08,1.42.09,1.1,0,2.19.06,3.29,0a2.22,2.22,0,0,1,1.85.91.63.63,0,0,1,.18.65.78.78,0,0,1-.84.42l-.54-.15a1.58,1.58,0,0,0-.43,0s-.15.14-.14.18c.12.31.24.62.39.92a3.73,3.73,0,0,1,.41,1.5,4.51,4.51,0,0,1-.24,2c-.48,1.3-1.09,2.54-1.63,3.81a11.93,11.93,0,0,1-1.49,2.59,9.85,9.85,0,0,0-1,1.58,15.4,15.4,0,0,1-2.5,3.64c.1,0,.11,0,0,0ZM93,42a1.66,1.66,0,0,1-1.52,0,.72.72,0,0,1-.44-.67c0-.62,0-1.24,0-1.86a3.64,3.64,0,0,0,0-.56.44.44,0,0,0-.4-.33,1.17,1.17,0,0,0-.54.14,12,12,0,0,0-1.08.93,2.61,2.61,0,0,0-.54.66,7.66,7.66,0,0,0-1.29,3.15c0,.24-.27.38-.51.45a1.31,1.31,0,0,1-1-.11.86.86,0,0,1-.51-.79,1.85,1.85,0,0,1,.28-1,7.23,7.23,0,0,0,.81-1.82c-.08,0-.17-.15-.22-.13-.78.34-1.57.67-2.33,1.06A5.7,5.7,0,0,0,81.62,43c-.39.54-.68,1.14-1,1.72a3.2,3.2,0,0,0-.48,1.76c0,1,0,1.91.06,2.87,0,1.42.14,2.85.3,4.27A5.24,5.24,0,0,0,81,55.36a7.85,7.85,0,0,1,.32.8c.35.94.67,1.88,1.1,2.79a15.23,15.23,0,0,0,1.73,2.94l2.07,2.74a25.75,25.75,0,0,0,2,2.45A9.36,9.36,0,0,1,90,69.59a1.27,1.27,0,0,0,.38.42.29.29,0,0,0,.26,0,2.23,2.23,0,0,0,.73-.67,12.65,12.65,0,0,1,1.32-1.5,13.64,13.64,0,0,0,2.58-3A16.37,16.37,0,0,1,97,62.7c.61-.66,1.16-1.39,1.73-2.09a.62.62,0,0,0,.14-.25,2.21,2.21,0,0,1,1.05-1.29,2.21,2.21,0,0,0,.42-.39,23.33,23.33,0,0,0,3.59-4.79,15.73,15.73,0,0,1,1.27-2.07,8.47,8.47,0,0,0,1-1.74c.33-.79.71-1.56,1-2.35s.55-1.42.82-2.13a1.66,1.66,0,0,0,0-1.12c-.12-.41-.21-.83-.35-1.24a2.51,2.51,0,0,0-.36-.61.91.91,0,0,0-.72-.39c-.67,0-1.34-.06-2-.09a2.8,2.8,0,0,0-1.65.35,10.46,10.46,0,0,1-1.07.47c-.45.59-1,1.17-1.36,1.81a9.56,9.56,0,0,1-1.17,1.44,27.39,27.39,0,0,0-2,2,1.26,1.26,0,0,1-.33.27c-.43.29-.89.56-1.31.87a6.63,6.63,0,0,1-3.19,1.16c-.42.06-.84.14-1.27.17a5.57,5.57,0,0,1-1,0c-.37,0-.75-.1-1.12-.17A4.48,4.48,0,0,1,86.49,49a.81.81,0,0,1,.23-1.24,4,4,0,0,0,1.6-1.17,1.72,1.72,0,0,1,.46-.32,9.19,9.19,0,0,0,2-1.65c.39-.42.8-.82,1.19-1.24s.65-.69,1-1.06c.08-.09.06-.26.09-.39a.81.81,0,0,0,.56-.38c.26-.4.49-.81.71-1.22a.28.28,0,0,0-.09-.37c-.3-.2-.56-.52-1-.47a1.61,1.61,0,0,0-.24,1.07C93,41,93,41.5,93,42ZM92,73.39a5,5,0,0,0-.08.6c0,1.76.11,3.53.17,5.29,0,1,.12,2.09.14,3.14,0,2.29.06,4.58.09,6.87,0,.71,0,1.43,0,2.14.07,1.48.15,3,.23,4.43a19.28,19.28,0,0,1,0,2.15,31.05,31.05,0,0,0-.06,3.86c.08,1.43.13,2.86.21,4.28,0,.81.12,1.62.2,2.43.12,1.32.32,2.64.31,4a27.49,27.49,0,0,0,.14,3.14,14.94,14.94,0,0,1,.27,2.41c0,.17.23.3.42.24a29.27,29.27,0,0,0,3.18-1.17,2.3,2.3,0,0,0,.2-1.16l-.09-3.86a.22.22,0,0,1,0-.14.91.91,0,0,1,.24-.33,1,1,0,0,1,.39-.15,17,17,0,0,0,3.83-1.54,3.26,3.26,0,0,1,1.35-.44,3.21,3.21,0,0,0,1.1-.3l.66-.28a7.33,7.33,0,0,1,1.39-.3c.53-.12.86-.59,1.34-.81a.66.66,0,0,1,.84.32,3.23,3.23,0,0,1,.21,1.54c0,.81-.07,1.61-.08,2.42a.73.73,0,0,0,.38.72,1.33,1.33,0,0,0,.28,0,49.9,49.9,0,0,0,5.72-1.8,3.86,3.86,0,0,1,.82-.24,3.87,3.87,0,0,0,1.52-.78,14.39,14.39,0,0,0,.13-3c-.06-.67-.07-1.34-.08-2a.5.5,0,0,1,.27-.46,1.64,1.64,0,0,1,.51-.26,3.62,3.62,0,0,0,1.31-.55c.33-.17.67-.36,1-.51,1.31-.57,2.69-1,4-1.57a9.18,9.18,0,0,1,1.09-.31c.59-.19,1.16-.42,1.75-.61.09,0,.27.07.36.16a1.13,1.13,0,0,1,.24.81c0,.38-.06.76-.11,1.13a8.74,8.74,0,0,0,.28,3.67,5.94,5.94,0,0,0,3.36-1.52c0-.91,0-1.86,0-2.82,0-1.14,0-2.29-.07-3.43,0-.52,0-1,0-1.57-.08-1.29-.15-2.57-.16-3.86,0-2.67-.07-5.34-.12-8a8.28,8.28,0,0,0,0-1,35.69,35.69,0,0,1-.18-4c0-1.72,0-3.44,0-5.16,0-.81,0-1.62.08-2.43a43.83,43.83,0,0,0,.14-4.86c0-1.67,0-3.34-.08-5a10.62,10.62,0,0,0-.21-2.4c-.08,0-.12-.05-.16,0a19.67,19.67,0,0,0-3.41,1A15.65,15.65,0,0,1,124,62.61a7.35,7.35,0,0,0-1.6.59,9.36,9.36,0,0,1-2.58.82,2.45,2.45,0,0,0-.55.13,41.27,41.27,0,0,0-4,1.44,33.74,33.74,0,0,1-3.49,1.25,3.39,3.39,0,0,0-1.48.47,7.53,7.53,0,0,1-.95.31c-.46.14-.92.26-1.36.44a43.58,43.58,0,0,1-4.5,1.43c-.45.13-.9.28-1.35.43L98.3,71.26c-.54.18-1.1.3-1.64.49C95.13,72.27,93.6,72.81,92,73.39ZM79.12,78.63a12.54,12.54,0,0,1-.83-1.17,2,2,0,0,0-.79-.79,2,2,0,0,1-.83-1.13.59.59,0,0,1,.4-.78,8.13,8.13,0,0,1,1-.21,23.24,23.24,0,0,0,4-.81,6.32,6.32,0,0,1,2.4-.33,7.63,7.63,0,0,0,1.84-.2c1-.21,1.92-.56,2.92-.69a.33.33,0,0,0,.21-.45c-.37-.55-.73-1.12-1.13-1.64a28.11,28.11,0,0,0-2-2.59,13.5,13.5,0,0,1-1.62-2c-.63-1-1.31-1.87-2-2.77-.54-.67-1-1.36-1.59-2a14.45,14.45,0,0,0-1.44-1.59A8.38,8.38,0,0,1,78.1,57.6a10.19,10.19,0,0,0-1.27-1.72c-.59-.63-1.18-1.25-1.72-1.91-.76-.93-.83-.9-1.58,0-.36.44-.71.9-1.07,1.34-.18.23-.34.46-.54.67-1,1.08-2,2.16-3,3.24a12.65,12.65,0,0,1-1.77,1.66,2.9,2.9,0,0,0-.51.48c-1,1.17-2,2.34-3,3.44,0,.53,0,1,0,1.58,0,.95,0,1.9,0,2.86a51.91,51.91,0,0,0,.14,5.29,11.51,11.51,0,0,1,0,2.42,5.57,5.57,0,0,0,0,1c0,.48.06,1,.07,1.43,0,1.29.05,2.58.06,3.86A14.16,14.16,0,0,0,64,85.66a10.13,10.13,0,0,1,.14,2.13c0,.58,0,1.15,0,1.72a14.42,14.42,0,0,0,.18,3.28,9.15,9.15,0,0,1,.15,2.28,9,9,0,0,0,.12,2,14.57,14.57,0,0,1,.19,2.56,18.66,18.66,0,0,0,.25,3,1.75,1.75,0,0,0,.71,1.2c.15.11.31.21.47.31a17.23,17.23,0,0,1,2,1.4,11.47,11.47,0,0,0,2.65,1.69,7.55,7.55,0,0,1,1.23.71c.47.32.92.68,1.37,1a18.64,18.64,0,0,0,3.1,2c.77.38,1.49.85,2.24,1.26a32.51,32.51,0,0,0,4.62,2.56.72.72,0,0,1,.37.41c.21.4.27.41.65.33a8.45,8.45,0,0,1,.84-.19,7,7,0,0,0,3.19-1.15,5,5,0,0,1,2.38-.9c.39,0,.55-.27.54-.71a21.84,21.84,0,0,0-.09-2.43,58.8,58.8,0,0,1-.51-7.27c0-.81-.06-1.62-.07-2.43,0-.52,0-1,0-1.57a32.09,32.09,0,0,0,0-5c-.15-1.48-.16-3-.17-4.43,0-1.72-.06-3.44-.09-5.15a.45.45,0,0,0-.44-.48,6.66,6.66,0,0,0-1.41-.12,7.23,7.23,0,0,1-1.84-.26.42.42,0,0,0-.48.4,35.52,35.52,0,0,1-.06,3.72c-.07,1.52,0,3-.23,4.56a.54.54,0,0,0,0,.28,15.36,15.36,0,0,1,.17,2.71c.06.9.08,1.81.12,2.71A8.62,8.62,0,0,0,86.27,99a3.42,3.42,0,0,1,0,1.56,1.18,1.18,0,0,0,0,.56,6.73,6.73,0,0,1,.08,2,5.28,5.28,0,0,0,.06,2,.66.66,0,0,1,0,.14,5.76,5.76,0,0,1-.59,2.19.28.28,0,0,1-.24.1.92.92,0,0,1-.39-.14,20.37,20.37,0,0,0-2.45-1.47c-1.21-.66-2.36-1.43-3.63-2a.46.46,0,0,1-.23-.49,2.77,2.77,0,0,0,.13-.84,23.1,23.1,0,0,1,0-3c0-2.33.12-4.67.18-7,0-.91.08-1.81.07-2.71,0-1.86-.12-3.72-.17-5.57a8.29,8.29,0,0,1,.09-1.86,4,4,0,0,0,.06-.85C79.21,80.61,79.16,79.61,79.12,78.63Zm32.07-22.27c-.21.35-.1.65-.16.93a9.39,9.39,0,0,0,0,3.26,5.16,5.16,0,0,1,0,1.71c-.06.38-.12.75-.16,1.13a2.37,2.37,0,0,0,.29,1.38.33.33,0,0,0,.23.12,2,2,0,0,0,.56-.08c.54-.2,1.07-.41,1.6-.63a25.22,25.22,0,0,1,5.14-1.71,12.17,12.17,0,0,0,2.43-.81c.48-.21,1-.38,1.47-.55s1.26-.43,1.88-.67l2.66-1,1.63-.62a6.32,6.32,0,0,0-1.66-2.64c-.43-.38-.81-.81-1.23-1.2a17.71,17.71,0,0,1-2-2.25c-.59-.74-1.19-1.49-1.82-2.2-1.21-1.35-2.42-2.69-3.67-4-.88-.93-1.8-1.83-2.71-2.74a.33.33,0,0,0-.48.13c-.1.27-.21.54-.28.81a9.36,9.36,0,0,0-.25,1.26c-.07.9-.36,1.77-.36,2.68a21.31,21.31,0,0,1-.84,5.48,7.94,7.94,0,0,1-.29,1.09c-.17.39-.68.27-1,.51S111.47,56.17,111.19,56.36ZM96.07,36.93s-.08-.06-.13-.06a2.37,2.37,0,0,1-1.77-.79,2.66,2.66,0,0,0-1.39-.69c-.41-.1-.84-.18-1.26-.24a6,6,0,0,0-2.56.06,2.63,2.63,0,0,1-.56.1,1.38,1.38,0,0,1-1.13-.5.5.5,0,0,1,.17-.73l.27-.09A9.09,9.09,0,0,1,89,33.78a7.76,7.76,0,0,1,3.25.21,4,4,0,0,0,.83.21,5.59,5.59,0,0,1,2.73,1.15,3.76,3.76,0,0,0,.61.36.24.24,0,0,0,.24-.08c.31-.53.61-1.08.91-1.62.14-.25.26-.51.4-.76a.88.88,0,0,0,0-.82,2,2,0,0,0-.34-.61,4.13,4.13,0,0,1-.89-1.46,2.93,2.93,0,0,0-.46-.72.51.51,0,0,0-.5-.2,3.83,3.83,0,0,0-1.73.61,1,1,0,0,0,.56.43,11.73,11.73,0,0,1,2,1.07,3.43,3.43,0,0,1,.82.79.36.36,0,0,1-.09.5.87.87,0,0,1-.11.09,1.46,1.46,0,0,1-1.71-.25c-.27-.26-.49-.61-.89-.69a3.47,3.47,0,0,1-1-.48,4.66,4.66,0,0,0-3-.84.71.71,0,0,1-.14,0,1,1,0,0,1-.87-1,.58.58,0,0,1,.19-.35c.23-.17.56-.08.79-.29a.86.86,0,0,1,.94-.16,1.23,1.23,0,0,0,1-.06l.67-.26a23.21,23.21,0,0,1,3.16-.9,1.13,1.13,0,0,1,1.3.65,10.94,10.94,0,0,0,.47,1,14.08,14.08,0,0,1,1.06,1.69.7.7,0,0,0,.73.34,3.32,3.32,0,0,0,1.33-.53c.08-.77.16-1.52.23-2.28a4,4,0,0,0,0-.85.92.92,0,0,0-.2-.52A6,6,0,0,1,99.67,25a.91.91,0,0,0-.78-.52,4.56,4.56,0,0,0-1.84.08l-4.46,1c-.24.05-.45.16-.68.21-.57.11-1,.49-1.6.61-1.21.27-2.35.76-3.53,1.14a1.73,1.73,0,0,1-1,0l-.15,0c-.34,0-.5.07-.62.42s-.17.45-.24.67a1.11,1.11,0,0,0,.15,1.08.68.68,0,0,1-.48,1.07c-.14,0-.29,0-.43,0a3.57,3.57,0,0,0-1.73.61.9.9,0,0,0-.38,1.12,1.6,1.6,0,0,0,.77,1,2,2,0,0,1,.35.24.88.88,0,0,1,.1,1.17,10.76,10.76,0,0,1-1.4,1.21,1.32,1.32,0,0,0-.43,1.54,8,8,0,0,0,1.22,1.9,2.72,2.72,0,0,0,.43-.09,6,6,0,0,0,1.85-1.05,3.42,3.42,0,0,1,1.54-.7,3.69,3.69,0,0,0,1.05-.43,6.59,6.59,0,0,1,2.18-.63,1.56,1.56,0,0,1,.71.08,16,16,0,0,1,4.2,1.75,3.85,3.85,0,0,0,.63.27A2.75,2.75,0,0,0,96.07,36.93ZM79.92,103.36c.54.34.9.87,1.49,1.12a17.45,17.45,0,0,1,2.51,1.37,4.76,4.76,0,0,0,.49.28,2,2,0,0,0,.42.11.4.4,0,0,0,.45-.24,5.38,5.38,0,0,1,.12-.7,5,5,0,0,0,.26-2.11c0-.72,0-1.43,0-2.15,0-1.62,0-3.24-.16-4.86a57.21,57.21,0,0,1,0-6.28c0-1.34.12-2.67.17-4,0-.53,0-1.05,0-1.57a2.49,2.49,0,0,0-1-2.08,4,4,0,0,1-1.58-2.15.4.4,0,0,0-.44-.3,4.77,4.77,0,0,1-1.94-.39,1,1,0,0,0-.38,0,6.59,6.59,0,0,0-.06,1.46,3.62,3.62,0,0,1-.09,1,4.83,4.83,0,0,0-.23,1.69,12.35,12.35,0,0,0,0,2.85,8.62,8.62,0,0,0,0,2.27,19,19,0,0,1,0,2.72,24.32,24.32,0,0,0,0,2.7,8.14,8.14,0,0,1-.08.85,13,13,0,0,0-.07,2.57,15.83,15.83,0,0,1,0,3,1.51,1.51,0,0,0,0,.56A21.54,21.54,0,0,1,79.92,103.36ZM97.3,22.9a7.67,7.67,0,0,1,.42-1.53,17.87,17.87,0,0,0,.86-3.17,16.74,16.74,0,0,1,.91-3.74,2.75,2.75,0,0,0,.11-.41.58.58,0,0,0-.34-.7,16,16,0,0,0-4.13-1c-1.19-.13-2.38-.15-3.57-.22-1.38-.07-2.75.1-4.13.13a4.34,4.34,0,0,0-1.1.28.38.38,0,0,0-.22.46,4,4,0,0,0,.25.51c.39.6.82,1.18,1.16,1.81a2.38,2.38,0,0,0,.93,1,1.07,1.07,0,0,1,.54.81,6.34,6.34,0,0,0,.26.81c.26.71.53,1.43.73,2.16.25,1,.59,1.91.91,2.86a6.07,6.07,0,0,0,.41.9.4.4,0,0,0,.61,0,.72.72,0,0,0,.16-.24,11.14,11.14,0,0,0,.31-1.39,12.07,12.07,0,0,1,.91-3.44.78.78,0,0,1,1-.5c.18.06.36.14.53.21a.57.57,0,0,1,.3.6c-.13.7-.23,1.4-.43,2.09s-.32,1.39-.47,2.09a.28.28,0,0,0,.27.27C95.44,23.38,96.36,23.16,97.3,22.9Zm11.55,38.63a25,25,0,0,0,0-3.44c0-.11-.23-.25-.32-.2a8.21,8.21,0,0,0-1,.56,9,9,0,0,1-2,1.11,6.88,6.88,0,0,0-1.24.71,6.06,6.06,0,0,1-1,.57,13,13,0,0,0-2.55,1.28,2.25,2.25,0,0,1-.53.21,1.32,1.32,0,0,0-.75.62,2.88,2.88,0,0,1-.88,1.12A7.1,7.1,0,0,0,97,65.74,41.16,41.16,0,0,1,94.24,69c-.51.51-1,1-1.46,1.58a2.07,2.07,0,0,0-.22.35.17.17,0,0,0,0,.14.16.16,0,0,0,.12.07.86.86,0,0,0,.68-.11,11.63,11.63,0,0,1,2.69-1,15.65,15.65,0,0,0,1.77-.53l7.71-2.64,2.82-1a.69.69,0,0,0,.48-.65c0-.24,0-.48,0-.71A20.15,20.15,0,0,1,108.85,61.53ZM77.42,119.94a5.89,5.89,0,0,0,0,.84,22.37,22.37,0,0,1,.23,3.27,2.4,2.4,0,0,0,0,.28c0,.11.22.26.31.23a4.15,4.15,0,0,0,.53-.2,11.7,11.7,0,0,1,2.8-1.06l1-.28c2.23-.7,4.33-1.73,6.48-2.63a8,8,0,0,1,2.35-1,.39.39,0,0,0,.31-.42,2.6,2.6,0,0,1,.07-.56,5.93,5.93,0,0,0-.07-2.55.5.5,0,0,0-.51-.39,2.52,2.52,0,0,0-1.47.52,8.11,8.11,0,0,1-2.79,1c-.42.1-.84.17-1.26.26a7.58,7.58,0,0,0-1.24.34,13.4,13.4,0,0,1-2.3.74c-.8.16-1.52.53-2.32.7A4.48,4.48,0,0,0,77.42,119.94ZM62.77,101.16h0c0-.38,0-.76,0-1.14,0-1,0-1-1-1a5.06,5.06,0,0,0-2.07.44,5.65,5.65,0,0,1-2.89.64,2.84,2.84,0,0,0-1.25.23c-.35.14-.72.25-1.08.37a2.55,2.55,0,0,1-.82.21,9.27,9.27,0,0,0-2.1.39c-.32,0-.46.24-.48.6s0,1-.06,1.42c0,.81-.13,1.61-.18,2.42a5.61,5.61,0,0,0,0,.71.41.41,0,0,0,.41.32c.23-.06.46-.12.69-.2a11.88,11.88,0,0,1,2.88-.76,3.44,3.44,0,0,0,.55-.15l4.37-1.3a2.27,2.27,0,0,0,1-.54,1.34,1.34,0,0,1,.6-.35,5.85,5.85,0,0,0,1.47-.52c.28-.55,0-1.12.05-1.67C62.78,101.25,62.77,101.21,62.77,101.16Zm17.2-25c0,.06-.06.11,0,.15a2,2,0,0,0,.94,1.5,2.56,2.56,0,0,0,2,.41,3.85,3.85,0,0,1,1.27,0,1,1,0,0,1,1,1.27,1.83,1.83,0,0,0,.67,1.77l.21.19a2.32,2.32,0,0,0,1.55.64H90c.2,0,.32-.17.32-.39a2.62,2.62,0,0,0,0-.28c-.2-1.71-.19-3.43-.26-5.14,0-.47-.06-1-.11-1.42a.46.46,0,0,0-.51-.39c-.69.15-1.4.29-2.08.47a8.12,8.12,0,0,1-2.55.27,4.5,4.5,0,0,0-1.95.35,7.64,7.64,0,0,1-2.49.56A2.71,2.71,0,0,0,80,76.15ZM98.3,112.27a10.48,10.48,0,0,0-.26,4.07.42.42,0,0,0,.54.32,14.71,14.71,0,0,1,2.67-1c.81-.26,1.63-.51,2.44-.8a30.59,30.59,0,0,1,3.13-1,3.23,3.23,0,0,0,.66-.23A.74.74,0,0,0,108,113a26.59,26.59,0,0,0,.06-3.57c-.05-.41-.26-.6-.66-.52a2.42,2.42,0,0,0-.82.22,13.79,13.79,0,0,1-1.44.61,4.27,4.27,0,0,1-1.79.42,2.44,2.44,0,0,0-1.47.5,6.46,6.46,0,0,1-1.91.91C99.38,111.77,98.87,112,98.3,112.27Zm19.89-6.81a2.7,2.7,0,0,0,0,.41c0,.95,0,1.91.08,2.86,0,.19,0,.38,0,.57a.37.37,0,0,0,.42.28c.14,0,.29,0,.42-.09l1.9-.62c1.9-.62,3.81-1.22,5.71-1.83a.51.51,0,0,0,.39-.53c0-.76,0-1.52,0-2.28.13-3,.32-2.53-2.39-1.8-.18,0-.36.12-.54.19a7.19,7.19,0,0,1-2,.65,1,1,0,0,0-.4.15A13.48,13.48,0,0,0,118.19,105.46Zm-36-86.59a3.38,3.38,0,0,0,.21.54,11.4,11.4,0,0,1,.91,2.09c.09.27.2.53.31.8a6.29,6.29,0,0,0,2.23,2.54,6.46,6.46,0,0,1,1.34.74c.54-.17,1-.34,1.53-.49s.68-.39.63-.95a4.69,4.69,0,0,0-.22-1c-.42-1.36-.83-2.73-1.28-4.08a4,4,0,0,0-.77-1.49,3.81,3.81,0,0,0-2.27.11c-.67.24-1.34.49-2,.76A4,4,0,0,0,82.23,18.87ZM61.74,69.77h0a12.66,12.66,0,0,0,0-1.85c-.1-.62-.09-1.24-.19-1.85a.38.38,0,0,0-.4-.32,9,9,0,0,0-1.27.14,15.76,15.76,0,0,0-1.78.52,7.74,7.74,0,0,1-2.5.55,6.79,6.79,0,0,0-2.61.69.31.31,0,0,0,0,.48,1.25,1.25,0,0,0,.46.31c.41.1.86.1,1.26.22a1.88,1.88,0,0,0,1.26,0l.67-.24a1.28,1.28,0,0,1,1,0,2,2,0,0,1,1.28,1.27,3.35,3.35,0,0,0,1.48,1.84,1.08,1.08,0,0,0,.54.17c.65.09.89-.11.9-.74C61.75,70.54,61.74,70.15,61.74,69.77ZM103,26.37c0,.33.37.41.51.65s.33.59.13.92a3.15,3.15,0,0,0-.24,1.24.72.72,0,0,0,.11.37c0,.08.26,0,.38-.11a8,8,0,0,0,1.89-2.61,4.8,4.8,0,0,1,.3-.48,2.13,2.13,0,0,0,.08-.27.49.49,0,0,0-.2-.49,1.08,1.08,0,0,0-1-.15c-.62.23-1.23.48-1.84.74C103.11,26.21,103.06,26.3,103,26.37Z"/><path class="cls-1" d="M102.47,98c-.26.1-.43.18-.61.23a6.72,6.72,0,0,0-1.81.82,8.68,8.68,0,0,1-3.32,1.21.26.26,0,0,1-.2-.14,1.77,1.77,0,0,1-.08-.56c0-1,.06-2,0-3,0-1.43-.07-2.85-.11-4.28a8.35,8.35,0,0,1,0-1,13,13,0,0,0-.08-3,30.37,30.37,0,0,1,0-3.57,6.46,6.46,0,0,0,0-1.7,2.77,2.77,0,0,1,0-1,.49.49,0,0,1,.35-.41,1.34,1.34,0,0,1,.27-.07,9.85,9.85,0,0,0,3.64-1.21,1.76,1.76,0,0,1,.66-.21,9.14,9.14,0,0,1,1.28,0,.43.43,0,0,1,.32.25,4,4,0,0,1,.24,1.54c0,.38-.08.75-.1,1.13s-.05,1,0,1.43a13.22,13.22,0,0,1,0,2c-.11,1-.1,2.09-.13,3.14a21.16,21.16,0,0,0,.06,3.28c.12.94.11,1.9.16,2.85a2,2,0,0,1-.18,1.24A5.62,5.62,0,0,0,102.47,98Zm-.64-17.22c-.46.18-.89.36-1.34.52q-1.48.53-3,1a.63.63,0,0,0-.5.6A29.74,29.74,0,0,0,97,88.36c0,.23,0,.47,0,.71,0,1.67.06,3.33.1,5a3.3,3.3,0,0,0,.05.71,6.35,6.35,0,0,1,0,2.13,13.71,13.71,0,0,0,0,1.57,1.45,1.45,0,0,0,.18.53c0,.07.15.16.21.15a6.3,6.3,0,0,1,.69-.17,5.31,5.31,0,0,0,2.36-1c.37-.22.73-.45,1.08-.68a.89.89,0,0,0,.41-.56,3.92,3.92,0,0,0,.16-1.27c0-.48-.06-1-.12-1.43a15.22,15.22,0,0,1,0-2.7c.09-1.71.16-3.42.18-5.14,0-1.42,0-2.85,0-4.28a4.08,4.08,0,0,0-.08-.85C102.09,81,101.94,80.92,101.83,80.8Z"/><path class="cls-1" d="M109.4,86.77a57.72,57.72,0,0,0-.08-5.89,18.2,18.2,0,0,0-.26-3.13.53.53,0,0,1,.31-.58,4.91,4.91,0,0,1,1.29-.61,10.52,10.52,0,0,0,3.56-1.77,1.62,1.62,0,0,1,1.23-.19.3.3,0,0,1,.21.17,4.38,4.38,0,0,1,.19,1.12,27.85,27.85,0,0,1-.09,3.42,2.72,2.72,0,0,0,0,.57c.07,2-.09,4-.09,6a19.44,19.44,0,0,0,.14,2.85,2.7,2.7,0,0,1,0,.85,4.91,4.91,0,0,0,0,1.71c.09.71,0,1.43.09,2.14a.68.68,0,0,1-.47.65,28.69,28.69,0,0,1-4.29,1.09,7.14,7.14,0,0,1-1.13.06.6.6,0,0,1-.62-.64,3.11,3.11,0,0,1,0-.43c.08-1.47.07-3,.05-4.43v-3ZM115,75.67a.84.84,0,0,0-.88,0A13.13,13.13,0,0,1,111.46,77c-.26.11-.5.26-.77.37a1.13,1.13,0,0,0-.83,1.31c.07.47,0,1,0,1.43.24,2.7,0,5.42.19,8.13a5.54,5.54,0,0,1,0,.56,4.21,4.21,0,0,0,0,.71,11,11,0,0,1,.07,2.14c0,.53,0,1,0,1.57a5.77,5.77,0,0,0,.1.71.51.51,0,0,0,.39.36,10.86,10.86,0,0,0,1.28-.07c.7-.13,1.39-.32,2.08-.5a2.74,2.74,0,0,0,.67-.26.66.66,0,0,0,.27-.3,2.12,2.12,0,0,0,.17-.69c0-1.57,0-3.14,0-4.71,0-.91,0-1.81,0-2.72.08-2.81.13-5.62.07-8.43C115.1,76.3,115.05,76,115,75.67Z"/><path class="cls-1" d="M120.5,86.28c0-1.47,0-2.8-.13-4.14a14.42,14.42,0,0,1,.06-3.41,12.4,12.4,0,0,0,.11-2.28,11.47,11.47,0,0,0-.24-3,.57.57,0,0,1,.43-.65c.28-.07.55-.14.83-.19a6.83,6.83,0,0,0,2.29-.78,16.93,16.93,0,0,0,1.84-1.07.52.52,0,0,1,.75.39,10.92,10.92,0,0,1,0,1.28,63.54,63.54,0,0,0-.11,8.28,26.05,26.05,0,0,1,0,3.42c-.12,1.37-.11,2.76-.14,4.13a1.54,1.54,0,0,0,.1.56,1.31,1.31,0,0,1-.07.83.63.63,0,0,1-.37.41,2.83,2.83,0,0,1-.41.14,16.32,16.32,0,0,0-3,1.33,1.84,1.84,0,0,1-1.65,0,.42.42,0,0,1-.17-.2,1,1,0,0,1-.07-.28c0-.52-.09-1-.13-1.56,0-.14,0-.28,0-.42C120.43,88.14,120.47,87.14,120.5,86.28ZM125.31,89c0-.41.08-.89.06-1.36a7.47,7.47,0,0,1,.07-1.42,13.69,13.69,0,0,0,.19-2.55c0-1.38.07-2.76,0-4.14-.1-1.18-.08-2.37-.1-3.56a4.08,4.08,0,0,1,.08-.85,10.69,10.69,0,0,0,.07-2.71.65.65,0,0,0-.08-.27.36.36,0,0,0-.21-.15,1.29,1.29,0,0,0-.82.18,10.46,10.46,0,0,1-2.62,1.12,1.51,1.51,0,0,0-.26.12.76.76,0,0,0-.52.77c0,2.14,0,4.28-.16,6.42a3.63,3.63,0,0,0,0,.57c0,1.62.19,3.24.1,4.85a34.74,34.74,0,0,0,.37,4.68.34.34,0,0,0,.34.2,3.11,3.11,0,0,0,.68-.19,6.77,6.77,0,0,1,1.15-.56A3,3,0,0,0,125.31,89Z"/><path class="cls-1" d="M75.21,102l-.43.2a.79.79,0,0,1-.81-.06c-.16-.11-.31-.23-.46-.35a5.74,5.74,0,0,0-1.11-.62A16.48,16.48,0,0,1,68.71,99c-.18-.15-.4-.27-.59-.41s-.43-.26-.44-.52a2.92,2.92,0,0,1,.15-.54,11.88,11.88,0,0,0,.26-1.69c.07-2.14.06-4.29,0-6.43-.08-1.67-.23-3.33-.29-5-.11-2.62-.18-5.24-.26-7.86a1.41,1.41,0,0,1,0-.29A9.91,9.91,0,0,0,67.33,73a.43.43,0,0,1,.48-.41,1.17,1.17,0,0,1,.27,0c1.48.66,3,1.33,4.44,2a19.88,19.88,0,0,0,2.22,1,1.48,1.48,0,0,1,.91,1.34c0,.33-.07.66-.09,1-.06,1.18-.11,2.37-.16,3.56,0,.19,0,.38,0,.57a9.6,9.6,0,0,1,0,1.42,19.78,19.78,0,0,0-.13,4.14,12.2,12.2,0,0,1,0,1.71,11.36,11.36,0,0,0,0,1.43,16.45,16.45,0,0,1,0,2.43,10.18,10.18,0,0,0,0,1.56,12.44,12.44,0,0,1,0,2.86,4.69,4.69,0,0,0,0,1c0,.91,0,1.82,0,2.72A5.05,5.05,0,0,1,75.21,102Zm-7-28.26a.64.64,0,0,0-.07.16c0,1.48-.05,3-.07,4.43a2.73,2.73,0,0,0,0,.57c.19,1.32,0,2.66.23,4a.94.94,0,0,1,0,.29,10.82,10.82,0,0,0,.09,2.13c.19,1.81.2,3.62.27,5.43,0,.9,0,1.81,0,2.71a19.07,19.07,0,0,1,0,2,11.43,11.43,0,0,0,0,1.85,2,2,0,0,0,.68,1.38,3.36,3.36,0,0,0,.68.51,4.2,4.2,0,0,1,1.41.94c.11.14.34.17.51.25.69.34,1.5.23,2.19.58.14.07.41-.14.4-.3a19.25,19.25,0,0,1,.12-3.56c0-.24,0-.48,0-.72,0-1.66-.06-3.33,0-5,0-1.95-.06-3.9,0-5.85,0-1.24.12-2.48.17-3.72,0-.42,0-.85,0-1.28,0-.86-.16-1.7-.08-2.57a1.57,1.57,0,0,0-.65-1.36,4,4,0,0,0-1.46-.88,4.15,4.15,0,0,1-.63-.32c-.84-.44-1.68-.9-2.53-1.33a5,5,0,0,0-.93-.35A1.29,1.29,0,0,0,68.22,73.72Z"/><path class="cls-1" d="M87,52a2.24,2.24,0,0,1,1.11.2,6.58,6.58,0,0,0,3,.6,8.1,8.1,0,0,1,2.25.25.87.87,0,0,1,.63.7.66.66,0,0,1-.68.84L93,54.51a16.19,16.19,0,0,0-3.09-.43,6.43,6.43,0,0,1-2.8-.94,1.76,1.76,0,0,1-.48-.5.4.4,0,0,1,.3-.63Z"/><path class="cls-1" d="M67.62,133.51c-17.67,0-35.05-.69-51.32-2.94-2.56-.35-5-.8-7-2.33-3.24-2.58-3.42-6.91-3.34-10.76.28-12.15.55-22.44.82-32.38s.54-20.23.81-32.38c.18-8.29.2-24.08.19-35.24a12.53,12.53,0,0,1,3.82-8.94,14.31,14.31,0,0,1,10.21-4C23,4.51,137.91,6.11,167.61,5a8.72,8.72,0,0,1,9.29,7.79c3,39.54,2.29,71,1,111a8.36,8.36,0,0,1-2.71,5.86,9.54,9.54,0,0,1-6.9,2.53c-18.65-.7-38.16-.11-58.8.51C95.62,133.08,81.53,133.51,67.62,133.51ZM7,117.5l1,0c-.08,3.36,0,7.11,2.55,9.1,1.53,1.21,3.69,1.59,6,1.91,28.91,4,61.42,3,92.87,2.08,20.68-.63,40.21-1.21,58.94-.51a7.53,7.53,0,0,0,5.42-2,6.3,6.3,0,0,0,2.06-4.43c1.27-40,1.94-71.36-1-110.8A6.64,6.64,0,0,0,167.69,7C137.94,8.16,23,6.56,21.83,6.55A12.33,12.33,0,0,0,13.09,10a10.48,10.48,0,0,0-3.21,7.48c0,11.17,0,27-.19,35.28-.27,12.16-.54,22.44-.81,32.39s-.54,20.23-.81,32.38Z"/></svg>