<svg id="Layer_1" data-name="Layer 1" xmlns="http://www.w3.org/2000/svg" viewBox="0 0 185 138"><defs><style>.cls-1{fill:#fc3;}</style></defs><title>Artboard 4</title><path class="cls-1" d="M91.53,25.33a13.86,13.86,0,0,1,2.62-8.74,6.25,6.25,0,0,1,2-1.92c.49-.28.94-.61,1.42-.92a9.34,9.34,0,0,1,3.62-1.51,8.3,8.3,0,0,0,1.1-.24,12.16,12.16,0,0,1,6.5,0,27,27,0,0,0,4.82.82A7.71,7.71,0,0,1,116.81,14c.33.18.6.48.94.63,2,.88,3.06,2.72,4.22,4.43a2.06,2.06,0,0,1,.42,1c.08,1.37.57,2.72.21,4.11a1.06,1.06,0,0,0,0,.56c0,.17.14.42.27.47a6.45,6.45,0,0,1,2.3,1.88l.81.77c1.16,0,2.29-.06,3.42,0a10.51,10.51,0,0,0,3.34-.48,14.35,14.35,0,0,0,1.9-3A15,15,0,0,1,137,20.94a1,1,0,0,1,1-.35c2.16.41,2,0,2.54,2.32s1.24,4.35,1.94,6.5c.37,1.13.76,2.26,1.13,3.39l.07.18c.47,2.41,1.45,4.66,2.1,7,.19.66.41,1.32.59,2a14.59,14.59,0,0,0,.84,2.49,5.17,5.17,0,0,1,.38,1.06,3.56,3.56,0,0,0,1.41,2.19,12.46,12.46,0,0,1,.17,3.17c-.1,1.69-.24,3.38-.41,5.07-.23,2.31-.3,4.63-.44,7-.06.94-.15,1.88-.2,2.82-.08,1.12-.17,2.25-.18,3.38,0,1.76,0,3.52,0,5.27,0,1.51.11,3,0,4.52a11.63,11.63,0,0,0,0,1.32c0,2.14,0,4.27,0,6.41,0,1.38.09,2.76.22,4.14a13,13,0,0,1,0,3.18,11.09,11.09,0,0,0,0,2.82,4.21,4.21,0,0,1,.07.93,28.44,28.44,0,0,0,.06,4.33,35.66,35.66,0,0,1-.1,4.14,17.13,17.13,0,0,0,0,4.69c.11.53-.23,1.1,0,1.66a.7.7,0,0,1-.11.53,4.44,4.44,0,0,0-.63,1.36.81.81,0,0,1-.87.58,22.49,22.49,0,0,0-5.23.59,7.09,7.09,0,0,1-1.31.12c-1.38,0-2.76.06-4.14,0-1.88,0-3.77.06-5.65.13-1.44.06-2.88.18-4.32.29-.56,0-1.12.14-1.68.21a7.32,7.32,0,0,1-.93.09c-1.76,0-3.51.16-5.26.3-.5,0-1,0-1.51,0l-3.94.24a1.53,1.53,0,0,0-1,.41c-.94.83-1.9,1.64-2.84,2.47a4.35,4.35,0,0,1-2.22,1.35,2.35,2.35,0,0,0-.82.44c-.37.23-.73.49-1.09.74a28.73,28.73,0,0,1-9.28,4,48.76,48.76,0,0,1-5.35,1.09,22.09,22.09,0,0,1-5.63.08A48.18,48.18,0,0,1,79,126.46a4.76,4.76,0,0,1-.9-.3c-1.71-.78-3.42-1.56-5.12-2.36a8.24,8.24,0,0,1-2.22-1.71,1.88,1.88,0,0,1-.38-.64c-.34-.81-.64-1.63-1-2.44a8.87,8.87,0,0,1-.75-2.32.54.54,0,0,0-.51-.46,3.82,3.82,0,0,0-.75-.08,4.71,4.71,0,0,0-1.13.07,17.68,17.68,0,0,1-3.56.19c-2.07.08-4.14.08-6.2.31-1.44.16-2.89.21-4.33.29a6,6,0,0,1-.94-.05,23.35,23.35,0,0,0-6.93.29,4.32,4.32,0,0,1-2.39-.29,2,2,0,0,1-.89-.67,1.68,1.68,0,0,1-.42-1.21c0-.38.06-.75.1-1.13a5.81,5.81,0,0,0-.24-2.23c-.43-1.44-.83-2.89-1.22-4.35a1,1,0,0,1,.32-1c.33-.28.66-.57,1-.89a26.24,26.24,0,0,1,3.34-.3l3.38-.14a2,2,0,0,0,.55-.09,16.68,16.68,0,0,1,4.09-.58,3.74,3.74,0,0,0,.75-.07c.94-.19,1.16-.29,1.12-1.37a11.65,11.65,0,0,0-.05-1.32c-.41-2.73-.37-5.51-.74-8.25-.17-1.31-.23-2.63-.43-3.93a21.66,21.66,0,0,1-.24-3c0-2-.06-4-.1-6,0-.94-.08-1.88-.14-2.82-.11-1.82-.25-3.64-.37-5.45a12.07,12.07,0,0,1,0-1.7,18.05,18.05,0,0,0-.22-3.85,1.15,1.15,0,0,0-1-.49,6.91,6.91,0,0,1-2.89-.74c-.34-.15-.71-.26-1.06-.38A6.07,6.07,0,0,1,42.64,61c-.18-.47-.28-1-.43-1.44a.66.66,0,0,0-.55-.45,4.24,4.24,0,0,0-.94,0,5.32,5.32,0,0,1-2.19-.43A14.61,14.61,0,0,1,35,56.58a2.45,2.45,0,0,1-.71-.85,9.45,9.45,0,0,1-.63-1.37,2.33,2.33,0,0,1,.19-2.16,4.46,4.46,0,0,1,1.86-1.53.52.52,0,0,1,.37,0,3.93,3.93,0,0,0,1.49,0c1.25-.14,2.5-.24,3.75-.35a46.31,46.31,0,0,1,5.65-.18,4.5,4.5,0,0,0,2.2-.4,12.34,12.34,0,0,1,1.64-.42,1.33,1.33,0,0,0,.59-.43,4.72,4.72,0,0,0,.53-1c.58-1.33,1.14-2.65,1.69-4a20.1,20.1,0,0,0,1.18-3.37,18.08,18.08,0,0,1,1.37-3.7c1.15-2.51,2.32-5,3.41-7.55.9-2.08,1.71-4.18,2.52-6.29a2.26,2.26,0,0,1,.81-1,1.23,1.23,0,0,1,1.41.07c.66.66,1.34,1.32,1.94,2a11.05,11.05,0,0,0,1.27,1.38,15.94,15.94,0,0,1,2.88,3.2.75.75,0,0,0,.81.36,10.26,10.26,0,0,1,4.48,0,9.54,9.54,0,0,0,1.51.06l4.9-.12,3.76-.09.94,0a1.57,1.57,0,0,0,1-.41A20.61,20.61,0,0,1,90.74,26,6.94,6.94,0,0,0,91.53,25.33Zm12.54,48.58a2.25,2.25,0,0,0-.52.07,1.57,1.57,0,0,0-.4.29c-.18,0-.4-.08-.55,0-1.32.6-2.72,1-4.07,1.47a22.23,22.23,0,0,1-5.08,1.39,5.81,5.81,0,0,0-1.1.23,7.34,7.34,0,0,1-2.42.29c-.75,0-1.51,0-2.26,0a12.46,12.46,0,0,1-2.44-.16c-1.36-.22-2.73-.4-4.09-.62A9.24,9.24,0,0,1,79,76.29c-.68-.32-1.38-.6-2.06-.91A13,13,0,0,1,74.21,74a2.51,2.51,0,0,0-1.58-.53,5,5,0,0,0-1.52-1.8.17.17,0,0,0-.17,0c-.09.07-.2.16-.21.26a1.69,1.69,0,0,0,.17,1.24,8.06,8.06,0,0,0,1.06.32,2.52,2.52,0,0,0,.71-.07,6.52,6.52,0,0,0,2.17,2c.33.17.58.47.9.67A10.54,10.54,0,0,0,77.2,77c1.1.45,2.22.85,3.33,1.26a2.59,2.59,0,0,0,.55.13c.93.1,1.86.24,2.8.28A17.67,17.67,0,0,1,87,79a5.65,5.65,0,0,0,2.42.08,3.52,3.52,0,0,1,1.48,0,4.28,4.28,0,0,0,2.75-.26,8.75,8.75,0,0,1,1.42-.47,40.24,40.24,0,0,0,4.52-1.82,2.48,2.48,0,0,0,.81-.46,5.92,5.92,0,0,1,2.08-1.22,1.84,1.84,0,0,0,.48-.3c.07-.07.08-.22.12-.33.41.06.64-.28,1-.39-.12.09-.15.08-.09,0Zm-3-41.62c.1,0,.2-.09.29-.07s.23,0,.13-.12-.1,0-.15,0l-.28.15a.65.65,0,0,0-.37-.76l-1-.47a8.88,8.88,0,0,1-4-3.82c-.32-.6-.62-1.22-.94-1.82a3.32,3.32,0,0,0-.4-.51c0,.27-.08.46,0,.61.35.87.75,1.71,1.09,2.58A5.3,5.3,0,0,0,98,30.91c.56.29,1.15.49,1.71.77S100.65,31.91,101,32.29Zm-.28-3.52-.06,0a6.12,6.12,0,0,0,3.95,1.47,5.09,5.09,0,0,1,.56,0,12.87,12.87,0,0,0,4.87-.2,8.68,8.68,0,0,0,3.59-1.57,8.35,8.35,0,0,0,2.21-2.53,3.48,3.48,0,0,1,1.39-1.22.72.72,0,0,1,.71.12,1.2,1.2,0,0,1,.33,1.52,7.42,7.42,0,0,1-.66,1.13A15,15,0,0,1,115,30.42c-.13.1-.13.21,0,.3a3.73,3.73,0,0,0,1.29-.68,7.26,7.26,0,0,0,1-.83c.47-.42.92-.85,1.37-1.28a4.22,4.22,0,0,0,1.67-3.25c0-.12.06-.24.07-.37a6.87,6.87,0,0,0-.5-3.5,6.78,6.78,0,0,0-2.65-3.1c-.43-.26-.85-.55-1.26-.83a11.88,11.88,0,0,0-3.61-1.58,9.07,9.07,0,0,1-1.26-.36,16.75,16.75,0,0,0-4.57-1,7.5,7.5,0,0,0-2.63.06c-1.59.33-3.18.7-4.77,1.07a1.68,1.68,0,0,0-.69.28c-.93.75-1.82,1.54-2.75,2.28a3.94,3.94,0,0,0-1.2,1.65,4.38,4.38,0,0,0-.3,3.65,8.66,8.66,0,0,0,.24.91c0,.1.14.17.24.27.14-.1.28-.22.43-.31a.6.6,0,0,1,.84.11,3.15,3.15,0,0,1,.42.61c.23.45.43.91.65,1.35A5.35,5.35,0,0,0,100.74,28.77Zm10.47,35.56a7.88,7.88,0,0,0,.35,1.66,7.94,7.94,0,0,1,.6,4.05c0,.56,0,1.13-.06,1.69a52.22,52.22,0,0,0,.29,7.71c.08.94.15,1.87.19,2.81s0,2.14.12,3.2.18,2.25.2,3.38c0,1.5,0,3,.12,4.52.15,2.31.23,4.63.26,7,0,1.7,0,3.4.21,5.08.13,1.38.19,2.75.21,4.13A24.23,24.23,0,0,0,114,114a9.78,9.78,0,0,0,3,.15,11.61,11.61,0,0,1,2.43-.11,1.43,1.43,0,0,0,.55,0c.16-.06.4-.24.39-.34a15.84,15.84,0,0,1,.16-3.37,4.1,4.1,0,0,0-.09-.92,7.5,7.5,0,0,1-.15-.93,29.34,29.34,0,0,0-.07-3.38.78.78,0,0,1,.71-.74,26.53,26.53,0,0,0,2.82,0c1-.07,2,.05,3,0,1.81-.06,3.63-.18,5.44-.28a5.43,5.43,0,0,0,.56-.09c.68-.08,1.37-.19,2.06-.23A8.44,8.44,0,0,0,138,103a1.94,1.94,0,0,1,.73-.14.58.58,0,0,1,.64.54,9,9,0,0,1-.21,2.79,8.38,8.38,0,0,0-.21,1.48c0,1.32,0,2.64-.05,4a7.32,7.32,0,0,0,.09.93.62.62,0,0,0,.5.48,7.43,7.43,0,0,0,1.69.08c1.17-.2,2.32-.51,3.48-.78a.84.84,0,0,0,.68-.8c0-.56,0-1.13,0-1.69.06-1.44.1-2.89.22-4.32a17.11,17.11,0,0,0,0-3.2,5.79,5.79,0,0,1,0-.93c.16-2.51-.08-5,.06-7.52a35.22,35.22,0,0,0-.16-4.7c-.26-3.07,0-6.15-.1-9.22-.07-3.32.07-6.65.07-10,0-2.26.25-4.51.43-6.76.11-1.31.24-2.62.22-3.94a16.61,16.61,0,0,1,.18-2.63,21.85,21.85,0,0,0,.16-4.5.54.54,0,0,0-.51-.45c-3.32-.1-6.65-.29-10-.17-2,.08-4,0-6,.07l-9.79.19c-.19,0-.38,0-.57.05l-1.5,0c-2.07,0-4.13,0-6.2.12a39.15,39.15,0,0,1-6,.08,22.44,22.44,0,0,0-3.38,0c-1.63.12-3.26.2-4.89.22s-3.51.09-5.27.15c-.94,0-1.88.12-2.82.17s-1.75.06-2.63.11c-.07,0-.13.12-.31.32,1.46.19,2.8.44,4.17.54l.18,0a17,17,0,0,1,6.3.83,4.56,4.56,0,0,0,.72.21c2.52.36,4.74,1.57,7.08,2.46a2,2,0,0,1,.31.2,27.6,27.6,0,0,1,3.35,2.74,5.63,5.63,0,0,1,1.37,2.22A3.9,3.9,0,0,0,111.21,64.33Zm-3.5,6.76c.05.15.06.3.14.38a2.14,2.14,0,0,1,.5,1.57.84.84,0,0,1-.26.68c-.47.42-1,.8-1.44,1.21A13.43,13.43,0,0,1,103.54,77c-.56.27-1.11.57-1.67.85a34.48,34.48,0,0,1-6.24,2.62c-.54.16-1.08.33-1.61.54a6.68,6.68,0,0,1-2.76.45l-3.77-.12a3.74,3.74,0,0,1-.75-.06,39.59,39.59,0,0,0-4.86-.61,11.88,11.88,0,0,1-3.26-.85,7.13,7.13,0,0,0-1.05-.41,13.56,13.56,0,0,1-3.86-1.93,7.59,7.59,0,0,1-1.82-1.62c-.2-.24-.4-.49-.62-.71a.42.42,0,0,0-.33-.07c-.1,0-.24.14-.25.22a5.29,5.29,0,0,0-.09,1.12c.13,2.89.14,5.78.09,8.66,0,.76,0,1.51.07,2.26.07,1,.11,2,.08,3A13.19,13.19,0,0,0,71,92.65a22.12,22.12,0,0,1,.19,4.88,18.16,18.16,0,0,0,.12,3.76,28.71,28.71,0,0,1,.24,5.07c0,.7.15,1.38.18,2.06s-.28,1.45-.23,2.21a21.3,21.3,0,0,1,0,2.26c0,.61.08,1.1.77,1.33a1.29,1.29,0,0,1,.64.66,10,10,0,0,0,2.83,3.22,3,3,0,0,0,.79.51,19.87,19.87,0,0,0,3.17,1.2,21.41,21.41,0,0,0,6.32.84,38.45,38.45,0,0,0,5.25-.33,42.31,42.31,0,0,0,5.82-1.45,18.55,18.55,0,0,1,2.14-.72,9.86,9.86,0,0,0,2.24-1c.57-.27,1.11-.58,1.66-.88a4.15,4.15,0,0,0,1.85-1.54,2.6,2.6,0,0,1,.5-.55,15.9,15.9,0,0,0,2.19-2.58,6.41,6.41,0,0,1,.48-.58.73.73,0,0,1,.87,0,1.47,1.47,0,0,1,.39,2,10,10,0,0,1-2.15,2.6,6.29,6.29,0,0,0-1.11,1,4.88,4.88,0,0,1-2.38,1.75,3.36,3.36,0,0,0-.49.27,18,18,0,0,1-4.12,1.82c-2,.59-4,1.13-6,1.66-.67.18-1.35.27-2,.39a31.38,31.38,0,0,1-6.2.26,22.93,22.93,0,0,1-2.63-.14,28.31,28.31,0,0,1-5.11-1.28,8,8,0,0,1-3.74-2.44c-.47-.58-1-1.15-1.47-1.71a2.86,2.86,0,0,0-.4-.38.17.17,0,0,0-.18,0c-.08.07-.2.2-.18.26.19.66.4,1.32.64,2a1.91,1.91,0,0,0,.42.61,6.89,6.89,0,0,1,.7.62,6.08,6.08,0,0,0,2.48,1.65c.79.38,1.63.66,2.41,1a19.52,19.52,0,0,0,4.27,1.44c1,.24,2.1.36,3.15.54a11.36,11.36,0,0,0,3.19.07,48.13,48.13,0,0,0,9.72-2.17,16.18,16.18,0,0,0,3.64-1.54,49,49,0,0,0,4.37-2.93,6.1,6.1,0,0,0,1.41-1.5,14.59,14.59,0,0,1,1.15-1.71,10.24,10.24,0,0,0,1.32-1.83.75.75,0,0,1,.26-.27,1.35,1.35,0,0,0,.53-1.32,12.46,12.46,0,0,1,.07-1.5,18.62,18.62,0,0,0,0-3.58c-.18-2-.3-4-.29-6,0-1,0-2,0-3s-.16-2.14-.13-3.2a13.61,13.61,0,0,1,0-3.19c0-.11,0-.24,0-.36,0-.5-.13-1-.13-1.5,0-1.57-.07-3.13-.18-4.7a22,22,0,0,1-.06-4.14,4,4,0,0,0-.07-.92,26,26,0,0,1-.45-5.63c.07-1.25,0-2.5,0-3.75a2.63,2.63,0,0,0-.09-.74c0-.09-.16-.16-.26-.22a.18.18,0,0,0-.17,0A6.05,6.05,0,0,0,107.71,71.09Zm-43,42.3c.22-.26.09-.52.16-.75a10.29,10.29,0,0,0,.3-3.36,27,27,0,0,0-.26-3.37,8.33,8.33,0,0,1-.07-1.5,1,1,0,0,1,.66-.84,6,6,0,0,1,.73-.18c.68-.12,1.36-.21,2-.33a.59.59,0,0,0,.51-.5,4,4,0,0,0,0-1.85,3.46,3.46,0,0,1-.09-2A3.63,3.63,0,0,0,68.66,97a2.36,2.36,0,0,1,0-.75,3.62,3.62,0,0,0-.27-1.84,1.47,1.47,0,0,0-.34-.15,4.87,4.87,0,0,0-1.86.13.88.88,0,0,1-1.13-1.06,6.11,6.11,0,0,0,.18-1.11,9.38,9.38,0,0,1,.06-2,3.32,3.32,0,0,0,0-.94c-.1-.93-.24-1.87-.29-2.8a18.86,18.86,0,0,0-.24-2.25A15.52,15.52,0,0,1,64.35,82c-.06-1.45-.35-2.87-.52-4.3-.13-1.06-.16-2.13-.36-3.18a25.65,25.65,0,0,1-.22-6,5.44,5.44,0,0,0-.4-2.93.72.72,0,0,1,.23-.67,1.63,1.63,0,0,1,1.23-.38c1.18.25,2.38.12,3.56.32A1.4,1.4,0,0,0,69,64.7a7.44,7.44,0,0,1,.54-.75,5.29,5.29,0,0,0,1.3-2.46,17,17,0,0,1,.9-2.47,2.14,2.14,0,0,1,.52-.77,14.84,14.84,0,0,1,3.47-2.56,10.64,10.64,0,0,0,1.45-.86,4.44,4.44,0,0,1,2.22-1,1.47,1.47,0,0,0,.53-.16,9.2,9.2,0,0,1,2.74-.64c.08,0,.15-.12.25-.19a4.22,4.22,0,0,0-.59-.06l-8.66-.27a5.27,5.27,0,0,0-.56,0c-3.2.25-6.4.13-9.6.28-.19,0-.38,0-.57,0-1.63,0-3.26,0-4.89,0-1.13,0-2.26.11-3.39.08h-.75a.52.52,0,0,0-.44.52,33.48,33.48,0,0,1,0,4.13,12.55,12.55,0,0,0,.07,1.5c.06,1,.17,2,.18,3,0,2.57.13,5.14.37,7.71.07.68,0,1.38.07,2.07,0,1.37.09,2.75.16,4.13,0,.75.16,1.5.19,2.25.06,2.07.22,4.13.12,6.21a5.33,5.33,0,0,0,0,.56l.24,3.19c0,.31,0,.63.07.94.37,2.54.66,5.1.87,7.66.17,2.13.57,4.23.6,6.37a2.64,2.64,0,0,0,.18.92,5.17,5.17,0,0,1,.38,2.75,6.18,6.18,0,0,0,.09,1.12,11.79,11.79,0,0,1,0,1.88,14.11,14.11,0,0,0,.15,3.18,2.25,2.25,0,0,0,.19.53A.69.69,0,0,0,58,114c1.56-.08,3.13-.18,4.69-.23A7.32,7.32,0,0,0,64.66,113.39ZM89.34,75s.28,0,.53,0A8.39,8.39,0,0,0,93,74.56a6.56,6.56,0,0,1,1.48-.27,10.71,10.71,0,0,0,2.72-.72,13.07,13.07,0,0,1,1.24-.45,31.86,31.86,0,0,0,6.2-2.69c.26-.16.52-.34.77-.53a7.63,7.63,0,0,0,2.23-2.74,3.26,3.26,0,0,0,.43-1.42c0-.38,0-.75,0-1.13a2.39,2.39,0,0,0-.73-1.87c-.27-.26-.5-.56-.76-.83a8.74,8.74,0,0,0-3.47-2.5,7,7,0,0,1-1.56-.67,9.75,9.75,0,0,0-3-1.13,18.22,18.22,0,0,0-3.1-.76,31.08,31.08,0,0,0-4.37-1.11c-1.53-.39-3.13-.07-4.66-.44a4.21,4.21,0,0,0-.94,0l-.56,0-2.43.25c-.63.07-1.25.14-1.87.25A8.52,8.52,0,0,0,78,56.7c-1.29.76-2.52,1.65-3.79,2.45a3,3,0,0,0-1.29,1.78c-.07.25-.16.48-.21.73a9.52,9.52,0,0,1-.68,2.14,2.69,2.69,0,0,0-.21.72,3.27,3.27,0,0,1-.59,1.56,1.09,1.09,0,0,0-.08.72,2,2,0,0,0,.32.87,14.62,14.62,0,0,0,1.83,2.38,6.65,6.65,0,0,0,1,.84,23.16,23.16,0,0,0,3.64,2c.41.15.8.36,1.2.54a10.66,10.66,0,0,0,3.6,1,22,22,0,0,1,2.42.35A16.89,16.89,0,0,0,89.34,75Zm3.44-46.92a1.46,1.46,0,0,0-1.27.4,7.3,7.3,0,0,0-2.53,3c-.26.63-.61,1.24-.91,1.85a4.61,4.61,0,0,0-.42,1.82,2.11,2.11,0,0,0,.51,1.57,13.66,13.66,0,0,0,2.56,2.48c1,.72,2,1.46,3.13,2.08a18.07,18.07,0,0,0,4.75,2.22,8.28,8.28,0,0,1,1.24.43,18.42,18.42,0,0,0,6,1.18,23.79,23.79,0,0,0,4.69-.28c1.42-.2,2.83-.52,4.23-.81a34.71,34.71,0,0,0,5-1.65,11,11,0,0,0,2.59-1.5c.81-.6,1.63-1.17,2.43-1.77s1.3-1,1.94-1.49a.74.74,0,0,0,.27-.67c0-.19-.06-.37-.08-.56a18.62,18.62,0,0,0-1.53-4.83,10.46,10.46,0,0,0-2.74-3.76l-.15-.11a.54.54,0,0,0-.81.12,8.73,8.73,0,0,1-2.64,2.9c-.2.14-.36.34-.55.5A16.41,16.41,0,0,1,110.3,35a23.55,23.55,0,0,1-9.16-.28,16.24,16.24,0,0,1-5.29-2.35,5.59,5.59,0,0,1-2.18-2.53C93.4,29.26,93.07,28.66,92.78,28.08Zm-22,11.57h-.08l.09,3.2a17.87,17.87,0,0,1,0,2.07,10.94,10.94,0,0,0,.42,4.1c.15.55.38.75.91.75s1.13,0,1.69,0c2,0,4,0,6,.07,1.5.08,3,0,4.51,0,.57,0,.7-.18.56-.67a3.1,3.1,0,0,1-.23-1.1,27.2,27.2,0,0,0-.22-4.69,26.28,26.28,0,0,1,.31-6,45.93,45.93,0,0,1,1-5.17s0-.12,0-.18-.18-.36-.34-.39a14.65,14.65,0,0,0-2.81,0c-1.88.06-3.76,0-5.65.17a9,9,0,0,1-2.25-.11,11.19,11.19,0,0,0-3.37.08.67.67,0,0,0-.61.62c0,1.06-.08,2.13-.08,3.19C70.67,36.89,70.72,38.27,70.74,39.65Zm-2.29-.29h.06q-.09-4-.17-8.09A1.76,1.76,0,0,0,68,30.22a9.67,9.67,0,0,1-1.17-1.92,5,5,0,0,0-.9-1.2c-.51-.55-1.05-1.07-1.58-1.61a.36.36,0,0,0-.61.07q-1,2.24-2,4.48c-.59,1.38-1.11,2.8-1.76,4.16-.54,1.12-1.14,2.22-1.62,3.38a23,23,0,0,0-1.69,4.78,7.29,7.29,0,0,1-.43,1.24c-.2.53-.42,1-.64,1.56A37.46,37.46,0,0,1,54,48.93a2.17,2.17,0,0,0-.17.72A.42.42,0,0,0,54,50a.61.61,0,0,0,.35.11c2.38-.1,4.77.1,7.15-.13a3.7,3.7,0,0,1,.94,0A37.81,37.81,0,0,0,68,49.81l.19,0a.58.58,0,0,0,.52-.65c-.1-1-.26-2-.28-3C68.42,43.88,68.45,41.62,68.45,39.36ZM87,39.43a37.12,37.12,0,0,0,0,6.06c.08.87.14,1.75.25,2.61a7,7,0,0,0,.33,1.27.62.62,0,0,0,.39.34,4.72,4.72,0,0,0,1.12.1c.88,0,1.76-.09,2.63-.17,1.88-.16,3.76-.22,5.64-.24q3.11,0,6.2-.19a21.22,21.22,0,0,1,3.19,0,20.61,20.61,0,0,0,4.51,0,37.81,37.81,0,0,1,6.38-.2c.38,0,.75,0,1.13,0l3.38-.09c1.26,0,2.51,0,3.76,0,.25,0,.5,0,.75-.08a.69.69,0,0,0,.51-.49,3.66,3.66,0,0,0,.1-.56,20,20,0,0,0,.29-3.36c-.11-1.19-.1-2.37-.13-3.56a1.21,1.21,0,0,0-.05-.18.35.35,0,0,0-.57-.21,49.78,49.78,0,0,0-4.26,3.1,2.91,2.91,0,0,1-.79.49A27.78,27.78,0,0,1,116.33,46c-1.58.38-3.2.63-4.8.88a23.61,23.61,0,0,1-5.63.3,12.52,12.52,0,0,0-1.5,0,10.51,10.51,0,0,1-3.15-.48c-.49-.13-1-.29-1.44-.44a28,28,0,0,1-9.22-4.54,2.94,2.94,0,0,0-.47-.31,8.6,8.6,0,0,1-2.55-1.89C87.49,39.35,87.24,39.43,87,39.43ZM134.7,38h.05c.05,2.45.11,4.9.16,7.35a5.91,5.91,0,0,0,.23,1.67c.14.41.21.85.32,1.28a.51.51,0,0,0,.52.42,72.59,72.59,0,0,1,8.85,0,6.26,6.26,0,0,0,.75,0,.49.49,0,0,0,.37-.56c-.23-.72-.41-1.45-.69-2.15a25,25,0,0,1-.95-3c-.2-.79-.39-1.59-.64-2.36-.48-1.5-1-3-1.49-4.47a14.35,14.35,0,0,1-.75-2.71,13.79,13.79,0,0,0-.7-2.35c-.45-1.37-.91-2.74-1.37-4.11-.28-.83-.56-1.66-.87-2.48a.61.61,0,0,0-.4-.34c-.15,0-.35.14-.47.26a4.22,4.22,0,0,0-.42.62c-.38.66-.72,1.33-1.13,2-1.58,2.48-1.09,2-1.37,4.4a1.2,1.2,0,0,0,0,.19Zm-3.08,75.24a37.12,37.12,0,0,1,5-.1c.25,0,.5,0,.74,0a.61.61,0,0,0,.52-.47,12.38,12.38,0,0,0,.31-3.16c0-.56,0-1.13,0-1.69v-3a.58.58,0,0,0-.38-.37,2,2,0,0,0-.55,0,10.46,10.46,0,0,1-3.15.43,1.7,1.7,0,0,0-.55.07,11.29,11.29,0,0,1-3.17.29c-.5,0-1,0-1.5.08-.94.06-1.87.15-2.81.18s-2,0-3,0c-1.66.05-1.77.15-1.79,1.87s0,3.38.07,5.08a4.85,4.85,0,0,0,.13.92.74.74,0,0,0,.68.54l1.31-.08c.94-.08,1.87-.19,2.81-.25Zm-79.13,1h0l2.63-.1a.61.61,0,0,0,.51-.47,2.25,2.25,0,0,0,.06-.36c0-1.19-.1-2.37-.16-3.56a6.54,6.54,0,0,1-.27-2.41.76.76,0,0,0-.43-.55,3.83,3.83,0,0,0-2-.08c-.43.08-.86.19-1.29.25-1.61.19-3.24.32-4.84.57a13.42,13.42,0,0,1-2.61.17,10.79,10.79,0,0,0-1.5.09.84.84,0,0,0-.76.91,8.16,8.16,0,0,0,.19,1.1c.34,1.4.7,2.79,1.06,4.18a.56.56,0,0,0,.7.45c.3,0,.61-.1.91-.12a12.46,12.46,0,0,0,1.5-.07,8.83,8.83,0,0,1,3.36,0,3.75,3.75,0,0,0,1.11,0C51.24,114.31,51.87,114.31,52.49,114.29ZM51.07,58.63c0-1.1,0-2,0-2.86s0-1.51-.09-2.26a3.49,3.49,0,0,0-.12-.54.64.64,0,0,0-.69-.51,10.48,10.48,0,0,1-3,.26c-2.07-.15-4.13.32-6.2.15a3.57,3.57,0,0,0-.56.07l-4.08.63a.43.43,0,0,0-.27.44c0,.18,0,.42.16.53a6.43,6.43,0,0,0,4.52,2l1.7,0a5.74,5.74,0,0,1,.93,0,1.19,1.19,0,0,1,.91.61,3.16,3.16,0,0,1,.53,2,3.1,3.1,0,0,0,.13,1.12,2.81,2.81,0,0,0,1.68,2.13,22.44,22.44,0,0,0,2.29.86,3,3,0,0,0,1.67,0,.69.69,0,0,0,.5-.5,10.65,10.65,0,0,0,.06-1.12C51.13,60.54,51.09,59.47,51.07,58.63Zm15.31,32.8h-.07v.94a.69.69,0,0,0,.49.51,5.8,5.8,0,0,0,.93,0,.74.74,0,0,0,.69-.75,12,12,0,0,1-.11-1.68A14.15,14.15,0,0,0,68.22,87a3.13,3.13,0,0,1,0-.75c0-.75,0-1.5,0-2.25s-.09-1.49-.07-2.24c0-1.93.06-3.87.25-5.8a8.23,8.23,0,0,0,0-2.8,9.46,9.46,0,0,1-.2-2.8,11.05,11.05,0,0,0-.07-2.44,1.87,1.87,0,0,1,.15-1.27.37.37,0,0,0-.24-.44c-.93-.11-1.86-.24-2.79-.3a.91.91,0,0,0-1.07,1c0,.18,0,.37,0,.56a23.94,23.94,0,0,1,0,2.81,14.07,14.07,0,0,0,.11,3.18q.13,1.22.18,2.43a7.22,7.22,0,0,0,.22,1.67,11.44,11.44,0,0,1,.49,3.14,6.3,6.3,0,0,0,.2,1.29,17.16,17.16,0,0,1,.48,4.29,3.49,3.49,0,0,0,.1,1.11,9.1,9.1,0,0,1,.23,1.86c0,.38.07.75.11,1.12S66.34,91.07,66.38,91.43Zm66.21-51.27c-.05-2.41-.09-4.23-.13-6,0-.88,0-1.76-.07-2.63,0-.25,0-.5-.08-.75a.55.55,0,0,0-.54-.43c-1,.13-2,.25-3,.4a1.18,1.18,0,0,0-.49.24.45.45,0,0,0-.16.31.74.74,0,0,0,.08.35,22.41,22.41,0,0,1,1.92,7.8,8.57,8.57,0,0,0,.14,1.12,9.43,9.43,0,0,1,.11,1.68,36,36,0,0,0,.09,3.75,14.53,14.53,0,0,1,.07,1.86,2.09,2.09,0,0,0,0,.56.42.42,0,0,0,.22.27,1.83,1.83,0,0,0,1.45,0,.44.44,0,0,0,.25-.27,3.64,3.64,0,0,0,.07-.74c0-.94,0-1.88,0-2.82C132.54,43.07,132.57,41.32,132.59,40.16Zm-64,64.15-2,.19a.64.64,0,0,0-.18.06.67.67,0,0,0-.43.55c0,.38.08.75.12,1.12a15.55,15.55,0,0,1,0,4.31,6.11,6.11,0,0,0,.18,2.59.69.69,0,0,0,.57.4l1.49-.11a.58.58,0,0,0,.46-.51,14.82,14.82,0,0,0,.06-1.88c-.15-1.81,0-3.63,0-5.44,0-.32,0-.63,0-.94C68.81,104.54,68.71,104.44,68.63,104.31Z"/><path class="cls-1" d="M127,62.35a15.44,15.44,0,0,0,2.8,0c1.25-.2,2.51,0,3.74-.31a.67.67,0,0,1,.78.63,2.6,2.6,0,0,1,0,.56,26,26,0,0,1-.38,2.79,14.6,14.6,0,0,0-.28,3.55,20.14,20.14,0,0,1-.16,2.8c-.2,1.56-.28,3.12-.43,4.68-.11,1.25-.28,2.49-.37,3.74s-.13,2.63-.14,3.94c0,1.94,0,3.89,0,5.83a4.73,4.73,0,0,1-.05.75.79.79,0,0,1-.53.48l-.56,0c-.31,0-.65-.18-.92-.09a6.36,6.36,0,0,1-2.42,0,13.45,13.45,0,0,0-1.68,0,4.12,4.12,0,0,1-2-.32,1,1,0,0,1-.65-1,15.6,15.6,0,0,0,.06-3.92c0-1.57-.15-3.13-.1-4.7.05-1.3-.06-2.61.07-3.92a9.46,9.46,0,0,0-.06-1.5,9.61,9.61,0,0,1-.09-1.31,32.25,32.25,0,0,0-.12-3.93c-.11-1.62-.06-3.26-.06-4.88a7.94,7.94,0,0,0-.22-2.79,1.15,1.15,0,0,1,0-.37.83.83,0,0,1,.74-.73l3,0Zm4.38,27.84a6.07,6.07,0,0,0,.34-2.36c-.15-1.38.05-2.75,0-4.13a20.14,20.14,0,0,1,.18-3.56c.34-2.3.24-4.64.66-6.94a3.46,3.46,0,0,0,0-.56c.05-1.19.14-2.38.09-3.57a15,15,0,0,1,.14-1.88c.11-1,.24-2,.35-3a.67.67,0,0,0-.66-.75,6.22,6.22,0,0,0-1.49-.09c-2,.22-4,.08-6,.22a.55.55,0,0,0-.52.44c-.06,2-.13,4-.16,6a17.09,17.09,0,0,0,.17,1.87,5.28,5.28,0,0,1,.14,1.3,36.27,36.27,0,0,0,0,3.76c0,.63-.06,1.25-.06,1.88,0,1.32,0,2.63,0,4s0,2.39.08,3.57.3,2.49.48,3.73a.61.61,0,0,0,.36.38,1.54,1.54,0,0,0,.73.12,15.4,15.4,0,0,1,2.63,0A6,6,0,0,0,131.35,90.19Z"/><path class="cls-1" d="M78.12,59a6.08,6.08,0,0,1,.71.07.48.48,0,0,1,.33.59c-.08.17-.18.33-.25.5-.3.68-.3.68-.14,1.87a4.16,4.16,0,0,0,.88.17,19.3,19.3,0,0,1,5.86,1.2,2.36,2.36,0,0,1,1.27,1.06,1.32,1.32,0,0,1-.19,1.71,7.32,7.32,0,0,1-3.81,1.91,17.32,17.32,0,0,1-3.51.54.59.59,0,0,0-.52.66A16.4,16.4,0,0,1,79,71.93c0,.22-.36.41-.58.3a2,2,0,0,1-.32-.18c-.22-.15-.4-.36-.32-.62a3.48,3.48,0,0,0-.09-2.21,1.87,1.87,0,0,0-.47-.79c-.28-.28-.17-.56.08-.81a1,1,0,0,0,.33-.83,17.26,17.26,0,0,0-.23-3.37,3.23,3.23,0,0,1,0-1.12c0-.63.09-1.25.15-1.87A2.45,2.45,0,0,1,78.12,59Zm1.55,8.53a1.92,1.92,0,0,0,.47,0c1.09-.27,2.19-.48,3.28-.79a4.51,4.51,0,0,0,1.89-1.14.57.57,0,0,0-.08-.82,10.91,10.91,0,0,0-1.51-.71c-.89-.3-1.81-.49-2.69-.8a3.32,3.32,0,0,0-2,0,.61.61,0,0,0-.44.53,17,17,0,0,0,.27,3.35C78.89,67.37,79.16,67.57,79.67,67.57Z"/><path class="cls-1" d="M100.74,28.77,99.68,28a3.36,3.36,0,0,1-1.46-2.11,9.08,9.08,0,0,0-.54-1.39,8.38,8.38,0,0,1-.4-1.05,1.84,1.84,0,0,1,.64-2A3.84,3.84,0,0,0,99.05,20a3.92,3.92,0,0,1,2.17-2c.35-.14.68-.33,1-.46a2.89,2.89,0,0,1,.91-.22,24.22,24.22,0,0,1,5.24.27,13.66,13.66,0,0,1,3.95,1.72,1.64,1.64,0,0,1,.55.5,10.69,10.69,0,0,1,1.53,2.79,3.32,3.32,0,0,1,.07,1.66,10.06,10.06,0,0,1-1.17,3.15,3.09,3.09,0,0,1-2.45,1.55,18,18,0,0,0-2.41.38,5.77,5.77,0,0,1-1.5.1,17.58,17.58,0,0,1-5.2-.69,1.38,1.38,0,0,0-1.09,0Zm5.53-1.88c.75,0,1.5,0,2.24-.12s1.44-.39,2.2-.42a1.23,1.23,0,0,0,.79-.47,2.8,2.8,0,0,0,.67-1.52,1.32,1.32,0,0,0,0-.56,3.61,3.61,0,0,0-1.77-2.32c-.56-.27-1.11-.57-1.67-.84a2.05,2.05,0,0,0-.7-.26c-1.3-.09-2.59-.4-3.91-.39a6.15,6.15,0,0,0-2.85.82,1.35,1.35,0,0,0-.77,1.39,5.31,5.31,0,0,1-.11,2.41.64.64,0,0,0,.16.51,2.84,2.84,0,0,0,1.34,1A13.86,13.86,0,0,0,106.27,26.89Z"/><path class="cls-1" d="M67.33,134.25c-17.87,0-35.45-.69-51.91-3-2.49-.34-5.09-.81-7-2.36-3.28-2.61-3.46-7-3.37-10.88.27-12.29.55-22.7.82-32.76s.54-20.46.82-32.75c.18-8.39.2-24.36.19-35.64a12.64,12.64,0,0,1,3.87-9A14.45,14.45,0,0,1,20.84,3.75h.21c32.54.46,122.46,1.44,147.43.47a8.85,8.85,0,0,1,9.4,7.88c3,40,2.31,71.77,1,112.3a8.46,8.46,0,0,1-2.75,5.93,9.65,9.65,0,0,1-7,2.56c-18.86-.71-38.59-.12-59.48.51C95.66,133.82,81.4,134.25,67.33,134.25ZM6.05,118.07l1,0c-.07,3.4.06,7.19,2.59,9.21,1.54,1.22,3.73,1.61,6,1.93,29.24,4,62.13,3.05,93.94,2.1,20.92-.63,40.69-1.23,59.62-.51a7.68,7.68,0,0,0,5.49-2,6.41,6.41,0,0,0,2.09-4.47c1.28-40.47,1.95-72.2-1-112.09a6.73,6.73,0,0,0-7.25-5.95c-25,1-115,0-147.54-.48a12.48,12.48,0,0,0-8.84,3.5,10.58,10.58,0,0,0-3.25,7.57c0,11.29,0,27.28-.2,35.69-.27,12.29-.55,22.7-.82,32.76s-.55,20.46-.82,32.75Z"/></svg>