<svg id="Layer_1" data-name="Layer 1" xmlns="http://www.w3.org/2000/svg" viewBox="0 0 185 138"><defs><style>.cls-1{fill:#69c;}</style></defs><title>Artboard 6</title><path class="cls-1" d="M132.19,35.08c0-.14.09-.31,0-.42a1.28,1.28,0,0,0-1-.92,1.74,1.74,0,0,1-1.05-.49c-.4-.37-.83-.7-1.26-1a57.58,57.58,0,0,1-5.29-4.95,9.85,9.85,0,0,0-1.32-1.18,2.56,2.56,0,0,1-.48-.55.51.51,0,0,1-.07-.28c0-.4.69-1,1.05-.87a3.63,3.63,0,0,1,1.58.76c.35.35.74.66,1.06,1a26.92,26.92,0,0,0,2.52,2.49c.4.37.78.76,1.18,1.13a.47.47,0,0,0,.54.08,5.36,5.36,0,0,1,.53-.28.94.94,0,0,1,1.07.28c.39.44.78.89,1.15,1.35.61.77,1.22,1.55,1.81,2.33.27.36.49.75.72,1.12a17.41,17.41,0,0,0,1.53,2.18c.85,1,1.67,2.07,2.48,3.13a19.1,19.1,0,0,1,1.82,3,43.05,43.05,0,0,0,2.17,3.87,43.66,43.66,0,0,1,3.58,6.8c.27.69.58,1.36.89,2a4.93,4.93,0,0,0,.44.77c.53.77,1.08,1.53,1.6,2.3a18,18,0,0,0,2.31,2.69c.42.42.86.82,1.28,1.24s.69.7,1,1.08a25.42,25.42,0,0,0,2.9,3.15,10,10,0,0,1,.72.74.82.82,0,0,1-.14,1.18,2,2,0,0,1-.5.3,1.14,1.14,0,0,1-1.36-.26c-.54-.57-1.08-1.15-1.61-1.73s-1.1-1.27-1.67-1.89-1.22-1.28-1.83-1.92a34.82,34.82,0,0,1-2.43-2.59,23,23,0,0,1-3.34-5.39A50.38,50.38,0,0,0,141,47.9c-.86-1.39-1.66-2.8-2.38-4.26a24,24,0,0,0-3.21-4.78,29,29,0,0,1-2.25-2.92,2.06,2.06,0,0,0-.34-.31,5.17,5.17,0,0,1-.52.67,1.18,1.18,0,0,1-1.22.31,2.76,2.76,0,0,1-1.4-.78,2.06,2.06,0,0,0-.47-.35l-2-1.24a.19.19,0,0,0-.11,0c0,.09-.06.21,0,.27.62.82,1.13,1.73,1.67,2.61.28.46.63.88.94,1.33a8.64,8.64,0,0,1,.52.89.67.67,0,0,1-.28.77,1.7,1.7,0,0,1-1.69.07.84.84,0,0,1-.31-.31c-.69-1.08-1.37-2.16-2.07-3.24a9.91,9.91,0,0,0-.59-.85c-.62-.77-1.25-1.53-1.87-2.29a1.37,1.37,0,0,0-1.15-.55,11.26,11.26,0,0,1-2.65-.28,14.57,14.57,0,0,0-1.76-.18,18.27,18.27,0,0,1-5.16-1.24c-.4-.16-.79-.37-1.18-.56,0,.09-.14.2-.11.25a5,5,0,0,0,1.94,2.36c.79.51,1.61,1,2.44,1.4a3.49,3.49,0,0,0,2.14.45,14.31,14.31,0,0,1,2.78.25c.34.19.69.36,1,.57a.71.71,0,0,1,.23.37,8.29,8.29,0,0,1,.21.86,5.63,5.63,0,0,0,.44,1.25,18.28,18.28,0,0,1,.73,1.77,53.81,53.81,0,0,0,3,6.75,7.92,7.92,0,0,1,.42.94,5.79,5.79,0,0,0,.52,1.06,4.37,4.37,0,0,1,.75,2.24c.25.17.49.33.72.5a1.1,1.1,0,0,1,.42.91.64.64,0,0,1-.16.39,1,1,0,0,1-.92.37,3.35,3.35,0,0,1-.44-.07,4.27,4.27,0,0,0-2,.08,3,3,0,0,1-.57.15,5.85,5.85,0,0,0-2.78.92,5.8,5.8,0,0,1-1,.54c-.92.22-1.74.69-2.63,1-.1,0-.2,0-.29.06a1.42,1.42,0,0,1-1.41-.22,13.69,13.69,0,0,0-3.25-1.72,24.76,24.76,0,0,0-2.94-1l-.15,0a9.86,9.86,0,0,0-4.51.47c-.36.16-.74.28-1.09.46-.11,0-.16.23-.24.35A14,14,0,0,0,108,55.4a2.09,2.09,0,0,1,.7.2c.78.42,1.62.73,2.42,1.09a20.46,20.46,0,0,1,2.93,2c.15.13.29.27.44.39a1.35,1.35,0,0,0,1.24.29,13.2,13.2,0,0,1,1.75-.26c.49,0,1,0,1.47,0s1-.09,1.48-.1a4.94,4.94,0,0,1,1.75.2,4.17,4.17,0,0,0,2.47.17,2,2,0,0,1,.59-.05,1.37,1.37,0,0,1,.56.15,3.06,3.06,0,0,0,.79.39,20.48,20.48,0,0,1,3.83,1.55,15.9,15.9,0,0,1,6.16,5.18,23.9,23.9,0,0,1,2.53,4.83.91.91,0,0,1,.11.42.64.64,0,0,1-.15.4,1,1,0,0,1-.63.35,1.88,1.88,0,0,1-1-.12,1,1,0,0,1-.61-.6c-.09-.23-.16-.46-.25-.69a14.33,14.33,0,0,0-1.76-3.24,23.37,23.37,0,0,0-2.78-3.25,1.83,1.83,0,0,0-.5-.31.28.28,0,0,0-.24.1.88.88,0,0,0-.09.42c0,.84,0,1.68.12,2.51a7.11,7.11,0,0,1,.05,1c0,1.83.12,3.65.26,5.47a24.64,24.64,0,0,1,.11,3.54,5,5,0,0,0,0,1,27.84,27.84,0,0,1,.22,4.28,36.57,36.57,0,0,0,.1,4.44,8.63,8.63,0,0,1,0,.88,15.64,15.64,0,0,0,.07,2.06c.09.69.14,1.37.17,2.06a1.29,1.29,0,0,0,.26.68,1.65,1.65,0,0,1,.21,1.28,1.2,1.2,0,0,1-.77,1,32.25,32.25,0,0,1-3.34,1.18,14.11,14.11,0,0,0-2.2.86c-1.67.72-3.34,1.47-5,2.19q-3,1.27-6,2.5c-.73.3-1.46.6-2.21.83a24.53,24.53,0,0,0-2.63,1,71.72,71.72,0,0,1-6.79,2.5c-.71.23-1.4.47-2.09.75a35.73,35.73,0,0,1-4.18,1.48,23.37,23.37,0,0,0-4.41,1.7,33.37,33.37,0,0,1-4.53,1.8,14.85,14.85,0,0,0-2.86,1.18,15.58,15.58,0,0,1-3.68,1.51,4.86,4.86,0,0,0-1.23.49,22.48,22.48,0,0,1-2.7,1.21,26.11,26.11,0,0,0-2.94,1.36c-.26.14-.54.24-.81.37a1.79,1.79,0,0,1-.86.17c-.29,0-.59,0-.88,0a2.33,2.33,0,0,1-1.39-.41,61.68,61.68,0,0,0-7.71-4.08,12.62,12.62,0,0,0-1.66.59c-.51.18-1,.29-1.56.45a5.81,5.81,0,0,0-.82.32,12.57,12.57,0,0,1-2.92,1.05,7.13,7.13,0,0,0-2.18.88,5.76,5.76,0,0,1-1.49.63,15.47,15.47,0,0,0-1.63.71,2.45,2.45,0,0,1-1.41.34,1.86,1.86,0,0,0-.72.13c-.19,0-.37.13-.56.19a1,1,0,0,1-1.17-.42,1.44,1.44,0,0,1-1.53-.15c-.36-.26-.74-.49-1.11-.74a3.17,3.17,0,0,0-.49-.32,24.66,24.66,0,0,1-3.11-1.7c-.85-.49-1.77-.86-2.65-1.27-.4.09-.77.2-1.16.26a1,1,0,0,1-1-.74,3.22,3.22,0,0,0-.28-1.29.56.56,0,0,1,0-.42,2.08,2.08,0,0,0,.06-1,5.27,5.27,0,0,1-.08-1.49,1.74,1.74,0,0,1,.37-.21c.33-.1.68-.15,1-.27,1-.36,1.93-.75,2.89-1.13a5.8,5.8,0,0,0,.8-.37.74.74,0,0,0,.43-.72c0-.39,0-.78-.1-1.17s-.16-.88-.2-1.32c-.13-1.27-.37-1,.72-1.84.21-.31-.1-.55-.12-.83a7.8,7.8,0,0,1,.14-2.36,2.13,2.13,0,0,0,.06-.87,15.37,15.37,0,0,1,0-3.39,1.34,1.34,0,0,0-.09-1.14.94.94,0,0,1-.06-.29c-.12-.56,0-.81.6-1a4,4,0,0,1,.57-.15,10.41,10.41,0,0,0,3.08-1c.23-.1.45-.22.68-.3,1.92-.62,3.75-1.5,5.63-2.22l.14,0a2.82,2.82,0,0,0,1.43-1,2.11,2.11,0,0,0,.52-1.19c0-.39.05-.78.05-1.18,0-1.48,0-3,0-4.44,0-.78-.08-1.57-.17-2.35a24.33,24.33,0,0,1-.18-3c0-2.52,0-5-.05-7.55,0-.44,0-.88,0-1.33a4.23,4.23,0,0,0-.13-1.32.55.55,0,0,0-.41-.37l-1.18-.05a2.71,2.71,0,0,1-2.16-1.11,3,3,0,0,0-.29-.33,4.19,4.19,0,0,1-1.1-2.53A1,1,0,0,0,49,61a1,1,0,0,0-.36-.44,8,8,0,0,0-1-.38c-.5-.2-1-.4-1.49-.64a3.55,3.55,0,0,1-.85-.58,10.34,10.34,0,0,0-1.73-1.58.54.54,0,0,1-.17-.54A.91.91,0,0,1,44,56a6.3,6.3,0,0,0,.89-.48,9.74,9.74,0,0,1,1-.25c2.24-.75,4.53-1.33,6.71-2.28a6.53,6.53,0,0,1,1-.3,9.91,9.91,0,0,0,4.16-2.17,6.35,6.35,0,0,1,1-.64s0-.15,0-.23-.08-.07-.11-.07a3.47,3.47,0,0,1-2.3-.35c-.35-.17-.75-.26-1.1-.43a1.94,1.94,0,0,1-1-1.06.54.54,0,0,1,.13-.54.86.86,0,0,1,.94-.26,5.2,5.2,0,0,1,.55.21,4.48,4.48,0,0,0,2.88.38c.83-.13,1.65-.28,2.47-.45a5.22,5.22,0,0,0,.84-.29,15.51,15.51,0,0,0,2.81-1.64,3.11,3.11,0,0,0,.54-.49c1.37-1.49,2.72-3,4.1-4.47a3.52,3.52,0,0,0,.75-1.26.86.86,0,0,1,.78-.58c.54,0,1.08-.09,1.62-.11A9.39,9.39,0,0,0,75.31,38a6.41,6.41,0,0,1,.88-.11c.49-.06,1-.12,1.47-.2a28.17,28.17,0,0,0,4.12-1.59.36.36,0,0,0,.18-.22.25.25,0,0,0-.08-.23,2.76,2.76,0,0,0-1.61,0,12.28,12.28,0,0,1-2.64.21c-1.35,0-2.64-.34-4-.35-1-.27-2.07-.1-3.07-.41a1.45,1.45,0,0,0-.58,0c-.39.08-.77.21-1.16.25a4.62,4.62,0,0,0-2,.8,29.34,29.34,0,0,0-3.37,2.39,8.8,8.8,0,0,1-2.29,1.35,3.31,3.31,0,0,1-.56.17,1.11,1.11,0,0,1-1.09-.32,5.19,5.19,0,0,1-.44-.58.45.45,0,0,1,.12-.53,7.82,7.82,0,0,1,1-.57,5.93,5.93,0,0,0,1.61-1,25.65,25.65,0,0,1,4.83-3.14l.13-.06a2.85,2.85,0,0,1,1.14-.31,2.12,2.12,0,0,0,1-.27A2.59,2.59,0,0,1,70,32.92a5,5,0,0,0,2.25-.66c1.21-.68,2.49-1.2,3.7-1.87a1.32,1.32,0,0,1,.56-.14,3.22,3.22,0,0,1,1,.06,11,11,0,0,0,1.9.27c.78.11,1.55.28,2.32.42a14.71,14.71,0,0,0,1.45.26,17.83,17.83,0,0,1,2.19.35,6.54,6.54,0,0,0,.88.08l.92,0a1.24,1.24,0,0,1,.69.47,5,5,0,0,0,2.21,1.43,3.06,3.06,0,0,0,1.16.21,17.38,17.38,0,0,0,1.91-.18,1.59,1.59,0,0,0,.4-.18.32.32,0,0,0,.1-.38c-.1-.11-.19-.23-.29-.32l-2-1.76c-.19-.17-.36-.35-.55-.51C89.3,29.19,89.3,29.17,87.28,29A16.82,16.82,0,0,1,83,28.06c-.78-.29-1.61-.45-2.42-.67a24.48,24.48,0,0,1-3.88-1.45c-.26-.12-.53-.26-.81-.36a1.28,1.28,0,0,0-.57-.1,7.71,7.71,0,0,0-2.7.67,24.94,24.94,0,0,1-2.68,1.24,13.73,13.73,0,0,1-1.42.44c-.42.12-.87.18-1.28.33-1.77.63-3.62,1-5.42,1.47a2.09,2.09,0,0,1-.43.11,3.28,3.28,0,0,0-2.16,1.41c-.82,1-1.62,2.11-2.39,3.2-.65.92-1.25,1.89-1.86,2.85a27.53,27.53,0,0,1-3.09,4c-.77.83-1.62,1.59-2.41,2.41s-1.55,1.65-2.27,2.53a5.93,5.93,0,0,1-1.41,1.28c-.63.39-1.22.84-1.83,1.25a3.32,3.32,0,0,1-2.24.6,1.31,1.31,0,0,1-1.11-.86.36.36,0,0,1,.14-.38,26.1,26.1,0,0,0,2.61-1.39,7,7,0,0,0,2.12-1.82,26.72,26.72,0,0,1,2.68-3,35.08,35.08,0,0,0,3.43-3.68c.37-.46.75-.92,1.08-1.41.71-1.07,1.38-2.16,2.1-3.22.41-.62.86-1.2,1.3-1.79s.68-.85,1-1.3a2,2,0,0,0,.4-1.1c0-.35.22-.48.53-.61a35.26,35.26,0,0,1,5-1.45c1.67-.4,3.31-.94,5-1.34a7.42,7.42,0,0,0,1.1-.44,37,37,0,0,1,4-1.66c.32-.11.65-.22,1-.31a1.47,1.47,0,0,1,.88,0,6.21,6.21,0,0,1,1.64.64,1.46,1.46,0,0,0,1,.22l1.32-.16c.24,0,.48-.16.72-.18a4,4,0,0,0,2.16-.89,2.89,2.89,0,0,1,1.48-.58,1,1,0,0,1,.83.22,10.26,10.26,0,0,0,4.14,1.88,19.55,19.55,0,0,1,2.79,1,10.47,10.47,0,0,0,3.68,1,1.05,1.05,0,0,1,.43.11,4.36,4.36,0,0,0,1.7.47,1.33,1.33,0,0,1,.76.43.81.81,0,0,1,.14.95.62.62,0,0,1-.43.37L97,29a13.44,13.44,0,0,1-3.61-.71c-.51-.19-1-.35-1.54-.53a11,11,0,0,1-1.52-.56,14.13,14.13,0,0,0-3.19-1.14,28.31,28.31,0,0,1-3.3-1.31l-.52-.22-2.63,1.14a2.48,2.48,0,0,0,.51.32,8.72,8.72,0,0,0,1,.24,8.91,8.91,0,0,1,1.69.51,5.9,5.9,0,0,0,2.3.49c.64,0,1.28.08,1.92.11.29,0,.59,0,.88,0s.59.06.88.09a.93.93,0,0,1,.74.43,11.86,11.86,0,0,0,1.74,1.8,17.45,17.45,0,0,0,1.74,1.59,6,6,0,0,0,1.38.85,8.36,8.36,0,0,1,.79.4,1.28,1.28,0,0,0,.86.11l.44-.07a12.6,12.6,0,0,1,2.19-.33,11,11,0,0,0,3.15-.78c.6-.23,1.22-.4,1.83-.58a15.6,15.6,0,0,0,1.56-.45,3.27,3.27,0,0,1,1.44-.24h.45c.7,0,.86-.16,1.09-.92.07-.24.13-.48.22-.71a1.1,1.1,0,0,1,1.18-.68c.24,0,.48.14.72.16a.69.69,0,0,0,.39-.12c.08,0,.12-.15.18-.23a1,1,0,0,1,.75-.41,4.32,4.32,0,0,1,.88,0c.54.07,1.07.17,1.61.26a5.28,5.28,0,0,1,2.18.86,6,6,0,0,0,1.92,1.08,6.77,6.77,0,0,1,.66.33,1,1,0,0,1,.64.77.75.75,0,0,0,.84.65c.53,0,1.09.16,1.59-.15a.25.25,0,0,0,.07-.23,1.15,1.15,0,0,0-.29-.33c-1.42-1.14-2.83-2.31-4.35-3.32-.49-.33-.94-.72-1.4-1.09a.43.43,0,0,1-.06-.54.83.83,0,0,1,.08-.12,1.13,1.13,0,0,1,1.52-.47,3.59,3.59,0,0,1,.75.46c.87.74,1.84,1.33,2.73,2,1.37,1.05,2.73,2.12,4,3.29a24.36,24.36,0,0,0,5.65,4,3.73,3.73,0,0,1,.48.33c0-.11,0-.12,0,0Zm-47,30.27v1.23c0,2.27,0,4.54,0,6.81s0,4.74,0,7.1c0,1.09.09,2.17.15,3.25q.23,3.48.47,6.94c0,.44.06.88.1,1.33.14,2,.29,4,.44,6,0,.59.11,1.18.18,1.76.05.4.14.78.19,1.17a2.82,2.82,0,0,0,.36,1.26,1.07,1.07,0,0,1,.06,1.13,2.64,2.64,0,0,0-.27,1.43c0,1.48.28,2.94.41,4.42a1.8,1.8,0,0,0,.09.28.54.54,0,0,0,.59.32,33.77,33.77,0,0,0,4.41-1.71.79.79,0,0,0,.52-.79c0-1.23.11-2.46,0-3.7A12.24,12.24,0,0,0,92.7,101c-.06-.19.17-.51.39-.57a2.13,2.13,0,0,1,.42-.1,11.28,11.28,0,0,0,2.58-.61,3.72,3.72,0,0,1,1.12-.34,3.11,3.11,0,0,0,.85-.21,20.2,20.2,0,0,0,2.21-.85,19.79,19.79,0,0,1,4.11-1.15h.15a.6.6,0,0,1,.56.4c.13.83.27,1.65.38,2.48a9,9,0,0,1,.22,2.64c0,.08,0,.19.1.26a.41.41,0,0,0,.23.17,1.07,1.07,0,0,0,.43-.06c.78-.29,1.57-.59,2.34-.9,1.69-.68,3.37-1.4,5.11-2a5,5,0,0,0,1.17-.52,2.34,2.34,0,0,0,.28-1.74,54.4,54.4,0,0,0-.77-5.4.49.49,0,0,1,.3-.47,1.87,1.87,0,0,1,.55-.18,3.32,3.32,0,0,0,1.28-.33,12.27,12.27,0,0,1,2.12-.63c.29-.07.58-.13.86-.22l3.78-1.28a3.39,3.39,0,0,0,1.28-.72.68.68,0,0,1,.26-.11.44.44,0,0,1,.4.12,2.51,2.51,0,0,1,.35.64,8.32,8.32,0,0,1,.36,2c0,.74,0,1.47,0,2.21,0,.35,0,.69,0,1a.36.36,0,0,0,.33.24c1-.35,2-.7,3.07-1.07a4.2,4.2,0,0,0,.67-.4c0-.6,0-1.24,0-1.88-.09-1.42-.18-2.85-.2-4.28,0-1.92,0-3.85,0-5.77a17.34,17.34,0,0,0-.11-1.77,32.62,32.62,0,0,1-.17-3.7c0-.83-.07-1.67-.12-2.51,0-.64-.09-1.27-.12-1.91,0-.89,0-1.78-.11-2.66-.15-1.38-.23-2.75-.26-4.13a7.71,7.71,0,0,0-.08-1.92c-.48-.54-1.2-.65-1.79-1a9,9,0,0,0-1.36-.56.93.93,0,0,0-.86,0c-.37.22-.76.09-1.14.15a3.53,3.53,0,0,0-.21,1.44c.19,1.81.19,3.64.48,5.45a14.53,14.53,0,0,1,.08,1.62l.06.88c0,.39.11.78.13,1.17a17.77,17.77,0,0,0,.17,1.92,12,12,0,0,1,.09,1.47c0,.74,0,1.47,0,2.21a1.88,1.88,0,0,1,0,1.3,1,1,0,0,1-.65.74,3.05,3.05,0,0,1-.7.24,11.45,11.45,0,0,0-2.78,1,13.91,13.91,0,0,1-1.52.57.58.58,0,0,1-.75-.5c0-.44-.09-.88-.1-1.32,0-1.19.05-2.37,0-3.55-.08-2.17-.21-4.33-.31-6.5a2.58,2.58,0,0,0,0-.29,14.62,14.62,0,0,1-.27-3.09,3.76,3.76,0,0,0-.2-1.15,11.17,11.17,0,0,1-.4-1.71c0-.11.1-.28.2-.36a1.1,1.1,0,0,1,.41-.13,14,14,0,0,0,3.64-1.18,2.69,2.69,0,0,0,.47-.34.16.16,0,0,0,0-.14c0-.08-.08-.21-.14-.22a5.7,5.7,0,0,0-1-.13c-.54,0-1.09.1-1.63.1a8.07,8.07,0,0,0-3.3.62,8.93,8.93,0,0,1-.87-.27,1.81,1.81,0,0,1-.52-.26c-.58-.46-1.16-.92-1.72-1.4a15.54,15.54,0,0,0-2.07-1.43,4.88,4.88,0,0,0-1.9-.68l-.64.7a10.34,10.34,0,0,0-2.46.44l-1.68.55c-1.12.37-2.24.75-3.4,1a15.49,15.49,0,0,0-2.54.78,18.19,18.19,0,0,1-3.23,1l-2,.43c-1.41.28-2.71.9-4.11,1.2a7.14,7.14,0,0,0-1.25.44A5.46,5.46,0,0,0,85.22,65.35Zm-2.6-27.22-2.55,1a7.2,7.2,0,0,1-2.29.57,5.8,5.8,0,0,0-1,.12,15.93,15.93,0,0,1-3.37.41,5.2,5.2,0,0,0-.87.12.43.43,0,0,0-.26.47,5.79,5.79,0,0,0,.29.68q1.53,2.87,3,5.79a43.15,43.15,0,0,0,2.31,4.29,10.5,10.5,0,0,1,.57,1c.82,1.63,1.59,3.27,2.44,4.88.6,1.13,1.31,2.21,2,3.31a1.2,1.2,0,0,0,.67.54,1.89,1.89,0,0,1,1.09,1,3.08,3.08,0,0,0,.27.38c.2-.06.38-.1.56-.17,1.33-.54,2.69-1,4-1.4a16.37,16.37,0,0,1,2.29-.59,18.16,18.16,0,0,0,3.55-1,27.66,27.66,0,0,1,3.22-1.08c1-.23,1.93-.4,2.87-.69s1.85-.68,2.77-1c.18-.07.37-.13.55-.21a.58.58,0,0,0,.19-.16s-.06-.1-.1-.11c-.27-.1-.55-.21-.83-.29a5.7,5.7,0,0,1-2-.9,1.11,1.11,0,0,1-.37-.44,3.53,3.53,0,0,1-.16-.87c0-.07.08-.18.15-.24a1,1,0,0,1,.36-.24c.93-.33,1.79-.83,2.68-1.24a8.5,8.5,0,0,1,3.58-.79,14.39,14.39,0,0,1,6.29,1.38L117,53.84a1.22,1.22,0,0,0,.86.11,5.15,5.15,0,0,0,1.26-.4,21.69,21.69,0,0,1,2.16-.94,12.36,12.36,0,0,1,3.81-1.15,1.28,1.28,0,0,0,.42-.13c.08,0,.13-.13.21-.22a7.9,7.9,0,0,0-.2-.84,5.36,5.36,0,0,0-.26-.54c-.14-.31-.28-.62-.4-.95A27.5,27.5,0,0,0,123.57,46a37.77,37.77,0,0,1-2.71-6.22,12.15,12.15,0,0,0-.62-1.5c-.62-1.38-.77-1.51-2.2-1.46a3.38,3.38,0,0,1-.45,0,6.63,6.63,0,0,1-2.28-.55c-.75-.37-1.48-.78-2.22-1.18a8,8,0,0,1-2.79-2.38c-.15-.19-.28-.41-.49-.45-.64,0-1.23,0-1.82.08a3.51,3.51,0,0,0-.87.11c-1.27.43-2.57.7-3.81,1.21a6,6,0,0,1-2.3.47,4.24,4.24,0,0,0-.88.08c-2,.4-3.95.83-5.9,1.36a12.26,12.26,0,0,1-1.87.41,7.7,7.7,0,0,0-1.72.41c-.65.22-1.29.48-1.94.71-.32.12-.65.22-1,.32a18.5,18.5,0,0,0-3.09,1,1.45,1.45,0,0,1-1.4,0A6.56,6.56,0,0,0,82.62,38.13ZM45.32,94.67a5,5,0,0,0,.48.32c.5.21,1,.37,1.5.61A29.33,29.33,0,0,0,50.86,97a17.43,17.43,0,0,1,3,1.2A22.6,22.6,0,0,0,58,100.11a5.2,5.2,0,0,1,.53.26c.9.39,1.8.8,2.71,1.16A28.14,28.14,0,0,1,64.82,103a5.9,5.9,0,0,0,.82.34c1.36.57,2.74,1.09,4.06,1.75.7.36,1.45.63,2.18.92a1.36,1.36,0,0,0,.87.11,1.85,1.85,0,0,1,1.16.06.91.91,0,0,0,.43.07,10.19,10.19,0,0,0,2.29-.55c1-.43,2-.79,3-1.19l3.43-1.36c.09,0,.16-.11.25-.15s.1-.3,0-.38a7.49,7.49,0,0,0-1.42-.77q-1.71-.69-3.39-1.47a24.79,24.79,0,0,1-2.35-1.21,20.33,20.33,0,0,0-2.63-1.34c-1.77-.75-3.5-1.57-5.3-2.26a23,23,0,0,1-2.82-1.27,9.35,9.35,0,0,0-1.89-.83,28,28,0,0,1-4.48-1.9,19.76,19.76,0,0,0-3.32-1.23.51.51,0,0,0-.55.12,2.09,2.09,0,0,1-1,.51,12.25,12.25,0,0,0-2.76,1,2.05,2.05,0,0,1-.41.16c-1.7.5-3.28,1.31-4.93,1.95A1.29,1.29,0,0,0,45.32,94.67Zm27.13.3s.06-.09.06-.13a32,32,0,0,0-.19-3.25,10.29,10.29,0,0,1-.12-1.47c0-2.27-.36-4.52-.32-6.78,0-.15,0-.3,0-.45l-.09-2.21c0-.39,0-.78,0-1.17a57.55,57.55,0,0,1-.39-6.94,11.48,11.48,0,0,0-.11-1.76,3.24,3.24,0,0,0-1-2.36,1.25,1.25,0,0,1-.42-.92.81.81,0,0,0-.49-.68,23.72,23.72,0,0,0-4.41-1.68,22.17,22.17,0,0,1-3.23-1.06c-1.13-.47-2.28-.91-3.43-1.36-.41-.16-.83-.29-1.25-.43l-.29-.07a.39.39,0,0,0-.33.23,6.56,6.56,0,0,0,.08,1.77c.18,2.75.09,5.52.11,8.28,0,2.36,0,4.73.23,7.09.1,1,.14,2.06.16,3.1a29.11,29.11,0,0,0,.13,3A3.8,3.8,0,0,1,57,87.28a3.11,3.11,0,0,0-.06.44c-.06.57,0,.72.49.92,1.09.46,2.22.82,3.27,1.37,0,0,.23-.08.23-.13a20,20,0,0,0,.12-2,14.85,14.85,0,0,0-.17-2.21,35,35,0,0,1-.21-3.69c0-1.47-.08-3-.22-4.42a12.6,12.6,0,0,1-.11-1.62c0-.59,0-1.18-.08-1.77a20.67,20.67,0,0,1-.14-3.24c0-.25,0-.5,0-.74C60,69,60,67.78,60,66.6A2.8,2.8,0,0,0,59.71,65a1.25,1.25,0,0,1-.1-.27.43.43,0,0,1,.43-.48,2,2,0,0,1,.42.09c.9.4,1.83.76,2.69,1.23a4.73,4.73,0,0,0,1.95.61,2.35,2.35,0,0,1,1.3.63c.35.28.53.58.33,1a2.37,2.37,0,0,0-.2,1,12.34,12.34,0,0,0,.12,2.65,7.77,7.77,0,0,1,0,2.5,9.81,9.81,0,0,0,0,2.36c.11,1.23.12,2.46.15,3.69a21.39,21.39,0,0,0,.26,3.83,9.65,9.65,0,0,1,.09,1.32A14.89,14.89,0,0,0,67.28,87c.12.63.17,1.27.23,1.9a4.24,4.24,0,0,0,.12.88,9,9,0,0,1,.31,2.63,1.13,1.13,0,0,0,.79,1.24c.19.07.36.17.54.24,1,.33,2,.69,2.9,1.1A.66.66,0,0,0,72.45,95ZM48,57c.31.15.58.27.83.42A14.58,14.58,0,0,0,52,58.77l2.54.76c.95-.05,1.62.68,2.48.87l.29.05c.51.17,1,.3,1.54.5,1.05.41,2.1.85,3.14,1.28a18.62,18.62,0,0,0,3.79,1.22,9.6,9.6,0,0,1,2.37.8c1.12.51,2.25,1,3.37,1.5a1.21,1.21,0,0,0,.74.15,1.57,1.57,0,0,0,.37-.18,4.18,4.18,0,0,1,2-.85c.39-.06.77-.19,1.16-.23A11.26,11.26,0,0,0,78.21,64a7.41,7.41,0,0,0,2.31-1.29.31.31,0,0,0,0-.5,8.58,8.58,0,0,0-1.69-.91A16.64,16.64,0,0,1,76,59.88a13.57,13.57,0,0,0-3.16-1.59l-3-1.15A10.63,10.63,0,0,1,67.61,56a14.41,14.41,0,0,0-3.18-1.55c-.92-.35-1.84-.71-2.75-1.08-.68-.29-1.34-.6-2-.91-.64.29-1.29.52-1.88.86A19.52,19.52,0,0,1,53.81,55c-.75.23-1.53.39-2.25.68a28.25,28.25,0,0,1-3.22,1.07C48.23,56.75,48.15,56.9,48,57ZM72,70.31a1.33,1.33,0,0,0-.14.41c0,.39,0,.78,0,1.17,0,.89-.07,1.78,0,2.66s.18,1.76.26,2.64a14.52,14.52,0,0,0,.08,1.48,17.47,17.47,0,0,1,.2,3.23c0,1,.06,2,.11,2.95s.14,2,.18,2.94.22,1.95.19,2.94a13.56,13.56,0,0,0,.17,1.91,1.14,1.14,0,0,0,.2.55,1.55,1.55,0,0,1,.33,1.1c0,.34,0,.68.09,1a.58.58,0,0,0,.32.46,8.82,8.82,0,0,0,.93.45,8.87,8.87,0,0,1,2.34,1.23,6.05,6.05,0,0,0,1,.55c.15.08.39-.14.37-.32s0-.19,0-.29a5.62,5.62,0,0,1-.25-1.15,12.56,12.56,0,0,0-.08-1.62c-.16-1.56-.21-3.13-.31-4.7a14.49,14.49,0,0,1,.13-2.8,16.72,16.72,0,0,0,.08-3.08c-.06-.93-.1-1.87-.12-2.8,0-2.7-.14-5.41-.22-8.11a1.58,1.58,0,0,0-.47-1.34,1.4,1.4,0,0,1-.25-.52c-.09-.23-.16-.47-.24-.7a.59.59,0,0,0-.69-.42,6.39,6.39,0,0,0-1.16.2,4.52,4.52,0,0,1-1.9.11ZM60.75,65.67c-.1,2-.1,4.11,0,6.17a8.36,8.36,0,0,0,.05,1.33,11.54,11.54,0,0,1,.12,2.35,11.68,11.68,0,0,0,.15,2.21,14.83,14.83,0,0,1,.18,1.75c0,1.14.06,2.27.13,3.4,0,.78.06,1.56.18,2.33a6.54,6.54,0,0,1,.06.89,8.15,8.15,0,0,0,.22,1.9,7,7,0,0,1,.3,2.32.54.54,0,0,0,.39.57l3.69,1.49a.25.25,0,0,0,.15,0,.67.67,0,0,0,.26-.1,1.19,1.19,0,0,0,.38-.78,9.43,9.43,0,0,0,0-1.76c-.17-1.12-.36-2.24-.42-3.37-.08-1.48-.29-2.94-.38-4.41,0-.44-.07-.88-.07-1.33,0-1.18,0-2.36-.06-3.54,0-.39,0-.78,0-1.18a30.71,30.71,0,0,0-.24-5.59,3,3,0,0,1,0-1.61,1.35,1.35,0,0,0-.24-1.26.85.85,0,0,0-.44-.36,7.38,7.38,0,0,1-1.64-.62c-.72-.32-1.46-.59-2.19-.88A.58.58,0,0,0,60.75,65.67Zm22.36,15.8c0-1.62,0-3,0-4.28,0-1,0-2,0-3,0-.24,0-.49-.06-.73a.36.36,0,0,0-.45-.27,4.33,4.33,0,0,1-2.47,0,7.09,7.09,0,0,1-1-.38.36.36,0,0,0-.52.32c0,.64-.05,1.28,0,1.92q0,1.77.15,3.54c.09,1.57,0,3.15.18,4.72a3.71,3.71,0,0,1,0,.88,5.71,5.71,0,0,0,0,2.06,2.59,2.59,0,0,1-.09,1.32,4.31,4.31,0,0,0-.13,1.75c.11,1.33,0,2.66.27,4a2.26,2.26,0,0,1,0,.45,10.35,10.35,0,0,0,.71,3.89,2.71,2.71,0,0,1,.26.68.88.88,0,0,0,.58.78c1.12.5,2.26,1,3.39,1.47a1,1,0,0,0,.43.06.3.3,0,0,0,.21-.15,1.88,1.88,0,0,0,0-.58,23.79,23.79,0,0,1-.37-3.37c0-1.23-.13-2.46-.22-3.69-.2-2.45-.44-4.91-.56-7.37C83.3,84,83.19,82.61,83.11,81.47ZM61.49,50.81s0,.1.08.12a20.28,20.28,0,0,0,4,1.88,11.56,11.56,0,0,1,2.83,1.25c.17.11.34.2.51.3a21.11,21.11,0,0,0,4.14,1.94,13,13,0,0,1,2.87,1.17l1.26.76a6.54,6.54,0,0,0,1.7.88c.07,0,.18,0,.25-.09s0-.09,0-.13c-.28-.63-.55-1.26-.86-1.88-.5-1-1-2-1.55-3-.42-.84-.83-1.68-1.29-2.5-1-1.76-1.91-3.56-2.8-5.37-.43-.89-.91-1.75-1.39-2.61-.17-.29-.29-.64-.7-.8a1.91,1.91,0,0,0-.41.35,16.08,16.08,0,0,1-1.84,2.11,4.07,4.07,0,0,1-1.6,1.48c-.57.39-1.18.72-1.73,1.14a6.9,6.9,0,0,1-2.62,1.32l-.86,1.56S61.49,50.76,61.49,50.81Zm62.28,27.94c0-1.39,0-2.67,0-4a9.64,9.64,0,0,0-.15-1.61,6.78,6.78,0,0,1-.09-1.62,23.84,23.84,0,0,0-.21-3.68c-.07-.78-.18-1.56-.22-2.35a29,29,0,0,0-.33-3.08.43.43,0,0,0-.1-.26.87.87,0,0,0-.37-.21,1,1,0,0,0-.43.09l-3.29,1.3c-.55.23-.56.31-.5,1a11.83,11.83,0,0,1,.05,1.33,10.87,10.87,0,0,0,.19,2.79,7.62,7.62,0,0,1,.09,1.18,7.11,7.11,0,0,0,0,1,14.05,14.05,0,0,1,.2,3.24,6,6,0,0,0,0,.73c0,1.38.27,2.74.22,4.13a4.67,4.67,0,0,0,.18,1.16,2,2,0,0,0,.3.46,1.57,1.57,0,0,0,.34,0,4.13,4.13,0,0,0,1.62-.67C122.15,79.5,122.89,79.12,123.77,78.75Zm-19.13,24.87a6.44,6.44,0,0,0,.12-4.11c-.05-.14-.07-.28-.11-.43s-.05-.18-.08-.28a.68.68,0,0,0-.67-.48,7.3,7.3,0,0,0-2.45.43,14.13,14.13,0,0,1-2.38.79,3.1,3.1,0,0,0-.55.21A25,25,0,0,1,95,100.84c-1.69.37-1.4.27-1.48,1.78,0,.4,0,.79,0,1.18,0,.74.08,1.48.09,2.21a1.94,1.94,0,0,0,.3,1,.42.42,0,0,0,.49.22c1.29-.48,2.6-.89,3.93-1.24a7,7,0,0,0,1-.35,31.37,31.37,0,0,1,3.86-1.43A13.86,13.86,0,0,0,104.64,103.62ZM85,108.4h0c0-.59,0-1.18-.08-1.77a4.51,4.51,0,0,0-.27-1.59.25.25,0,0,0-.23-.12c-1.11.38-2.24.73-3.33,1.2-.81.35-1.64.66-2.46,1-.64.26-1.29.51-1.91.8a3.49,3.49,0,0,1-1.54.46.29.29,0,0,0-.29.27,29.21,29.21,0,0,0,.12,3.1,23.44,23.44,0,0,1,.19,2.65c0,.69,0,1,.94.54.22-.12.45-.22.67-.32,1.67-.73,3.3-1.56,5-2.14.93-.32,1.82-.77,2.72-1.17a.76.76,0,0,0,.47-.7C85,109.88,85,109.14,85,108.4Zm-20.79-.62a15.26,15.26,0,0,0,.2,3.83.83.83,0,0,0,.52.66,71.52,71.52,0,0,1,7.24,4c.41.24.62.14.71-.34a10.39,10.39,0,0,0,.1-3.81,9.48,9.48,0,0,1-.16-1.91,5.91,5.91,0,0,0-.12-1,1,1,0,0,0-.68-.87c-1.92-.78-3.8-1.63-5.67-2.52-.49-.23-1-.39-1.52-.57-.34-.12-.62,0-.62.38C64.22,106.31,64.23,107,64.23,107.78Zm52.3-8.65c2.8-1.18,5.72-2.19,8.43-3.57a7,7,0,0,0,.49-3.39c-.07-.64-.17-1.27-.27-1.9a.41.41,0,0,0-.54-.34c-.28.08-.56.16-.84.27a46.77,46.77,0,0,1-4.61,1.5c-1.14.31-2.22.8-3.36,1.1-.1,0-.2.2-.25.33a1.24,1.24,0,0,0,0,.43c0,1.47.32,2.93.35,4.4a3.32,3.32,0,0,0,.06.44A1,1,0,0,0,116.53,99.13ZM83,71c0-1.39.11-2.76.11-4.14a7.76,7.76,0,0,0-.22-2.2.42.42,0,0,0-.46-.25,2,2,0,0,0-.43.13,10,10,0,0,0-1.13.69,3.9,3.9,0,0,1-1.33.6c-1.19.32-2.39.6-3.6.83a4.27,4.27,0,0,0-1.4.46c-.55.32-1.08.67-1.62,1a.18.18,0,0,0-.08.12.59.59,0,0,0,0,.27.53.53,0,0,0,.5.26,18.29,18.29,0,0,0,3.21-.48,8.51,8.51,0,0,1,1-.17.88.88,0,0,1,.87.45,4.57,4.57,0,0,1,.37.81c.18.4.32.83.52,1.22a1.84,1.84,0,0,0,1.85,1A3.3,3.3,0,0,0,83,71ZM57.51,105.58a.85.85,0,0,0,.18-.69c-.06-.64-.13-1.28-.22-1.91a1.64,1.64,0,0,0-1.11-1.42c-1.22-.51-2.43-1.07-3.62-1.64a23.37,23.37,0,0,0-3.86-1.46c-.43-.12-.66.1-.56.54a1.29,1.29,0,0,0,.55,1,.6.6,0,0,1,.21.21,3.55,3.55,0,0,0,1.81,1.45,6.21,6.21,0,0,1,1.26.76c.75.55,1.51,1.1,2.29,1.61a12.89,12.89,0,0,1,1.45,1A2.06,2.06,0,0,0,57.51,105.58ZM50.1,116.5a1.07,1.07,0,0,0,.31,0c.91-.37,1.84-.69,2.72-1.13a16.58,16.58,0,0,1,2.62-1c.57-.17,1.14-.33,1.68-.55,1.14-.47,2.27-1,3.4-1.45a2.62,2.62,0,0,1,1.13-.31c.14,0,.32.08.41-.07a1.19,1.19,0,0,0,.18-.54,8.78,8.78,0,0,0-.09-1,.34.34,0,0,0-.41-.31,14.47,14.47,0,0,0-3.21,1.09,12.59,12.59,0,0,1-2.8.92,7.22,7.22,0,0,0-1.8.61,5.62,5.62,0,0,1-1.1.41,5,5,0,0,0-1.89.81,3.4,3.4,0,0,1-.79.38.67.67,0,0,0-.43.7A3.94,3.94,0,0,0,50.1,116.5Zm-2.36-3.42A5.22,5.22,0,0,0,51.1,112a.24.24,0,0,0,0-.37,4.87,4.87,0,0,0-1.42-.76c-1.92-.75-3.84-1.48-5.76-2.25-.38-.15-.62-.14-.83.25a.76.76,0,0,1-.63.34,3.13,3.13,0,0,0-1.4.42.33.33,0,0,0-.14.22.31.31,0,0,0,.11.25,19.33,19.33,0,0,0,3,1.57c.9.39,1.82.72,2.7,1.14A1.68,1.68,0,0,0,47.74,113.08Zm.41,2.76c0-.68-.07-.82-.55-.92a1.48,1.48,0,0,1-.67-.28,14.3,14.3,0,0,0-4.36-2.4,15.18,15.18,0,0,1-3.06-1.42,1,1,0,0,0-1.21.14.68.68,0,0,0-.06.92,3.38,3.38,0,0,0,.46.37c.57.37,1.14.77,1.74,1.09,1.38.74,2.77,1.46,4.11,2.28.83.51,1.79.8,2.6,1.36a2.87,2.87,0,0,0,.4.18.32.32,0,0,0,.42-.27C48.05,116.46,48.12,116,48.15,115.84Zm-.59-13.74-.41.05a3,3,0,0,0-1.62.92s0,.18,0,.26a.48.48,0,0,0,.19.21A18.67,18.67,0,0,0,48,104.61a5.53,5.53,0,0,1,.94.4,20.87,20.87,0,0,1,3.27,2,2.07,2.07,0,0,0,1.95.39c.23-.07.47-.11.71-.18a1.58,1.58,0,0,0,.26-.13c.1,0,.15-.32.06-.38-1-.66-2-1.28-2.9-2a45.74,45.74,0,0,0-4-2.47A.92.92,0,0,0,47.56,102.1Zm-4.31,4.36,2.34,1.19a5.72,5.72,0,0,0,.68.28c.82.32,1.64.67,2.49.93a19.07,19.07,0,0,1,2.06.8c.53.24,1.09.46,1.64.67a.28.28,0,0,0,.19-.15.77.77,0,0,0-.29-.91,8.41,8.41,0,0,1-1.06-.8,10.92,10.92,0,0,0-3.2-2.09c-1.38-.65-2.77-1.28-4.16-1.91-.09,0-.18-.09-.27-.12s-.68.23-.65.46C43.09,105.35,43.17,105.88,43.25,106.46Zm19,1.86a4.34,4.34,0,0,0,.08-1.64.42.42,0,0,0-.53-.35,26.16,26.16,0,0,0-2.79,1.3,1.11,1.11,0,0,1-.67.25,1.42,1.42,0,0,0-.69.23,1.56,1.56,0,0,1-.69.22,5.07,5.07,0,0,0-1.43.35c-1.38.45-1.42.67-1.27,2a.4.4,0,0,0,.54.32,11,11,0,0,1,2.36-.82,6.34,6.34,0,0,0,.83-.3A20.61,20.61,0,0,1,62.29,108.32ZM88.15,34.86a6,6,0,0,0-1.69-1.25A8,8,0,0,0,84,33a16.42,16.42,0,0,1-3.19-.57,7.68,7.68,0,0,0-1.16-.23c-.73-.08-1.47-.13-2.21-.17a3.39,3.39,0,0,0-2.92,1.36,1.85,1.85,0,0,0,1.24.38c.79,0,1.58.06,2.36,0,.59,0,1.16-.21,1.75-.26a17.33,17.33,0,0,0,1.91-.1,3.21,3.21,0,0,1,2.28.26,2.71,2.71,0,0,0,.72.16,1.34,1.34,0,0,1,.82.58,2.79,2.79,0,0,1,.46.91.28.28,0,0,0,.36.15c.39-.1.77-.18,1.15-.3A3.14,3.14,0,0,0,88.15,34.86ZM46.43,100.31a19.77,19.77,0,0,0,0-2.44.74.74,0,0,0-.5-.66,4.4,4.4,0,0,0-1.71-.39c-.1,0-.24.15-.31.27a.86.86,0,0,0-.09.42,24.72,24.72,0,0,1,0,3.22c0,.27.17.44.35.62a.49.49,0,0,0,.53.13A6.47,6.47,0,0,0,46.43,100.31Zm7.45-39c-.71-.23-1.31-.44-1.92-.62-.31-.09-.55.14-.54.49a2.32,2.32,0,0,0,.4,1.38c.15.2.29.39.43.6a1.11,1.11,0,0,0,1,.51c.76,0,.9-.11.83-.8C54,62.41,54,61.92,53.88,61.33Zm5.58,41.77a5.73,5.73,0,0,0,.12,2.16.59.59,0,0,0,.6,0c.33-.2.65-.42,1-.61s.69-.35,1.07-.54a1.29,1.29,0,0,0-.34-.27A22.45,22.45,0,0,0,59.46,103.1ZM113.79,29l-.59,0c-.12,0-.19.07-.16.18a.47.47,0,0,0,.11.25,2.69,2.69,0,0,0,1.17.58c.52.14,1,.29,1.56.42.23.05.47.07.71.1a.19.19,0,0,0,.13-.07s0-.12,0-.14c-.41-.34-.82-.68-1.25-1a1.86,1.86,0,0,0-1.1-.36Z"/><path class="cls-1" d="M104.59,67.37a7.9,7.9,0,0,1,1.07-.38,7.28,7.28,0,0,0,2.16-.93,3.69,3.69,0,0,1,1.78-.67,3.34,3.34,0,0,0,.55-.2.86.86,0,0,1,1.08,1,8.13,8.13,0,0,0-.09,3.22,6.56,6.56,0,0,1,0,1.33,7.8,7.8,0,0,0,.06,2.21,14.32,14.32,0,0,1,.1,1.47,20,20,0,0,0,.11,2.06,18.25,18.25,0,0,1,.16,3.69,9.7,9.7,0,0,0,.24,2.94,3.11,3.11,0,0,1,0,1.18.9.9,0,0,1-.6.77c-1.56.61-3.16,1.1-4.7,1.76a.58.58,0,0,1-.76-.49c0-1-.08-2-.13-2.95-.11-2.46-.2-4.92-.37-7.38a24,24,0,0,0-.45-4,5.15,5.15,0,0,1-.16-1.17,7.08,7.08,0,0,0-.28-1.89A1.78,1.78,0,0,1,104.59,67.37Zm.63.63c0,.58.09,1,.07,1.46a34.66,34.66,0,0,0,.45,5c.06.58.14,1.17.17,1.76a21.86,21.86,0,0,0,.25,3.23,5.77,5.77,0,0,1,.06,1.18,40.46,40.46,0,0,0,.22,4.12,4.69,4.69,0,0,0,.17.72.51.51,0,0,0,.57.35,18.44,18.44,0,0,0,3-1.16,1,1,0,0,0,.55-.66,3.07,3.07,0,0,0,.09-1.45,8.6,8.6,0,0,1-.09-1.61c0-.44,0-.88.07-1.33.08-1.42-.13-2.84-.19-4.27s-.15-2.64-.15-4-.07-3-.12-4.42a1.61,1.61,0,0,0-.07-.43.79.79,0,0,0-.15-.25c-.07-.06-.18-.15-.24-.13a12.54,12.54,0,0,0-1.69.49c-.75.37-1.52.68-2.29,1C105.7,67.74,105.49,67.86,105.22,68Z"/><path class="cls-1" d="M92.7,88.55c-.09-1-.18-2.06-.26-3.09,0-.73-.12-1.47-.11-2.2,0-2-.38-4-.34-6a6,6,0,0,0-.09-1,30.15,30.15,0,0,1-.2-3.68,3.12,3.12,0,0,1,0-.44.55.55,0,0,1,.35-.44,4.45,4.45,0,0,1,.7-.24c.47-.13,1-.23,1.43-.35a3.85,3.85,0,0,0,1.71-.83,1.54,1.54,0,0,1,.37-.23.52.52,0,0,1,.56.08,1.08,1.08,0,0,1,.36.44,6.55,6.55,0,0,1,.42,2q0,1.92.15,3.84c0,1,.14,2.06.26,3.09s.07,2.16.1,3.24a37.63,37.63,0,0,0,.41,4.85c.05.38.08.78.1,1.17a.55.55,0,0,1-.31.47,1.09,1.09,0,0,1-.39.19,5.59,5.59,0,0,0-2.15.93,12.32,12.32,0,0,1-2.6,1c-.2.07-.49-.16-.51-.4s0-.78,0-1.17V88.56Zm4.77-7.91c-.07-1.37-.11-2.36-.18-3.34,0-.59-.15-1.17-.19-1.76-.06-.93,0-1.87-.14-2.8a9,9,0,0,0-.36-1.42.4.4,0,0,0-.49-.21c-1,.3-2,.59-3,.92-.81.27-.89.32-.85,1.29a6.56,6.56,0,0,0,.14,1.17,8.76,8.76,0,0,1,.17,1.91c0,.34,0,.69,0,1,0,1.19.2,2.36.26,3.53.1,2,.33,3.93.34,5.9,0,.64.08,1.27.11,1.91a2.64,2.64,0,0,0,.45,1.39.59.59,0,0,0,.38.15.94.94,0,0,0,.43-.1c.71-.33,1.42-.66,2.13-1a3.6,3.6,0,0,0,.62-.39.86.86,0,0,0,.37-.76c0-.93,0-1.87-.06-2.8A24.09,24.09,0,0,1,97.47,80.64Z"/><path class="cls-1" d="M163.31,133.46h-.17c-32.18-.39-121.08-1.17-145.75-.16a8.69,8.69,0,0,1-9.29-7.77c-3-39.52-2.29-70.94-1-111A8.4,8.4,0,0,1,9.79,8.65a9.72,9.72,0,0,1,6.9-2.54c18.65.66,38.15,0,58.8-.63,31.53-1,64.13-2.07,93.21,1.89,2.56.35,5,.79,7,2.32,3.24,2.57,3.42,6.9,3.34,10.75l-1,0,1,0c-.28,12.15-.55,22.44-.82,32.39s-.54,20.22-.81,32.38c-.18,8.29-.2,24.07-.19,35.23a12.57,12.57,0,0,1-3.82,8.95A14.34,14.34,0,0,1,163.31,133.46ZM63.5,130.74c43.81,0,98.86.65,99.66.66a12.33,12.33,0,0,0,8.75-3.47,10.52,10.52,0,0,0,3.21-7.49c0-11.17,0-27,.19-35.28.27-12.16.55-22.44.81-32.39s.54-20.23.81-32.38c.08-3.35-.05-7.1-2.55-9.09-1.52-1.21-3.69-1.59-6-1.9C139.51,5.47,107,6.51,75.56,7.53c-20.69.66-40.22,1.3-58.94.63a7.6,7.6,0,0,0-5.43,2,6.32,6.32,0,0,0-2.06,4.43c-1.27,40-1.94,71.37,1,110.8a6.64,6.64,0,0,0,7.16,5.87C26.52,130.87,43.89,130.74,63.5,130.74Z"/></svg>