<?xml version="1.0" encoding="utf-8"?>
<!-- Generator: Adobe Illustrator 23.0.1, SVG Export Plug-In . SVG Version: 6.00 Build 0)  -->
<svg version="1.1" id="Layer_1" xmlns="http://www.w3.org/2000/svg" xmlns:xlink="http://www.w3.org/1999/xlink" x="0px" y="0px"
	 viewBox="0 0 635.7 110.2" style="enable-background:new 0 0 635.7 110.2;" xml:space="preserve">
<style type="text/css">
	.st0{fill:#FFCC33;}
</style>
<title>Artboard 25</title>
<g>
	<g id="inspo_gallery">
		<path class="st0" d="M32.2,30.3c0,0.9,0,1.9,0,2.8c0,1.6,0.1,3.3,0.1,4.9c0,1.1,0.2,2.2,0.2,3.4c0,0.5,0,1.1,0.1,1.6
			c-0.2,0.2-0.4,0.3-0.6,0.4s-0.5,0.2-0.7,0.3c-0.5-1-1-2.1-1.4-3.2c-0.7-1.9-1.6-3.8-2.5-5.7c-0.2-0.4-0.5-0.5-0.9-0.2
			c0,0.1-0.1,0.2,0,0.3l4,9.2c-1.6,1-3.4,1.8-4.4,3.8c-1.5-1.6-3-3.1-4.7-4.4c-0.4,0.6-0.5,0.8-0.1,1.2c0.6,0.7,1.2,1.3,1.9,1.9
			c0.8,0.7,1.6,1.5,2.2,2.4C25,50.3,25,51.7,24,52.7l-0.7-0.1c-0.4,0-0.9-0.1-1.3-0.1c-0.3,0-0.5,0.2-0.6,0.5c0,0,0,0,0,0
			c0,0.3,0.2,0.5,0.5,0.5c0.3,0.1,0.6,0.1,0.9,0.2c0.4,0,0.7,0.1,1,0.3c-0.1,2.3-0.8,4.4-0.6,6.7c-0.2,0.1-0.5,0.2-0.7,0.3
			c-0.9,0.2-1.8,0.4-2.6,0.5c-0.3,0.1-0.7,0.1-1,0.2c-1.2,0.1-2.5,0.3-3.6,0.7c-0.3,0-0.5,0.2-0.4,0.6c0.4,0.2,0.9,0.3,1.3,0.2
			c1.3-0.2,2.6-0.3,3.8-0.5s2.4-0.5,3.7-0.8c0.1,0.4,0.1,0.7,0.1,1c0,0.2,0,0.5,0.1,0.7c0.3,0.8,0.5,1.5,0.8,2.3
			c-0.6,0.7-1.2,1.4-1.7,2c-0.6,0.7-1.3,1.4-2,2c-0.9,0.8-1.7,1.6-2.5,2.5c-0.1,0.1-0.2,0.3-0.3,0.5c-0.1,0.3,0,0.6,0.4,0.6
			c0.9-1.1,1.9-2.1,3-3c0.9-0.8,1.8-1.6,2.5-2.6c0.2-0.3,0.5-0.6,0.8-0.9c0.8,1,1.5,1.9,2.2,2.8c0.2,0.3,0.3,0.8,0.1,1.1
			c-0.5,1.8-1.2,3.5-1.6,5.3c0,0.1,0,0.2-0.1,0.3c-0.7,2.1-1.4,4.2-2.1,6.3c-0.2,0.6-0.4,1.2-0.6,1.8c-0.5,1.1-0.9,2.1-1.2,3.3
			c-0.2,0.6-0.3,1.2-0.4,1.8c0,0.3,0.1,0.7,0.3,1c0.3-0.4,0.5-0.6,0.5-0.7c0.2-1.1,0.6-2.2,1.1-3.2c0.5-1.4,1.2-2.8,1.6-4.3
			c0.5-1.7,1.1-3.3,1.6-5c0.2-0.5,0.4-1.1,0.5-1.7c0.2-1.6,1.1-3,1.3-4.6c0-0.1,0.2-0.2,0.3-0.4l2.9,1.4c-0.1,1.3-0.3,2.5-0.3,3.7
			c-0.1,1.3,0,2.5,0.2,3.8c0.2-0.1,0.5-0.2,0.5-0.3c0.1-0.3,0.2-0.6,0.2-0.9c0-1.8,0-3.7,0.1-5.5c0-0.3,0-0.5,0.1-0.8
			c1-0.3,1.6-1.2,1.3-2.2c-0.1-1.1-0.1-2.3,0.1-3.4c0-0.2,0-0.5,0-0.7c0-0.6,0-1.2-0.1-1.8c-0.1-1.1-0.1-2.2-0.1-3.2
			c0.1-2.2-0.1-4.4-0.1-6.6c0-0.3,0-0.6,0.1-0.9c0.7-1.1,0.3-2.4,0.5-3.5c0.1-0.9,0-1.9,0.2-2.9c0.2-0.7,0-1.5,0.1-2.2
			c0.3-0.8-0.1-1.6-0.9-1.9c0,0,0,0,0,0c0-1.3-0.1-2.5-0.1-3.8c0-2.7-0.1-5.3-0.1-8c0-0.2,0-0.4,0-0.6c0-0.5-0.3-0.7-0.6-0.7
			S32.2,30,32.2,30.3z M32.9,45c0,1,0,2-0.1,3c-0.2,1.5-0.1,3.1-0.8,4.6c0,0.1,0,0.3,0,0.4c0,1.1,0,2.3,0,3.4c0,1.8,0.1,3.6,0.1,5.4
			c0,0.9,0,1.8-0.2,2.6c-0.1,0.9-0.1,1.8,0,2.6c0,0.4,0.1,0.8,0.1,1.1c0,0.8,0,1.6,0,2.6c-1-0.2-1.9-0.6-2.6-1.3
			c-0.2-0.2-0.5-0.4-0.8-0.5c-0.9-0.6-1.6-1.5-1.9-2.6c-0.1-1-0.5-1.9-1.1-2.7c0-0.1-0.1-0.2-0.1-0.2c0.1-1.2-0.6-2.3-0.8-3.4
			c-0.2-1.7-0.1-3.4,0.4-5c0.4-1.7,0.9-3.3,1.4-5c0.1-0.5,0.4-1,0.9-1.4c0.5-0.5,0.9-1.1,1.4-1.5c0.5-0.4,1-0.8,1.6-1.2
			c0.7-0.4,1.4-0.7,2.2-1.1C32.8,44.9,32.9,44.9,32.9,45z"/>
		<path class="st0" d="M30.9,82.7c0,0.2,0,0.4,0,0.6c0,0.7,0,1.5,0,2.2c0,2.8-0.1,5.5-0.1,8.3c0,0.7,0,1.4,0,2.1
			c0,2.3-0.1,4.6,0,6.9c0.1,1.9,0.1,3.8,0.1,5.6c0,0.4,0,0.9,0.1,1.3c0,0.3,0.3,0.6,0.6,0.5c0,0,0.1,0,0.1,0
			c0.1-0.2,0.1-0.3,0.1-0.5c0.1-1.3,0.2-2.7,0.2-4.1s-0.1-2.5-0.2-3.7c0-1.5,0-3,0-4.6c0-1.2,0-2.5,0-3.7s0.1-2.4,0.2-3.6
			c0-0.5-0.1-0.9-0.1-1.4c0-1.8,0-3.6,0.1-5.4c0-0.2,0-0.3,0-0.5c0-0.2-0.2-0.4-0.5-0.4C31.2,82.2,30.9,82.4,30.9,82.7
			C30.9,82.7,30.9,82.7,30.9,82.7z"/>
		<path class="st0" d="M28,12.1c0.2-0.2,0.3-0.5,0.4-0.8c0-0.3-0.1-0.5-0.3-0.7c-0.2-0.2-0.5-0.1-0.7,0.1s-0.3,0.4-0.5,0.5l-0.5,0.6
			c-0.6-0.1-0.4-0.7-0.7-0.9c-0.1-0.2-0.3-0.3-0.5-0.4c-0.3,0-0.5,0.2-0.5,0.5c0,0.2,0,0.3,0,0.5c0,0.3,0.1,0.5,0.2,0.8
			c0.2,0.5,0,1.1-0.6,1.3c0,0,0,0-0.1,0c-0.2,0.1-0.5,0.1-0.8,0.3c-0.3,0.2-0.5,0.6-0.4,0.9c0.1,0.3,0.5,0.5,0.8,0.4l0.8-0.1
			c0,0.2,0.1,0.3,0.1,0.5l0.3,1.4c0,0.3,0.3,0.5,0.5,0.5c0.3,0,0.5-0.3,0.6-0.6s0-0.7,0-1s0-0.4,0-0.6c0.5-0.3,0.9,0,1.3,0.1
			s0.7,0.1,0.9-0.3c0.2-0.3,0.1-0.7-0.2-0.9c-0.3-0.3-0.6-0.6-1.1-1C27.4,12.7,27.7,12.4,28,12.1z"/>
		<path class="st0" d="M27.2,98.3c0.2-0.5,0.4-1,0.6-1.5l1.3,0.4c0.6-0.8,0.5-0.9-0.9-2.2c0-0.1,0-0.2,0.1-0.3
			c0.2-0.3,0.5-0.7,0.8-1s0.3-0.9,0-1.1s-0.7,0-0.9,0.2s-0.6,0.7-1.2,0.8c-0.2-0.3-0.3-0.6-0.5-0.9c-0.2-0.3-0.5-0.4-0.8-0.3
			c-0.3,0.1-0.4,0.4-0.3,0.7c0.1,0.5,0.2,1,0.3,1.5c-0.7,0.1-1.4,0.2-1.2,1.1l1.7,0.6c0,0.6,0,1.2,0,1.8c0,0.3,0.2,0.6,0.5,0.7
			C26.8,98.9,27.1,98.7,27.2,98.3C27.2,98.4,27.2,98.4,27.2,98.3z"/>
		<path class="st0" d="M19.8,53c0-0.2-0.1-0.4-0.3-0.5c-0.2-0.1-0.5-0.2-0.8-0.2c-0.5,0-0.9-0.1-1.4-0.1c-1.4-0.2-2.9-0.4-4.3-0.5
			c-2.1-0.2-4.2-0.3-6.3-0.5c-0.7-0.1-1.5,0-2.2,0.4C5,51.8,5.2,52,5.4,52.1c1.8,0.2,3.7,0.5,5.6,0.7c2.1,0.2,4.2,0.4,6.3,0.6
			c0.7,0.1,1.4,0.1,2.1,0.1C19.6,53.4,19.7,53.2,19.8,53z"/>
		<path class="st0" d="M26.5,42.7c0-0.5-0.1-1-0.1-1.6c0.4-0.1,0.8-0.3,1.2-0.4c0.2-0.1,0.3-0.3,0.3-0.5c0-0.2-0.2-0.4-0.4-0.5
			c-0.5-0.2-1-0.2-1.4-0.7c0-0.3-0.1-0.6-0.2-0.9c-0.1-0.5-0.5-0.6-0.9-0.2c-0.2,0.2-0.4,0.4-0.5,0.7c-0.1,0.3-0.2,0.6-0.3,0.9
			c-0.2,0-0.3-0.1-0.5-0.1c-0.2-0.1-0.5-0.1-0.7,0.1c0,0,0,0,0,0.1c-0.2,0.3-0.1,0.6,0.1,0.8c0.2,0.2,0.4,0.3,0.7,0.5
			c-0.2,0.5-0.4,0.9-0.5,1.3c-0.1,0.3,0,0.6,0.3,0.8c0.3,0.2,0.5,0.1,0.8-0.1s0.5-0.4,0.8-0.6c0.1,0.2,0.1,0.4,0.2,0.6
			c0,0.3,0.2,0.5,0.5,0.5c0,0,0,0,0.1,0C26.3,43.3,26.5,43,26.5,42.7C26.5,42.7,26.5,42.7,26.5,42.7z"/>
		<path class="st0" d="M22.3,23c-0.3-0.6-0.6-1.2-1-1.8c-0.3-0.6-0.6-1.1-1-1.7c-0.2-0.2-0.4-0.3-0.7-0.3c-0.2,0-0.3,0.3-0.6,0.5
			c0.3,0.3,0.6,0.6,0.8,1c0.5,1.2,1.1,2.3,1.8,3.3c0.1,0.1,0.1,0.2,0.1,0.3c0.5,1.5,1.2,3,2,4.4c0.1,0.1,0.1,0.3,0.1,0.4
			c0.4,0.9,0.7,1.7,1.1,2.6c0.1,0.4,0.5,0.6,0.8,0.6c0-0.3,0.2-0.6,0.1-0.8c-0.5-1.3-1-2.6-1.5-3.9c-0.5-1.1-0.9-2.2-1.4-3.3
			C22.8,23.9,22.5,23.5,22.3,23z"/>
		<path class="st0" d="M2.5,59.8c0.2-0.3,0.3-0.7,0.5-1c0.3,0.3,0.6,0.6,0.9,0.8c0.3,0.2,0.6,0.2,0.9-0.1C5,59.3,5,59,4.8,58.8
			c0,0,0,0,0,0l-0.9-1c-0.2-0.2-0.4-0.5-0.2-0.8s0.7-0.4,1-0.7c0.3-0.1,0.3-0.5,0.2-0.7c-0.1-0.3-0.4-0.4-0.7-0.3
			c-0.4,0.1-0.8,0.2-1.2,0.4c-0.1-0.3-0.3-0.5-0.4-0.7c-0.2-0.2-0.4-0.2-0.6-0.2c-0.2,0.1-0.3,0.3-0.4,0.5c0,0.3,0,0.6,0,0.9
			c-0.6,0.4-1.3,0.4-1.4,1.2c0.3,0.8,1.2,0.4,1.6,0.9c0,0.5,0,0.9,0.1,1.3c0.1,0.2,0.2,0.3,0.4,0.4C2.2,60,2.4,59.9,2.5,59.8z"/>
		<path class="st0" d="M18.7,41.3c0-0.1-0.2-0.2-0.2-0.2L15,37.7c-0.6-0.6-1.2-1.2-1.8-1.8c-0.5-0.5-1-0.9-1.6-1.3
			c-0.3-0.2-0.5,0-0.8,0.4c0.1,0.2,0.3,0.4,0.4,0.6c1.2,1.2,2.4,2.4,3.6,3.6c0.9,0.8,1.7,1.7,2.6,2.5c0.2,0.2,0.4,0.4,0.7,0.5
			c0.2,0.1,0.4,0,0.6-0.1C18.8,41.8,18.8,41.5,18.7,41.3z"/>
		<path class="st0" d="M32.2,3.4c0,0.5,0,1,0,1.5c0.1,2.1,0.3,4.3,0.4,6.4c0,0.8,0.1,1.6,0.2,2.4l0.3,0.1c0.1-0.2,0.3-0.3,0.4-0.5
			c0-1.2,0.1-2.5,0.1-3.7c0-0.3-0.2-0.7-0.2-1c0-1.6,0-3.1,0-4.7c0-0.3,0-0.7-0.1-1c-0.1-0.1-0.2-0.2-0.3-0.3
			c-0.2,0-0.4,0.1-0.5,0.2C32.3,3.1,32.2,3.3,32.2,3.4z"/>
		<path class="st0" d="M11.6,64.1c0.3,0,0.5-0.1,0.8-0.1c0.3-0.1,0.5-0.3,0.4-0.6c0-0.3-0.3-0.5-0.6-0.5c0,0,0,0,0,0
			c-0.6,0-1.2,0.1-1.9,0.2c-1.3,0.2-2.6,0.5-3.9,0.8c-0.4,0.1-0.8,0.2-0.8,0.8c0.6,0.1,1.1,0.1,1.7,0C8.9,64.5,10.2,64.3,11.6,64.1z
			"/>
		<path class="st0" d="M33,18.1c-0.1,0.2-0.2,0.4-0.2,0.7c0,1.1,0,2.2-0.1,3.2c0,0.9,0,1.9,0.2,2.8c0,0.1,0.2,0.2,0.3,0.4
			c0.4-0.3,0.6-0.8,0.5-1.2c-0.1-1.3-0.1-2.6,0-3.8c0-0.7,0-1.3,0-2c0-0.2-0.2-0.3-0.3-0.4C33.2,17.9,33.1,18,33,18.1z"/>
		<path class="st0" d="M14.8,77.6c0.6-0.7,1.2-1.3,1.8-2c0.2-0.2,0.2-0.5,0.2-0.7c0-0.2-0.3-0.4-0.5-0.7c-0.6,0.9-1.2,1.7-1.8,2.4
			s-1.5,1.2-1.9,2.3c0.8,0.1,0.8,0.1,1-0.1S14.4,78,14.8,77.6z"/>
		<path class="st0" d="M603.4,82.6c0-0.9,0-1.9,0-2.8c0-1.6-0.1-3.3-0.1-4.9c0-1.1-0.2-2.3-0.2-3.4c0-0.5,0-1.1-0.1-1.6
			c0.2-0.2,0.4-0.3,0.6-0.4s0.5-0.2,0.7-0.3c0.5,1,1,2.1,1.4,3.2c0.7,1.9,1.6,3.8,2.5,5.7c0.2,0.4,0.5,0.5,0.9,0.2
			c0-0.1,0.1-0.2,0-0.3l-4-9.2c1.6-1,3.4-1.8,4.4-3.8c1.5,1.6,3,3.1,4.7,4.4c0.4-0.6,0.5-0.8,0.1-1.2c-0.6-0.7-1.2-1.3-1.9-1.9
			c-0.8-0.7-1.6-1.5-2.2-2.4c0.6-1.2,0.6-2.5,1.5-3.5l0.7,0.1c0.4,0,0.8,0.1,1.3,0.1c0.3,0,0.5-0.2,0.6-0.4c0,0,0,0,0,0
			c0-0.3-0.2-0.5-0.5-0.5s-0.6-0.1-0.9-0.2c-0.4,0-0.7-0.1-1-0.3c0.1-2.3,0.8-4.4,0.6-6.7c0.2-0.1,0.5-0.2,0.7-0.3
			c0.9-0.2,1.8-0.4,2.6-0.5c0.3-0.1,0.7-0.2,1-0.2c1.2-0.1,2.5-0.3,3.6-0.7c0.3,0,0.5-0.2,0.4-0.6c-0.4-0.2-0.9-0.3-1.3-0.2
			c-1.3,0.2-2.6,0.3-3.8,0.5s-2.4,0.5-3.7,0.8c0-0.4-0.1-0.7-0.1-1c0-0.2,0-0.5-0.1-0.7c-0.3-0.8-0.5-1.5-0.8-2.3
			c0.6-0.7,1.2-1.4,1.7-2c0.6-0.7,1.3-1.4,2-2c0.9-0.8,1.7-1.7,2.5-2.5c0.1-0.1,0.2-0.3,0.3-0.5c0.1-0.3,0-0.5-0.4-0.6
			c-0.9,1.1-1.9,2.1-3,3c-0.9,0.8-1.8,1.6-2.5,2.6c-0.2,0.3-0.5,0.6-0.8,0.9c-0.8-1-1.5-1.9-2.2-2.8c-0.2-0.3-0.3-0.8-0.1-1.1
			c0.5-1.8,1.2-3.5,1.5-5.2c0-0.1,0-0.2,0.1-0.3c0.7-2.1,1.4-4.2,2.1-6.3c0.2-0.6,0.4-1.2,0.7-1.8c0.5-1.1,0.9-2.1,1.2-3.3
			c0.2-0.6,0.3-1.2,0.4-1.8c0-0.2-0.1-0.5-0.3-1c-0.3,0.4-0.5,0.6-0.5,0.7c-0.2,1.1-0.6,2.2-1.1,3.2c-0.5,1.4-1.2,2.8-1.6,4.3
			c-0.5,1.7-1.1,3.3-1.6,5c-0.2,0.5-0.4,1.1-0.5,1.7c-0.2,1.6-1.1,3-1.3,4.6c0,0.1-0.2,0.2-0.3,0.4l-2.9-1.4
			c0.1-1.3,0.3-2.5,0.3-3.7c0.1-1.3,0-2.5-0.2-3.8c-0.2,0.2-0.5,0.2-0.5,0.3c-0.1,0.3-0.2,0.6-0.2,0.9c0,1.8,0,3.7-0.1,5.5
			c0,0.3,0,0.5-0.1,0.8c-1,0.3-1.5,1.2-1.3,2.2c0.1,1.1,0.1,2.3-0.1,3.4c0,0.2,0,0.5,0,0.7c0,0.6,0,1.2,0.1,1.8
			c0.1,1.1,0.1,2.2,0.1,3.2c-0.1,2.2,0.1,4.4,0.1,6.5c0,0.3,0,0.6-0.1,0.9c-0.7,1.1-0.3,2.4-0.5,3.5c-0.1,0.9,0,1.9-0.2,2.9
			c-0.2,0.7,0.1,1.5-0.1,2.2c-0.3,0.8,0.1,1.6,0.9,1.9c0,0,0,0,0,0c0,1.3,0.1,2.5,0.1,3.8c0,2.7,0.1,5.3,0.1,8c0,0.2,0,0.4,0,0.6
			c0,0.5,0.3,0.7,0.6,0.7S603.4,82.9,603.4,82.6z M602.8,67.9c0-1,0-2,0.1-3c0.2-1.5,0.1-3.1,0.8-4.6c0-0.1,0-0.3,0-0.4
			c0-1.1,0-2.3,0-3.4c0-1.8-0.1-3.6-0.1-5.4c0-0.9,0-1.8,0.2-2.6c0.1-0.9,0.1-1.8,0-2.6c0-0.4-0.1-0.8-0.1-1.1c0-0.8,0-1.6,0-2.6
			c1,0.2,1.9,0.6,2.6,1.3c0.3,0.2,0.5,0.4,0.8,0.5c0.9,0.6,1.6,1.5,1.9,2.5c0.1,1,0.5,1.9,1.1,2.7c0.1,0.1,0.1,0.1,0.1,0.2
			c-0.1,1.2,0.6,2.3,0.8,3.4c0.2,1.7,0.1,3.4-0.4,5c-0.4,1.7-0.9,3.3-1.4,5c-0.1,0.5-0.4,1-0.8,1.4c-0.5,0.5-0.9,1.1-1.4,1.5
			c-0.5,0.4-1.1,0.8-1.7,1.1c-0.7,0.4-1.4,0.7-2.2,1.1C602.9,68,602.8,68,602.8,67.9z"/>
		<path class="st0" d="M604.8,30.2c0-0.2,0-0.4,0-0.6c0-0.7,0-1.5,0-2.2c0-2.8,0.1-5.5,0.1-8.3c0-0.7,0-1.4,0-2.1
			c0-2.3,0.1-4.6,0-6.9c-0.1-1.9-0.1-3.7-0.1-5.6c0-0.4,0-0.9-0.1-1.3c0-0.3-0.3-0.6-0.6-0.5c0,0-0.1,0-0.1,0
			c-0.1,0.2-0.1,0.3-0.2,0.5c-0.1,1.4-0.2,2.7-0.2,4.1s0.1,2.5,0.2,3.7c0,1.5,0,3,0,4.6c0,1.2,0,2.5,0,3.7s-0.1,2.4-0.2,3.6
			c0,0.5,0.1,0.9,0.1,1.4c0,1.8,0,3.6-0.1,5.4c0,0.2,0,0.3,0,0.5c0,0.2,0.2,0.4,0.5,0.4C604.5,30.7,604.7,30.5,604.8,30.2
			C604.8,30.2,604.8,30.2,604.8,30.2z"/>
		<path class="st0" d="M607.6,100.8c-0.2,0.2-0.3,0.5-0.4,0.8c0,0.3,0.1,0.5,0.3,0.7c0.2,0.2,0.5,0.1,0.7-0.1s0.3-0.4,0.5-0.5
			l0.5-0.6c0.6,0.1,0.4,0.7,0.7,0.9c0.1,0.2,0.3,0.3,0.5,0.4c0.3,0,0.5-0.2,0.5-0.5c0-0.1,0-0.3,0-0.4c0-0.3-0.1-0.5-0.2-0.8
			c-0.2-0.5,0-1.1,0.6-1.3c0,0,0,0,0.1,0c0.2-0.1,0.5-0.1,0.8-0.3c0.3-0.2,0.5-0.6,0.4-0.9c-0.1-0.3-0.5-0.5-0.8-0.4
			c-0.3,0-0.5,0.1-0.8,0.2c0-0.2-0.1-0.3-0.1-0.5l-0.3-1.4c0-0.3-0.3-0.5-0.5-0.5c-0.3,0-0.5,0.2-0.6,0.6s0,0.7,0,1s0,0.4,0,0.6
			c-0.5,0.3-0.9,0-1.3-0.1s-0.7-0.1-0.9,0.3c-0.2,0.3-0.1,0.7,0.2,0.9c0.3,0.3,0.6,0.6,1.1,1C608.2,100.2,607.9,100.5,607.6,100.8z"
			/>
		<path class="st0" d="M608.5,14.6c-0.2,0.5-0.4,1-0.6,1.5l-1.3-0.4c-0.6,0.8-0.5,0.9,0.9,2.2c0,0.1,0,0.2-0.1,0.3
			c-0.2,0.4-0.5,0.7-0.8,1s-0.3,0.9,0,1.1s0.7,0,0.9-0.2c0.3-0.4,0.7-0.7,1.2-0.8c0.2,0.3,0.3,0.6,0.5,0.9c0.2,0.3,0.5,0.4,0.8,0.3
			c0.3-0.1,0.3-0.4,0.3-0.7c-0.1-0.5-0.2-1-0.3-1.5c0.7-0.1,1.4-0.2,1.2-1.1l-1.7-0.6c0-0.6,0-1.2,0-1.8c0-0.3-0.2-0.6-0.5-0.6
			C608.9,14,608.6,14.2,608.5,14.6C608.5,14.5,608.5,14.5,608.5,14.6z"/>
		<path class="st0" d="M615.9,59.9c0,0.2,0.1,0.4,0.3,0.5c0.2,0.1,0.5,0.2,0.8,0.2c0.5,0,0.9,0.1,1.4,0.1c1.4,0.2,2.8,0.4,4.3,0.5
			c2.1,0.2,4.2,0.3,6.3,0.5c0.7,0.1,1.5,0,2.2-0.4c-0.4-0.2-0.6-0.5-0.8-0.5c-1.8-0.2-3.7-0.5-5.5-0.7c-2.1-0.2-4.2-0.4-6.3-0.6
			c-0.7,0-1.4,0-2.1,0C616.1,59.6,616,59.7,615.9,59.9z"/>
		<path class="st0" d="M609.2,70.2c0,0.5,0.1,1,0.1,1.6c-0.4,0.1-0.8,0.3-1.2,0.4c-0.2,0.1-0.3,0.3-0.3,0.6c0.1,0.2,0.2,0.4,0.4,0.5
			c0.5,0.2,1,0.2,1.4,0.7c0,0.3,0.1,0.6,0.2,0.9c0.1,0.5,0.5,0.6,0.9,0.2c0.2-0.2,0.4-0.4,0.5-0.7c0.1-0.3,0.2-0.6,0.3-0.9
			c0.2,0,0.3,0.1,0.5,0.1c0.2,0.1,0.5,0.1,0.7-0.1c0,0,0,0,0-0.1c0.2-0.3,0.1-0.6-0.1-0.8c-0.2-0.2-0.5-0.4-0.7-0.5
			c0.2-0.5,0.4-0.9,0.5-1.3c0.1-0.3,0-0.6-0.2-0.8c-0.3-0.2-0.5-0.1-0.8,0.1s-0.5,0.4-0.8,0.6c-0.1-0.3-0.1-0.4-0.2-0.6
			c0-0.3-0.2-0.5-0.5-0.5c0,0,0,0,0,0C609.4,69.6,609.2,69.8,609.2,70.2C609.2,70.2,609.2,70.2,609.2,70.2z"/>
		<path class="st0" d="M613.4,89.8c0.3,0.6,0.6,1.2,1,1.8c0.3,0.6,0.6,1.1,1,1.7c0.2,0.2,0.4,0.3,0.7,0.3c0.2,0,0.3-0.3,0.6-0.5
			c-0.3-0.3-0.6-0.6-0.8-1c-0.5-1.1-1.1-2.2-1.8-3.2c-0.1-0.1-0.1-0.2-0.2-0.3c-0.5-1.5-1.2-3-2-4.4c-0.1-0.1-0.1-0.3-0.2-0.4
			c-0.3-0.9-0.7-1.7-1.1-2.6c-0.1-0.4-0.5-0.6-0.8-0.6c0,0.3-0.2,0.6-0.1,0.8c0.5,1.3,1,2.6,1.5,3.9c0.5,1.1,0.9,2.2,1.4,3.3
			C612.9,89,613.2,89.4,613.4,89.8z"/>
		<path class="st0" d="M633.1,53.1c-0.2,0.3-0.3,0.7-0.5,1c-0.3-0.3-0.6-0.6-0.9-0.8c-0.3-0.2-0.6-0.2-0.9,0.1
			c-0.2,0.2-0.2,0.5,0.1,0.7c0,0,0,0,0,0l0.9,1.1c0.3,0.2,0.3,0.5,0.2,0.8c-0.3,0.2-0.7,0.4-1,0.7c-0.3,0.1-0.3,0.5-0.2,0.7
			c0.1,0.3,0.4,0.4,0.7,0.3c0.4-0.1,0.8-0.2,1.2-0.4c0.1,0.3,0.2,0.5,0.4,0.7c0.2,0.2,0.4,0.2,0.6,0.2c0.2-0.1,0.3-0.3,0.4-0.5
			c0-0.3,0-0.6,0-0.9c0.5-0.4,1.3-0.4,1.4-1.2c-0.3-0.8-1.2-0.4-1.6-0.9c0-0.4,0-0.9-0.1-1.3c-0.1-0.2-0.2-0.3-0.4-0.4
			C633.4,53,633.2,53,633.1,53.1z"/>
		<path class="st0" d="M616.9,71.6c0,0.1,0.2,0.2,0.2,0.2l3.5,3.4c0.6,0.6,1.2,1.2,1.8,1.8c0.5,0.5,1,0.9,1.6,1.3
			c0.3,0.2,0.5,0,0.8-0.4c-0.1-0.2-0.3-0.4-0.4-0.6c-1.2-1.2-2.4-2.4-3.6-3.7c-0.8-0.8-1.7-1.7-2.6-2.5c-0.2-0.2-0.4-0.4-0.7-0.4
			c-0.2,0-0.4,0-0.6,0.2C616.9,71.1,616.9,71.3,616.9,71.6z"/>
		<path class="st0" d="M603.5,109.5c0-0.5,0-1,0-1.5c-0.1-2.1-0.3-4.3-0.4-6.4c0-0.8-0.1-1.6-0.2-2.4l-0.3-0.1
			c-0.1,0.2-0.3,0.3-0.4,0.5c0,1.2-0.1,2.5-0.1,3.7c0,0.3,0.2,0.7,0.2,1c0,1.6,0,3.1,0,4.7c0,0.3,0,0.7,0.1,1
			c0.1,0.1,0.2,0.2,0.3,0.3c0.2,0,0.4-0.1,0.5-0.2C603.4,109.8,603.5,109.6,603.5,109.5z"/>
		<path class="st0" d="M624.1,48.8c-0.3,0-0.5,0.1-0.8,0.1c-0.3,0.1-0.5,0.3-0.4,0.6c0,0.3,0.3,0.5,0.6,0.5c0,0,0,0,0,0
			c0.6,0,1.2-0.1,1.8-0.2c1.3-0.2,2.6-0.5,3.9-0.8c0.4-0.1,0.8-0.2,0.8-0.8c-0.6-0.1-1.1-0.1-1.7,0
			C626.8,48.4,625.4,48.6,624.1,48.8z"/>
		<path class="st0" d="M602.7,94.8c0.1-0.2,0.2-0.4,0.2-0.7c0-1.1,0-2.2,0.1-3.2c0-0.9,0-1.8-0.2-2.8c0-0.1-0.2-0.2-0.3-0.4
			c-0.4,0.3-0.6,0.7-0.5,1.2c0.1,1.3,0.1,2.6,0,3.8c0,0.7,0,1.3,0,2c0,0.2,0.2,0.4,0.4,0.4C602.5,95,602.7,94.9,602.7,94.8
			L602.7,94.8z"/>
		<path class="st0" d="M620.9,35.3c-0.6,0.7-1.2,1.3-1.8,2c-0.1,0.2-0.2,0.5-0.1,0.7c0,0.2,0.3,0.4,0.5,0.7c0.6-0.9,1.2-1.7,1.8-2.4
			s1.5-1.2,1.8-2.3c-0.8-0.1-0.8-0.1-1,0.1S621.3,34.9,620.9,35.3z"/>
		<path class="st0" d="M180.2,79.6c-0.1-1-0.2-2-0.3-3c0-0.7-0.1-1.5-0.2-2.2v-0.2c0-0.7-0.2-1.3-0.3-2c-0.5-1.9-0.9-3.7-1.2-5.7
			c-0.2-1.6-0.7-3.1-1.6-4.4c-0.5-0.6-0.8-1.3-0.9-2.1c-0.1-0.7-0.4-1.4-0.8-2c-0.2-0.2-0.3-0.5-0.4-0.7c-0.1-0.2-0.2-0.4-0.4-0.7
			l0-0.2c-0.2-0.4-0.5-0.7-0.7-1c-1.3-1.3-2.7-2.7-4.1-4.1l-0.6-0.6c-0.8-0.8-1.6-1.6-2.3-2.5c-0.5-0.7-1.1-1.3-1.7-1.8L164,46
			c-0.3-0.3-0.5-0.5-0.8-0.8s-0.6-0.5-0.8-0.8c-1.8-1.8-3.3-4-4.5-6.3l-0.3-0.6c-0.4-0.6-0.7-1.3-0.8-2c0-0.3-0.1-0.7-0.3-1
			c-0.9-2.1-1.3-4.5-1.1-6.8c0-0.3,0-0.6,0.1-0.9c0.1-0.8,0.1-1.5,0-2.3c-0.2-2-0.2-4,0-6c0.1-0.4,0.1-0.9,0.1-1.3
			c0.1-1,0.2-2,0.5-3l0.1-0.4c0.3-1.2,0.9-2.4,1.6-3.4c0.2-0.2,0.3-0.4,0.4-0.6l0.1-0.1c0.8-1.6,2.4-2.7,4.1-2.9h0.1
			c0.4,0.1,0.8,0.1,1.2,0c0.1,0,0.2,0,0.3,0h0.1h0.2h0.4c0.4,0.1,0.8,0.3,1.2,0.6c0.3,0.2,0.5,0.4,0.8,0.6c0.5,0.4,1,0.8,1.5,1.1
			c0.5,0.3,0.9,0.7,1.2,1.2l0.3,0.4c0.1,0.2,0.2,0.4,0.3,0.6c0.2,0.6,0.6,1.1,1.1,1.5c0.1,0.8,0.5,1.5,1,2v0.1
			c0,0.2,0.1,0.5,0.1,0.7c0.1,0.6,0.2,1.2,0.3,1.8c0,1.6-0.3,2.6-1.3,3.2c-0.5,0.3-0.9,0.7-1.2,1.1c-0.6,0.8-1.1,1.7-1.6,2.6
			l-0.1,0.2c-0.6,1-0.9,2.2-0.9,3.5c-0.1,1.9,1.3,3.5,3.2,3.7c0.4,0.1,0.8,0,1.2-0.2c0.2,0.1,0.4,0.1,0.7,0.2c0.5,0.1,1.1,0,1.5-0.3
			l0.3-0.1c1.8-0.4,3.3-1.8,3.8-3.6c0.3-0.8,0.5-1.7,0.6-2.5c0.4-2.7,0.5-5.4,0.3-8.1c-0.2-3-1.2-5.8-3-8.2
			c-0.2-0.2-0.4-0.5-0.5-0.8c-0.3-0.9-0.9-1.8-1.7-2.3l-0.4-0.3c-1.1-0.8-2.2-1.6-3.3-2.2c-1.6-1-3.3-1.5-5.2-1.6
			c-0.3,0-0.7,0-1-0.1c-0.9-0.4-1.8-0.6-2.8-0.3C160.1,1,159,1.1,158,1.7c-0.5,0.3-1,0.5-1.5,0.7c-1.9,0.7-3.6,1.8-5,3.2
			c-0.9,0.9-1.6,2-2,3.2c-0.4,1.4-0.8,3-1.1,4.8c-0.1,0.5-0.2,1.1-0.2,1.6c-0.1,0.4-0.1,0.7-0.1,1l-0.1,0.5
			c-0.3,1.4-0.4,2.9-0.2,4.4c0,0.2,0,0.4-0.1,0.6c-0.4,1.8-0.5,3.6-0.3,5.3v0.8c0.1,1.9,0.3,3.8,0.8,5.7c0.5,2.2,1.3,4.3,2.4,6.3
			l0.1,0.1c0.2,1.1,0.7,2.1,1.5,2.9c0.1,0.1,0.2,0.3,0.3,0.4c0.1,0.2,0.3,0.4,0.4,0.6l0.3,0.3c0.8,1,1.7,2.1,2.6,3.1
			c0.4,0.4,0.7,0.8,1.1,1.1s0.5,0.5,0.8,0.8s0.7,0.7,1,1.1c1.1,1.3,2.3,2.4,3.6,3.5c0.1,0.1,0.3,0.2,0.4,0.3l0.3,0.3
			c1.1,1,2,2.1,2.8,3.4c0.3,0.4,0.6,0.9,1,1.3c0.1,0.1,0.2,0.2,0.2,0.4c0.1,0.7,0.3,1.4,0.8,1.9l0.2,0.2c0.2,0.3,0.3,0.6,0.4,0.9
			l0.1,0.4l0.1,0.2c0.2,0.8,0.6,1.4,1.2,1.9c0.1,0.5,0.1,0.9,0.2,1.4c0.2,1.3,0.3,2.6,0.5,3.8c0.5,3.2,0.5,6.5,0.1,9.7
			c0,0.3,0,0.6,0,0.9c0,0.1,0,0.1,0,0.2l0.1,1c0.1,0.6,0.1,1.2,0.1,1.8c0,0.6,0,1.3,0.1,1.9c0.1,0.8,0.1,1.7,0,2.5
			c-0.1,0.4-0.1,0.8,0,1.2c0,0.2,0,0.4,0,0.6c-0.2,1.5-0.6,3.4-1,5.4c-0.1,0.4-0.3,0.8-0.4,1.2c-0.2,0.4-0.4,0.8-0.5,1.2
			c-0.1,0.4-0.3,0.7-0.7,1c-0.1,0.1-0.2,0.2-0.3,0.3c-0.4,0.3-0.5,0.4-0.6,0.4c-0.5-0.1-1,0.2-1.2,0.7c-0.2,0.3-0.5,0.5-1,0.8
			c-0.4,0.2-0.7,0.4-1,0.6c-0.4,0.3-0.8,0.4-1.2,0.4c-0.4,0.1-0.8,0.1-1.2,0.2c-0.7,0.1-1.4,0.2-2.1,0.3c-0.5-0.2-0.9-0.6-1.2-1
			c-0.8-1-1.7-1.8-2.7-2.5c-1.4-1-2.4-2.5-3-4.1c-0.4-0.6-0.3-1.4,0.3-1.9c1.3-1.2,2.3-2.8,2.8-4.5c0.6-1.8,0.1-3.3-1.3-4
			c-0.2-0.1-0.4-0.2-0.6-0.4c-0.8-1-2.2-1.4-3.4-1c-0.8-0.3-1.7-0.2-2.5,0.2c-0.1,0-0.2,0.1-0.2,0.1c-0.9,0.2-1.6,0.8-2,1.6
			c-1.3,2.1-1.8,4.6-1.5,7c0.2,1,0.5,1.9,0.8,2.8c0.3,0.7,0.5,1.4,0.8,2s0.6,1.5,0.9,2.2c0.4,1.3,1.2,2.5,2.2,3.4
			c0.7,0.5,1.4,1.1,1.9,1.8c0.5,0.8,1.2,1.4,2,1.7c0.6,0.2,1.1,0.6,1.5,1.1c0.4,0.5,1,0.9,1.7,1c0.9,0.1,1.7,0.4,2.4,0.9l0.3,0.2
			l0.4-0.1l0.9-0.2l0.3,0.2l0.3,0.2l0.4-0.1l1.2-0.3c1-0.3,2-0.6,3-0.9c0.4-0.1,0.8-0.3,1.2-0.4c0.3-0.2,0.7-0.3,1.1-0.4
			c1.3-0.4,2.5-1.1,3.6-2c0.8-0.6,1.6-1.2,2.4-2l0.1-0.1c0.9-0.7,1.6-1.6,2.1-2.6c0.1-0.3,0.3-0.7,0.5-1.1c1.1-2.2,1.9-4.6,2.4-7
			c0.1-0.7,0.2-1.3,0.4-2c0.2-0.9,0.4-1.9,0.5-2.8c0-0.3,0.1-0.5,0.1-0.8c-0.1-0.7,0.1-1.4,0.6-1.9c0.3-0.3,0.4-0.7,0.3-1.1
			c0,0,0-0.1,0-0.1s0-0.3,0-0.5c0-0.3,0.1-0.6,0.1-0.9c0.2-0.6,0.2-1.3,0.1-1.9C180.2,79.7,180.2,79.6,180.2,79.6z"/>
		<path class="st0" d="M445.5,3.7L445.5,3.7c-1.1-1.3-2.6-2.1-4.3-2.4C440.2,1.1,439.1,1,438,1l-1-0.1c-0.3,0-0.7,0-1,0
			c-0.3,0-0.6,0-0.8,0h-0.9c-1.4-0.1-2.8-0.2-4.1-0.3c-2.3-0.3-4.7-0.4-7-0.5H423c-1.3,0-2.7-0.1-4.1-0.1H417
			c-1.2-0.1-2.4,0.2-3.3,0.9h-0.2h-0.2c-0.5,0.1-1,0.2-1.4,0.3c-0.2,0-0.5,0.1-0.9,0.1c-1.3,0.1-2.5,0.5-3.6,1.2l-0.2,0.1
			c-0.3,0.2-0.6,0.5-0.7,0.8c-0.7,1.3-1.2,2.7-1.3,4.1c-0.1,1.1,0.1,2.3,0.5,3.3c0.2,0.7,0.9,1.3,1.7,1.3h0.1c0.4,0.1,0.8,0.1,1.2,0
			c0.2,0.1,0.4,0.1,0.6,0.1h0.1c0.9,0.1,1.8-0.3,2.2-1.1l0.1-0.3c0.5-0.8,0.7-1.8,0.5-2.7c0,0,0-0.1,0.1-0.4s0.4-0.8,0.6-1.1
			c0.4,0.1,0.8,0,1.1-0.2c0.6-0.3,1.4-0.4,2-0.3c0.5,0,1-0.1,1.5-0.3l0.2-0.1l0,0c0.6,0.2,1.2,0.4,1.7,0.7l0.1,0.2
			c0.6,1,0.9,1.6,0.7,2.4c-0.3,1.1-0.3,2.3,0,3.4c0.2,1,0.3,2,0.2,3.1c0,1.1,0,2.3,0.1,3.4v0.1c0.4,2.8,0.7,5.6,0.8,8.5
			c0.1,2.1,0.1,4.3,0.2,6.5v0.9c0,0.2,0,0.4,0,0.5c-0.3,0.7-0.4,1.4-0.3,2.1c0.1,1.9,0.1,3.9,0.1,5.8c0,0.6,0,1.2,0,1.8
			c0,0.3,0,0.6,0,0.9V46c0,0.5,0,1.1-0.1,1.6c0,1.2-0.1,2.4-0.1,3.6c0,2.7,0.1,5.4,0.1,8.1c0,1.3,0,2.7,0.1,4c0,0.5,0,1.1,0,1.6
			c0,1.1,0,2.2,0.1,3.3c0.2,2.5,0.2,5.1,0.2,7.7v0.4c0,0.6,0,1.2,0,1.8c0,1,0,2.1,0,3.2c0,0.6,0.1,1.1,0.1,1.7
			c0.1,1.1,0.1,2.3,0,3.4c-0.1,0.8-0.1,1.6,0,2.4c0.2,1.1,0.1,2.1-0.1,3.2c-0.2,0.7-0.2,1.3,0,2c0.3,1.4,0.4,2.8,0.1,4.2l-0.1,0.4
			c-0.1,0.8-0.5,1.5-1.1,2c-2-0.3-4,0.2-5.6,1.3c-0.5,0.8-0.9,1.7-1.1,2.6c-0.3,1.5,0.1,3,1.2,4c0.6,0.7,1.5,1,2.4,1
			c0.5,0,0.9,0,1.4,0c0.2,0,0.3,0,0.5,0c1.4,0.1,2.8-0.2,4.1-0.8c0.7-0.3,1.3-0.8,1.9-1.3l0.2,0.4l0.1,0.3l0.2,0.2l0.4,0.2
			c0.3,0.2,0.6,0.4,1,0.7c0.9,0.8,2.2,1.1,3.3,0.8c0.3,0.1,0.6,0.1,0.9,0.1c0.4,0,0.9-0.1,1.3-0.3c0.3-0.1,0.5-0.2,0.8-0.2
			c0.5-0.1,0.9-0.2,1.3-0.4c1.7-1.1,2.8-2.9,3.2-4.8l0,0c0-0.1,0-0.1,0-0.2c0.1-1-0.3-2-1.1-2.7c-0.8-0.6-1.8-0.7-2.7-0.4
			c-0.9-0.2-1.8-0.1-2.6,0.3c-0.8-0.3-1.3-1-1.3-1.9v-0.1c0-0.5,0-0.9-0.1-1.4c-0.1-0.7-0.1-1.5,0-2.2c0.2-1.2,0.1-2.3-0.2-3.5l0,0
			c0-0.9-0.1-1.8-0.1-2.7c-0.1-2.2-0.1-4.6-0.3-6.8c-0.1-1.1,0-2.2,0.1-3.2c0.2-1.4,0.3-2.9,0.3-4.4c0-1.2,0-2.4,0.1-3.5
			c0-0.6,0.1-1.2,0.1-1.8s0-1.3,0-1.9c0-0.8-0.1-1.7-0.2-2.6c0-0.2,0-0.4,0-0.6c0-0.6-0.1-1.3-0.3-1.9c-0.2-0.7-0.3-1.4-0.3-2.1
			v-0.4c0-1,0-2-0.2-3c-0.1-0.7-0.2-1.5-0.2-2.3c0-1.2,0-2.4,0-3.5c0.1-1.7,0.1-3.4,0-5.2c0-0.1,0-0.2,0-0.3c0-0.5-0.1-1.1-0.4-1.5
			c-0.2-0.2-0.2-0.4-0.1-0.9c0-0.1,0-0.2,0-0.3c0-0.3,0-0.7,0.1-1c0.1-0.5,0.1-1.1,0.1-1.7c0-1,0-2,0-3c0-0.7,0-1.4,0-2.1V35
			c0-2.1,0-4.3,0-6.4s0.1-4.2,0.2-6c0.1-1.1,0.1-2.2,0.2-3.3l0.1-1.7c0-0.2,0-0.5,0-0.7c0-0.7,0.1-1.4,0.1-2.1c0-0.3,0-0.6,0-0.9
			c-0.1-0.6,0-1.2,0.1-1.8c0.1-0.3,0.1-0.7,0-1.1v-0.1c-0.1-0.9,0.1-1.9,0.6-2.7c0.1-0.2,0.2-0.5,0.3-0.8c0.1-0.1,0.3-0.3,0.4-0.3
			c0.8-0.5,1.6-0.8,2.5-0.9c0.3,0,0.6,0,0.9-0.1c1.2,0,2.4,0.2,3.5,0.3l0.8,0.1c0.3,0.1,0.6,0.3,0.8,0.6c0.2,0.4,0.3,0.9,0.1,1.3
			c-0.3,0.6-0.4,1.2-0.2,1.9v0.1c0.1,0.9,0.7,1.7,1.5,2l0.4,0.2l0.4-0.2l0.4-0.2l0.2-0.1c0.1,0.1,0.3,0.2,0.5,0.3l0.4,0.2l0.4-0.2
			l0.4-0.2l1-0.5c0.7-0.3,1.2-0.9,1.3-1.7c0-0.2,0.1-0.3,0.1-0.5c0.3-1,0.4-2.1,0.3-3.2C446.7,5.4,446.2,4.5,445.5,3.7z"/>
		<path class="st0" d="M530.2,50.3c-0.1-0.5-1-7-1.4-9.7l-0.3-2.1c-0.1-0.4-0.2-0.9-0.2-1.3c-0.2-1.2-0.4-2.3-0.7-3.5
			c-0.3-1.5-0.7-3.1-1.2-4.7c-0.6-2-1.3-4-2.2-6.7c-1.2-3.5-2.3-6.3-3.3-8.9c-0.4-0.9-0.6-1.9-0.7-2.9c-0.1-0.8-0.4-1.6-0.8-2.3
			C518.8,7,518,6,517.2,5l-0.6-0.7c-0.6-0.8-1.5-1.3-2.4-1.3c-0.3,0-0.6-0.1-0.9-0.3c-0.2-0.1-0.5-0.2-0.8-0.3l-0.5-0.2
			c-0.6-0.2-1.3-0.4-2-0.4c-0.3,0-0.6-0.1-0.9-0.3l-0.3-0.1l-0.4-0.2l-0.4,0.2l-0.2,0.1l-0.1,0.1l-0.4-0.1l-0.3-0.1l-0.4-0.2
			l-0.4,0.2l-0.2,0.1c-0.2,0.1-0.4,0.2-0.6,0.4L505,2.2c-0.4,0.4-0.9,0.7-1.4,0.9c-0.5,0.2-1,0.6-1.2,1.2l0,0
			c-0.2,0.3-0.3,0.6-0.5,0.8c-0.1,0.3-0.3,0.6-0.5,0.8c-0.4,0.5-0.8,1.1-1.2,1.6c-0.6,0.8-1.2,1.6-1.7,2.4c-1,1.6-1.8,3.2-2.5,4.9
			c-0.1,0.2-0.2,0.4-0.3,0.7c-0.2,0.4-0.3,0.8-0.4,1.2c-0.1,0.2-0.1,0.4-0.2,0.5l-0.3,0.9c-0.2,0.6-0.4,1.2-0.6,1.8
			c-0.6,1.7-1,3.1-1.4,4.4c-0.1,0.5-0.3,1-0.5,1.4c-0.5,1.3-0.8,2.6-1.1,4c-0.7,3.1-1.1,6.3-1,9.5c0,0,0,0.1,0,0.2s0,0.2,0,0.3
			c-0.4,3.2-0.9,6.4-1.7,9.6c-0.7,1.3-1.2,2.7-1.6,4.2c-0.3,1.5-0.4,3.1-0.1,4.6l0,0.4c0,0.3,0.1,0.5,0.2,0.7l0.1,0.1
			c0.6,1.5,1.1,3.2,1.3,4.8c0.1,0.7,0.2,1.4,0.3,2c0.1,0.5,0.2,1,0.2,1.5l0.1,0.9c0.2,0.8,0.2,1.6,0.3,2.3c0,1.1,0.2,2.2,0.5,3.2
			c0.1,0.6,0.3,1.1,0.4,1.6c0.1,0.6,0.3,1.2,0.4,1.7c0.1,0.3,0.2,0.6,0.2,0.9s0.1,0.4,0.1,0.7c0.1,0.4,0.2,0.8,0.3,1.1
			c0.3,1,0.7,2,1,3c0.2,0.8,0.5,1.5,0.7,2.2c0,0.2,0.1,0.3,0.1,0.5c0.1,0.5,0.2,1,0.5,1.4c0.6,0.8,0.9,1.7,0.9,2.7
			c0,0.2,0.1,0.4,0.2,0.6l0,0c0.1,0.5,0.3,1,0.4,1.4c0.4,1.2,0.7,2.2,0.9,3.4c0.3,1.3,0.8,2.6,1.5,3.8c0.5,0.7,0.9,1.5,1.2,2.3
			c0.4,1.3,1.2,2.4,2.1,3.4c1.2,1.2,2.2,2.1,3.2,2.8c0.4,0.3,0.9,0.5,1.4,0.6l0.4,0.1l0.4,0.2l0.4-0.2c0.2-0.1,0.5-0.1,1,0h0.2
			l0.4,0.1h0.1c0.2,0,0.5,0,0.7,0c0.3,0,0.5-0.1,0.7-0.1c0.4,0.1,0.8,0.1,1.2,0.1c0.9,0,1.7-0.3,2.4-0.8l0.3-0.2
			c0.6-0.5,1.3-0.9,2-1.2c0.6-0.3,1.2-0.7,1.7-1.2c1.2-1.2,2.2-2.5,3-4c0.3-0.6,0.6-1.2,0.9-1.8c0.4-1,1-2,1.6-3
			c0.1-0.2,0.3-0.4,0.3-0.7l0,0c0.1-0.4,0.3-0.8,0.4-1.3c0.5-1.4,1-2.9,1.2-4.4c0-0.2,0.1-0.5,0.2-0.7c0.4-0.9,0.7-1.9,0.8-2.9
			l0.1-0.7c0.1-0.7,0.2-1.5,0.3-2.2c0.3-1.7,0.6-3.4,0.9-5c0.1-0.7,0.3-1.5,0.4-2.2c0-0.2,0.2-0.9,0.3-1.7c0.3-1.5,0.5-2.5,0.6-2.9
			c0.2-1.8,0.5-3.5,0.7-5.2v-0.3c0-0.2,0-0.3,0-0.5c0,0,0-0.1,0-0.2l0.1-1.3c0.1-1.1,0.2-2.2,0.4-3.2c0.3-1.3,0.6-2.6,1-3.8
			c0.7-1.9,0.6-4.1-0.2-5.9C530.4,50.9,530.3,50.6,530.2,50.3z M520.4,65.5v0.7c0,2.1,0.1,4.3,0,6.4v0.8c-0.1,1.6-0.1,3.2-0.1,4.8
			c0,0.2,0,0.3,0,0.4c0.1,0.5,0,1.1-0.2,1.6l-0.1,0.2v0.3c0.1,0.8,0,1.6-0.2,2.4c-0.1,0.6-0.2,1.3-0.2,1.9c0,0.4-0.1,0.8-0.2,1.1
			c-0.2,0.6-0.4,1.2-0.5,1.8l-0.3,1c0,0.1-0.1,0.2-0.1,0.3c0,0.1-0.1,0.3-0.1,0.4c-0.7,0.9-1,1.9-1,3c-0.1,0.7-0.3,1.4-0.5,2
			c0,0.2-0.1,0.3-0.2,0.5c-0.2,0.5-0.4,1.1-0.5,1.6c-0.3,1.1-1,2.1-1.9,2.9c-0.7,0.5-1,1.3-0.8,2.1c0,0.2-0.3,0.4-0.7,0.6l-0.8,0.4
			c-0.7,0.4-1.4,0.7-2.2,0.9c-0.6-0.1-1-0.4-1.4-0.9c-0.1-0.1-0.1-0.1-0.1-0.2c-0.2-0.3-0.5-0.6-0.8-0.8c-1-0.6-1.8-1.4-2.4-2.4
			c-0.3-0.4-0.6-0.9-1-1.3c0,0,0,0,0-0.1l-0.4-0.8c-0.6-1.3-1.3-2.7-1.9-4c-0.1-0.1-0.1-0.3-0.1-0.4c-0.2-1.8-0.6-3.5-1.3-5.2
			l-0.1-0.4c-0.4-1.2-0.7-2.4-0.9-3.6c-0.2-1.1-0.4-2.2-0.7-3.3c-0.5-1.7-0.8-3.4-1-5.1c-0.1-0.6-0.2-1.2-0.3-1.7
			c-0.2-0.7-0.2-1.5-0.1-2.3c0.2-1.4,0.1-2.9-0.2-4.3v-0.1c-0.1-0.2-0.1-0.4-0.1-0.7c0.3-2.7,0.5-12.3,0.4-13.6
			c-0.1-1-0.1-2-0.1-3.1c0-0.4,0-0.8,0-1.2c0-0.7,0-1.4,0.1-2.2c0.1-1,0.1-2.1,0-3.1c0-1.2,0-2.3,0.2-3.5c0.1-0.5,0.1-1,0.2-1.5
			c0-0.3,0.1-0.7,0.1-1c0-0.2,0.1-0.4,0.1-0.6c0-0.1,0-0.2,0-0.3v0c0.6-1.2,1-2.5,1.1-3.9c0.1-0.6,0.2-1.1,0.3-1.6
			c0-0.2,0.1-0.4,0.1-0.6c0-0.4,0.2-0.9,0.4-1.3c0.2-0.4,0.4-0.8,0.4-1.3c0-0.1,0-0.3,0.1-0.4l0.3-1.1c0.3-1.3,0.7-2.6,1-3.9
			c0.8-2.6,1.5-4.8,2.1-6.8c0.4-1,0.8-2,1.3-3c0.2-0.3,0.4-0.5,0.6-0.7c0.1-0.2,0.3-0.3,0.4-0.5c0.5-0.5,0.8-1.1,1-1.8
			c0.1-0.4,0.1-0.5,1-0.8l0.6-0.2c0.2-0.1,0.3-0.2,0.5-0.3c0.4,0.2,0.7,0.4,1,0.7c0.5,0.5,1.1,1,1.8,1.4c0.1,0.1,0.1,0.2,0.2,0.2
			c0.2,0.7,0.6,1.3,1,1.9c0.2,0.2,0.4,0.5,0.5,0.7c0.3,0.5,0.3,0.6,0.2,0.7c-0.2,0.5-0.2,1.1,0,1.5c0.7,2.3,1.2,4.6,1.7,7v0
			c0,0.2,0.1,0.5,0.2,0.7c0.7,2.4,1.3,4.8,1.7,7.3l0.4,2.1c0.1,0.6,0.3,1.3,0.4,1.9s0.3,1.3,0.4,1.9s0.2,1.3,0.3,2.1l0.1,0.5
			c0,0.1,0,0.2,0,0.3c0,0.3,0,0.6,0.1,0.9c0.4,1.4,0.6,2.9,0.7,4.4c0,0.7,0.1,1.5,0.2,2.2c0,0.3,0,0.6,0,0.9c0,0.2,0,0.3,0,0.5
			c0,0.5,0,1,0.1,1.6c0.1,1.3,0.1,2.7,0.2,4c0,0.5,0.1,0.9,0.1,1.3c0.1,0.6,0.1,1.1,0.1,1.7c0,1,0,2.1-0.1,3.1
			c0,0.7-0.1,1.5-0.1,2.2C520.4,63.2,520.4,64.4,520.4,65.5z"/>
		<path class="st0" d="M578,11.9c0,0,0-0.1,0-0.1c0-0.4,0.3-0.8,0.7-0.9c0.8-0.4,1.6-0.8,2.5-1c0.5-0.1,1-0.3,1.5-0.5
			c0.5-0.2,0.8-0.6,1-1.1c0.6-1.4,0.8-3,0.4-4.6c-0.3-1-0.9-1.8-1.7-2.3c-1.4-0.8-3-1.1-4.6-0.9h-0.1c-0.6,0-1.2,0-1.8,0
			c-0.9,0-1.8,0.5-2.3,1.3c-0.2,0.3-0.4,0.6-0.6,0.9c-0.4-0.5-0.9-0.8-1.4-1.2c-0.7-0.3-1.4-0.5-2.2-0.5c-0.4,0-0.7-0.1-1.1-0.1
			c-0.4-0.1-0.8-0.1-1.1,0.1c-0.3,0-0.5-0.1-0.8-0.1c-0.5-0.1-1,0-1.4,0.3c-0.3,0.3-0.6,0.5-0.9,0.7c-0.6,0.4-1.1,0.8-1.6,1.4
			l-0.4,0.5c-0.8,0.9-2,2.3-1,3.8l0.1,0.1l0.3,0.3c0.2,0.2,0.4,0.4,0.5,0.6c0.7,0.9,1.8,1.2,2.9,0.9h0.1c0.6,0.2,1.2,0.2,1.8,0
			c0.3-0.1,0.6-0.2,0.9-0.3l0.2-0.1c0.8,0.3,1.4,1.1,1.6,1.9c0.1,0.4,0.1,0.7,0.1,1.1v0.8c0,1.2,0,2.5,0,3.8
			c-0.1,2.8-0.1,5.6,0.2,8.4v0.5c0,0.5-0.1,1-0.2,1.5c-0.1,0.7-0.2,1.5-0.2,2.2c0,0.4,0,0.7,0,1c0,0.2,0,0.3-0.1,0.5
			c-0.1,0.3-0.1,0.7-0.1,1c0,3-0.1,6.1-0.2,9c0,1.1-0.1,2.1-0.1,3.2c0,0.5,0,0.9-0.1,1.4c0,0.3-0.1,0.7-0.1,1
			c-0.3,1.5-0.3,3-0.1,4.5c0,0.2,0,0.4,0,0.6v0.2c0,1.5,0,3,0,4.5c0,2.6,0,5.3,0,7.9v0.2c-0.1-0.4-0.2-0.7-0.3-1.1
			c-0.1-0.3-0.2-0.6-0.2-0.9c-0.2-1.4-0.5-2.8-1-4.1l-0.1-0.3c-0.4-1.1-0.7-2.2-1-3.2c-0.2-0.5-0.3-1-0.4-1.6s-0.2-1-0.4-1.5v-0.2
			c-0.1-0.4-0.2-0.9-0.2-1.3c0-0.5-0.1-1-0.3-1.5c0-0.2-0.1-0.3-0.1-0.5l-0.3-0.4c-0.2-0.6-0.3-1.3-0.5-1.9c-0.3-1.1-0.6-2.1-0.8-3
			c-0.1-0.3-0.2-0.6-0.3-0.9l-0.3-0.6c-0.3-0.9-0.5-1.9-0.7-2.9s-0.5-2.1-0.8-3.1c-0.1-0.4-0.2-0.8-0.3-1.2
			c-0.2-0.8-0.5-1.6-0.8-2.3c-0.2-0.6-0.4-1.1-0.5-1.7c-0.1-0.6-0.3-1.2-0.5-1.8c-0.7-1.8-1.4-3.7-1.9-5.6c-0.4-1.4-0.8-2.7-1.3-4
			c-0.3-0.8-0.5-1.5-0.6-2.3c-0.1-0.6-0.3-1.3-0.5-1.8c-0.1-0.3-0.2-0.5-0.3-0.8c0-0.1,0-0.2,0-0.3c0-0.2,0-0.4-0.1-0.5
			c0-0.1-0.1-0.3-0.1-0.4c-0.1-0.5-0.2-1.1-0.5-1.6c-0.3-0.6-0.6-1.3-0.8-1.9c-0.1-0.3-0.2-0.7-0.4-1c-0.4-0.9-0.9-1.7-1.5-2.4
			c-0.3-0.3-0.5-0.7-0.8-1s-0.6-0.7-0.9-1c-0.7-1-1.7-1.6-2.9-1.8l-0.6-0.1c-1.4-0.3-2.8-0.4-4.2-0.3c-1-0.1-2-0.1-2.9,0.2
			c-1,0.2-1.9,0.8-2.5,1.6c-0.6,0.7-0.8,1.7-0.5,2.6l0.1,0.3l1.5,1.1l0.5-0.2c0.3-0.1,0.5-0.2,0.7-0.3l0.7,0.5l0.5-0.2
			c0.2-0.1,0.4-0.2,0.6-0.3c1.1,0.5,1.9,1.6,1.9,2.8c0.1,0.9,0.1,1.9,0.1,2.9v0.6c0,0.6,0,1.1,0,1.7c-0.1,1.2,0,2.3,0.1,3.5
			c0.2,1.6,0.2,3.3,0.2,5.1v0.4c-0.1,1,0.1,2,0.6,2.9c0,0.2,0,0.4,0,0.6v0.1c0,0.5,0,0.9,0,1.4s0,0.8,0,1.2c0,0.2,0,0.4,0,0.6
			c0,0.7,0,1.4,0.1,2.1c0.3,2.3,0.2,4.6-0.2,6.9c0,0.4-0.1,0.8-0.1,1.2c-0.1,0.7-0.2,1.4-0.3,2.1c0,0.3,0,0.7,0,1c0,0.3,0,0.5,0,0.8
			c-0.2,1.9-0.3,3.8-0.3,5.7V50c0,1.1,0,2.2,0,3.3c0,1.6-0.1,3.3,0,4.9s0,3.2,0,4.7c-0.1,2.2,0,4.4,0.1,6.6c0,0.1,0,0.3,0,0.4
			c-0.4,2.8-0.5,5.6-0.3,8.3c0.2,2.1,0.1,4.2,0,6.2s-0.1,4.1,0,6.2c0,0.7,0,1.5,0,2.3c0,0.4,0,0.7,0,1.1s0,0.7,0,1.1
			c-0.1,0.8-0.1,1.6,0,2.4c0.1,0.9-0.3,1.8-1,2.4l-0.1,0.1c-0.5,0.5-0.9,0.7-1.3,0.8c-0.2,0-0.4-0.1-0.5-0.2
			c-0.7-0.5-1.6-0.6-2.5-0.3c-0.5-0.2-1-0.3-1.5-0.1c-0.7,0.2-1.2,0.6-1.5,1.2c-0.5,0.8-0.8,1.8-0.8,2.8c-0.1,1.3,0.6,2.6,1.7,3.3
			c0.1,0.1,0.2,0.1,0.2,0.2c0.1,0.1,0.3,0.3,0.4,0.4l0.1,0.1c0.3,0.3,0.7,0.5,1.2,0.6h0.1c0.8,0.3,1.7,0.4,2.5,0.5h0.2
			c0.5,0,1,0,1.5,0h0.2h0.2c1.3,0.2,2.6-0.1,3.6-0.9c0.2-0.2,0.4-0.3,0.6-0.5l0,0l0.2,0.1l0.8,0.3c0.6,0.3,1.2,0.5,1.8,0.8
			c0.7,0.3,1.4,0.4,2.1,0.4c0.3,0,0.7,0,1-0.1c0.6,0.1,1.3,0.1,1.9,0c1.5-0.1,2.8-1.2,3.2-2.6c0.2-0.9,0.3-1.8,0.2-2.7
			c0-0.2,0-0.3,0-0.5c0-1-0.8-1.7-1.8-1.7c0,0,0,0,0,0l0,0c-0.4,0-0.8,0-1.2,0.1c-0.2-0.1-0.5-0.1-0.7-0.1c-0.4,0-0.7,0-1.1,0.1
			c-0.8-0.5-1.4-1.3-1.5-2.3c0-0.3-0.1-0.7-0.1-1s-0.1-0.6-0.1-0.8s0-0.2,0-0.3c-0.1-0.3-0.1-0.7,0-1c0.3-1,0.3-2,0.1-3
			c-0.1-0.6-0.1-1.2,0-1.8c0.1-0.7,0.1-1.5,0-2.2c-0.1-0.4-0.1-0.9-0.1-1.3c0-0.2,0-0.3,0-0.5s0-0.3,0-0.5c0-0.3,0-0.7,0-1
			c-0.2-1.3-0.1-2.6,0.1-3.9c0.1-0.4,0.1-0.8,0.1-1.3c-0.1-1.8-0.2-3.5-0.1-5.3c0-0.4,0-0.8,0-1.2c-0.1-0.9,0-1.8,0.3-2.6
			c0.1-0.2,0.1-0.5,0.1-0.8v-0.1c0-0.4,0-0.8,0-1.2c0.1-0.9,0.1-1.8,0-2.7c-0.1-1.6-0.2-3.3-0.2-4.9c0-1.8,0-3.7-0.2-5.5
			c0.2-0.8,0.3-1.7,0.1-2.5c0-0.2,0-0.5-0.1-0.7c-0.1-1-0.1-1.9,0-2.7c0-0.5,0-1,0.1-1.5V49c0.1-1.4,0.1-2.8,0-4.2
			c-0.1-1.6-0.1-3.3,0.2-4.9v-0.1v-0.1c-0.2-1.7-0.2-3.5,0-5.2c0.1,0.2,0.3,0.4,0.5,0.5c0.6,0.6,1.1,1.3,1.2,2.2
			c0.1,0.3,0.2,0.5,0.3,0.8c0.6,1.5,1,2.9,1.4,4.5L554,44c0.2,0.6,0.4,1.3,0.5,1.9c0.3,1.1,0.7,2.3,1,3.5c0.4,1,0.7,2,0.9,3
			c0.1,0.4,0.2,0.7,0.3,1s0.2,0.5,0.2,0.7c0.2,0.7,0.3,1.4,0.5,2.2c0.1,0.3,0.1,0.7,0.2,1c0.1,0.5,0.2,1.1,0.3,1.6s0.3,1.2,0.5,1.7
			s0.3,1.2,0.5,1.7s0.2,0.9,0.3,1.4c0,0.3,0.1,0.6,0.1,0.8c0.3,1.5,0.7,2.9,1.3,4.3l0.1,0.2c0.1,0.4,0.2,0.8,0.4,1.3
			c0.2,1.1,0.7,2.1,1.2,3.1c0.4,1.6,0.9,3.2,1.5,4.7c0.2,1.3,0.5,2.6,0.8,3.8c0.5,2,0.9,4,1,6.1c0,0.5,0.1,0.9,0.2,1.4
			c0.2,0.6,0.2,1.2,0.1,1.7c-0.1,0.3-0.1,0.6,0,0.9c0,0,0,0.1,0,0.1c0.1,0.4,0.2,0.8,0.2,1.3c0.2,0.9,0.3,1.8,0.4,2.7
			c0.2,2,0.7,4,1.3,5.9c0.5,1.5,1.4,2.9,2.6,3.9c1.4,1.1,3.1,1.8,4.8,1.9c0.4,0.1,0.8,0,1.2-0.1l0.7,0.1c0.9,0,1.9-0.2,2.7-0.8
			l0.6-0.3c0.6-0.3,1.1-0.8,1.5-1.4c0.1-0.2,0.2-0.3,0.3-0.5c0.8-0.9,1-2.3,0.5-3.4c-0.4-1.4-1.8-2.4-3.3-2.5
			c-0.6-0.1-1.2-0.2-1.7-0.5c-0.5-0.2-0.7-0.5-0.7-0.8c-0.1-0.5-0.3-1-0.6-1.5c-0.5-0.7-0.6-1.5-0.5-2.3c0-0.5,0-0.9,0-1.4
			c0-0.6,0-1.2-0.1-1.8c0-1.1-0.1-2.2-0.1-3.4s0-2.1,0-3.2c0-1.4,0.1-2.9,0-4.4c0-0.7,0-1.3,0-2c0.1-1.6,0-3.3-0.3-4.9
			c0-0.1,0-0.2,0-0.3c0.4-0.7,0.6-1.6,0.5-2.4c0-0.9,0-1.9,0-2.8c0-0.5,0-1,0-1.5c0-0.2,0-0.3,0-0.5c0-0.2,0-0.3,0-0.5
			c0.2-1.3,0.3-2.6,0.3-3.9c0-0.7,0-1.4,0-2.1c0.1-1,0.1-1.9,0.1-2.9c0-0.7,0-1.5,0-2.2l0.1-1.9c0-0.5,0-1.1,0-1.7s0-0.8,0.1-1.2
			s0.1-1,0.1-1.5c0-0.4,0.1-0.8,0.2-1.1c0.3-0.6,0.3-1.3,0.2-2c-0.1-0.4-0.1-0.7-0.1-1.1v-0.5c0-0.5,0-1,0.1-1.6
			c0.1-0.9,0.1-1.9,0-2.8c0-0.1,0-0.1,0-0.2c0.2-0.7,0.3-1.4,0.3-2.1l0.6-1.3c-0.2-1.7-0.3-3.5-0.2-5.2c0-0.3,0-0.7,0-1l0.1-1.1
			c0-0.5,0-0.9,0.1-1.4c0-0.2,0-0.3,0-0.5s0-0.2,0-0.3l0.1-1h-0.4c0-0.5,0-1.1,0-1.6s0-1.2,0-1.8s0-0.9-0.1-1.3
			c0-0.6-0.1-1.2-0.1-1.8c0-0.3,0-0.6,0-0.9c-0.1-0.6,0-1.2,0.1-1.7c0.2-0.7,0.2-1.4,0.1-2.1c-0.1-0.4-0.1-0.7,0-1.1
			C577.9,12.2,577.9,12.1,578,11.9z"/>
		<path class="st0" d="M76.8,103.8c0.1-1-0.3-2-1.1-2.7c-0.8-0.6-1.8-0.7-2.8-0.4c-0.7-0.2-1.3-0.2-2,0c-0.2,0.1-0.4,0.2-0.6,0.2
			c-0.8-0.3-1.3-1-1.3-1.9l0,0c0-0.5,0-0.9-0.1-1.4c-0.1-0.7-0.1-1.5,0-2.2c0.2-1.2,0.1-2.3-0.2-3.5l0,0l-0.1-2.7
			c-0.1-2.2-0.2-4.5-0.3-6.8c-0.1-1.1,0-2.2,0.1-3.3c0.2-1.4,0.3-2.9,0.3-4.3c0-1.2,0.1-2.4,0.1-3.5c0-0.6,0.1-1.2,0.1-1.8
			s0-1.3,0-1.9c0-0.9-0.1-1.7-0.2-2.6v-0.6c0-0.7-0.1-1.3-0.3-1.9c-0.2-0.7-0.3-1.4-0.3-2.1V60c0-0.8,0-1.5-0.1-2.3h0.1
			c0-1,0-5.8,0-6.8c0-1.3,0-2.7-0.1-4c0-0.5,0-1.1,0-1.6c0-1.1,0-2.2-0.1-3.3c-0.2-2.5-0.2-5.1-0.2-7.7v-0.4l0-1.8c0-1,0-2.1,0-3.2
			c0-0.6-0.1-1.1-0.1-1.7c-0.1-1.1-0.1-2.3,0-3.4c0.1-0.8,0.1-1.6-0.1-2.4c-0.2-1.1-0.1-2.1,0.2-3.2c0.2-0.7,0.2-1.3,0-2
			c-0.4-1.4-0.4-2.8-0.1-4.2l0.1-0.4c0.1-0.8,0.5-1.5,1.2-2c0.6,0.2,1.4,0.2,2,0c1.4,0.4,2.8-0.1,3.6-1.3c0.5-0.8,0.9-1.7,1.1-2.6
			c0.3-1.5-0.1-3-1.2-4c-0.6-0.6-1.5-1-2.4-1c-0.5,0-0.9,0-1.4,0.1c-0.2,0-0.3-0.1-0.5-0.1c-1.4-0.1-2.8,0.2-4.1,0.8
			c-0.7,0.3-1.3,0.8-1.9,1.3l-0.2-0.4L64,2.2L63.8,2l-0.4-0.2c-0.3-0.2-0.6-0.4-1-0.7c-0.9-0.8-2.1-1-3.2-0.7
			c-0.3-0.1-0.6-0.1-0.9-0.1c-0.4,0-0.9,0.1-1.2,0.3c-0.3,0.1-0.5,0.2-0.8,0.2c-0.5,0.1-0.9,0.2-1.3,0.4C53.2,2.2,52,4,51.7,6l0,0
			c0,0,0,0.1,0,0.2c-0.1,1,0.3,2,1.1,2.7c0.8,0.6,1.8,0.7,2.7,0.4c0.7,0.2,1.3,0.2,2,0c0.2-0.1,0.4-0.1,0.6-0.2
			c0.8,0.3,1.3,1,1.3,1.9v0c0,0.5,0,0.9,0.1,1.4c0.1,0.7,0.1,1.5,0,2.2c-0.2,1.2-0.1,2.4,0.2,3.5l0,0l0.1,2.6
			c0.1,2.2,0.2,4.5,0.3,6.8c0.1,1.1,0,2.2-0.1,3.2c-0.2,1.4-0.3,2.9-0.2,4.4c0,1.2,0,2.4-0.1,3.5c0,0.6-0.1,1.2-0.1,1.8s0,1.3,0,1.9
			c0,0.9,0.1,1.7,0.2,2.6c0,0.2,0,0.4,0,0.6c0,0.6,0.1,1.3,0.3,1.9c0.2,0.7,0.3,1.4,0.3,2.1V50c0,0.8,0,4.3,0.1,6h-0.1
			c0,1,0,2,0,3.1c0,1.3,0,2.7,0.1,4c0,0.5,0,1.1,0,1.6c0,1.1,0,2.2,0.1,3.3c0.2,2.5,0.2,5.1,0.2,7.7v0.4c0,0.6,0,1.2,0,1.8
			c0,1,0,2.1,0,3.2c0,0.6,0.1,1.1,0.1,1.7c0.1,1.1,0.1,2.3,0,3.4c-0.1,0.8-0.1,1.6,0,2.4c0.2,1.1,0.1,2.1-0.1,3.2
			c-0.2,0.7-0.2,1.3,0,2c0.3,1.4,0.4,2.8,0.1,4.2v0.4c-0.1,0.8-0.5,1.5-1.2,2c-0.7-0.2-1.3-0.2-2,0c-1.4-0.4-2.8,0.1-3.6,1.3
			c-0.5,0.8-0.9,1.7-1.1,2.6c-0.3,1.5,0.1,3,1.2,4c0.6,0.6,1.5,1,2.4,1c0.5,0,0.9,0,1.4,0c0.2,0,0.4,0,0.5,0
			c1.4,0.1,2.8-0.2,4.1-0.8c0.7-0.3,1.3-0.8,1.9-1.3l0.2,0.4l0.1,0.3l0.2,0.2l0.3,0.2c0.3,0.2,0.6,0.4,1,0.7
			c0.9,0.8,2.1,1.1,3.3,0.8c0.3,0.1,0.6,0.1,0.9,0.1c0.4,0,0.9-0.1,1.3-0.3c0.3-0.1,0.5-0.2,0.8-0.2c0.5-0.1,0.9-0.2,1.3-0.4
			c1.7-1.1,2.9-2.9,3.2-4.8l0,0C76.9,103.9,76.9,103.8,76.8,103.8z"/>
		<path class="st0" d="M271,103.8c0.1-1-0.3-2-1.1-2.7c-0.8-0.6-1.8-0.7-2.7-0.4c-0.7-0.2-1.3-0.2-2,0c-0.2,0.1-0.4,0.2-0.6,0.2
			c-0.8-0.3-1.3-1-1.3-1.9l0,0c0-0.5,0-0.9-0.1-1.4c-0.1-0.7-0.1-1.5,0-2.2c0.2-1.2,0.1-2.3-0.2-3.5l0,0c0-0.9-0.1-1.8-0.1-2.7
			c-0.1-2.2-0.1-4.5-0.3-6.8c-0.1-1.1,0-2.2,0.1-3.3c0.2-1.4,0.3-2.9,0.3-4.3c0-1.2,0-2.4,0.1-3.5c0-0.6,0.1-1.2,0.1-1.8
			s0-1.3,0-1.9c0-0.9-0.1-1.7-0.2-2.6c0-0.2,0-0.4,0-0.6c0-0.7-0.1-1.3-0.3-1.9c-0.2-0.7-0.3-1.4-0.3-2.1V60c0-0.8,0-1.5-0.1-2.3
			h0.1c0-1,0-5.8,0-6.8c0-1.3,0-2.7-0.1-4c0-0.5,0-1.1,0-1.6c0-1.1,0-2.2-0.1-3.3c-0.2-2.5-0.2-5.1-0.2-7.7v-0.4c0-0.6,0-1.2,0-1.8
			c0-1,0-2.1,0-3.2c0-0.6,0-1.1-0.1-1.7c-0.1-1.1-0.1-2.3,0-3.4c0.1-0.8,0.1-1.6,0-2.4c-0.2-1.1-0.1-2.1,0.1-3.2
			c0.2-0.7,0.2-1.3,0-2c-0.3-1.4-0.3-2.9,0-4.3l0-0.4c0.1-0.8,0.5-1.5,1.2-2c2,0.3,4-0.2,5.6-1.3c0.5-0.8,0.9-1.7,1.1-2.6
			c0.3-1.5-0.1-3-1.2-4c-0.6-0.6-1.5-1-2.4-1c-0.5,0-0.9,0-1.4,0.1c-0.2,0-0.3-0.1-0.5-0.1c-1.4-0.1-2.8,0.2-4.1,0.8
			c-0.7,0.3-1.3,0.8-1.9,1.3l-0.2-0.4l-0.1-0.3L258,2.1l-0.4-0.2c-0.3-0.2-0.6-0.4-1-0.7c-0.9-0.8-2.1-1.1-3.3-0.8
			c-0.3-0.1-0.6-0.1-0.9-0.1c-0.4,0-0.9,0.1-1.3,0.3c-0.3,0.1-0.5,0.2-0.8,0.2c-0.5,0.1-0.9,0.2-1.3,0.4c-1.7,1.1-2.8,2.9-3.2,4.9
			l0,0c0,0,0,0.1,0,0.2c-0.1,1,0.3,2,1.1,2.7c0.8,0.6,1.8,0.7,2.7,0.4c0.9,0.2,1.8,0.1,2.6-0.3c0.8,0.3,1.3,1,1.3,1.9V11
			c0,0.5,0,0.9,0.1,1.4c0.1,0.7,0.1,1.5,0,2.2c-0.2,1.2-0.1,2.4,0.2,3.5l0,0c0,0.9,0.1,1.8,0.1,2.6c0.1,2.2,0.1,4.5,0.3,6.8
			c0,1.1,0,2.2-0.2,3.3c-0.2,1.4-0.3,2.9-0.3,4.4c0,1.2-0.1,2.4-0.1,3.5c0,0.6-0.1,1.2-0.1,1.8s0,1.3,0,1.9c0,0.9,0.1,1.7,0.2,2.6
			c0,0.2,0,0.4,0,0.6c0,0.6,0.1,1.3,0.3,1.9c0.2,0.7,0.3,1.4,0.3,2.1V50c0,0.8,0,4.3,0.1,6h-0.1c0,1,0,2,0,3.1c0,1.3,0.1,2.7,0.1,4
			c0,0.5,0,1.1,0,1.6c0,1.1,0,2.2,0.1,3.3c0.2,2.5,0.2,5.1,0.2,7.7v0.4c0,0.6,0,1.2,0,1.8c0,1,0,2.1,0,3.2c0,0.6,0.1,1.1,0.1,1.7
			c0.1,1.1,0.1,2.3,0.1,3.4c-0.1,0.8-0.1,1.6,0.1,2.4c0.2,1.1,0.1,2.1-0.1,3.2c-0.2,0.7-0.2,1.3,0,2c0.3,1.4,0.4,2.8,0.1,4.2v0.4
			c-0.1,0.8-0.5,1.5-1.2,2c-0.7-0.2-1.3-0.2-2,0c-1.4-0.4-2.8,0.1-3.6,1.3c-0.5,0.8-0.9,1.7-1.1,2.6c-0.3,1.5,0.1,3,1.2,4
			c0.6,0.7,1.5,1,2.4,1c0.5,0,0.9,0,1.4,0c0.2,0,0.3,0,0.5,0c1.4,0.1,2.8-0.2,4.1-0.8c0.7-0.3,1.3-0.8,1.9-1.3l0.2,0.4l0.1,0.3
			l0.2,0.2l0.4,0.2c0.3,0.2,0.6,0.4,1,0.7c0.9,0.8,2.1,1.1,3.3,0.8c0.3,0.1,0.6,0.1,0.9,0.1c0.4,0,0.9-0.1,1.3-0.3
			c0.3-0.1,0.5-0.2,0.8-0.2c0.5-0.1,0.9-0.2,1.3-0.4c1.7-1.1,2.8-2.9,3.2-4.8l0,0C271,104,271,103.8,271,103.8z"/>
		<path class="st0" d="M479.2,103.8c0.1-1-0.3-2-1.1-2.7c-0.8-0.6-1.8-0.7-2.8-0.4c-0.7-0.2-1.3-0.2-2,0c-0.2,0.1-0.4,0.2-0.6,0.2
			c-0.8-0.3-1.3-1-1.3-1.9l0,0c0-0.5,0-0.9-0.1-1.4c-0.1-0.7-0.1-1.5,0-2.2c0.2-1.2,0.1-2.3-0.2-3.5l0,0l-0.1-2.7
			c-0.1-2.2-0.2-4.5-0.3-6.8c-0.1-1.1,0-2.2,0.1-3.3c0.2-1.4,0.3-2.9,0.3-4.3c0-1.2,0-2.4,0.1-3.5c0-0.6,0.1-1.2,0.1-1.8
			s0-1.3,0-1.9c0-0.9-0.1-1.7-0.2-2.6c0-0.2,0-0.4,0-0.6c0-0.7-0.1-1.3-0.3-1.9c-0.2-0.7-0.3-1.4-0.3-2.1V60c0-0.8,0-1.5-0.1-2.3
			h0.1c0-1,0-5.8,0-6.8c0-1.3,0-2.7-0.1-4c0-0.5,0-1.1,0-1.6c0-1.1,0-2.2-0.1-3.3c-0.2-2.5-0.2-5.1-0.2-7.7v-0.4v-1.8
			c0-1,0-2.1,0-3.2c0-0.6-0.1-1.1-0.1-1.7c-0.1-1.1-0.1-2.3,0-3.4c0.1-0.8,0.1-1.6-0.1-2.4c-0.2-1.1-0.1-2.1,0.1-3.2
			c0.2-0.7,0.2-1.3,0-2c-0.4-1.4-0.4-2.9-0.1-4.3l0-0.4c0.1-0.8,0.5-1.5,1.1-2c2,0.3,4-0.2,5.6-1.3c0.5-0.8,0.9-1.7,1.1-2.6
			c0.3-1.5-0.1-3-1.2-4c-0.6-0.6-1.5-1-2.4-1c-0.5,0-0.9,0-1.4,0.1c-0.2,0-0.3-0.1-0.5-0.1c-1.4-0.1-2.8,0.2-4.1,0.8
			c-0.7,0.3-1.3,0.8-1.9,1.3l-0.2-0.4l-0.1-0.3l-0.2-0.2l-0.4-0.2c-0.3-0.2-0.6-0.4-1-0.7c-0.9-0.8-2.2-1.1-3.3-0.8
			c-0.3-0.1-0.6-0.1-0.9-0.1c-0.4,0-0.9,0.1-1.3,0.3c-0.3,0.1-0.5,0.2-0.8,0.2c-0.5,0.1-0.9,0.2-1.3,0.4C455.5,2.3,454.4,4,454,6
			l0,0c0,0,0,0.1,0,0.2c-0.1,1,0.3,2,1.1,2.7c0.8,0.6,1.8,0.7,2.7,0.4c0.7,0.2,1.3,0.2,2,0c0.2-0.1,0.4-0.1,0.6-0.2
			c0.8,0.3,1.3,1,1.3,1.9v0c0,0.5,0,0.9,0.1,1.4c0.1,0.7,0.1,1.5,0,2.2c-0.2,1.2-0.1,2.3,0.2,3.5l0,0l0.1,2.6
			c0.1,2.2,0.1,4.6,0.3,6.8c0.1,1.1,0,2.2-0.1,3.2c-0.2,1.4-0.3,2.9-0.2,4.4c0,1.2,0,2.4-0.1,3.5c0,0.6-0.1,1.2-0.1,1.8s0,1.3,0,1.9
			c0,0.9,0.1,1.7,0.2,2.6c0,0.2,0,0.4,0,0.6c0,0.6,0.1,1.3,0.3,1.9c0.2,0.7,0.3,1.4,0.3,2.1V50c0,0.8,0,4.3,0.1,6h-0.1
			c0,1,0,2,0,3.1c0,1.3,0,2.7,0.1,4c0,0.5,0,1.1,0,1.6c0,1.1,0,2.2,0.1,3.3c0.2,2.5,0.2,5.1,0.2,7.7v0.4c0,0.6,0,1.2,0,1.8
			c0,1,0,2.1,0,3.2c0,0.6,0.1,1.1,0.1,1.7c0.1,1.1,0.1,2.3,0,3.4c-0.1,0.8-0.1,1.6,0,2.4c0.2,1.1,0.1,2.1-0.1,3.2
			c-0.2,0.7-0.2,1.3,0,2c0.3,1.4,0.4,2.8,0.1,4.2l0,0.4c-0.1,0.8-0.5,1.5-1.1,2c-0.7-0.2-1.3-0.2-2,0c-1.4-0.4-2.8,0.1-3.6,1.3
			c-0.5,0.8-0.9,1.7-1.1,2.6c-0.3,1.5,0.1,3,1.2,4c0.6,0.6,1.5,1,2.4,1c0.5,0,0.9,0,1.4,0c0.2,0,0.4,0,0.5,0
			c1.4,0.1,2.8-0.2,4.1-0.8c0.7-0.3,1.3-0.8,1.9-1.3l0.2,0.4l0.1,0.3l0.2,0.2l0.4,0.2c0.3,0.2,0.6,0.4,1,0.7
			c0.9,0.8,2.1,1.1,3.3,0.8c0.3,0.1,0.6,0.1,1,0.1c0.4,0,0.9-0.1,1.3-0.3c0.3-0.1,0.5-0.2,0.8-0.2c0.5-0.1,0.9-0.2,1.3-0.4
			c1.7-1.1,2.9-2.9,3.2-4.8l0,0C479.2,103.9,479.2,103.8,479.2,103.8z"/>
		<path class="st0" d="M400.5,102c-0.9-0.9-2.2-1.3-3.5-1.1l-0.3,0.1c-0.5-0.1-1-0.1-1.6-0.1c-0.3,0.1-0.6,0.1-1.1,0.2
			c-0.6-0.3-1-1-1-1.7c-0.1-1-0.1-1.9,0-2.9c0-0.4,0-0.8,0.1-1.3c0-0.7,0-1.4,0-2c-0.1-1.1-0.1-2.2,0-3.2c0.2-1.9,0.2-3.9,0.1-5.9
			c0-1-0.1-2-0.2-2.9c-0.2-2.3-0.3-4.5-0.3-6.8v-0.2c0.1-2.2,0.1-4.5,0.4-6.8c0.1-1.9,0.2-3.7,0.1-5.6v-0.5c0-0.7-0.1-1.3-0.1-2
			s-0.1-1.4-0.1-2.1c0-0.5,0-1,0.1-1.6s0-1,0-1.5c0-1.5,0-2.9,0-4.4v-2c0-0.4,0-0.9,0-1.3c0-1,0-2,0-3s0.1-2.2,0.1-3.2
			c0-1.5,0-3.1,0.1-4.6c0.2-2.3,0.1-4.6,0.1-6.9c0-0.9,0-1.9,0-2.8c0-0.2,0-0.4-0.1-0.6v-0.1c-0.1-0.4-0.1-0.8-0.2-1.2
			c-0.1-0.9-0.3-1.7-0.4-2.6c-0.2-2.3-0.6-4.5-1.1-6.7l0-0.2c-0.1-0.2-0.1-0.4-0.1-0.6c-0.5-3.1-1.6-6.1-3.4-8.7
			c-0.5-1-1.5-1.6-2.6-1.7l0,0c-0.6,0-1.2-0.2-1.7-0.5l-0.1-0.1c-0.5-0.2-1.1-0.3-1.6-0.2c-0.4,0.1-0.7,0-1.1-0.1
			c-1.2-0.4-2.5-0.7-3.8-0.7c-0.3,0-0.6,0-0.9,0c-1.3-0.1-2.7,0-4,0.4c-0.4,0.1-0.8,0.2-1.2,0.2h-0.3c-0.1,0-0.3-0.1-0.4-0.1
			c-0.6-0.2-1.2-0.2-1.8,0h-0.1c-0.7-0.2-1.4-0.2-2,0.1l-0.2,0.1c-0.3,0.2-0.5,0.2-0.6,0.2c-1-0.3-2.1,0.3-2.5,1.3l0,0.1
			c-0.7,0.1-1.4,0.6-1.8,1.2l-0.1,0.2c-1.1,1.2-1.8,2.6-2,4.2v0.3c0,0.7-0.2,1.4-0.5,2c-0.2,0.4-0.3,0.8-0.2,1.2c0,0.1,0,0.1,0,0.2
			c0,0.2,0,0.3,0,0.5c0,0.1,0,0.3,0,0.4c0,0.4-0.1,0.7-0.1,1.1s-0.1,0.7-0.1,1s0,0.6,0,0.9c0,0.6-0.1,1.2-0.2,1.8
			c-0.3,0.8-0.4,1.7-0.3,2.6c0.1,0.7,0,1.5-0.1,2.2c0,0.2,0,0.3-0.1,0.5l0,0.4c-0.2,1.2-0.3,2.4-0.3,3.7c0,0.5,0,1.1-0.1,1.6
			c-0.1,0.5-0.1,0.9-0.1,1.4c0,0.4-0.1,0.8-0.1,1.2c-0.1,0.6-0.1,1.2-0.1,1.7c0,1.5,0,2.9,0.1,4.3c0,0.5,0,0.9,0,1.4
			c0,0.3,0,0.5,0,0.8s0,0.7,0,1v0.6c0,0.7,0,1.3,0,2c-0.2,2-0.2,4.1,0.1,6.1c0,0.3,0.1,0.5,0.1,0.8c0.1,0.6,0.2,1.1,0.1,1.7
			c-0.4,2.6-0.3,5.2,0.1,7.8c0,0.2,0,0.5,0,0.7c0,0.2,0,0.4,0,0.6c0,0.2,0,0.3,0,0.5c0,0.5,0,1.1,0.1,1.6c0.2,0.7,0.3,1.5,0.2,2.2
			c-0.2,2.9-0.1,5.8,0.1,8.6c0.1,0.5,0.1,0.9,0,1.4c-0.3,1.9-0.4,3.9-0.2,5.8c0,0.4,0.1,0.8,0.1,1.1c0.2,1.1,0.2,2.2-0.2,3.3
			c-0.1,0.3-0.1,0.5-0.1,0.8c0,0,0,0,0,0.1c0,0.4,0,0.8,0,1.2c0,0.8,0.1,1.7,0.1,2.6s0,1.7-0.1,2.5c0,0.4,0,0.8,0,1.2
			c0,0.1,0,0.1,0,0.2c0,0.3,0,0.6,0,0.9c0.3,1.4,0.3,2.9-0.1,4.3c0,0.2-0.2,0.4-0.4,0.5c-0.4-0.1-0.7-0.2-1-0.4
			c-0.6-0.3-1.3-0.3-1.9,0l0,0c-0.6-0.3-1.3-0.3-1.9,0c-1.7,1-2.5,3-1.9,4.8c0.5,1.2,1.3,2.3,2.4,3c0.6,0.4,1.2,0.7,1.8,1
			c1,0.5,2.1,0.6,3.2,0.4c1.4,0.3,3-0.1,4-1.1c0.2,0.2,0.5,0.4,0.8,0.5c1.2,0.5,2.5,0.7,3.7,0.5c1.6,0.2,3.2-0.1,4.5-1
			c1.7-0.9,2.7-2.7,2.6-4.6c-0.1-1.3-0.7-2.5-1.7-3.3c-0.6-0.5-1.4-0.7-2.2-0.4h-0.1c-0.5-0.2-1.1-0.3-1.6-0.1c-0.6-0.3-1-0.8-1-1.4
			c0-0.2-0.1-0.3-0.1-0.5c-0.2-0.9-0.3-1.9-0.3-2.8c0-2.6,0-5.2-0.2-7.8v-0.7c-0.1-2-0.1-4.1-0.1-5.8v-1.2c0-0.9,0.1-1.8,0-2.7
			c-0.1-1.7-0.1-3.5-0.2-5.2c-0.1-1.5-0.1-3-0.2-4.4c0-0.4,0-0.7,0-1.1c0-0.6,0-1.1,0-1.7c0-0.2,0-0.4-0.1-0.7h0.3
			c0.7,0,1.3,0,1.9,0c0.9,0,1.7-0.1,2.6-0.2h0.6c0.7,0,1.3-0.1,1.9-0.3c0.7-0.2,1.4-0.3,2.1-0.3h0.4c0.8,0,1.5,0,2.3-0.1v0.1
			c1,0,5.8,0,6.8,0h1.2c0,0.7,0,1.4-0.1,2.1c-0.2,1-0.1,1.9,0.1,2.9c0.2,0.7,0.2,1.3,0.2,2c0,0.2,0,0.3,0,0.5c0,0.6,0,1.1,0,1.7
			c0,1.2,0,2.3,0.1,3.5c0.2,1.9,0.3,3.8,0.3,5.7c0,0.8,0,1.6,0,2.5s0,1.5,0,2.2c0,1.5,0.1,3.1,0,4.6c0,1.1,0,2.2,0,3.2
			c0,0.5,0,1,0,1.5c0,0.5,0,1.1-0.1,1.6c0,0.2,0,0.5-0.1,0.7s0,0.3,0,0.5c-0.1,0.4-0.1,0.8-0.1,1.1c0,0.5-0.1,0.9-0.9,1.4
			c-0.2,0.1-0.5,0.3-0.7,0.3c-0.3,0-0.6,0-0.9,0.1h-0.1c-1-0.2-2,0-2.9,0.4c-1.2,0.4-1.9,1.8-1.4,3c0,0,0,0,0,0
			c0.2,0.6,0.4,1.2,0.6,1.7l0,0.1c0.5,1.3,1.7,2.3,3.1,2.5c0.7,0.1,1.4,0.1,2.1,0c1,0.1,2.1,0.1,3.1-0.2c0.9-0.2,1.8-0.6,2.4-1.4
			c0,0,0.1-0.1,0.1-0.1c1.5,1.2,3.4,1.8,5.3,1.5c0.9,0.1,1.8,0.1,2.8-0.1c0.4-0.1,0.7-0.2,1-0.5c0.5-0.4,1-0.9,1.5-1.4
			c0.5-0.5,0.8-1.2,0.8-1.9C401.9,104.1,401.4,102.9,400.5,102z M379.2,55.5v-0.1h-3.1l-4,0.1h-1.6c-1.1,0-2.2,0-3.3,0.1
			c-0.6,0-1.2,0.1-1.7,0.1c0-0.2,0-0.4,0-0.6c0-0.8,0-1.7,0-2.5c0-1.6,0-3.2,0-4.8v-3.3c0-0.5,0-1,0-1.5c0-0.8,0-1.6,0-2.4
			c0-0.5,0-1,0.1-1.5c0.2-1.2,0.2-2.5,0-3.7c0,0,0-0.2,0-0.3c0-0.1,0-0.3,0-0.4v-1.8c0-2.2,0-4.4-0.1-6.6c0-0.3,0-0.5,0-0.8
			c-0.1-1.3,0-2.6,0.2-3.9c0.1-0.3,0.1-0.7,0.1-1c0-0.1,0-0.1,0-0.2c0-0.6,0-1.2,0-1.9c-0.1-1.3,0-2.7,0.2-4c0.1-0.5,0-1-0.1-1.5
			c-0.2-0.6,0-1.3,0.5-1.6c0.5-0.4,1.1-0.9,1.5-1.4c0.5-0.5,1.1-0.8,1.8-0.8c0.4,0,0.9-0.1,1.3-0.3c0.4-0.2,0.9-0.3,1.4-0.3h0.3
			c0.5,0,1.1,0,1.6-0.1h0.2l1-0.1l1-0.1c1.4,0.1,2.8,0.4,4.1,0.9l0.1,0.2c0.2,0.3,0.3,0.6,0.5,0.9c0.5,0.7,0.8,1.5,0.9,2.4V13
			c0,0.4,0.1,0.9,0.2,1.3c0.5,1.9,1,3.8,1.2,5.8c0,0.4,0.1,0.7,0.1,1.1s0.1,0.9,0.2,1.3c0.1,0.9,0.2,1.8,0.2,2.7c0,0.4,0,0.7,0,1.1
			c0.1,2.6,0.3,5.2,0.5,7.7c0.2,2.2,0.4,4.5,0.6,6.7c0.1,0.5,0,0.9-0.1,1.4c-0.2,0.6-0.2,1.2-0.1,1.8v0.1c0,0.6,0.1,1.2,0.1,1.7
			c0,0.4,0.1,0.8,0.1,1.2c0,0.6,0.1,1.2,0.1,1.8c0,1,0.1,2,0.2,3c0,0.1,0,0.3,0,0.4c-0.2,1-0.2,2,0,3c0,0.1,0,0.1,0,0.2h-0.1
			C384.4,55.4,380.9,55.4,379.2,55.5z"/>
		<path class="st0" d="M129.4,11.9v-0.1c0-0.4,0.3-0.8,0.7-0.9c0.8-0.4,1.6-0.8,2.5-1c0.5-0.1,1-0.3,1.5-0.5c0.5-0.2,0.8-0.6,1-1.1
			c0.6-1.4,0.8-3,0.4-4.6c-0.3-1-0.9-1.8-1.7-2.3c-1.4-0.8-3-1.1-4.6-0.9H129c-0.6,0-1.2,0-1.8,0c-0.9,0.1-1.8,0.6-2.2,1.4
			c-0.2,0.3-0.4,0.6-0.6,0.9c-0.4-0.5-0.9-0.8-1.4-1.2c-0.7-0.4-1.5-0.5-2.2-0.5c-0.4,0-0.7-0.1-1.1-0.1c-0.4-0.1-0.8-0.1-1.1,0.1
			c-0.3,0-0.5-0.1-0.8-0.1c-0.5-0.1-1,0-1.4,0.3c-0.3,0.3-0.6,0.5-0.9,0.7c-0.6,0.4-1.1,0.8-1.6,1.4l-0.4,0.5c-0.8,0.9-2,2.3-1,3.8
			l0.1,0.1l0.3,0.3c0.2,0.2,0.4,0.4,0.5,0.6c0.7,0.9,1.8,1.2,2.9,0.9h0.1c0.6,0.2,1.2,0.2,1.8,0c0.3-0.1,0.6-0.2,0.9-0.3l0.2-0.1
			c0.8,0.3,1.4,1.1,1.6,1.9c0.1,0.4,0.1,0.7,0.1,1.1v0.8c0,1.2,0,2.5,0,3.8c-0.1,2.8-0.1,5.6,0.1,8.4v0.5c0,0.5-0.1,1-0.2,1.5
			c-0.1,0.7-0.2,1.5-0.2,2.2c0,0.4,0,0.7,0,1c0,0.2,0,0.3-0.1,0.5c-0.1,0.3-0.1,0.7-0.1,1c0,3-0.1,6.1-0.2,9
			c-0.1,1.1-0.1,2.1-0.1,3.2c0,0.5,0,0.9-0.1,1.4l-0.1,1c-0.2,1.5-0.2,3,0,4.5c0,0.2,0,0.4,0,0.6v0.2c0,1.5,0,3,0,4.5v7.9
			c0,0.1,0,0.1,0,0.2c-0.1-0.4-0.2-0.7-0.3-1.1c-0.1-0.3-0.2-0.6-0.2-0.9c-0.2-1.4-0.6-2.8-1.1-4.1l-0.1-0.3
			c-0.4-1.1-0.7-2.2-1.1-3.2c-0.2-0.5-0.3-1-0.4-1.6s-0.2-1-0.4-1.5v-0.2c-0.1-0.4-0.2-0.9-0.2-1.3c0-0.5-0.1-1-0.3-1.5
			c0-0.2-0.1-0.3-0.1-0.5l-0.1-0.5c-0.2-0.6-0.3-1.3-0.5-1.9c-0.3-1.1-0.6-2.1-0.8-3c-0.1-0.3-0.2-0.6-0.3-0.9s-0.2-0.4-0.2-0.7
			c-0.3-0.9-0.5-1.9-0.8-2.9s-0.6-2-1-3c-0.1-0.4-0.2-0.8-0.3-1.2c-0.2-0.8-0.5-1.6-0.8-2.3c-0.2-0.6-0.4-1.1-0.5-1.7
			c-0.1-0.6-0.3-1.2-0.6-1.8c-0.7-1.8-1.4-3.7-1.9-5.6c-0.4-1.4-0.8-2.7-1.3-4c-0.3-0.8-0.5-1.6-0.6-2.4c-0.1-0.6-0.3-1.2-0.6-1.8
			c-0.1-0.3-0.2-0.5-0.3-0.8c0-0.1,0-0.2,0-0.3c0-0.2,0-0.4-0.1-0.5c0-0.1-0.1-0.3-0.1-0.4c-0.1-0.5-0.2-1.1-0.5-1.6
			c-0.3-0.6-0.6-1.3-0.8-1.9c-0.1-0.3-0.2-0.7-0.4-1c-0.4-0.9-0.9-1.7-1.5-2.4c-0.3-0.3-0.5-0.7-0.8-1s-0.6-0.7-0.8-1
			c-0.7-1-1.7-1.6-2.9-1.8l-0.6-0.1c-1.4-0.3-2.8-0.4-4.1-0.3c-1-0.1-2-0.1-2.9,0.2c-1,0.2-1.9,0.8-2.6,1.6
			c-0.6,0.7-0.8,1.7-0.5,2.6l0.1,0.3l1.5,1.1l0.5-0.2c0.3-0.1,0.5-0.2,0.7-0.3L90,6.7l0.5-0.2c0.2-0.1,0.4-0.2,0.6-0.3
			c1.1,0.5,1.9,1.6,1.9,2.8c0.1,0.9,0.1,1.9,0.1,2.9c0,0.2,0,0.4,0,0.6c0,0.6,0,1.1,0,1.7c-0.1,1.2-0.1,2.3,0,3.5
			c0.2,1.6,0.2,3.3,0.2,5.1v0.4c-0.1,1,0.1,2,0.6,2.9c0,0.2,0,0.4,0,0.6v0.1c0,0.5,0,0.9,0,1.4s0,0.8,0,1.2c0,0.2,0,0.4,0,0.6
			c0,0.7,0,1.4,0.1,2.1c0.3,2.3,0.2,4.6-0.2,6.9c0,0.4-0.1,0.8-0.2,1.2c-0.1,0.7-0.2,1.4-0.2,2.1c0,0.3,0,0.7,0,1c0,0.3,0,0.5,0,0.8
			c-0.2,1.9-0.3,3.8-0.3,5.7V50c0,1.1,0,2.2,0,3.3c0,1.6-0.1,3.3,0,4.9s0,3.2,0,4.7c-0.1,2.2,0,4.4,0.1,6.6c0,0.1,0,0.3,0,0.4
			c-0.4,2.8-0.5,5.6-0.3,8.3c0.2,2.1,0.1,4.2,0.1,6.2s-0.1,4.1,0,6.2c0,0.7,0,1.5,0,2.3c0,0.4,0,0.7,0,1.1s0,0.7,0,1.1
			C93,96,93,96.8,93,97.6c0.1,0.9-0.2,1.8-0.9,2.4l-0.1,0c-0.6,0.5-0.9,0.7-1.3,0.8c-0.2,0-0.4-0.1-0.5-0.2
			c-0.7-0.5-1.6-0.6-2.4-0.3c-1.1-0.5-2.5,0-3,1.1c-0.5,0.8-0.8,1.8-0.8,2.8c-0.1,1.3,0.6,2.6,1.7,3.3c0.1,0.1,0.2,0.1,0.2,0.2
			c0.1,0.1,0.3,0.3,0.4,0.4l0.1,0.1c0.3,0.3,0.7,0.5,1.1,0.6h0.1c0.8,0.3,1.7,0.4,2.5,0.5h0.2c0.5,0,1,0,1.5,0H92h0.2
			c1.3,0.2,2.6-0.1,3.6-0.9c0.2-0.2,0.4-0.3,0.6-0.5l0,0l0.2,0.1l0.8,0.3c0.6,0.3,1.2,0.5,1.8,0.8c0.7,0.3,1.4,0.4,2.1,0.4
			c0.3,0,0.7,0,1-0.1c0.6,0.1,1.3,0.1,1.9,0c1.5-0.1,2.8-1.2,3.2-2.6c0.2-0.9,0.3-1.8,0.2-2.7c0-0.2,0-0.3,0-0.5
			c0-1-0.8-1.7-1.8-1.7c0,0,0,0,0,0l0,0c-0.4,0-0.8,0-1.2,0.1c-0.2-0.1-0.5-0.1-0.7-0.1c-0.4,0-0.7,0-1.1,0.1
			c-0.9-0.5-1.4-1.3-1.5-2.3c0-0.3-0.1-0.7-0.1-1c-0.1-0.3-0.1-0.5-0.1-0.8v-0.3c-0.1-0.3-0.1-0.7,0-1c0.3-1,0.3-2,0.1-3
			c-0.1-0.6-0.1-1.2,0-1.8c0.1-0.7,0.1-1.5,0-2.2c-0.1-0.4-0.1-0.9-0.1-1.3c0-0.2,0-0.3,0-0.5s0-0.3,0-0.5c0-0.3,0-0.7,0-1
			c-0.2-1.3-0.1-2.6,0.1-3.9c0.1-0.4,0.1-0.8,0.1-1.3c-0.1-1.8-0.2-3.5-0.1-5.3c0-0.4,0-0.8,0-1.2c-0.1-0.9,0-1.8,0.3-2.6
			c0.1-0.2,0.1-0.5,0.1-0.8c0,0,0-0.1,0-0.1c0-0.4,0-0.8,0.1-1.2c0.1-0.9,0.1-1.8,0-2.7c-0.1-1.6-0.2-3.3-0.2-4.9
			c0-1.8,0-3.7-0.2-5.5c0.2-0.8,0.3-1.7,0.1-2.5c0-0.2-0.1-0.5-0.1-0.7c-0.1-1-0.1-1.9,0-2.7c0-0.5,0.1-1,0.1-1.5v-0.3
			c0.1-1.4,0.1-2.8,0-4.2c-0.1-1.6-0.1-3.3,0.2-4.9v-0.1v-0.1c-0.2-1.7-0.1-3.5,0.1-5.2c0.1,0.2,0.3,0.4,0.5,0.5
			c0.6,0.6,1.1,1.3,1.2,2.2c0.1,0.3,0.2,0.5,0.3,0.8c0.6,1.4,1,3,1.4,4.5l0.5,1.7c0.2,0.6,0.4,1.3,0.6,1.9c0.3,1.1,0.7,2.3,1,3.5
			c0.4,1,0.7,2,0.9,3c0.1,0.4,0.2,0.7,0.3,1c0.1,0.2,0.2,0.5,0.2,0.7c0.2,0.7,0.3,1.4,0.5,2.2c0.1,0.3,0.1,0.7,0.2,1
			c0.1,0.5,0.2,1.1,0.3,1.6s0.3,1.2,0.5,1.7s0.3,1.2,0.5,1.7c0.1,0.5,0.2,0.9,0.3,1.4l0.2,0.8c0.3,1.5,0.7,2.9,1.3,4.3l0.1,0.2
			c0.1,0.4,0.2,0.8,0.4,1.3c0.2,1.1,0.6,2.1,1.2,3.1c0.3,1.6,0.8,3.2,1.4,4.7c0.2,1.3,0.5,2.6,0.8,3.8c0.5,2,0.9,4,1,6.1
			c0,0.5,0.1,0.9,0.2,1.4c0.2,0.6,0.2,1.2,0.1,1.7c-0.1,0.3,0,0.6,0.1,0.9v0.1c0.1,0.4,0.2,0.8,0.2,1.3c0.2,0.9,0.3,1.8,0.4,2.7
			c0.2,2,0.7,4,1.3,5.9c0.5,1.5,1.4,2.9,2.6,3.9c1.4,1.1,3.1,1.8,4.8,1.9c0.4,0.1,0.8,0,1.2-0.1l0.7,0.1c0.9,0,1.9-0.2,2.7-0.8
			c0.2-0.1,0.4-0.2,0.6-0.3c0.6-0.3,1.1-0.8,1.4-1.4c0.1-0.2,0.2-0.3,0.4-0.5c0.8-0.9,1-2.3,0.5-3.4c-0.4-1.4-1.8-2.4-3.3-2.5
			c-0.6-0.1-1.2-0.2-1.7-0.5c-0.5-0.2-0.7-0.5-0.7-0.8c-0.1-0.5-0.3-1-0.6-1.5c-0.5-0.7-0.7-1.5-0.5-2.3c0-0.5,0-1,0-1.4
			c0-0.6,0-1.2-0.1-1.8c0-1.1-0.1-2.2-0.1-3.4s0-2.1,0-3.2c0-1.4,0.1-2.9,0-4.4c0-0.7,0-1.3,0-2c0.1-1.6,0-3.3-0.3-4.9
			c0-0.1,0-0.2,0-0.3c0.4-0.7,0.6-1.6,0.5-2.4c0-0.9,0-1.9,0-2.8c0-0.5,0-1,0-1.5c0-0.2,0-0.3,0-0.5c0-0.2,0-0.3,0-0.5
			c0.2-1.3,0.3-2.6,0.3-3.9c0-0.7,0-1.4,0-2.1c0.1-1,0.1-1.9,0.1-2.9c0-0.7,0-1.5,0-2.2s0.1-1.3,0.1-1.9s0-1.1,0-1.7l0.1-1.2
			c0-0.5,0.1-1,0.1-1.5c0-0.4,0.1-0.8,0.2-1.1c0.3-0.6,0.3-1.3,0.2-2c-0.1-0.4-0.1-0.7-0.1-1.1v-0.5c0-0.5,0-1,0.1-1.6
			c0.1-0.9,0.1-1.9,0-2.8c0-0.1,0-0.1,0-0.2c0.2-0.7,0.3-1.4,0.3-2.1l0.6-1.3c-0.2-1.7-0.3-3.5-0.2-5.2c0-0.3,0-0.7,0-1l0.1-1.1
			c0-0.5,0-0.9,0.1-1.4c0-0.2,0-0.3,0-0.5c0-0.1,0-0.2,0-0.3l0.1-1h-0.4c0-0.5,0-1.1,0-1.6s0-1.2,0-1.8s0-0.9-0.1-1.3
			c0-0.6-0.1-1.2-0.1-1.8c0-0.3,0-0.6,0-0.9c-0.1-0.6,0-1.2,0.1-1.7c0.2-0.7,0.2-1.4,0.1-2.1c-0.1-0.4-0.1-0.7,0-1.1
			C129.2,12.2,129.3,12.1,129.4,11.9z"/>
		<path class="st0" d="M194.9,107.8L194.9,107.8L194.9,107.8z"/>
		<path class="st0" d="M212.5,1.5L212.5,1.5L212.5,1.5z"/>
		<path class="st0" d="M197.2,26.9h-0.1H197.2L197.2,26.9z"/>
		<path class="st0" d="M196.8,44.1L196.8,44.1L196.8,44.1L196.8,44.1z"/>
		<path class="st0" d="M226.7,4.4L226.7,4.4L226.7,4.4z"/>
		<path class="st0" d="M236.8,41.6L236.8,41.6L236.8,41.6L236.8,41.6z"/>
		<path class="st0" d="M226.9,15.1L226.9,15.1L226.9,15.1z"/>
		<path class="st0" d="M228.5,20.8L228.5,20.8L228.5,20.8L228.5,20.8C228.5,20.9,228.5,20.8,228.5,20.8z"/>
		<path class="st0" d="M188.3,102.1L188.3,102.1L188.3,102.1z"/>
		<path class="st0" d="M227,62.2c0-0.2,0-0.4,0.1-0.6c0.5-0.5,1.3-0.6,1.2-1.5c0,0,0.2-0.1,0.2-0.1c0.8,0.6,0.5-0.2,0.6-0.5
			c0.5-0.3,1.1-0.5,1.5-1.1c0.5-0.8,1-1.5,1.6-2.2l0,0l0,0l0,0l1-1.2c0.2-0.1,0.8,0.1,0.5-0.5c-0.2-0.4-0.1-0.5,0.2-0.8
			s-0.3-1.1,0.6-1.1c-0.3-0.8,0.5-1.5,0.4-2.3c0-0.2,0.1-0.5,0.2-0.6c0.5-0.4,0.1-0.6,0-0.8c0.3-0.2,0.4-0.6,0.5-0.9
			c0-0.3-0.3-0.6-0.4-0.9c-0.1-0.2-0.1-0.5-0.1-0.7c0.8,0,0.5-0.6,0.5-0.9c0-0.6-0.2-1.2,0.6-1.5c0.1,0,0-0.5,0.1-0.7
			c0.2-0.5-0.4-1.2,0.3-1.7l0,0l0,0l0,0c-0.5-0.3-0.3-2-0.2-2.3c0-0.4,0.2-0.8,0.3-1.3c0.1-0.9-0.2-1.8-0.1-2.7
			c0.2-1.2,0.3-2.4,0.2-3.6c-0.1-1.5,0-3,0.1-4.4c0-1.9,0-3.8-0.1-5.7c0-0.5-1.3-3.4-1.5-4s-0.2-1.4-0.3-2c-0.2-0.9-0.5-1.8-0.8-2.6
			c-0.5-1.7-3.9-6-5.1-6.6c-0.3-0.2-1.1-1.2-1.2-1.1c-1-0.4-1.9-0.9-2.8-1.5c-0.1-0.1-1.1-0.5-1.2-0.5c-0.5-0.3-1-0.5-1.5-0.7
			c-1.3-0.1-2.6-0.1-3.9-0.1l0,0C218,2.2,217.4,2,216.8,2c-1.4,0.1-2.7-0.9-4.1-0.1c0,0-0.1-0.1-0.2-0.2c-1,0.1-2,0.1-2.9,0.2
			c-0.9,0-1.7,0.1-2.5,0.4c-0.5,0.3-0.7,0.5-0.9-0.3c-0.4,0.3-0.3,1.1-1.1,0.7c-0.5-0.2-1-0.3-1.5-0.3l-3.4,2.8l0,0l0,0l0,0
			c-0.2,0.3-0.3,0.5-0.5,0.8c-0.1,0.1-0.2,0.2-0.3,0.3s-0.3,0.3-0.5,0.4c-0.1-0.2-0.2-0.3-0.3-0.5c-0.3-0.8-0.9-3.8-1.9-3.1
			c-0.1,0-0.3-0.1-0.4-0.2c-0.6-0.3-1.2-0.6-1.8-0.9c-0.2-0.1-4.4-0.2-5-0.3l0,0l0,0l0,0h-0.4L189,1.8l0,0l-0.3-0.4
			c-0.1,0.1-0.1,0.3-0.2,0.4c-0.2,0.2-0.5,0.5-0.7,0.7c-0.1,0.1-0.3,0-0.4,0c-0.2,0.8-0.5,1.5-0.7,2.3l0,0l0,0l0,0l0,0l0,0l0.1,0.1
			L186.6,5V4.9l0,0c-0.1,0.5-0.1,0.9-0.2,1.4s0,1.1,0,1.6l0,0l0.2,0.2c-0.8,0.9,0.3,1.2,0.6,1.8l0,0l0.9,0.9l0,0
			c0.1-0.1,0.2-0.4,0.3-0.4c0.8,0.1,1.6,0.2,2.4,0.3c1.1,0.3,2.3,0,3.1-0.8c0.1-0.1,0.3-0.1,0.5-0.1c0.3,0.2,0.6,0.4,0.9,0.6l0,0
			h-0.2h0.2c0.1-0.1,0.2-0.2,0.2-0.2c0.4,0.4,0.7,0.8,0.8,1.4v-0.1c-0.1,0-0.2-0.1-0.2-0.1c-0.1,0.1-0.1,0.1-0.1,0.2
			c0,0.1,0,0.1,0.1,0.2c0.1,0,0.2,0,0.3-0.1c0.1,0.5,0.1,1,0,1.5h-0.1v0.1l0,0l0,0c0,0.4,0.1,0.8,0.1,1.3l0,0l-0.1,0.3
			c-0.1,0-0.1-0.1-0.1-0.1c-0.1,0-0.1,0.1-0.1,0.1c0.2,0.6,0.5,1.1,0.6,1.7c0.1,0.5-0.9,0.9-0.1,1.5c0,0-0.1,0.1-0.1,0.2
			c-0.1,0.2-0.1,0.3-0.1,0.5c0.2,1.1,0.3,2.3,0.5,3.5l-0.4,0.1l0.5,1.4h-0.5l0,0c0,0.5,0,1,0.2,1.4c0.2,0.5-0.5,1.3,0.4,1.6l0,0
			c-0.9,0.6-0.5,1.4-0.2,2.2c0.1,0.1,0.1,0.3,0.1,0.4l-0.2,0.1l-0.1-0.1l0.1,0.1l0,0v0.6v0.1c0,0,0,0,0-0.1v-0.1
			c-0.1,0.1-0.2,0.1-0.2,0.2c-0.1,0.7,0.2,2.9-0.1,3.2l0,0l0,0l0,0l0,0c0.1,0.3,0.2,0.7,0.2,1c0.1,0.8,0.2,1.6,0.3,2.4
			c0,0.8-0.2,1.6-0.3,2.4c0,0.1,0.2,0.2,0.3,0.2c-0.1,0.3-0.2,0.7-0.2,1c0,1,0.1,2,0.1,3c0,0.1-0.1,0.3-0.2,0.4l0,0l0,0l0,0l0,0
			c0.1,0,0.4,0.1,0.4,0.1c0,1.5-0.4,2.9-0.2,4.3c0,1.6-0.1,3.2-0.2,4.7c-0.1,4.2-0.1,8.3-0.1,12.5c0,2,0.2,4,0.1,6.1
			c0,0.9,0.4,1.9-0.2,2.8c0,0,0.1,0.2,0.2,0.3l0,0c0.1,0.8,0.1,1.6,0.1,2.4c0.1,0.9-0.5,2,0.3,2.8c-0.8,0.2-0.5,0.8-0.5,1.3
			c0,0.7,0,1.4,0,2.1c0.5-0.6,0.6,0.2,0.4,0.4c-0.6,0.6-0.2,1.2-0.4,1.8c-0.1,0.2-0.4,0.5-0.4,0.7c0.2,1,0.2,2,0.2,3.1
			c-0.3,1.3,0.1,2.7-0.4,4c-0.2,1-0.3,2.1-0.2,3.2h0.1l0,0c-0.1,0.6-0.7,1.3,0.2,1.9c0.2,0.1,0.1,0.6,0.1,0.9c0,0.1-0.1,0.2-0.1,0.3
			l-0.3-0.3l0,0h-0.1l0,0c-0.2,0-0.4,0.2-0.5,0.1c-1.4-0.5-2.9-0.5-4.2,0c-0.1,0-0.2-0.1-0.3-0.1l0,0c-0.2,0.2-0.3,0.4-0.5,0.6
			c0,0-0.1-0.1-0.2-0.1l0,0l-0.6,0.2c0,0.1,0.1,0.2,0.2,0.4l0,0l-0.2,0.2c-0.6-0.5-0.6,0.2-0.9,0.5c-0.1,0.1-0.3,0.3-0.5,0.4h0.8
			l-0.6,0.4c0.2,0.6-0.7,1.1-0.1,1.8c-0.1,0.1-0.1,0.1-0.2,0.2c-0.1,0.1-0.2,0.3-0.2,0.3c0.3,0.4,0.7,0.7,1,1.2s0.6,1,0.9,1.5
			c0,0.1,0.1,0.2,0.2,0.2c0.7-0.4,0.8,0.3,1.1,0.6c0,0,0.2-0.1,0.3-0.2l0,0l0.7,0.3l0,0c0.9-0.3,1.8,0.7,2.7-0.1l0.1,0.1
			c0.9,0,1.4-0.7,2.1-1.1s1.2-0.7,1.8-1.1c0.1,0,0.2,0,0.3,0c0,0.1,0.1,0.3,0,0.3c-0.3,0.4-0.5,0.7,0.3,0.6c0.1,0,0.2,0,0.2,0
			c0.6,0.6,1.3,1,2.1,1.3c0.5,0.2,0.9-0.2,1.2,0c0.9,0.4,2-0.4,2.9,0.4c0.4,0.4,0.7-0.5,0.9-0.3c0.6,0.7,1.4,0,1.9,0.4
			c0.2,0.1,0.4,0,0.6-0.1c0.5-0.5,1-1,1.5-1.5c0.1,0,0.2,0,0.3,0c0.2-0.8,0.3-1.6,0.5-2.4c0.4-1.5-0.5-3.1-1.9-3.6
			c-0.6-0.2-1.2,0.1-1.7,0c-1.4-0.4-2.4,0.4-3.4,1.1c-0.3,0.1-0.6,0.1-0.9,0c-0.1,0-0.1-0.4-0.2-0.6l0,0v-0.1v0.1
			c-0.2-0.3-0.6-0.6-0.6-0.9c0-1.3-0.9-2.5-0.3-3.9c0.1-0.8,0.1-1.6-0.1-2.3c-0.1-1.2-0.2-2.4-0.2-3.6c0-0.8,0.2-1.6,0.3-2.4l0,0
			v-0.2c-0.2-1,0-2.1,0.3-3.1c0.1-0.2,0.1-0.4,0.1-0.7l-0.2,0.1l-0.2,0.1c-0.1-0.1-0.2-0.3-0.1-0.3c0.5-0.8,0.5-1.7,0.2-2.6
			c0-0.1,0-0.2,0-0.2c0.3-0.4,0.4-0.4,0.3-0.7c-0.1-0.4-0.1-0.9-0.2-1.3c0.1-1.8,0.2-3.5,0.3-5.3c0-0.6,0-1.3,0-1.9
			c0-0.6,0-1.2-0.1-1.9c-0.1-0.5,0.6-0.7,0.2-1.3s0-1.7,0-2.5l0.2-0.1c0.1,0.3,2.8,0.1,2.8,0.1c0.2-0.1,3.9-0.4,4.7,0.2
			c0.2,0.1,0.5,0.2,0.7,0.1c0.9-0.3,1.7-0.6,2.4,0.2c0,0,0.1,0,0.2,0c0.5,0.1,1.1,0.1,1.6,0c0.9-0.3,1.1,0,1.3,0.1
			c0.1-0.9,0.6-0.2,0.9-0.2s1.7-0.4,2-0.4 M233.3,54.8l-0.1,0.1L233.3,54.8L233.3,54.8z M197.2,23.8L197.2,23.8L197.2,23.8z
			 M197.2,39.7L197.2,39.7L197.2,39.7L197.2,39.7z M197.2,29.6L197.2,29.6L197.2,29.6L197.2,29.6z M189.7,100.5c0,0,0-0.1,0-0.1l0,0
			V100.5z M200.3,5.2L200.3,5.2C200.3,5.2,200.3,5.2,200.3,5.2L200.3,5.2z M210.6,65.8L210.6,65.8L210.6,65.8L210.6,65.8z
			 M218.6,59.4c-1.2,0.1-2.4,0.3-3.6,0.4c0,0-0.1,0-0.1,0c-1.3-0.1-2.6-0.2-3.9-0.3c-1,0-2.1,0.1-3.2,0.1c-0.5,0-1,0-1.4-0.2
			c-0.7-0.2-1.4-0.2-2.1-0.2c-0.5-0.1-1-1.2-0.7-1.7c0-0.1,0.2-0.1,0.2-0.1c0.3-0.6-0.8-0.9-0.2-1.6c0.2-0.3-0.2-1-0.3-1.6
			c0.6-0.2,0.7-0.4,0.1-1.2c-0.1-0.2-0.1-0.3,0-0.5c0.7-0.6,0.3-1.1,0-1.7c-0.1-0.1-0.2-0.3-0.1-0.4c0.4-0.8,0.4-0.8-0.2-1.5l0,0
			c0-0.1,0.1-0.3,0.1-0.3c0.2,0.1,0.4-1.2,0.4-1.6c-0.1-0.6-0.2-1.7-0.2-1.7c0.1-0.5,0.1-1.1,0.1-1.6c0-0.9,0-1.7-0.1-2.6
			c0-0.2-0.1-0.4-0.2-0.6l0,0c0.1-0.3,0.7-0.6-0.1-0.8c0,0,0-0.3,0-0.3c0.4-0.3,0.4-0.4,0.1-1c-0.1-0.1-0.1-0.2-0.1-0.2
			c0.9-0.8,0.2-7.1-0.1-8.3c-0.2-0.9,0.4-1.9-0.2-2.8c-0.1-0.1,0-0.3,0-0.5c0.2-0.7,0.2-1.5,0.1-2.2c-0.5-1.4,0.1-2.7,0-4.1
			s0.3-2.9,0.4-4.4s0-3-0.1-4.6c0-0.1,0.1-0.3,0.1-0.4l0,0l0.3,0.1c0-0.8,0.5-1.5,1.2-1.8l0,0l1.3-1.1l0,0c1.7-0.1,3.3-0.2,5-0.2
			c1.9-0.1,3.9-0.1,5.8,0.1c1.7,0.2,3.4,0.6,5.1,1c0.1,0,0.2,0.2,0.2,0.2l1.1,0.7c0.1,0.1,0.2,0.4,0.3,0.6s0.4,0.7,0.7,1.1l0,0l0,0
			l0,0l0.5-0.4c0,0.3-0.1,0.7-0.1,1c0,0.1,0.1,0.2,0.2,0.2c1.2,0.1,1.2,0.3,1.1,1.4c0,0.3,0.4,0.7,0.7,1c0.5,0,0.9,0,0.4,0.7
			c-0.2,0.2,0.3,0.8,0.2,1.2c-0.2,0.9,0.7,0.2,0.6,0.5s-0.3,0.9-0.4,1.4l0,0l0,0c0.9,0.2,1,0.5,0.6,1.3c-0.1,0.1,0.1,0.4,0.2,0.6
			l0,0l0,0v0.1l0,0c0.1,0.4,0.2,0.8,0.3,1.2l0,0c0.7,0.6,0.4,1.6,0.8,2.1c0.6,0.9,0,1.8,0.5,2.6c0.3,0.5-0.1,1.5-0.2,2.3
			c0,0.2,0,0.3,0,0.5c0.1,0.1,0.4,0.2,0.3,0.2c-0.1,0.7-0.2,1.5-0.1,2.2c0.3,0.6,0.3,1.3,0,1.9c-0.2,0.5,0,1.2,0.1,1.8
			c0,0.2-0.1,0.4-0.1,0.7c-0.1,0.8-0.1,1.7-0.1,2.5l0,0c0,0.3,0,0.7,0,1c-0.1,0.9,0.9,1.9,1,2l0,0l0,0l0,0l0,0l0,0l0.3,1.2l-0.2-0.2
			l0,0l0,0l0,0c-0.5,0.3-0.4,0.3-0.1,0.8c0,0-0.1,0.2-0.2,0.4l0,0c-0.1,0.2-0.1,0.5-0.2,0.7s-0.2,0.7-0.3,1l0,0l0,0l0,0
			c0.1,0.1,0.4,0.3,0.4,0.4s-0.2,0.3-0.4,0.4c0.6,0.6-0.3,0.9-0.2,1.3l0,0c-0.4,1.3-0.8,2.7-1.3,4c-0.1,0.3-0.4,0.4-0.7,0.7
			c-1.5,1.6-3,3.2-4.5,4.9C222.2,58.6,220.4,59.4,218.6,59.4L218.6,59.4z"/>
		<path class="st0" d="M230.8,41.8L230.8,41.8L230.8,41.8L230.8,41.8z"/>
		<path class="st0" d="M226.7,4.4L226.7,4.4L226.7,4.4z"/>
		<path class="st0" d="M189.2,1.7L189.2,1.7L189.2,1.7L189.2,1.7L189.2,1.7z"/>
		<path class="st0" d="M203.9,2.3L203.9,2.3l-0.2,0l0,0L203.9,2.3z"/>
		<path class="st0" d="M196.7,29.3L196.7,29.3l0.1,0.1L196.7,29.3L196.7,29.3z"/>
		<path class="st0" d="M196.6,23.8L196.6,23.8L196.6,23.8L196.6,23.8z"/>
		<path class="st0" d="M188.2,10.8L188.2,10.8L188.2,10.8z"/>
		<path class="st0" d="M186.4,8L186.4,8L186.4,8L186.4,8z"/>
		<path class="st0" d="M190.7,99.4L190.7,99.4L190.7,99.4L190.7,99.4z"/>
		<path class="st0" d="M190,99.9L190,99.9z"/>
		<path class="st0" d="M190,100L190,100L190,100z"/>
		<path class="st0" d="M186.6,4.8v0.1l0.1-0.1L186.6,4.8z"/>
		<path class="st0" d="M211,106.7L211,106.7L211,106.7L211,106.7z"/>
		<path class="st0" d="M218.4,2.4L218.4,2.4L218.4,2.4C218.4,2.4,218.4,2.4,218.4,2.4z"/>
		<path class="st0" d="M192.1,107.8L192.1,107.8L192.1,107.8L192.1,107.8z"/>
		<path class="st0" d="M194.9,107.8L194.9,107.8v0.2C194.9,107.9,194.9,107.8,194.9,107.8z"/>
		<path class="st0" d="M226.7,15.2L226.7,15.2L226.7,15.2L226.7,15.2z"/>
		<path class="st0" d="M226.9,15.1L226.9,15.1L226.9,15.1L226.9,15.1z"/>
		<path class="st0" d="M229.7,29.6L229.7,29.6L229.7,29.6C229.7,29.6,229.7,29.6,229.7,29.6z"/>
		<path class="st0" d="M229.7,29.6L229.7,29.6L229.7,29.6L229.7,29.6z"/>
		<path class="st0" d="M230.1,46.3L230.1,46.3L230.1,46.3L230.1,46.3L230.1,46.3L230.1,46.3z"/>
		<path class="st0" d="M229.8,47.7L229.8,47.7L229.8,47.7L229.8,47.7z"/>
		<path class="st0" d="M289.5,108.6L289.5,108.6L289.5,108.6z"/>
		<path class="st0" d="M307.1,2.4L307.1,2.4L307.1,2.4z"/>
		<path class="st0" d="M335.4,108.8L335.4,108.8L335.4,108.8z"/>
		<path class="st0" d="M291.9,27.8h-0.1H291.9z"/>
		<path class="st0" d="M291.5,45L291.5,45L291.5,45L291.5,45z"/>
		<path class="st0" d="M321.3,5.2L321.3,5.2L321.3,5.2z"/>
		<path class="st0" d="M332.5,97.3L332.5,97.3L332.5,97.3L332.5,97.3L332.5,97.3z"/>
		<path class="st0" d="M331.4,42.5L331.4,42.5L331.4,42.5L331.4,42.5z"/>
		<path class="st0" d="M321.5,16L321.5,16L321.5,16z"/>
		<path class="st0" d="M323.2,21.7L323.2,21.7z"/>
		<path class="st0" d="M282.9,102.9L282.9,102.9L282.9,102.9L282.9,102.9z"/>
		<path class="st0" d="M283.8,2.6l-0.2,0.1l0,0l-0.3-0.4c-0.1,0.1-0.2,0.3-0.2,0.4c-0.2,0.2-0.5,0.5-0.7,0.7c-0.1,0.1-0.3,0-0.4,0
			c-0.3,0.7-0.5,1.5-0.7,2.3l0,0l0,0l0,0l0,0l0,0l0.1,0.1l-0.1,0.2v0l0,0c-0.1,0.5-0.1,0.9-0.2,1.4s0,1.1,0,1.6l0,0l0.2,0.2
			c-0.8,0.9,0.3,1.2,0.6,1.8l0,0l0.9,0.9l0,0c0.1-0.1,0.2-0.4,0.3-0.4c0.8,0.1,1.6,0.2,2.4,0.3c1.1,0.3,2.3,0,3.1-0.8
			c0.1-0.1,0.3-0.1,0.5,0c0.3,0.2,0.6,0.4,0.9,0.6l0,0c0.1-0.1,0.2-0.2,0.2-0.2c0.4,0.4,0.7,0.8,0.8,1.4v-0.1
			c-0.1,0-0.2-0.1-0.2-0.1c-0.1,0.1-0.1,0.1-0.1,0.2c0,0.1,0.1,0.2,0.1,0.2c0.1,0,0.2,0,0.3-0.1c0.1,0.5,0.1,1,0,1.4H291l0,0.1l0,0
			l0,0c0,0.4,0.1,0.8,0.1,1.3l0,0l-0.1,0.3c0,0-0.1-0.1-0.1,0s-0.1,0.1-0.1,0.1c0.2,0.6,0.5,1.1,0.6,1.7c0.1,0.5-0.9,0.9-0.1,1.5
			c0,0-0.1,0.1-0.1,0.2c-0.1,0.2-0.1,0.3-0.1,0.5c0.2,1.2,0.4,2.3,0.5,3.5l-0.4,0.1c0.2,0.5,0.4,0.9,0.5,1.4h-0.5l0,0
			c0,0.5,0.1,1,0.2,1.4c0.2,0.5-0.5,1.2,0.4,1.6l0,0c-0.9,0.7-0.5,1.4-0.2,2.2c0.1,0.1,0.1,0.3,0.1,0.4l-0.2,0.1l-0.1-0.1l0.1,0.1
			l0,0v0.8c0,0,0,0,0-0.1v-0.2c-0.1,0.1-0.2,0.1-0.2,0.2c-0.1,0.7,0.2,2.9-0.1,3.2l0,0l0,0l0,0l0,0c0.1,0.3,0.2,0.7,0.2,1
			c0.1,0.8,0.2,1.6,0.3,2.4c0,0.8-0.2,1.6-0.3,2.4c0,0.1,0.2,0.2,0.3,0.3c-0.1,0.3-0.2,0.7-0.2,1c0,1,0.1,2,0.1,3
			c0,0.1-0.1,0.3-0.2,0.4l0,0l0,0c0.1,0,0.4,0.1,0.4,0.1c0,1.5-0.4,2.9-0.2,4.4c0,1.6-0.1,3.1-0.2,4.7c-0.1,4.2-0.1,8.3-0.1,12.5
			c0,2,0.2,4.1,0.1,6.1c0,0.9,0.4,1.9-0.2,2.9c0,0,0.1,0.2,0.2,0.2l0,0c0.1,0.8,0.1,1.6,0.1,2.4c0.1,0.9-0.5,2,0.3,2.8
			c-0.8,0.2-0.5,0.8-0.5,1.3v2.1c0.5-0.6,0.5,0.2,0.4,0.4c-0.6,0.6-0.2,1.2-0.4,1.8c-0.1,0.2-0.4,0.5-0.4,0.7c0.2,1,0.2,2,0.2,3.1
			c-0.3,1.3,0.1,2.7-0.4,4c-0.2,1-0.3,2.1-0.2,3.2h0l0,0c-0.1,0.6-0.7,1.3,0.2,1.9c0.2,0.1,0.1,0.6,0.1,0.9c0,0.1-0.1,0.2-0.1,0.3
			l-0.3-0.3l0,0h-0.1l0,0c-0.2,0-0.4,0.2-0.5,0.1c-1.4-0.5-2.9-0.5-4.2,0c-0.1,0-0.2-0.1-0.3-0.1l0,0c-0.2,0.2-0.3,0.4-0.5,0.6
			c-0.1,0-0.2-0.1-0.2-0.1l0,0l-0.5,0.2l0.2,0.4l0,0c-0.1,0.1-0.2,0.2-0.2,0.2c-0.6-0.5-0.6,0.2-0.9,0.5c-0.1,0.2-0.3,0.3-0.5,0.4
			h0.9l-0.6,0.4c0.2,0.6-0.7,1.1-0.1,1.8c-0.1,0.1-0.1,0.1-0.2,0.2c-0.1,0.1-0.2,0.2-0.2,0.3c0.3,0.4,0.7,0.7,1,1.2s0.6,1,0.9,1.5
			c0,0.1,0.2,0.2,0.2,0.2c0.7-0.4,0.8,0.3,1.1,0.6c0,0,0.2-0.1,0.3-0.2l0,0l0.7,0.3l0,0c0.9-0.3,1.9,0.7,2.7-0.1l0.1,0.1
			c0.9,0,1.4-0.7,2.1-1.2s1.2-0.7,1.8-1.1c0.1,0,0.2,0,0.3,0c0,0.1,0.1,0.3,0,0.3c-0.3,0.4-0.5,0.7,0.3,0.6c0.1,0,0.2,0,0.2,0
			c0.6,0.6,1.3,1,2.1,1.3c0.5,0.2,0.9-0.2,1.3,0c0.9,0.4,2-0.4,2.9,0.4c0.4,0.4,0.7-0.5,0.9-0.3c0.6,0.7,1.4,0,1.9,0.4
			c0.2,0.1,0.4,0,0.5-0.1c0.5-0.5,1-1,1.5-1.5c0,0,0.2,0,0.3,0c0.2-0.8,0.3-1.6,0.5-2.4c0.4-1.5-0.5-3.1-1.9-3.6
			c-0.6-0.2-1.2,0.1-1.7,0c-1.4-0.4-2.4,0.4-3.4,1.1c-0.3,0.1-0.6,0.1-0.9,0c-0.1,0-0.1-0.4-0.2-0.6l0,0V102h0
			c-0.2-0.3-0.6-0.6-0.6-0.9c0-1.3-0.9-2.5-0.3-3.9c0.1-0.8,0.1-1.6-0.1-2.3c-0.1-1.2-0.2-2.4-0.2-3.6c0.1-0.8,0.2-1.6,0.4-2.4l0,0
			c0-0.1,0-0.1,0-0.2c-0.2-1-0.1-2.1,0.3-3.1c0.1-0.2,0.1-0.4,0.1-0.7l-0.2,0.1l-0.3,0.1c0-0.1-0.2-0.3-0.1-0.3
			c0.5-0.8,0.5-1.7,0.2-2.6c0-0.1,0-0.2,0-0.2c0.3-0.4,0.4-0.3,0.3-0.7c-0.1-0.4-0.1-0.9-0.2-1.3c0.1-1.8,0.2-3.5,0.3-5.3
			c0-0.6,0-1.3,0-1.9c0-0.6,0-1.3-0.1-1.9c-0.1-0.5,0.6-0.7,0.2-1.3s0-1.7,0-2.5h0.2c0.1,0.3,2.8,0.1,2.8,0.1
			c0.2-0.1,3.9-0.4,4.7,0.2c0.2,0.1,0.5,0.2,0.7,0.1c0.9-0.3,1.7-0.6,2.4,0.2c0,0,0.1,0,0.2,0c0.5,0,0.9,0.3,1.2,0.7
			c0.1,0.1,0.4,0.1,0.6,0.2c0.1-0.9,0.6-0.2,0.9-0.2s0.7,0.2,1.1,0.2c0.5,0,1.1,0,1.6-0.1c1.2-0.2,2.3-0.6,3.5-0.9
			c0,0.1,0.1,0.4,0.2,0.7s0.7,0.9,0.6,1.3c-0.2,0.7,0.2,1,0.6,1.3c0.1,0.1,0.1,0.3,0.2,0.5c-1,0.2,0.2,0.5,0,0.7
			c0.5,0.4-0.1,1.3,0.7,1.5c0,0,0,0.1,0,0.1c-0.7,0.4,0,0.9,0,1.3c0.1,0.8,0.2,1.7,0.4,2.5c0.1-0.2,0.1-0.4,0.2-0.6
			c0.2,0.5,0.5,1.2,0.4,1.3c-0.6,0.4-0.2,0.9,0,1.2c0.3,0.7,0.8,1.4,1.1,2.1s0.7,1.3,0.6,1.8c-0.1,0.7-0.2,1.2,0.5,1.6
			c0,0,0,0.1,0,0.2c-0.7,0.5,0.1,0.8,0.2,1.2c0.1,0.7-0.2,1.6,0.7,2.1c0,0,0,0.2,0,0.3c-0.5,0.7,0,1.1,0.4,1.6
			c0.1,0.2,0.1,0.4,0.1,0.7l0,0v0.1l0,0l0,0c0.1,1.1,0.4,2.1,0.9,3c0.1,0.3,0.2,0.7,0.2,1.1l0,0l-0.1,0.3l0,0h0.4
			c0.1,0.3,0.2,0.6,0.3,0.9c0,0.1,0,0.1,0,0.2c0,0.3-0.2,0.6-0.1,0.8c0.2,0.6,0.5,1.2,0.8,1.7c0,0.1,0.1,0.2,0.2,0.3
			c0.5,1.1,1,2.2,1.4,3.3c0,0.1-0.1,0.2-0.1,0.4l-0.2-0.4l-0.2,0.1l0.4,0.6l0,0l0.5,0.8l0,0c0.1,0.2,0.3,0.3,0.5,0.5
			c0.3,0.2,0.7,0.4,1,0.7l0,0c0.6,0.4,1.1,0.8,1.6,1.3c0.5,0.5,1.1,0.9,1.8,1c0.3,0.1,0.5,0.4,0.8,0.7l0,0l1.1,0.4l0,0
			c0.1,0.1,0.2,0.2,0.2,0.2c0.6,0,1.3-0.2,1.8,0.1s0.6,0.6,0.9,0c0.5,0.4,0.4-0.4,0.6-0.4c1.1,0.2,1.4-0.6,1.8-1.4
			c0.2-0.9,0.3-1.8,0.2-2.7l0,0l0,0l0.3-0.3l-0.3-0.1l0,0l0,0c-0.1-0.2-0.2-0.4-0.4-0.6c-0.5-1.1-0.5-2.4-2-3
			c-0.5-0.3-1-0.4-1.6-0.3c-0.7,0.2-1.5,0.3-2.3,0.3c-0.6-0.1-0.8,0.2-1,0.6c-0.2-0.6-0.4-1.2-0.6-1.8c0-0.5-0.1-1-0.2-1.5
			c-0.1-0.2-0.7-0.2-0.3-0.7l0,0l0,0l0,0l-0.2-0.5l0,0l0,0l0,0l0,0c-0.8,0,0-0.7-0.4-0.8l0,0h0.1l-0.1-0.1l0,0l0,0
			c-0.2-0.3-0.5-0.7-0.7-1.1c-0.1-0.2-0.2-0.5-0.2-0.7c0.1-0.4-0.7-0.7-0.1-1.1l0,0l-0.7-0.8l0,0l0.2,0.1V92l-0.2,0.1
			c-0.1-0.6-0.2-1.3-0.4-1.9c-0.3-1.1-0.6-2.1-0.9-3.2c0-0.2,0-0.4,0-0.6l0,0l0,0c-0.1-0.2-0.4-0.5-0.4-0.7c0.1-0.4,0.1-0.6-0.3-0.9
			c-0.2-0.1-0.1-0.7-0.3-1s-0.6-0.6,0.2-0.6c-0.1-0.1-0.1-0.2-0.2-0.3c-0.2-0.5-0.9-0.7-0.6-1.4l0,0v-0.2h-0.1l0,0.2
			c-0.1-0.1-0.4-0.2-0.4-0.4c-0.2-0.9-0.4-1.7-0.7-2.6c-0.5-1.4-0.8-2.8-1.1-4.3l0,0c-0.1-0.1-0.2-0.3-0.3-0.4c-0.6-2-1.3-4-1.9-6
			c-0.5-1.5-0.9-3.1-1.2-4.6c0-0.2,0-0.4,0.2-0.6c0.5-0.5,1.3-0.6,1.2-1.5c0,0,0.2-0.1,0.2-0.1c0.8,0.6,0.5-0.2,0.6-0.5
			c0.5-0.3,1.1-0.5,1.5-1.1c0.5-0.8,1-1.5,1.6-2.2l0,0l0,0l0,0l1-1.2c0.2-0.1,0.8,0.1,0.5-0.5c-0.2-0.4-0.1-0.5,0.2-0.8
			s-0.3-1.1,0.6-1.1c-0.3-0.8,0.5-1.5,0.4-2.3c0-0.2,0.1-0.5,0.2-0.6c0.5-0.4,0.1-0.6,0-0.8c0.2-0.3,0.5-0.6,0.5-0.9
			s-0.3-0.6-0.4-0.9c0-0.2-0.1-0.5,0-0.7c0.8,0,0.5-0.6,0.5-0.9c0-0.6-0.2-1.2,0.6-1.5c0.1,0,0-0.5,0.1-0.7c0.2-0.5-0.4-1.2,0.3-1.7
			l0,0l0,0l0,0c-0.5-0.3-0.3-2-0.3-2.3c0-0.4,0.2-0.8,0.3-1.3c0.1-0.9-0.2-1.8-0.1-2.7c0.2-1.2,0.3-2.4,0.2-3.6
			c-0.1-1.5-0.1-2.9,0.1-4.4c0-1.9,0-3.8-0.1-5.7c0-0.5-1.3-3.4-1.5-4s-0.2-1.4-0.3-2c-0.2-0.9-0.5-1.8-0.8-2.6
			c-0.5-1.7-3.9-6.1-5.1-6.6c-0.3-0.2-1.1-1.2-1.2-1.1c-1-0.4-1.9-0.9-2.8-1.5c-0.1-0.1-1.1-0.5-1.2-0.5c-0.5-0.3-1-0.5-1.5-0.7
			c-1.3-0.1-2.6-0.1-3.9-0.1l0,0c-0.5-0.3-1.1-0.4-1.7-0.5c-1.4,0.1-2.7-0.9-4.1-0.1c-0.1-0.1-0.1-0.2-0.2-0.2c-1,0.1-2,0.1-2.9,0.2
			c-0.9,0-1.7,0.1-2.5,0.4c-0.5,0.3-0.7,0.5-0.9-0.3c-0.4,0.3-0.3,1.1-1.1,0.7c-0.5-0.2-1-0.3-1.5-0.3L294.8,6l0,0l-0.5,0.8
			c-0.1,0.1-0.2,0.2-0.3,0.3s-0.3,0.3-0.5,0.4c-0.1-0.2-0.2-0.3-0.3-0.5c-0.3-0.8-0.9-3.8-1.9-3.1c-0.1,0-0.2-0.1-0.4-0.2
			c-0.6-0.3-1.2-0.6-1.8-0.9c-0.2-0.1-4.4-0.2-5-0.3l0,0l0,0l0,0 M328,55.7c0,0,0,0.1,0,0.1V55.7L328,55.7z M291.8,24.7L291.8,24.7
			L291.8,24.7L291.8,24.7z M284.3,101.4v-0.1h0.1C284.3,101.3,284.3,101.3,284.3,101.4z M291.8,30.4L291.8,30.4L291.8,30.4
			L291.8,30.4z M291.8,40.6L291.8,40.6L291.8,40.6C291.9,40.5,291.8,40.6,291.8,40.6L291.8,40.6z M294.9,6.1L294.9,6.1
			C294.9,6.1,294.9,6.1,294.9,6.1L294.9,6.1z M305.2,66.7C305.2,66.7,305.2,66.7,305.2,66.7C305.3,66.7,305.2,66.7,305.2,66.7
			L305.2,66.7z M318.1,58.1c-1.2,1.4-3,2.2-4.9,2.2c-1.2,0.1-2.4,0.3-3.5,0.4h-0.1c-1.3-0.1-2.6-0.2-3.9-0.3c-1,0-2.1,0.1-3.2,0.1
			c-0.5,0-1,0-1.4-0.1c-0.7-0.2-1.4-0.2-2.1-0.2c-0.5-0.1-1-1.2-0.7-1.7c0-0.1,0.2-0.1,0.2-0.1c0.3-0.6-0.8-0.9-0.2-1.6
			c0.2-0.3-0.2-1-0.3-1.6c0.6-0.2,0.7-0.4,0.1-1.2c-0.1-0.1-0.1-0.4,0-0.5c0.7-0.6,0.3-1.1,0-1.7c0-0.1-0.1-0.3-0.1-0.4
			c0.3-0.8,0.4-0.8-0.2-1.5l0,0c0-0.1,0.1-0.2,0.1-0.3c0.2,0.1,0.4-1.2,0.4-1.6c-0.1-0.6-0.2-1.7-0.2-1.7c0.1-0.5,0.1-1.1,0.1-1.6
			c0-0.9,0-1.7-0.1-2.6c0-0.2-0.1-0.4-0.2-0.6l0,0c0.1-0.3,0.7-0.6-0.1-0.8c0,0,0-0.3,0-0.3c0.4-0.3,0.4-0.4,0.1-1
			c-0.1-0.1-0.1-0.2-0.2-0.2c0.9-0.8,0.2-7.1-0.1-8.3c-0.2-0.9,0.4-1.9-0.2-2.8c-0.1-0.1,0-0.3,0-0.5c0.2-0.7,0.2-1.5,0.1-2.2
			c-0.5-1.4,0.1-2.7,0-4.1s0.3-2.9,0.4-4.4s0-3-0.1-4.6c0-0.1,0.1-0.3,0.1-0.4h-0.1l0,0l0.3,0.1c0-0.8,0.4-1.5,1.1-1.8l0,0l0,0l0,0
			c0.4-0.4,0.9-0.7,1.3-1.1l0,0c1.7-0.1,3.3-0.2,5-0.2c1.9-0.1,3.9-0.1,5.8,0.1c1.7,0.2,3.4,0.6,5.1,1c0.1,0,0.1,0.1,0.2,0.2
			l1.1,0.7c0.1,0.2,0.2,0.4,0.3,0.6c0.2,0.4,0.4,0.7,0.6,1.1l0,0l0,0l0.5-0.4c0,0.3-0.1,0.7-0.1,1c0,0.1,0.1,0.2,0.2,0.2
			c1.2,0.1,1.2,0.3,1.1,1.4c0,0.3,0.4,0.7,0.7,1.1c0.5,0,0.9,0,0.4,0.7c-0.2,0.2,0.3,0.8,0.2,1.2c-0.1,0.9,0.7,0.2,0.5,0.5l-0.4,1.4
			l0,0l0,0v0c0.9,0.2,1,0.5,0.6,1.2c-0.1,0.1,0.1,0.4,0.2,0.6l0,0l0,0l0,0c0.1,0.4,0.2,0.8,0.2,1.2l0,0c0.7,0.6,0.4,1.6,0.7,2.1
			c0.6,0.9,0,1.8,0.5,2.6c0.3,0.5-0.1,1.5-0.2,2.3c0,0.2,0,0.4,0,0.5s0.4,0.2,0.4,0.2c-0.2,0.7-0.2,1.5-0.1,2.2
			c0.3,0.6,0.3,1.3,0,1.9c-0.2,0.5,0,1.2,0.1,1.8c0,0.2-0.1,0.5-0.1,0.7c-0.1,0.8-0.1,1.7-0.1,2.5l0,0c0,0.3,0,0.6,0,0.9
			c-0.1,0.9,1,2,1,2l0,0l0,0l0,0l0.3,1.2l-0.2-0.2l0,0l0,0c-0.5,0.3-0.5,0.3-0.1,0.8c0,0-0.1,0.2-0.2,0.4l0,0
			c-0.1,0.2-0.2,0.5-0.2,0.7l-0.3,1l0,0l0,0l0,0c0.1,0.1,0.4,0.3,0.4,0.4s-0.2,0.3-0.4,0.4c0.6,0.5-0.3,0.9-0.2,1.3l0,0
			c-0.4,1.3-0.8,2.7-1.3,4c-0.1,0.3-0.5,0.4-0.7,0.7C321,54.8,319.5,56.4,318.1,58.1z M333.5,101.2L333.5,101.2l0.1,0L333.5,101.2z"
			/>
		<path class="st0" d="M321.3,5.2L321.3,5.2L321.3,5.2L321.3,5.2z"/>
		<path class="st0" d="M283.8,2.6L283.8,2.6L283.8,2.6L283.8,2.6L283.8,2.6z"/>
		<path class="st0" d="M298.5,3.2L298.5,3.2l-0.2,0l0,0L298.5,3.2z"/>
		<path class="st0" d="M330.2,105.6L330.2,105.6l-0.1-0.2l0,0L330.2,105.6z"/>
		<path class="st0" d="M291.4,30.2L291.4,30.2L291.4,30.2l0.1,0.1L291.4,30.2L291.4,30.2z"/>
		<path class="st0" d="M291.3,24.7L291.3,24.7L291.3,24.7C291.3,24.7,291.3,24.7,291.3,24.7z"/>
		<path class="st0" d="M325,74.2L325,74.2L325,74.2L325,74.2z"/>
		<path class="st0" d="M328.8,86.2L328.8,86.2L328.8,86.2L328.8,86.2z"/>
		<path class="st0" d="M282.9,11.6L282.9,11.6L282.9,11.6z"/>
		<polygon class="st0" points="330.9,92.8 330.9,92.8 330.9,92.8 		"/>
		<path class="st0" d="M325.5,95.2L325.5,95.2L325.5,95.2L325.5,95.2z"/>
		<polygon class="st0" points="325.5,95.6 325.4,95.6 325.4,95.6 		"/>
		<path class="st0" d="M281,8.9L281,8.9L281,8.9L281,8.9z"/>
		<path class="st0" d="M285.3,100.3L285.3,100.3L285.3,100.3L285.3,100.3z"/>
		<path class="st0" d="M284.6,100.8L284.6,100.8L284.6,100.8z"/>
		<path class="st0" d="M284.6,100.8L284.6,100.8L284.6,100.8z"/>
		<path class="st0" d="M281.2,5.7v0.1l0.1-0.1L281.2,5.7z"/>
		<path class="st0" d="M305.7,107.6L305.7,107.6L305.7,107.6L305.7,107.6z"/>
		<path class="st0" d="M313.1,3.3L313.1,3.3L313.1,3.3C313.1,3.3,313.1,3.3,313.1,3.3z"/>
		<path class="st0" d="M286.7,108.7L286.7,108.7C286.7,108.6,286.7,108.7,286.7,108.7z"/>
		<path class="st0" d="M289.5,108.7L289.5,108.7v0.2V108.7z"/>
		<path class="st0" d="M321.4,16.1L321.4,16.1L321.4,16.1L321.4,16.1z"/>
		<path class="st0" d="M321.5,16L321.5,16L321.5,16L321.5,16z"/>
		<path class="st0" d="M324.4,30.5L324.4,30.5L324.4,30.5C324.4,30.5,324.3,30.5,324.4,30.5z"/>
		<path class="st0" d="M324.3,30.5L324.3,30.5L324.3,30.5L324.3,30.5z"/>
		<path class="st0" d="M324.7,47.2L324.7,47.2L324.7,47.2z"/>
		<path class="st0" d="M324.4,48.5L324.4,48.5L324.4,48.5L324.4,48.5z"/>
	</g>
</g>
</svg>
