<svg id="Layer_1" data-name="Layer 1" xmlns="http://www.w3.org/2000/svg" viewBox="0 0 185 138"><defs><style>.cls-1{fill:#69c;}</style></defs><title>Artboard 3</title><path class="cls-1" d="M126.93,25.87a3.93,3.93,0,0,1,.29,1.86,7.16,7.16,0,0,0,.49,2.8,14.83,14.83,0,0,1,.63,3.29,2.36,2.36,0,0,1-.33,1.46.64.64,0,0,1-.37.3,11.17,11.17,0,0,1-2.15.4,2.55,2.55,0,0,0-.82.12c-.12,0-.2.24-.29.37a.2.2,0,0,0,0,.17,12.2,12.2,0,0,1,.22,2.83,7.61,7.61,0,0,0,.25,1.49.63.63,0,0,0,.5.39,9.07,9.07,0,0,0,1.83-.25,2.28,2.28,0,0,1,1.89.42.61.61,0,0,1,.21.26,9.72,9.72,0,0,1,1,3c.12,1.11.45,2.19.66,3.3.19.93.35,1.87.51,2.81l.51,3.16c.3,1.88.61,3.77.89,5.66.22,1.44.35,2.9.65,4.33a16.24,16.24,0,0,1,.41,2.48c.07,1.58.28,3.13.35,4.71a7.47,7.47,0,0,0,.48,2.64,1.85,1.85,0,0,1,0,1.31c-.12.42-.43.76-.83.69a1.71,1.71,0,0,0-1.4.39,1.47,1.47,0,0,1-.45.23,1.29,1.29,0,0,0-1,1.64c.07.45.07.9.18,1.33a20.47,20.47,0,0,1,.56,3.49c0,1,.24,1.89.36,2.83a.67.67,0,0,1-.43.65l-.16.06a1.09,1.09,0,0,0-.32.1,4.78,4.78,0,0,1-.84.54,8.3,8.3,0,0,1-1.32.24,18.29,18.29,0,0,0-4.7,1.22l-.15.06c-.77.19-1.52.41-2.29.55s-1.39.74-2.21.79a.49.49,0,0,0-.44.44c-.14.66-.26,1.32-.39,2a7.86,7.86,0,0,1-.17,1,4.24,4.24,0,0,0-.19,1.5,4,4,0,0,1-.47,2.11,7.71,7.71,0,0,0-.89,2.53.84.84,0,0,1-.5.64,3,3,0,0,1-1.07.45,3.87,3.87,0,0,0-1.42.49,27.17,27.17,0,0,0-5.3,3.24c-.93.71-1.78,1.54-2.77,2.18a8.19,8.19,0,0,0-1.1,1,11,11,0,0,1-2.11,1.66,3.54,3.54,0,0,0-.66.51,22,22,0,0,1-4.39,3.09A10.63,10.63,0,0,0,96.25,114c-1,.82-2,1.62-3,2.4a3,3,0,0,0-1,1.13,46.92,46.92,0,0,0-2.12,5,5.16,5.16,0,0,0-.12,3.47,2.25,2.25,0,0,1,.09.82.82.82,0,0,1-1.2.73,6.35,6.35,0,0,1-1-.67,1,1,0,0,1-.37-.73,16,16,0,0,1,0-3.53,9,9,0,0,1,.48-1.78c.62-1.63,1.33-3.22,2.09-4.79a2.5,2.5,0,0,1,.87-1,24,24,0,0,0,3-2.4,7.27,7.27,0,0,1,1-.7c1.23-.78,2.48-1.54,3.71-2.31a6.63,6.63,0,0,0,.69-.49,36.18,36.18,0,0,0,3.93-3.18,5.52,5.52,0,0,1,.66-.51,26.34,26.34,0,0,0,2.11-1.68,36.37,36.37,0,0,1,4.61-3.38,13.2,13.2,0,0,1,1.51-.74c.66-.32,1.32-.64,2-1a2.67,2.67,0,0,0,1.1-1.22,12,12,0,0,0,1.32-4.49c.1-1,.38-2,.57-3,0-.05,0-.14,0-.15a.45.45,0,0,0-.28,0,.67.67,0,0,0-.28.19,7.74,7.74,0,0,0-.93,1A3.88,3.88,0,0,1,114.37,92a14.61,14.61,0,0,1-2.91,1.3,28.32,28.32,0,0,0-3,1.11,6.84,6.84,0,0,1-5.09,0,3.36,3.36,0,0,1-.6-.3,1.08,1.08,0,0,1-.49-.65,3.77,3.77,0,0,1-.21-1.15c0-.56,0-1.13,0-1.69.19-2.29.32-4.59.67-6.87.13-.89.11-1.79.17-2.69,0-.67.07-1.35.15-2a1.21,1.21,0,0,0-.53-1.31,5.3,5.3,0,0,1-1.65-1.65,3.15,3.15,0,0,0-.4-.54,37.23,37.23,0,0,1-3-3.62,2.17,2.17,0,0,0-1.91-.84c-.22,0-.44.09-.66.11-.84.09-1.68.16-2.51.22s-1.8.13-2.69.21a.32.32,0,0,0-.2.21.39.39,0,0,0,.11.29,11.7,11.7,0,0,0,4.46,2.61,2.1,2.1,0,0,0,1.31.11,1.57,1.57,0,0,1,1.14.18,1.6,1.6,0,0,1,1.09,1.39,8.39,8.39,0,0,0,.94,3.17c-.08.13-.12.27-.2.31a1.66,1.66,0,0,0-.9,1.51,26.6,26.6,0,0,1-.5,3.32,7.78,7.78,0,0,0,.09,2.68,4.55,4.55,0,0,0,.28.78c.08.21.19.41.27.62a.79.79,0,0,1-.74,1.07,11.42,11.42,0,0,1-1.17,0,5,5,0,0,0-2.58.65A24.08,24.08,0,0,0,90.68,92a8.17,8.17,0,0,0-2.22,2.28,3.07,3.07,0,0,1-.41.54,17,17,0,0,0-3.18,6.07,7.23,7.23,0,0,0-.39,2.65,3.05,3.05,0,0,1-.07.67.78.78,0,0,1-.74.56,2,2,0,0,1-1.37-.57,1.19,1.19,0,0,1-.43-.88,2.33,2.33,0,0,0-.08-1.24l-.54-.22a4.93,4.93,0,0,1-1.86-1.12.67.67,0,0,0-.76-.2,3,3,0,0,0-.29,1.29c0,.62,0,1.23-.06,1.85a5.65,5.65,0,0,1-.46,2.29c-.12.26-.22.52-.33.78a4.33,4.33,0,0,0-.39,1.63,8.7,8.7,0,0,1-1,3.69c-.6,1.27-1.26,2.51-1.78,3.81a19.32,19.32,0,0,0-.69,2.07,1.22,1.22,0,0,1-1.33.76,2,2,0,0,1-1-.54.83.83,0,0,1-.14-.93,32.81,32.81,0,0,0,1.7-3.28c.33-.58.6-1.2.88-1.82a.61.61,0,0,0-.25-.87,9.75,9.75,0,0,1-2.09-1.39,12.08,12.08,0,0,0-1.56-1,10.76,10.76,0,0,1-4.63-5.18c-.25-.56-.46-1.15-.67-1.73a3.63,3.63,0,0,1-.16-.65.8.8,0,0,1,.36-.87c.38-.23.78-.44,1.18-.67a1.46,1.46,0,0,0-.09-.51c-.46-.83-.93-1.66-1.43-2.48a3,3,0,0,1-.43-1.6,6.47,6.47,0,0,1,.38-2.14,1.11,1.11,0,0,1,1-.77,2.77,2.77,0,0,1,.5,0c.34.06.67.12,1,.2a6.94,6.94,0,0,0,2.65.18,5.28,5.28,0,0,1,2,.12,19.33,19.33,0,0,0,2.16.29c.38,0,.62-.19.57-.61a9.9,9.9,0,0,1,.18-3.68,8,8,0,0,1,1.44-4.25c.56-1,1.25-2,1.91-3a4.75,4.75,0,0,1,.87-1c1.19-1,2-2.34,3.25-3.18l.27-.2a18.88,18.88,0,0,1,2.68-2,.33.33,0,0,0,0-.44,5.45,5.45,0,0,0-.46-.5.36.36,0,0,0-.45,0,2.1,2.1,0,0,0-.3.15c-1.27.92-2.53,1.86-3.81,2.78a7,7,0,0,0-1.21,1.16c-.33.38-.65.78-1,1.13a7,7,0,0,0-1.37,1.69,1.37,1.37,0,0,1-1.64.45c-.33-.2-.71-.34-.88-.74a.63.63,0,0,1,0-.63c1.5-1.44,2.79-3.08,4.4-4.4.48-.39,1-.78,1.46-1.14,1-.7,2-1.39,3.07-2.07a6.21,6.21,0,0,0,1.24-1.17,5.23,5.23,0,0,0-.21-1.79c-.36-1.59-.56-3.21-.82-4.82-.06-.33-.11-.66-.19-1-.17-.71-.35-1.41-.55-2.11a2.11,2.11,0,0,0-.3-.6c0-.05-.2-.06-.28,0a.66.66,0,0,0-.24.23c-.23.32-.45.65-.67,1a14.62,14.62,0,0,1-2.71,3.21c-.35.28-.65.62-1,.93a7.23,7.23,0,0,0-1.5,1.8,1.29,1.29,0,0,1-1.6.6.92.92,0,0,1-.54-.38c-.12-.19-.22-.39-.33-.58a.85.85,0,0,1,.11-1,5.29,5.29,0,0,1,.66-.76c1-.93,2-1.86,2.94-2.77a7.66,7.66,0,0,0,1.49-1.82A48.33,48.33,0,0,0,80.92,56a6.92,6.92,0,0,0,.49-1.78c.16-1.45.31-2.9.47-4.35a8.07,8.07,0,0,0-.41-3.65,5.37,5.37,0,0,0-.57-1.57.3.3,0,0,0-.26-.07,1.88,1.88,0,0,0-.43.51,19.22,19.22,0,0,1-2.52,3.37c-.58.68-1.34,1.19-1.92,1.88a1,1,0,0,1-1.36-.1,4.69,4.69,0,0,1-.49-.68.68.68,0,0,1,.25-1,7.12,7.12,0,0,0,2-1.84,19.58,19.58,0,0,0,1.8-2.43,9.88,9.88,0,0,0,1-2.31,10.47,10.47,0,0,1,.85-2.37A5.59,5.59,0,0,0,80.42,37a.63.63,0,0,1,.47-.63,6.5,6.5,0,0,1,2-.49,2.8,2.8,0,0,0,1.28-.38q.76-.34,1.5-.75a6.09,6.09,0,0,0,.83-.57c.18-.14.32-.32.49-.46a8.74,8.74,0,0,0,2.44-3.77.33.33,0,0,0,0-.28.38.38,0,0,0-.31-.08,2,2,0,0,0-.47.16L87,30.4a20.2,20.2,0,0,1-5.34,1.49l-1,.14c-.39,0-.77.14-1.16.16a6.76,6.76,0,0,1-.94-.06,1.26,1.26,0,0,0-.52.71c-.51,1.19-1,2.38-1.55,3.55a16.11,16.11,0,0,1-2.08,3.26c-.85,1-1.74,2.06-2.62,3.08-.7.81-1.39,1.62-2.11,2.4s-1.63,1.71-2.52,2.64a15.21,15.21,0,0,0-.39,1.52,27.78,27.78,0,0,1-1.14,4.23c-.65,1.91-1.18,3.87-2,5.73-.29.67-.54,1.35-.85,2s-.72,1.4-1.12,2.07c-1.12,1.89-2.26,3.76-3.38,5.63-.26.44-.5.88-.79,1.3a4.76,4.76,0,0,0-.76,1.65l-.48.24a.89.89,0,0,1-1-.16,3.63,3.63,0,0,1-.66-.75.56.56,0,0,1,0-.63,7.19,7.19,0,0,1,.87-1.43,9,9,0,0,0,1-1.37C57.66,65.9,58.83,64,60,62.07a10,10,0,0,0,.7-1.34c.64-1.5,1.32-3,1.87-4.51.87-2.44,1.62-4.91,2.28-7.41a2.44,2.44,0,0,0,0-1.49.69.69,0,0,1,.38-.85,10,10,0,0,0,2.49-2.24q2.1-2.41,4.21-4.82A21.27,21.27,0,0,0,75.35,34c.44-1,.81-2,1.21-3,.18-.42.36-.83.56-1.23.4-.79.63-.71,1.14-.29a1.6,1.6,0,0,0,1.28.3A36.94,36.94,0,0,0,83.83,29a3.75,3.75,0,0,0,.63-.25,2.05,2.05,0,0,0,1-.85,1.61,1.61,0,0,1,.58-.58c.87-.61,1.74-1.23,2.59-1.88a6.56,6.56,0,0,0,1-.95,23.12,23.12,0,0,1,3.69-3.44c1-.75,2-1.52,2.89-2.32,1.23-1.07,2.43-2.17,3.62-3.28a17.34,17.34,0,0,0,2.38-2.39.79.79,0,0,1,.91-.24,3.46,3.46,0,0,1,1.06.51A11.3,11.3,0,0,0,107.23,15a2.25,2.25,0,0,1,.6.3,26.9,26.9,0,0,0,3.24,1.79c.54.29,1.07.61,1.59.94a24.52,24.52,0,0,0,3.12,1.66,53.62,53.62,0,0,1,5.82,3c1.19.73,2.46,1.33,3.66,2.06A18.25,18.25,0,0,1,126.93,25.87Zm-8.12,59.48a1,1,0,0,0,.18.28,1.5,1.5,0,0,1,.73,1.41.53.53,0,0,0,0,.17.56.56,0,0,0,.49.38,5.69,5.69,0,0,0,2.27-.62,8.83,8.83,0,0,1,2.38-.77,10,10,0,0,0,2.4-.76,3.13,3.13,0,0,1,.81-.22c.38-.07.77-.11,1.16-.17a.6.6,0,0,0,.43-.46,7.71,7.71,0,0,0,0-2.35c-.18-1.33-.48-2.65-.79-4a4.22,4.22,0,0,0-.68-1.69.55.55,0,0,1,.32-.81c.43-.16.85-.31,1.28-.44a13.93,13.93,0,0,0,2.3-1,.66.66,0,0,0,.36-.7,2.56,2.56,0,0,0-.08-.67,8.78,8.78,0,0,1-.24-2.16c-.09-1.57-.2-3.14-.3-4.71a4,4,0,0,0-.11-.84,26,26,0,0,1-.79-4.47c-.18-1.45-.52-2.87-.56-4.34a3.07,3.07,0,0,0-.08-.67c-.37-1.93-.7-3.86-.9-5.82a7.48,7.48,0,0,0-.18-.82c-.36-1.59-.85-3.14-1.17-4.74-.18-.87-.52-1.22-1.58-.8a9.89,9.89,0,0,1-1.6.5,1.65,1.65,0,0,1-1.94-1.6,3.82,3.82,0,0,0,0-1.17,11.46,11.46,0,0,1-.31-2.67,9.54,9.54,0,0,0-.44-2.81,1.93,1.93,0,0,1,.08-1.32.6.6,0,0,1,.51-.39.92.92,0,0,1,.49,0,4.52,4.52,0,0,0,2.47-.27.33.33,0,0,0,.19-.25,8.31,8.31,0,0,0-.3-2.67,25.06,25.06,0,0,1-.72-3.11,7.21,7.21,0,0,0-.3-1c-1-.57-1.94-1.14-2.92-1.7-.48-.28-1-.54-1.47-.83a61.84,61.84,0,0,0-6.56-3.42,15.9,15.9,0,0,1-2.36-1.3,13.67,13.67,0,0,0-1.87-1.13,27.23,27.23,0,0,1-3.08-1.72,11.43,11.43,0,0,0-2.93-1.32l-.5.45c-.79.72-1.54,1.48-2.37,2.15a26.78,26.78,0,0,0-2.82,2.39,4.78,4.78,0,0,1-.65.54c-.63.47-1.26.94-1.9,1.4a12.46,12.46,0,0,0-3,2.93,2,2,0,0,0-.18.45c.31.27.62.52.91.78a.67.67,0,0,1,.19.62,2.05,2.05,0,0,1-.15.65,15.11,15.11,0,0,0-1.12,2.81,3,3,0,0,1-.26.62c-.37.76-.74,1.51-1.12,2.26a3.13,3.13,0,0,1-.49.88,11,11,0,0,1-2.3,2A17.81,17.81,0,0,1,83.8,38a3.8,3.8,0,0,0-.77.35.57.57,0,0,0-.23.23c-.06.15-.15.34-.1.46a.5.5,0,0,0,.42.17c.33,0,.64-.19,1-.25a1,1,0,0,1,.5,0,1.29,1.29,0,0,1,.88,1.28,7.26,7.26,0,0,0,.07,1.68,11.75,11.75,0,0,1,.27,2.84,2.58,2.58,0,0,0,.1.66,1.27,1.27,0,0,0,.56,1c.35.23.3.56.16.9a1,1,0,0,1-.85.7,11.16,11.16,0,0,0-1.16.16c-.1,0-.18.11-.31.19a13.07,13.07,0,0,0-.2,1.79c0,1.35-.22,2.69-.3,4a8.07,8.07,0,0,1-.9,3.39A14.28,14.28,0,0,0,82.3,59a1.75,1.75,0,0,0,0,.46c.35.13.66.27,1,.36a1.39,1.39,0,0,1,.9,1.13c0,.21,0,.44.07.66a10.79,10.79,0,0,0,.18,1.16,43.89,43.89,0,0,1,1,5,7.85,7.85,0,0,0,.44,2.13,26.59,26.59,0,0,1,.49,3.66,2.13,2.13,0,0,0,.1.49.48.48,0,0,0,.53.3l1.1-.4c.12,0,.23-.34.14-.42a2,2,0,0,1-.57-2.15c0-.21,0-.44.08-.66a.79.79,0,0,1,.51-.62c.46-.2,1-.17,1.38-.53a3.84,3.84,0,0,0,.37-1.82,2.64,2.64,0,0,0-.5-1.4,5.12,5.12,0,0,0-1.1-1,7.89,7.89,0,0,1-1-.84,5.67,5.67,0,0,1-1.51-4.65,9.91,9.91,0,0,1,.59-2.43c.33-.84.71-1.65,1.06-2.47a3,3,0,0,0,.28-1c0-.39.14-.77.19-1.16a5,5,0,0,0-.76-3.7c-.1-.14-.2-.27-.29-.41a.39.39,0,0,1,.19-.55A6.7,6.7,0,0,1,90.7,48a4.8,4.8,0,0,0,.66.12,3.44,3.44,0,0,1,2.75,2.2,3.81,3.81,0,0,0,.23.45,3.57,3.57,0,0,1,.45,1.78,7.44,7.44,0,0,1-.05,1.34,6,6,0,0,1-1,2.82,9.34,9.34,0,0,0-.61,1,.52.52,0,0,0,.06.62,2.66,2.66,0,0,0,.48.47,7,7,0,0,1,2.46,3.14,2.49,2.49,0,0,1,.24.79,21.6,21.6,0,0,1-.37,4A19.9,19.9,0,0,1,95.38,69c-.07.22.15.48.36.42L96.88,69l.44.18a3.34,3.34,0,0,1,1.92,1.54,4.16,4.16,0,0,0,.51.68,10.7,10.7,0,0,0,.82.83.3.3,0,0,0,.29-.05,7.11,7.11,0,0,1,.41-.72,7,7,0,0,1,3.61-2.35c.66-.15,1.32-.3,2-.5a9.48,9.48,0,0,1,4-.26,4.79,4.79,0,0,0,.83.09,15.29,15.29,0,0,0,6.46-1.7,5.9,5.9,0,0,0,1.45-1.13,4.48,4.48,0,0,1,1.7-1.32c.1,0,.19-.28.18-.42a3.19,3.19,0,0,0-.82-2,1.9,1.9,0,0,1-.36-.57A2.08,2.08,0,0,1,120.1,60a6.31,6.31,0,0,1,1-2.65.59.59,0,0,0-.08-.9c-.76-.68-1.29-1.56-2.09-2.19a.56.56,0,0,1-.2-.26,11.05,11.05,0,0,1-.68-1.9,9.16,9.16,0,0,1-.13-2.34,5,5,0,0,1,.52-1.59,7.44,7.44,0,0,1,.72-1.1c.49-.3,1-.57,1.46-.88a4.13,4.13,0,0,1,3.08-.48,5,5,0,0,1,3,1.72,2.72,2.72,0,0,1,.4.73,14,14,0,0,1,.51,2.64,1.42,1.42,0,0,1-.33,1.25c-.25.3-.52.59-.78.88a6,6,0,0,0-1,1.48,2.84,2.84,0,0,0,.45,1.14,3.37,3.37,0,0,1,.39,3.19c-.15.37-.18.77-.29,1.14a1.86,1.86,0,0,1-.27.61A22.82,22.82,0,0,0,123.72,64a4.21,4.21,0,0,1-.36.57,5.32,5.32,0,0,0-1,3.14,16.38,16.38,0,0,1-.1,1.85c-.1,1.12-.19,2.24-.35,3.35s-.17,2.34-.28,3.51a5.76,5.76,0,0,1-.19,1c-.31,1.07-.65,2.14-.94,3.22a20.05,20.05,0,0,1-1.68,4.57A.36.36,0,0,0,118.81,85.35Zm-2.34,1.29a2,2,0,0,1,.08-2,7.49,7.49,0,0,1,.47-1.08,19.08,19.08,0,0,0,1.77-4.72c.19-.7.33-1.42.54-2.12a7.1,7.1,0,0,0,.32-1.82c.06-1.4.29-2.79.49-4.18.07-.44.11-.89.15-1.34,0-.16,0-.33,0-.5s-.25-.29-.36-.25a11.76,11.76,0,0,1-2,.83,16.27,16.27,0,0,0-2.26.67,3.52,3.52,0,0,1-1.16.18l-4,0a6.65,6.65,0,0,0-1.18,0,9.74,9.74,0,0,0-5.5,2.28c-1,.67-.92,1.71-.9,2.72,0,.15.14.3.24.43A4.13,4.13,0,0,0,104.84,77a5.43,5.43,0,0,1,.87.5.63.63,0,0,1,.22.88,5.77,5.77,0,0,0-.41.72,2.06,2.06,0,0,0-.06.66.18.18,0,0,0,.09.14.17.17,0,0,0,.14,0,9.69,9.69,0,0,1,1.71-1,1.14,1.14,0,0,1,1.11.17.57.57,0,0,1,.12.87,11.57,11.57,0,0,1-1.18.94,10.18,10.18,0,0,0-2.07,2,1.61,1.61,0,0,0-.34.75,36.06,36.06,0,0,0-.61,5.18,7.67,7.67,0,0,1-.08,1.17,5.56,5.56,0,0,0,.16,2.33.85.85,0,0,0,.15.3c.07.07.18.18.26.17a4.74,4.74,0,0,0,2-.38,10.33,10.33,0,0,1,2.54-.88,3.62,3.62,0,0,0,.63-.22c.68-.26,1.37-.51,2-.8a3.55,3.55,0,0,0,1-.58A28,28,0,0,0,116.47,86.64ZM82.37,99.93a1.59,1.59,0,0,0,.32-.36c.19-.4.34-.83.51-1.24a21.69,21.69,0,0,1,5.12-7.43A12.48,12.48,0,0,1,90.89,89a6.67,6.67,0,0,1,3.18-1l.16,0a.46.46,0,0,0,.46-.57A12.11,12.11,0,0,1,95,82.76c.22-.76.3-1.54.47-2.31a5.7,5.7,0,0,0-.29-3.62,1.17,1.17,0,0,0-.28-.17c-1.16-.43-2.32-.85-3.49-1.26a1.8,1.8,0,0,0-.65-.1,6.71,6.71,0,0,0-1.5.23A10.18,10.18,0,0,0,85,77.71a7.07,7.07,0,0,1-.82.58,30.59,30.59,0,0,0-4.49,4.54.71.71,0,0,0-.1.14c-.71,1.27-1.43,2.54-2.14,3.82a5.49,5.49,0,0,0-.64,2.42,13.28,13.28,0,0,1-.15,1.67,4.33,4.33,0,0,0,.27,2.31.31.31,0,0,0,.43.1c.09-.07.2-.11.26-.2a15,15,0,0,0,1.89-2.78c.37-.76.74-1.51,1.12-2.27a5.32,5.32,0,0,1,.5-.87,1.12,1.12,0,0,1,.54-.37,1.84,1.84,0,0,1,1.86.48.74.74,0,0,1,0,.93,14.89,14.89,0,0,0-1,1.11,19.7,19.7,0,0,0-1.22,2,29.26,29.26,0,0,1-1.65,2.74c-.33.52-.68,1-1,1.54a.27.27,0,0,0,0,.14c.1,0,.23.12.29.09l2.34-1.33a7.43,7.43,0,0,1,.76-.35.73.73,0,0,1,.33,0,1.23,1.23,0,0,1,.87.93c.09.6-.06.87-.61,1a3.25,3.25,0,0,0-1.26.43c-.45.34-.9.68-1.33,1a.67.67,0,0,0,0,1A5.37,5.37,0,0,0,82.37,99.93Zm7.89-34.44c.09.2.19.4.29.6a3.43,3.43,0,0,1,.25,2.61,3.64,3.64,0,0,0-.11.66c0,.18.19.5.35.51a6.19,6.19,0,0,0,2.5-.11.94.94,0,0,0,.53-.39,7.49,7.49,0,0,0,1.27-3.78,9.2,9.2,0,0,1,.08-1.17,4.94,4.94,0,0,0-.89-3.35,4,4,0,0,0-1.73-1.54c-.25-.12-.51-.23-.76-.36a.57.57,0,0,1-.22-.85,14.35,14.35,0,0,0,1.08-1.7,6.88,6.88,0,0,0,1-3.52,4.44,4.44,0,0,0-.59-2.42,3,3,0,0,0-2-1.63c-.39-.07-.76-.2-1.15-.26a3.46,3.46,0,0,0-1.66.12.33.33,0,0,0-.16.26,2,2,0,0,0,.13.64,3.27,3.27,0,0,1,.18,2.6,1.2,1.2,0,0,0,0,.5,4.42,4.42,0,0,1-.51,2.26,17,17,0,0,0-1.22,4A4.53,4.53,0,0,0,88.45,64C89,64.44,89.57,64.92,90.26,65.49ZM75.34,95.12c-1.2-.3-2.29-.53-3.39-.71a8,8,0,0,0-2.34-.11,6.42,6.42,0,0,1-2.51-.08c-.33-.09-.62.18-.74.53a2.42,2.42,0,0,0,.06,1.66,10.67,10.67,0,0,0,2,3.08.57.57,0,0,0,.62.11c.77-.47,1.54-.92,2.29-1.41A8.46,8.46,0,0,1,74,97a1.22,1.22,0,0,1,.82.06,6.59,6.59,0,0,1,.75.38.85.85,0,0,1,.1,1.2.78.78,0,0,1-.42.25,3.18,3.18,0,0,0-2,.76,5.21,5.21,0,0,1-1.19.63,5.67,5.67,0,0,0-1.7,1.05,9.56,9.56,0,0,1-1.54,1,1.33,1.33,0,0,1-1,.15,2.05,2.05,0,0,0-.49-.06c-.08,0-.21.15-.2.21a6.47,6.47,0,0,0,1.48,3,9.37,9.37,0,0,0,1.76,1.56c1.06.73,2.17,1.39,3.28,2a2,2,0,0,0,.81.18.35.35,0,0,0,.27-.14,5.11,5.11,0,0,0,.33-1.12,9.86,9.86,0,0,1,.68-2.77,6.37,6.37,0,0,0,.41-2.3c0-1,.12-2,.16-3a6.54,6.54,0,0,0,0-1.17,1.16,1.16,0,0,1,.12-.8,1,1,0,0,0,0-1C76,96.51,75.7,95.85,75.34,95.12ZM122.63,56.4c-.12.88-.09.91-.34,1.12a3.29,3.29,0,0,0-1.09,2.53,2.33,2.33,0,0,0,.26,1.3c.39.68.79,1.35,1.19,2a.3.3,0,0,0,.43,0,3.9,3.9,0,0,0,.31-.4,16.27,16.27,0,0,1,1.45-2.45,4.83,4.83,0,0,0,.49-3.57,2.43,2.43,0,0,0-1.34-1.8c-.47-.19-.41-1,.06-1.25a1.5,1.5,0,0,1,.46-.17,1.7,1.7,0,0,0,1.06-.77c.17-.29.38-.56.55-.85a2.65,2.65,0,0,0,.19-2.86,3.29,3.29,0,0,1-.19-.47,3.26,3.26,0,0,0-3-2.08,3.6,3.6,0,0,0-3.82,1.9l-.16.29a2.75,2.75,0,0,0,0,3.15,2.32,2.32,0,0,1,.31.58,4.62,4.62,0,0,0,1,1.57c.36.43.69.89,1.08,1.28A10.63,10.63,0,0,0,122.63,56.4ZM83,40.74a6.75,6.75,0,0,0-.87.1A1.25,1.25,0,0,0,81.33,42c-.06.33.26.47.5.6a2.14,2.14,0,0,1,.87,1A5.3,5.3,0,0,1,83.22,45a5.35,5.35,0,0,0,.33,1.12c0,.06.15.07.23.09a.31.31,0,0,0,.06-.15c-.11-1-.27-2-.28-3A8.83,8.83,0,0,0,83,40.74Z"/><path class="cls-1" d="M66.17,133.46c-17.17,0-34-.67-49.87-2.83-2.56-.35-5-.79-7-2.32-3.24-2.57-3.42-6.9-3.34-10.75l1,0-1,0c.28-12.16.55-22.44.82-32.39S7.37,65,7.64,52.8c.18-8.35.2-24.11.19-35.24a12.57,12.57,0,0,1,3.82-8.95A14.46,14.46,0,0,1,21.86,4.54C54,4.93,142.93,5.71,167.61,4.7a8.67,8.67,0,0,1,9.29,7.76c3,39.54,2.29,71,1,111a8.4,8.4,0,0,1-2.71,5.87,9.69,9.69,0,0,1-6.9,2.54c-18.65-.66-38.15,0-58.8.63C95.14,133,80.55,133.46,66.17,133.46ZM21.69,6.6a12.3,12.3,0,0,0-8.6,3.47,10.52,10.52,0,0,0-3.21,7.49c0,11.14,0,26.91-.19,35.28C9.42,65,9.14,75.28,8.88,85.23s-.54,20.22-.81,32.38c-.08,3.35,0,7.1,2.55,9.09,1.52,1.21,3.69,1.59,6,1.9,28.91,3.93,61.42,2.89,92.86,1.87,20.69-.67,40.22-1.3,58.94-.63a7.65,7.65,0,0,0,5.43-2,6.32,6.32,0,0,0,2.06-4.43c1.27-40,1.94-71.36-1-110.8a6.61,6.61,0,0,0-7.16-5.87C137.9,8,23,6.61,21.84,6.6Z"/></svg>