<svg id="Layer_1" data-name="Layer 1" xmlns="http://www.w3.org/2000/svg" viewBox="0 0 185 138"><defs><style>.cls-1{fill:#c36;}.cls-2{fill:#dc3d73;}</style></defs><title>Artboard 8</title><path class="cls-1" d="M105.44,22.09a9.34,9.34,0,0,0,1.08.43,4.7,4.7,0,0,1,1.12.56c.44.28.42.62.09.88a2.88,2.88,0,0,0-.81,1.64s.11.17.18.2a.55.55,0,0,0,.31,0c1.61-.44,3.28-.65,4.87-1.17A16.05,16.05,0,0,0,115,24a4.5,4.5,0,0,0,1.36-.37c.84-.44,1.79-.54,2.65-.89a1.56,1.56,0,0,1,1.62.28,9.35,9.35,0,0,1,2,2.37,22.81,22.81,0,0,1,1.58,2.71c.59,1.17,1.27,2.28,2,3.39.8,1.29,1.61,2.57,2.35,3.89,1,1.88,2.22,3.67,3.38,5.48.57.87,1.14,1.75,1.7,2.63a7.2,7.2,0,0,0,1.62,1.9,7.27,7.27,0,0,1,.57.54.86.86,0,0,1,.26.56c0,1.15.17,2.29.1,3.44-.1,1.78-.07,3.56,0,5.34.07,2.14.15,4.29.21,6.43s.31,4.07.51,6.1c.08.83.09,1.67.12,2.5,0,.68,0,1.36,0,2s.1,1.56.19,2.35c.17,1.34.23,2.71.29,4.07.07,1.56.08,3.13.14,4.7,0,.89.09,1.78.15,2.67.08,1.3.2,2.61.24,3.91a27.2,27.2,0,0,0,.47,4.68.93.93,0,0,1-.93,1.16,2.81,2.81,0,0,0-2,.66,13.47,13.47,0,0,1-5,2.28c-.45.12-.88.32-1.33.46a33.16,33.16,0,0,1-3.94,1.06,18,18,0,0,0-3.61,1,21.41,21.41,0,0,0-2.26,1.1,10.88,10.88,0,0,1-2.45,1c-1.71.5-3.42,1-5.08,1.61a9.78,9.78,0,0,1-1.65.5,21.87,21.87,0,0,0-5,1.68c-1.48.67-3,1.17-4.54,1.73-1.28.47-2.55.95-3.83,1.39a23.37,23.37,0,0,1-2.71.8,19.4,19.4,0,0,0-4.58,1.58,17.88,17.88,0,0,1-2.93,1.12,23,23,0,0,0-4.5,1.81,6.53,6.53,0,0,1-2.06.7,8.05,8.05,0,0,0-3.79,1.39,7.94,7.94,0,0,1-1.88.78,16.52,16.52,0,0,0-1.63.56l-2.19.83a1.27,1.27,0,0,1-.92,0l-1.3-.43-1.07.4a1,1,0,0,1-.9-.12l-2-1.24-.41-.23c-1.83-1.06-1.83-1-4-1a1.91,1.91,0,0,0-1.16.37,19.61,19.61,0,0,1-4.12,2.25c-.48.21-.94.45-1.41.67a6,6,0,0,1-.87.37,11,11,0,0,0-3.39,1.59,3.65,3.65,0,0,1-.55.3,1,1,0,0,1-1-.19,1.25,1.25,0,0,0-1-.33,1.61,1.61,0,0,1-1.15-.4,20.09,20.09,0,0,0-4.1-2.29,4.53,4.53,0,0,1-.71-.32,21.45,21.45,0,0,0-3.22-1.6,5.88,5.88,0,0,0-1.77-.6,1.44,1.44,0,0,1-.57-.25.71.71,0,0,1-.39-.64,18.19,18.19,0,0,0-.15-3.13.76.76,0,0,1,.62-.79,11.67,11.67,0,0,1,1.56-.1,2.28,2.28,0,0,0,1.33-.39c.4-.26.78-.53,1.17-.8a.89.89,0,0,0,.38-.82,19,19,0,0,0-.24-2.81.52.52,0,0,1,.45-.68,17.32,17.32,0,0,0,2.23-.57c.12-.37-.19-.5-.28-.72a8.39,8.39,0,0,1-.74-3.66c0-.31,0-.62,0-.94a2.58,2.58,0,0,0-.17-1.23A1.14,1.14,0,0,1,41,98.43a.76.76,0,0,1,.35-.29,9.65,9.65,0,0,1,1.05-.3,20.45,20.45,0,0,0,3.45-1,12.4,12.4,0,0,0,1.42-.69,12.19,12.19,0,0,1,3.64-1.39,13.16,13.16,0,0,0,3-.88l.43-.26-.22-.38a1.67,1.67,0,0,1-.3-.53c-.16-.93-.29-1.86-.4-2.8s-.18-1.66-.2-2.5c-.06-2.25-.43-4.48-.48-6.73,0-1.83-.13-3.66-.24-5.49,0-.52-.09-1-.13-1.56-.07-1.2-.18-2.4-.2-3.6,0-1.42-.17-2.82-.3-4.23,0-.26-.07-.52-.12-.77a.57.57,0,0,0-.52-.5c-.37,0-.73,0-1.1,0-.57,0-1.13-.16-1.71-.22a4,4,0,0,1-1.71-.73A2.46,2.46,0,0,1,45.52,62c0-.1-.08-.19-.11-.29a1,1,0,0,0-.76-.72c-.6-.16-1.21-.33-1.82-.48a4.28,4.28,0,0,1-2.39-1.23A9.61,9.61,0,0,0,39,55.94a1.63,1.63,0,0,1,.35-1.08,1.21,1.21,0,0,0,.4-1.11c0-.23.2-.35.37-.47a.27.27,0,0,1,.15-.05,6.52,6.52,0,0,0,2.24-.67c1.78-.75,3.56-1.5,5.34-2.27a9,9,0,0,0,1-.51,1,1,0,0,1,.73-.17,2.55,2.55,0,0,0,1.91-.54c.86-.6,1.75-1.14,2.61-1.73.56-.39,1.09-.81,1.63-1.22a13,13,0,0,1,1.93-1.33c1.1-.59,2.13-1.32,3.18-2A6.31,6.31,0,0,0,62.58,41l1.32-2a6.17,6.17,0,0,1,1.64-1.66c.78-.52,1.49-1.14,2.21-1.71L71.94,35A9.51,9.51,0,0,0,74,34.4,19,19,0,0,1,76,33.75c.55-.17,1.12-.27,1.67-.41a12.61,12.61,0,0,0,2.07-.7,13.52,13.52,0,0,1,1.49-.47,3.46,3.46,0,0,0,.75-.23,5.09,5.09,0,0,1,1.77-.6c1.23-.27,2.46-.53,3.69-.75a7.79,7.79,0,0,0,1.5-.43,8.46,8.46,0,0,1,2.69-.81A2,2,0,0,0,92,29.2a.61.61,0,0,0,.42-.6c-.09-.78-.18-1.56-.3-2.33a4,4,0,0,0-.3-.88c-.18-.38-.39-.75-.58-1.12a3.25,3.25,0,0,1-.3-1.68.61.61,0,0,1,.41-.43,2.08,2.08,0,0,1,1.08,0l.59.19c.12,0,.31-.14.3-.29,0-.67,0-1.35-.13-2-.1-.83-.26-1.65-.39-2.48a.54.54,0,0,1,.5-.66,7.4,7.4,0,0,1,1.55-.15c1.73.09,3.45.24,5.17.37a2.69,2.69,0,0,1,.61.14,4.43,4.43,0,0,0,2.92,0,1,1,0,0,1,.9.16.91.91,0,0,1,.47.77c0,.78,0,1.56.05,2.35A2.69,2.69,0,0,0,105.44,22.09Zm17,14.93s-.1,0-.14,0-.21,0-.09,0,.18-.07.27-.11c-.09.21-.08.43.16.51.63.22,1.27.45,1.92.62a7.37,7.37,0,0,0,1.24.15,2.56,2.56,0,0,0,.62-.06.64.64,0,0,0,.29-.13.68.68,0,0,0,.14-.25.23.23,0,0,0-.09-.11,16.12,16.12,0,0,0-1.69-.29A16.94,16.94,0,0,1,122.47,37ZM47.13,59.32a.3.3,0,0,1-.1.07s-.07,0-.1,0l.21,0c0,.1-.13.22-.1.27a6.5,6.5,0,0,1,.6,1.59c0,.1.07.2.1.3a1.31,1.31,0,0,0,.6.69,3.66,3.66,0,0,0,2.86.25.49.49,0,0,0,.23-.2.91.91,0,0,0-.3-1.22l-2.45-1A6.25,6.25,0,0,1,47.13,59.32ZM82.71,37.83c.05-.34-.27-.41-.43-.58a1,1,0,0,0-.4-.2s-.08.09-.07.13a.81.81,0,0,0,.92.61.55.55,0,0,0,.33.49c1.1.79,2.22,1.55,3.31,2.36a4,4,0,0,0,1.85.77.75.75,0,0,0,.92-.39,1,1,0,0,1,.94-.68.81.81,0,0,0,.74-.49,10.45,10.45,0,0,0,1.28-4.32,1.64,1.64,0,0,1,.17-.9c-.09.07-.11,0-.06,0l0,.09a2.38,2.38,0,0,0-.89,1.25,5.62,5.62,0,0,1-1.7,2.4A2.59,2.59,0,0,1,87.5,39c-.51-.08-1-.27-1.52-.34a5.16,5.16,0,0,1-1.92-.58A1.83,1.83,0,0,0,82.71,37.83Zm13,7.69.06-.05h-.09a10.2,10.2,0,0,0,4.52,2,1.05,1.05,0,0,0,.61,0c.23-.09.41-.36.64-.41s.61.08.92.06a1.27,1.27,0,0,0,.57-.23,4.35,4.35,0,0,0,1.57-1.9,1.26,1.26,0,0,0,.08-.61,2.92,2.92,0,0,1,0-.93,2.85,2.85,0,0,0,0-.77c-.1-.77-.22-1.55-.33-2.32L104,38.49c0-.15-.23-.29-.33-.22s-.17.12-.19.19a5.18,5.18,0,0,0-.09.78c0,.67,0,1.35,0,2a4.27,4.27,0,0,1-.58,2.09c-.27.5-.58,1-.88,1.47a2,2,0,0,1-1.37,1c-1.28.19-2.58.46-3.81-.28a1.27,1.27,0,0,0-.44-.15A.67.67,0,0,0,95.74,45.52ZM62.85,109.79c.11,0,.12-.09,0-.13l0,.11-.11.3a.91.91,0,0,0,0,1,1,1,0,0,1,0,1,2.48,2.48,0,0,0-.36.85c0,.52-.09,1-.12,1.56a.81.81,0,0,0,.4.8c.27.17.53.33.81.48.91.51,1.83,1,2.75,1.51l1,.53a.4.4,0,0,0,.59-.29,48.28,48.28,0,0,0-.24-5.64.8.8,0,0,0-.44-.6,34.2,34.2,0,0,0-4.07-1.63C63.05,109.69,62.94,109.76,62.85,109.79Zm46.58-78.93,0,0,0-.08c0,.1,0,.23,0,.3a11.16,11.16,0,0,0,3.82,3.17,2.69,2.69,0,0,0,.74.25,1.4,1.4,0,0,0,.61,0,6.4,6.4,0,0,0,2-.81,2.9,2.9,0,0,0,.6-.5,7.35,7.35,0,0,0,1.51-3.72c.1-.72.06-1.46.09-2.19a1.51,1.51,0,0,0-.43-1.14,4.67,4.67,0,0,0-.45-.44.38.38,0,0,0-.54.05,29.37,29.37,0,0,0-1.76,3.5c-.17.44-.37.86-.58,1.29a1.47,1.47,0,0,1-1.36.89A8.79,8.79,0,0,1,110,31,2.54,2.54,0,0,0,109.43,30.86Zm13.09,67.83a1.36,1.36,0,0,0,.11-.35c0-.89,0-1.78,0-2.66a8.76,8.76,0,0,0-.21-2.34.69.69,0,0,1,.48-.72,1.67,1.67,0,0,1,.3-.08,10.7,10.7,0,0,0,2.54-.79l2.48-1a7.4,7.4,0,0,0,1.56-.73,1.71,1.71,0,0,1,1-.33,5,5,0,0,0,.92-.14c.48-.08.66.06.7.58a10,10,0,0,1,.07,1.1c0,.52,0,1,0,1.56s0,1,0,1.57a2.67,2.67,0,0,0,.16.6.44.44,0,0,0,.52.23,12.81,12.81,0,0,0,2.5-1.6.81.81,0,0,0,.25-.71c-.06-1.26-.11-2.51-.18-3.76s-.2-2.61-.25-3.92c-.11-2.61-.19-5.23-.29-7.84a11.82,11.82,0,0,0-.1-1.57,37.1,37.1,0,0,1-.32-4.22c0-1.46-.1-2.92-.18-4.38-.06-1-.19-2.09-.27-3.13-.16-2-.3-4.06-.27-6.11,0-2.61-.05-5.23-.09-7.84,0-.69,0-1.37,0-2.05a7.69,7.69,0,0,0-.17-1.07.39.39,0,0,0-.47-.31c-.53.23-1.07.42-1.58.69a19.86,19.86,0,0,1-3.82,1.4c-.55.15-1.08.38-1.62.58s-1.27.5-1.91.72a26.9,26.9,0,0,0-3,1.27,30.76,30.76,0,0,1-3.63,1.49c-1.93.68-3.85,1.35-5.72,2.15a11.41,11.41,0,0,1-2.85.85,7.89,7.89,0,0,0-1.52.39c-.93.34-1.86.7-2.77,1.1a36.51,36.51,0,0,1-5.45,2c-.55.15-1.11.27-1.67.39a50.35,50.35,0,0,0-4.94,1.53c-2,.64-4,1.29-6,1.74a19.47,19.47,0,0,0-2.09.66.71.71,0,0,0-.49.73A19.59,19.59,0,0,0,84.34,67a18.77,18.77,0,0,1,.22,3.43A32.18,32.18,0,0,0,85,76.07a16.54,16.54,0,0,1,.21,2.34c0,1.2,0,2.4.13,3.6.12,1.72.14,3.45.42,5.16a4.43,4.43,0,0,1,0,.63,65.87,65.87,0,0,0,.32,6.58c.22,1.55.23,3.12.33,4.69.09,1.2.25,2.39.28,3.6,0,1.88.27,3.75.47,5.62a9.93,9.93,0,0,1,.06,2,2.51,2.51,0,0,0,0,.61.36.36,0,0,0,.37.23,6.58,6.58,0,0,0,.87-.35,14.05,14.05,0,0,1,3.07-1.16c.61-.14,1.22-.32,1.82-.5l2.1-.65a.8.8,0,0,0,.62-.8,7.89,7.89,0,0,0,0-1.09c-.14-1-.33-2-.5-2.94v-.16a.36.36,0,0,1,.24-.36c1.24-.4,2.5-.77,3.72-1.21a21.23,21.23,0,0,1,3.54-1.24l.15,0c.95-.28,1.9-.59,2.86-.82a12.68,12.68,0,0,0,2.81-1c.65-.33,1.34-.59,2-.87a3.22,3.22,0,0,1,.44-.14.63.63,0,0,1,.72.45c0,.37.05.73.08,1.1.06.89.12,1.77.19,2.66a.76.76,0,0,0,.31.54c.42-.15.85-.33,1.29-.47s.92-.23,1.37-.37a9.57,9.57,0,0,0,2.44-1.05,13.85,13.85,0,0,1,2.84-1.32ZM71.28,70.42c-.83-.55-1.67-1.07-2.49-1.63a4.1,4.1,0,0,1-1.23-1.19,1.52,1.52,0,0,0-.71-.58,26.74,26.74,0,0,0-3.38-1.23,25.32,25.32,0,0,1-3.38-1.24c-1-.44-1.92-.82-2.9-1.19-.83-.32-1.68-.59-2.52-.88l-.29-.09a.34.34,0,0,0-.42.34c.1,1.3.2,2.6.31,3.9.06.79.18,1.56.2,2.35a30.54,30.54,0,0,0,.27,4.68,8,8,0,0,1,.07,1.1l.06.94c.07.93.17,1.87.19,2.81a37.22,37.22,0,0,0,.3,5.48,1.55,1.55,0,0,1,0,.31c0,1.94.32,3.85.38,5.79a4,4,0,0,0,.34,1.67,1.55,1.55,0,0,1,0,1.36c-.08.18,0,.3.17.37a2.39,2.39,0,0,0,.58.22,25.68,25.68,0,0,1,3.73,1.19.29.29,0,0,0,.15,0,.67.67,0,0,0,.27-.11.3.3,0,0,0,.07-.28,3.38,3.38,0,0,1-.37-1.65,4.93,4.93,0,0,0-.14-1.09,8.09,8.09,0,0,1-.15-1.56,37.37,37.37,0,0,0-.25-4.84,6.69,6.69,0,0,1,0-.78c0-1.41,0-2.83,0-4.24a23.23,23.23,0,0,0-.11-2.5c-.18-1.51-.21-3-.24-4.53a7.75,7.75,0,0,0-.16-1.87c-.34-1.34,0-2.71-.33-4-.09-.4.63-.75,1-.55a5,5,0,0,0,1,.47,9.06,9.06,0,0,1,1.88.77,3.59,3.59,0,0,0,1.63.51,1.11,1.11,0,0,1,.3.08.83.83,0,0,1,.56.69,4.3,4.3,0,0,1,0,.62,15.53,15.53,0,0,0,.18,3.91,7.14,7.14,0,0,1,.08.93,21.86,21.86,0,0,0,.16,2.81,27.81,27.81,0,0,1,.23,5.47c0,.94-.05,1.88,0,2.81.08,1.78.25,3.55.28,5.32,0,1.43.39,2.79.51,4.2a1.66,1.66,0,0,1,0,1.46,1.8,1.8,0,0,0,1,.58c1.19.4,2.38.78,3.57,1.16a1,1,0,0,0,.46,0,.31.31,0,0,0,.19-.21c0-.62,0-1.24-.11-1.86a23.82,23.82,0,0,1-.18-2.81,36.21,36.21,0,0,0-.18-3.75,8.7,8.7,0,0,1,0-2,10.46,10.46,0,0,0-.19-3.11,13.09,13.09,0,0,1-.19-2.65,17.39,17.39,0,0,0,0-2,22.12,22.12,0,0,1,0-2.82c0-1.4,0-2.81,0-4.23A7.25,7.25,0,0,0,71.28,70.42ZM81,104.6c0-.09,0-.15,0-.18s-.1-.2-.18-.23A12.35,12.35,0,0,0,77.57,103a1.46,1.46,0,0,1-.43-.18,35.62,35.62,0,0,0-4.23-1.65c-.25-.08-.48-.21-.73-.3s-.77-.32-1.17-.45c-1.24-.41-2.49-.78-3.73-1.2a17.15,17.15,0,0,1-2.19-.86,19.86,19.86,0,0,0-3.24-1.16c-1.1-.33-2.2-.69-3.3-1-.59-.18-1.19-.36-1.8-.52a2.3,2.3,0,0,0-1.53.11,16.47,16.47,0,0,1-3,.87A10.46,10.46,0,0,0,49,97.81a13.4,13.4,0,0,1-3.32,1.38,1,1,0,0,0-.65.35,2.36,2.36,0,0,0,1.21.68,13.44,13.44,0,0,1,2.72,1.19c1.1.61,2.23,1.17,3.35,1.73.7.36,1.43.66,2.11,1a12,12,0,0,0,2.46,1,23.69,23.69,0,0,1,3.89,1.63,2,2,0,0,0,.58.25,17.9,17.9,0,0,1,2.38.78,22,22,0,0,1,2.94,1.07,8,8,0,0,0,1.34.43,1.61,1.61,0,0,0,1.21-.13c.69-.36,1.44-.62,2.16-.92l3-1.25a6.62,6.62,0,0,1,1.19-.39,7.85,7.85,0,0,0,2-.79,10.57,10.57,0,0,1,2.61-1Zm-2.8-45.11a1.49,1.49,0,0,0-.09-.3,18.76,18.76,0,0,1-1.3-2.85A34.24,34.24,0,0,0,74,50.57a16.43,16.43,0,0,1-1.51-3.27A32.28,32.28,0,0,0,70.63,43c-.61-1.21-1.23-2.42-1.77-3.67-.63-1.48-.66-1.32-1.76-.37a14,14,0,0,0-1.44,1.44,12.53,12.53,0,0,0-1.13,1.5,8.41,8.41,0,0,1-1.25,1.41,13.3,13.3,0,0,1-2.12,1.61,33.9,33.9,0,0,0-3,1.94c-1.43,1.15-2.91,2.22-4.42,3.24-.05,0-.07.09-.1.12s-.07.36,0,.4c.73.27,1.46.55,2.21.8,1.28.44,2.59.83,3.87,1.28,1.68.59,3.34,1.23,5,1.81,2.08.73,4.17,1.4,6.2,2.23,1.79.73,3.54,1.56,5.38,2.16a3.89,3.89,0,0,1,1.21.71.72.72,0,0,0,.44.1C78.05,59.68,78.11,59.55,78.18,59.49ZM42.64,55.26a4.71,4.71,0,0,0,.62.35c1.34.46,2.61,1.07,3.92,1.59,2.09.82,4.2,1.59,6.29,2.4.54.2,1.05.47,1.58.69a12.39,12.39,0,0,0,1.73.72A37.33,37.33,0,0,1,61,62.59a34,34,0,0,0,4.58,1.59,20.79,20.79,0,0,0,2.69.8,1.37,1.37,0,0,0,1.47.12,9.13,9.13,0,0,1,1.06-.27c.71-.18,1.43-.31,2.12-.53a9.84,9.84,0,0,1,2.29-.49,4.87,4.87,0,0,0,3-1.47s0-.23-.06-.25C77,61.53,75.73,61,74.48,60.45c-1.06-.44-2.14-.82-3.2-1.26A65.47,65.47,0,0,0,65,56.83c-.75-.23-1.48-.53-2.21-.79-2.07-.74-4.09-1.58-6.19-2.22-1.4-.43-2.79-.89-4.18-1.34L50.91,52a2.32,2.32,0,0,0-1.54,0c-.64.22-1.27.47-1.9.72s-1.35.55-2,.86a20.57,20.57,0,0,1-2.12,1A1,1,0,0,0,42.64,55.26ZM75.71,71.83l-2.55-.38a3.73,3.73,0,0,0-.47,0,.42.42,0,0,0-.31.31c-.08.88-.18,1.76-.23,2.65-.07,1.09-.09,2.19-.12,3.29q0,.71,0,1.41c0,1.2.06,2.4,0,3.6a18.43,18.43,0,0,0,.16,2.35,17.19,17.19,0,0,1,.19,3.59,13.45,13.45,0,0,0,.31,4,2.34,2.34,0,0,1,0,1.23,2.58,2.58,0,0,0,.11,1.69,5.38,5.38,0,0,1,.31,1.69c0,.52.1,1,.17,1.56a.69.69,0,0,0,.48.56l.15.07c1.34.44,2.68.88,4,1.44a1.67,1.67,0,0,0,.31,0c.11,0,.34-.15.33-.27,0-.31,0-.62,0-.93a4.89,4.89,0,0,1-.13-1.24,11,11,0,0,0-.05-2.5c0-.73-.1-1.47-.06-2.19a12.26,12.26,0,0,0-.13-2.5A18,18,0,0,1,78,87.93c0-.41,0-.83,0-1.25a8.06,8.06,0,0,1,0-1.1,10.46,10.46,0,0,0-.1-2.5,10,10,0,0,1-.1-1.09,46.13,46.13,0,0,1-.09-5.64,11.61,11.61,0,0,0,0-1.56,2.46,2.46,0,0,0-.88-1.93A14.38,14.38,0,0,1,75.71,71.83Zm7.48,31.74a1.89,1.89,0,0,0,1-.34.64.64,0,0,0,.32-.51c0-.63,0-1.25-.1-1.88-.22-2.86-.46-5.72-.67-8.58,0-.47,0-.94,0-1.41,0-1.15,0-2.31-.09-3.44s-.19-2.29-.32-3.43a28.78,28.78,0,0,1-.18-3.59,33.73,33.73,0,0,0-.41-5.31,4.93,4.93,0,0,0-.27-.75c-.66,0-1.28,0-1.9-.07s-1.34-.18-2-.27a4.11,4.11,0,0,0-.17.64c0,.37,0,.73,0,1.1A15.57,15.57,0,0,1,78.11,79a2.66,2.66,0,0,0,0,.93,31,31,0,0,1,.42,5.61c0,.31,0,.62,0,.94a8.71,8.71,0,0,1,0,1.25,13.43,13.43,0,0,0,.2,3.58A8.87,8.87,0,0,1,79,93.49a7.07,7.07,0,0,0,0,1.72,25.25,25.25,0,0,1,.26,3.58c0,.16,0,.31,0,.47a5.82,5.82,0,0,0,.77,2.36.91.91,0,0,0,.47.37c.65.21,1.31.36,2,.56a.79.79,0,0,1,.59.65C83.07,103.3,83.13,103.4,83.19,103.57ZM64.77,69.71a7.11,7.11,0,0,0-2.62-1.38c-.49-.16-1-.22-1.49-.43a.3.3,0,0,0-.36.21,13.8,13.8,0,0,0-.08,2.49,36.63,36.63,0,0,1,.33,4.06,8.56,8.56,0,0,0,.14,2,4.45,4.45,0,0,1,0,1.41,14.79,14.79,0,0,0,.1,3.12,21.71,21.71,0,0,1,.12,3.12,9.91,9.91,0,0,0,0,1.09c0,1.2.25,2.39.19,3.6a10.27,10.27,0,0,0,.1,1.09c0,.52.12,1,.13,1.56a3.13,3.13,0,0,0,.34,1.51,1.93,1.93,0,0,1,.24,1,3.18,3.18,0,0,0,0,.62.54.54,0,0,0,.37.47,16.92,16.92,0,0,1,3.23,1.19.53.53,0,0,0,.3.07.35.35,0,0,0,.24-.17A2.32,2.32,0,0,0,66.22,95c-.06-.41-.19-.82-.21-1.23-.09-1.93-.26-3.86-.24-5.79,0-2.51,0-5-.09-7.52,0-.63,0-1.26-.09-1.88-.19-2.76-.59-5.51-.72-8.28C64.86,70.12,64.8,69.92,64.77,69.71Zm4.8,42c0,.55,0,1,0,1.38.07,1.41.28,2.81.25,4.23a.38.38,0,0,0,.53.38,32,32,0,0,0,5.25-2.08,7.2,7.2,0,0,1,2.65-.91,5.64,5.64,0,0,0,2.09-.63c1.44-.77,3-1.3,4.5-2a3.63,3.63,0,0,0,.11-.59c0-1.2,0-2.41-.07-3.61a11.29,11.29,0,0,0-.38-2.2c-.24.07-.44.12-.62.19-1,.37-2,.77-2.94,1.1a16.14,16.14,0,0,0-2.32,1,7.94,7.94,0,0,1-2.49.91,4,4,0,0,0-1,.35c-.89.43-1.75.91-2.65,1.34-.61.29-1.25.53-1.88.78C70.26,111.45,70,111.55,69.57,111.69Zm33.81-79.64c.07-.28.16-.58.22-.89a2.56,2.56,0,0,0,0-.62c-.1-1.35-.21-2.7-.31-4.06a.52.52,0,0,1,.27-.52,3.82,3.82,0,0,0,1.35-1.47.32.32,0,0,0-.1-.41l-.88-.29c-.74-.25-.87-.5-.71-1.29,0-.1.09-.2.08-.3-.06-.78-.13-1.56-.2-2.33a.58.58,0,0,0-.53-.5,18.07,18.07,0,0,1-2.64-.29,40.28,40.28,0,0,0-4.52-.36.51.51,0,0,0-.5.49,8.32,8.32,0,0,0,.18,2.34,4.55,4.55,0,0,0,.37,1.66c.2.3,0,.68-.45.8a1.26,1.26,0,0,1-1-.16c-.13-.08-.23-.21-.37-.28a.31.31,0,0,0-.28,0,.33.33,0,0,0-.1.26c.13.34.26.68.42,1a3.92,3.92,0,0,1,.46,1.64c0,.63.14,1.24.22,1.86a.58.58,0,0,0,.56.45,1.75,1.75,0,0,0,1.15-.4,7.92,7.92,0,0,1,1.69-1.13,1.32,1.32,0,0,1,1.87.54,16.15,16.15,0,0,0,1.93,2.84,8.55,8.55,0,0,0,1.65,1.41S103.28,32.05,103.38,32.05ZM80.9,49a5.21,5.21,0,0,0,0,1.76,13.5,13.5,0,0,1-.43,4.34,1.3,1.3,0,0,1-.62.87.5.5,0,0,1-.56-.1c-.1-.13-.18-.3-.06-.43a4.17,4.17,0,0,0,1-2.25c.09-.52.07-1,.16-1.56a6.22,6.22,0,0,0-.73-3.46.67.67,0,0,0-.64-.38c-.08,0-.23.08-.24.14-.14.71-.3,1.43-.37,2.15a7.28,7.28,0,0,1-.62,2.56,1.26,1.26,0,0,0,0,1.07c.41,1,.82,1.92,1.18,2.89a12.67,12.67,0,0,0,1.78,3.12,4.77,4.77,0,0,1,.82,1.33c.08.24.61.36.83.23a3.39,3.39,0,0,0,.39-.27c.61-.57,1.23-1.13,1.81-1.73a4.85,4.85,0,0,1,.94-.81,9.21,9.21,0,0,0,3.12-3.44,3.53,3.53,0,0,0,.33-.71c.48-1.31.58-1.32-.77-1.72a22.48,22.48,0,0,1-2.17-.89,4.08,4.08,0,0,1-1.54-1,4.12,4.12,0,0,0-2-1.21c-.4-.12-.77-.31-1.17-.45A1.73,1.73,0,0,0,80.9,49Zm23.44-12.27c.3.38.55.78.87,1.11a25.26,25.26,0,0,0,2.6,2.25,6.07,6.07,0,0,0,2.24,1.09c.76.18,1.52.38,2.29.49a4.68,4.68,0,0,0,1.71,0,1.84,1.84,0,0,0,1.26-.83,9.43,9.43,0,0,0,1.42-5.37c0-.35-.24-.55-.62-.47a9.75,9.75,0,0,0-1.21.31,2,2,0,0,1-1.23,0,6.59,6.59,0,0,1-1.93-1,18.63,18.63,0,0,1-3-2.74l-.61-.71a3,3,0,0,0-1-.73.33.33,0,0,0-.47.24c-.11,1-.4,1.93-.59,2.9a2.57,2.57,0,0,1-.24.74,10.51,10.51,0,0,1-1.2,2.18A2.32,2.32,0,0,0,104.34,36.76ZM91,40.83a4.56,4.56,0,0,0,.45.77,2.81,2.81,0,0,0,.72.61c1.16.69,2.32,1.39,3.51,2a12.21,12.21,0,0,0,3.6,1,.81.81,0,0,0,.31,0,9.16,9.16,0,0,0,1.06-.28,1.19,1.19,0,0,0,.5-.36,3.09,3.09,0,0,0,.54-.76c.24-.52.5-1,.78-1.52a1.6,1.6,0,0,0,.23-.89,12.86,12.86,0,0,1,.13-1.87,6.46,6.46,0,0,0,0-1.08c0-.07-.14-.19-.2-.18-.83.08-1.66.16-2.48.29a1.39,1.39,0,0,1-1-.22,22.1,22.1,0,0,1-2.89-2.12,16.55,16.55,0,0,1-2-2.14c-.13-.17-.26-.33-.4-.49s-.44-.35-.51-.25a1,1,0,0,0-.18.4c-.06.41-.07.83-.14,1.24-.13.72-.29,1.44-.42,2.15a7.35,7.35,0,0,1-.81,2.36C91.45,39.93,91.26,40.36,91,40.83ZM89.2,42.26a1.36,1.36,0,0,0-.45,0A2.24,2.24,0,0,1,87.1,42a7.63,7.63,0,0,1-2-1.26,4.88,4.88,0,0,0-.62-.48c-1.18-.77-2.33-1.58-3.43-2.46-.15-.12-.45,0-.47.24-.06.63-.15,1.25-.16,1.87a9.13,9.13,0,0,1-.7,3.19c-.26.68-.54,1.36-.81,2a.83.83,0,0,0,.12.88c.2.24.36.51.54.77a3,3,0,0,0,2.13,1.44c.41,0,.8.21,1.21.3a3.33,3.33,0,0,0,.93.11,14.68,14.68,0,0,0,2.79-.41,1.63,1.63,0,0,0,.44-.15,3.94,3.94,0,0,0,1.8-2.28c.18-.76.33-1.53.48-2.29A1.74,1.74,0,0,0,89.2,42.26Zm1.72,9.85c.74.38,1.34.7,2,1s1.23.56,1.84.87a2.61,2.61,0,0,0,1.35.34,5.45,5.45,0,0,0,2.28-.5,2.06,2.06,0,0,0,.41-.23,7.39,7.39,0,0,0,1.88-2.06,4.68,4.68,0,0,0,.67-2.39.79.79,0,0,0-.24-.61,19.27,19.27,0,0,1-3.57-1,4.72,4.72,0,0,1-2.22-1.42,6.11,6.11,0,0,0-1.15-1.06c-.85-.61-1.72-1.19-2.59-1.76,0,0-.24.06-.24.1a9.89,9.89,0,0,0,0,1.09c0,.47.16.94.16,1.4a11.73,11.73,0,0,0,.25,2.65A4.15,4.15,0,0,1,90.92,52.11ZM127,40.52v-.77a.6.6,0,0,0-.58-.62c-.51-.05-1-.08-1.55-.11a4.45,4.45,0,0,1-1.53-.32c-1-.41-1.92-.8-2.88-1.19a4.14,4.14,0,0,0-.6-.18c-.11,0-.3.13-.31.27s-.05.52-.05.78c0,.83,0,1.67,0,2.5a4.32,4.32,0,0,1-.13,1.08,3.69,3.69,0,0,1-1.74,2.12,6.39,6.39,0,0,0-1,.69.35.35,0,0,0,.1.53,6.94,6.94,0,0,0,2,.75,9,9,0,0,1,1.21.32,7,7,0,0,0,4.44-.13,3.15,3.15,0,0,0,2-1.88,7.69,7.69,0,0,0,.53-2.11C126.93,41.78,126.94,41.31,127,40.52Zm-15.5,62.27a1.83,1.83,0,0,0,.06-.19c0-.78,0-1.56,0-2.34.07-1.84-.18-1.59-1.66-1.14a9.19,9.19,0,0,0-.85.38,10.41,10.41,0,0,1-2.66.89,9.28,9.28,0,0,0-1.81.48,12.7,12.7,0,0,1-1.78.57,13.72,13.72,0,0,0-2.36.82,16.69,16.69,0,0,1-2.66.91,5.44,5.44,0,0,0-1,.35.54.54,0,0,0-.23.37,3.21,3.21,0,0,0,0,.93,13.81,13.81,0,0,1,.32,2.47.52.52,0,0,0,.67.47c.83-.29,1.65-.62,2.5-.88a25.06,25.06,0,0,0,2.92-1.11,40.65,40.65,0,0,1,6.94-2.39c.35-.09.7-.18,1-.3A3.09,3.09,0,0,0,111.49,102.79Zm-8.25-54.64a5.49,5.49,0,0,1,1.77.9,4.34,4.34,0,0,0,2,.71,10.48,10.48,0,0,0,2,0,4.73,4.73,0,0,0,4.44-4.46.47.47,0,0,0-.3-.5c-.48-.19-1-.38-1.47-.53A12.71,12.71,0,0,1,108.91,43a4.18,4.18,0,0,1-.85-.67c-.92-.92-1.88-1.8-2.82-2.69a.21.21,0,0,0-.14,0,.17.17,0,0,0-.18.2,22.67,22.67,0,0,0,.31,2.32,10.6,10.6,0,0,1,0,2.64.65.65,0,0,1-.09.3,15.34,15.34,0,0,1-1.31,2.3C103.7,47.63,103.32,47.69,103.24,48.15Zm20.14,45.07a.56.56,0,0,0-.07.17,23.34,23.34,0,0,0,.25,4.65.41.41,0,0,0,.46.31l.31,0a60.31,60.31,0,0,0,6.73-2,2.05,2.05,0,0,0,.43-.18.9.9,0,0,0,.48-.76,4.28,4.28,0,0,0,0-.62,19.89,19.89,0,0,1-.11-2.18,16.69,16.69,0,0,0-.17-1.86.47.47,0,0,0-.45-.36,4.36,4.36,0,0,0-1.66.37c-1.05.46-2.11.89-3.17,1.32S124.38,92.84,123.38,93.22ZM74.49,67.84c.3.08.66.14,1,.26a1.2,1.2,0,0,1,.67.62,1.9,1.9,0,0,1,.21.59,1.57,1.57,0,0,0,.39.83q.51.6,1,1.17a1.86,1.86,0,0,0,1.09.56c.83.14,1.65.25,2.48.31a.84.84,0,0,0,.94-.84,33.82,33.82,0,0,0-.43-5.77c-.05-.25-.13-.5-.18-.7a2.84,2.84,0,0,0-1.55-.44,1.67,1.67,0,0,0-1,.28l-.4.25a5.13,5.13,0,0,1-2.62.94,7.66,7.66,0,0,0-1.84.34,19.34,19.34,0,0,1-2.26.62,12.06,12.06,0,0,0-1.32.45c-.08,0-.2.18-.18.23s.14.31.26.35a4.44,4.44,0,0,0,3.36,0A1.9,1.9,0,0,1,74.49,67.84ZM91.84,32.31c0-.06,0-.21,0-.37a.43.43,0,0,0-.41-.38,3.41,3.41,0,0,0-.46.1A50.8,50.8,0,0,1,86,33a43.57,43.57,0,0,0-4.38,1.2c-.3.09-.59.22-.88.33a.28.28,0,0,0-.12.47c.17.13.35.23.51.36a9.41,9.41,0,0,0,3.34,2c.64.21,1.3.37,2,.55a4.89,4.89,0,0,0,.76.16A2.63,2.63,0,0,0,90,36.79c.32-.54.65-1.07,1-1.59A4.8,4.8,0,0,0,91.84,32.31Zm32.26-.74c-.27-.09-.52-.16-.76-.25s-.57-.28-.86-.39a1.66,1.66,0,0,1-.74-.56c-.43-.59-.86-1.19-1.3-1.77a3.12,3.12,0,0,0-.53-.56c-.06-.06-.19-.05-.29-.05s-.08.06-.09.1c-.12.72-.26,1.44-.37,2.16A6.14,6.14,0,0,1,118,33.44a.62.62,0,0,0,.36.89,1.29,1.29,0,0,1,1.08.75,1.36,1.36,0,0,0,.59.49,6.11,6.11,0,0,0,1.17.44c1.41.4,2.88.47,4.32.73a1.51,1.51,0,0,0,1.06-.21.47.47,0,0,0,.19-.38,1.56,1.56,0,0,0-.21-.58C125.84,34.17,124.91,32.91,124.1,31.57ZM74,42.16h0c.26,0,.52,0,.78,0a1.66,1.66,0,0,0,1.37-.62,10.29,10.29,0,0,1,1-1,3.14,3.14,0,0,0,1-1.39c.14-.4.3-.78.43-1.17a6.48,6.48,0,0,0,.3-2.47.32.32,0,0,0-.21-.2,2.21,2.21,0,0,0-.77,0c-1,.28-1.9.56-2.82.91a13.43,13.43,0,0,1-1.94.57c-.56.11-1.13.23-1.7.3-1,.12-1.17.24-.76,1.29a4.73,4.73,0,0,0,.32.87,14.58,14.58,0,0,1,1.09,2.25,1,1,0,0,0,.85.6C73.29,42.18,73.65,42.16,74,42.16ZM96.56,57.85c-.09-.12-.13-.23-.21-.28a16.73,16.73,0,0,0-1.46-.89,3.16,3.16,0,0,1-1.49-1.53,2.36,2.36,0,0,0-.77-1,7.86,7.86,0,0,0-1.94-1,.5.5,0,0,0-.68.42c0,.47,0,.94,0,1.4s-.07,1.15-.1,1.72c-.4.84-.53,1.79-1,2.62-.13.23-.33.5-.17.72s.57.1.85,0c.51-.13,1-.32,1.49-.48,1.23-.41,2.46-.83,3.69-1.23C95.34,58.19,95.94,58,96.56,57.85Zm10.49-29.69a1.67,1.67,0,0,0,.9,1.07c.35.22.75.37,1.11.58a6.11,6.11,0,0,0,3.62.79l1.25-.13a1,1,0,0,0,.75-.51,26.54,26.54,0,0,0,1.63-3.56c.07-.18-.13-.46-.31-.43-1,.18-2.07.33-3.08.57-1.78.42-3.55.9-5.31,1.37A2.81,2.81,0,0,0,107.05,28.16ZM49.94,114.71a8.88,8.88,0,0,0,.15-1.09,10.85,10.85,0,0,0-.08-1.4.64.64,0,0,0-.5-.54,2.71,2.71,0,0,1-.89-.24,16.22,16.22,0,0,0-3.38-1.57l-1.15-.5-2.39-1.12c-.11,0-.36.09-.35.21.08.72-.16,1.49.16,2.15s1.1.74,1.62,1.16a4.65,4.65,0,0,0,.92.59c1.08.52,2.13,1.08,3.17,1.67A4.92,4.92,0,0,0,49.94,114.71ZM100,35a2.19,2.19,0,0,0,1.32-1.13.72.72,0,0,0-.07-1L98.8,30a2.06,2.06,0,0,0-.33-.33.79.79,0,0,0-.74-.15,2.35,2.35,0,0,0-.43.19,7.81,7.81,0,0,1-3.21,1.16l-.46.09a.84.84,0,0,0-.14.06.36.36,0,0,0-.12.53,9.28,9.28,0,0,0,2,1.75,5.69,5.69,0,0,0,1.69.79C98.07,34.35,99.06,34.68,100,35Zm18.87,3.55h0c0-.57,0-1.15,0-1.72a1.75,1.75,0,0,0-1.06-1.61c-.19-.1-.49,0-.49.18a14.89,14.89,0,0,1-.71,4.3,3.47,3.47,0,0,1-.52,1.29c-.2.24-.34.52-.52.78a1.78,1.78,0,0,1-1.74.84,14.72,14.72,0,0,1-3.1-.34,3.23,3.23,0,0,0-.94-.1c-.06,0-.14.1-.2.17s0,.11,0,.13c.69.36,1.38.72,2.09,1.06a9.25,9.25,0,0,0,.88.32,1.07,1.07,0,0,0,1.15-.26.52.52,0,0,1,.71,0,1.52,1.52,0,0,1,.22.22,1,1,0,0,0,1.4.27c.42-.2.8-.5,1.21-.73a3.09,3.09,0,0,0,1-1,3.77,3.77,0,0,0,.6-1.92C118.9,39.77,118.88,39.14,118.88,38.51ZM84.66,49.57A3.8,3.8,0,0,0,86.42,51a3.1,3.1,0,0,1,.72.32,4.59,4.59,0,0,0,1.93.57,1,1,0,0,0,.59-.14,5.41,5.41,0,0,0,.65-.45,2.07,2.07,0,0,0,.86-1.76A3.27,3.27,0,0,0,91,48.46a4.06,4.06,0,0,1-.17-1.69,7.38,7.38,0,0,0-.33-3,3,3,0,0,1-.14-1.23c0-.08-.09-.18-.16-.24s-.23.09-.24.31a21.1,21.1,0,0,1-.66,3.7,3.65,3.65,0,0,1-.73,1.54,2,2,0,0,1-1.28.83A9.44,9.44,0,0,0,84.66,49.57ZM48.92,120.06a3.56,3.56,0,0,0,.6-.11c1.29-.54,2.58-1.11,3.88-1.63A14.27,14.27,0,0,0,57.46,116a2,2,0,0,1,2-.51,2.65,2.65,0,0,0,.3.06.57.57,0,0,0,.64-.53,6.12,6.12,0,0,0,0-1.71.38.38,0,0,0-.56-.31c-.66.32-1.3.65-1.95,1s-1.55.87-2.35,1.23a7.44,7.44,0,0,0-1.48.84A9.59,9.59,0,0,1,52,117.4a1.73,1.73,0,0,1-1.07.12.76.76,0,0,0-.59,0c-.23.12-.48.21-.71.32s-.53.05-.74.39A4.71,4.71,0,0,0,48.92,120.06ZM79.68,35.75a4.2,4.2,0,0,0-.14.59,11.39,11.39,0,0,1-.6,2.58,5.57,5.57,0,0,1-1.48,2.36,13.19,13.19,0,0,0-1,1,1.55,1.55,0,0,1-1.23.56c-.26,0-.52,0-.78,0s-.73.07-1.09.13-.48.32-.33.7a5.6,5.6,0,0,0,.33.7.73.73,0,0,0,.35.28,1.88,1.88,0,0,0,.77.12A3.92,3.92,0,0,1,76,45,2.44,2.44,0,0,0,79,43.48a10,10,0,0,0,.91-4.24,4.65,4.65,0,0,1,.24-1.85,1.82,1.82,0,0,0,.05-1.22A.57.57,0,0,0,79.68,35.75Zm-27,73.17a1.92,1.92,0,0,0-.93-.8c-1.62-.87-3.33-1.51-5-2.36a.53.53,0,0,0-.58.1,1.14,1.14,0,0,0-.48.6,1,1,0,0,1-.83.63c-.26.06-.52,0-.78.1-.07,0-.13.12-.17.2a.19.19,0,0,0,0,.14,4.15,4.15,0,0,0,.53.32c1.57.84,3.24,1.46,4.87,2.17.47.21,1,.39,1.45.59.33-.29.65-.56.94-.86S52.52,109.37,52.64,108.92Zm61.58-63.41c-.1.3-.21.59-.3.89a4.68,4.68,0,0,1-1.7,2.9,9.16,9.16,0,0,1-.84.7,1.27,1.27,0,0,1-.41.23,12.18,12.18,0,0,1-2,.44,6.75,6.75,0,0,1-4.48-1l-.26-.17a1,1,0,0,0-.29-.1.36.36,0,0,0-.28.06.27.27,0,0,0,0,.26,3.25,3.25,0,0,0,1.53,1,7.77,7.77,0,0,1,1.46.54,6,6,0,0,0,3,.8,5.39,5.39,0,0,1,.77.13,4,4,0,0,0,3.72-1.52,2.83,2.83,0,0,0,.67-2,3.53,3.53,0,0,1,.08-1.55,1,1,0,0,0,0-.76A1.37,1.37,0,0,0,114.22,45.51ZM36.7,114.18a1.28,1.28,0,0,0-.22.9.57.57,0,0,0,.3.51A29.34,29.34,0,0,0,39.56,117a9.29,9.29,0,0,1,1.25.65,48,48,0,0,0,5.26,2.41,3.31,3.31,0,0,0,.45.12c.11,0,.3-.15.31-.29a2.86,2.86,0,0,0-.15-1.23,1.11,1.11,0,0,0-.61-.68,11.58,11.58,0,0,0-1.61-.61,10.28,10.28,0,0,1-3.37-1.61,8.43,8.43,0,0,0-2.71-1.19ZM102.91,51a2.22,2.22,0,0,0-.07.45,23.74,23.74,0,0,1-.25,2.65,1.48,1.48,0,0,1-.36.84,9.28,9.28,0,0,0-.73,1,.27.27,0,0,0,0,.26.32.32,0,0,0,.28.07c.87-.34,1.75-.66,2.61-1a19.21,19.21,0,0,1,4.45-1.47,3.35,3.35,0,0,0,.73-.26c.08,0,.19-.13.18-.19a.35.35,0,0,0-.18-.23c-.45-.12-.91-.2-1.37-.32A8.17,8.17,0,0,1,106,52a12.17,12.17,0,0,0-2.78-1A1,1,0,0,0,102.91,51Zm27.18-6.8a3.45,3.45,0,0,0-.18-1.68c-.18-.44-.31-.89-.48-1.32a3.78,3.78,0,0,0-1.36-1.86c-.11-.07-.36,0-.37.13a14.58,14.58,0,0,0-.13,2.18,5.07,5.07,0,0,1-.4,2.58,1,1,0,0,0-.08.3,2.29,2.29,0,0,1-.83,1.45c-.3.29-.57.6-.85.91a.18.18,0,0,0,0,.14c.07,0,.17.12.24.1.89-.26,1.79-.53,2.68-.81.34-.11.68-.25,1-.39A1.14,1.14,0,0,0,130,45C130.07,44.6,130.08,44.23,130.09,44.18ZM94.49,54.9c0,.15,0,.32.12.4A5.58,5.58,0,0,0,99,57a1.51,1.51,0,0,0,1-.42,5.24,5.24,0,0,0,1.71-2.38,2.62,2.62,0,0,1,.27-.56,2.14,2.14,0,0,0,.27-1.2,15.84,15.84,0,0,1,0-2.18c0-.06-.11-.15-.19-.19s-.2,0-.24.14a1.43,1.43,0,0,0-.17.43,6.14,6.14,0,0,1-.85,2.16,2.21,2.21,0,0,1-1,1c-.54.31-1.09.62-1.65.89a3.79,3.79,0,0,1-.88.29A7,7,0,0,1,94.49,54.9ZM122,48.53a.17.17,0,0,0,.12-.25s-.07-.06-.11-.07l-1.24-.05a6.21,6.21,0,0,1-3-.77,13.35,13.35,0,0,0-1.87-.77.42.42,0,0,0-.46.31,4.36,4.36,0,0,0-.07.62c0,.47,0,.93,0,1.4a2.35,2.35,0,0,1-.33,1.34,3.51,3.51,0,0,0-.26.73c0,.13.12.31.26.29a2.21,2.21,0,0,0,.46-.07C117.79,50.46,119.9,49.46,122,48.53ZM52,113.42h0v.94c0,.35.19.49.47.34,1.15-.6,2.31-1.18,3.44-1.81a18.83,18.83,0,0,1,3.84-1.71,2.16,2.16,0,0,0,.54-.29.47.47,0,0,0,.06-.57.79.79,0,0,0-.41-.16c-.09,0-.19.07-.29.09-.5.13-1,.29-1.51.38a14,14,0,0,0-3.3.9,1,1,0,0,1-.91,0l-.41-.22a.59.59,0,0,0-.59,0A1.48,1.48,0,0,0,52,112.8C52,113,52,113.21,52,113.42ZM76.18,45.94v0c-.21,0-.42.05-.62.05l-.93,0a.4.4,0,0,0-.36.55.8.8,0,0,0,0,.15,29.43,29.43,0,0,0,2.29,4.77,3.27,3.27,0,0,0,.3.35.26.26,0,0,0,.39-.08,6.63,6.63,0,0,0,.4-1A17.23,17.23,0,0,0,78,46.47a.59.59,0,0,0-.58-.6ZM96,34.82a2.8,2.8,0,0,0,.38.52c.61.49,1.22,1,1.85,1.43a8.61,8.61,0,0,0,1.35.78,2,2,0,0,0,.9.19,4.3,4.3,0,0,0,3.73-2.16,7.58,7.58,0,0,1,.43-.68c-.26-.23-.51-.1-.75-.07a1.06,1.06,0,0,1-1-.33c-.11-.12-.21-.24-.32-.35a.36.36,0,0,0-.42,0l-.29.37a8,8,0,0,1-.68.84,1.54,1.54,0,0,1-1.58.43,6.43,6.43,0,0,1-1.17-.39A5.36,5.36,0,0,0,96,34.82Zm-47.9,81.4a1.64,1.64,0,0,0-.26-.33c-.39-.26-.8-.49-1.18-.75a4.54,4.54,0,0,0-1.4-.68,13.93,13.93,0,0,1-2.89-1.18,5.1,5.1,0,0,0-2.72-.48.34.34,0,0,0-.21.2.33.33,0,0,0,0,.27.62.62,0,0,0,.25.17,10.68,10.68,0,0,1,2.78,1.4,17.26,17.26,0,0,0,4.14,1.78A1.28,1.28,0,0,0,48.05,116.22Zm5.79-9.54a1.05,1.05,0,0,0-.77-1.2c-.39-.15-.77-.33-1.14-.51L47.6,102.8c-.33-.17-.67-.3-1-.45a.29.29,0,0,0-.36.2c0,.15-.05.3-.06.46a.8.8,0,0,0,.53.86c1.43.61,2.72,1.53,4.21,2a5.63,5.63,0,0,1,.68.38l1.82.91a.31.31,0,0,0,.36-.2ZM89.29,55.74c-.05,0-.08-.08-.11-.09s-.13,0-.15.05A11.35,11.35,0,0,1,87,58.21l-.82.72-1.86,1.65a1.69,1.69,0,0,0-.3.36.88.88,0,0,0-.08.3c0,.13.16.34.28.31l2.69-.76a1,1,0,0,0,.57-.5,15.52,15.52,0,0,0,1.85-4.11A1.62,1.62,0,0,0,89.29,55.74ZM44.41,102.92c0-.25,0-.61,0-1a1,1,0,0,0-.63-1c-.22-.12-.45-.25-.68-.36a.28.28,0,0,0-.38.15,8.05,8.05,0,0,0-.13,2,3.73,3.73,0,0,0,.49,1.62,1,1,0,0,0,.6.47c.43.16.76,0,.78-.42S44.41,103.5,44.41,102.92ZM58.93,108l-2.08-1a4.08,4.08,0,0,0-.6-.16.55.55,0,0,0-.5.29c-.09.46-.18.92-.26,1.37,0,.2.29.51.5.52a1.48,1.48,0,0,0,.47,0c.79-.23,1.58-.48,2.36-.74C58.88,108.28,58.89,108.13,58.93,108ZM45.09,59.1h.07c.05,0,.13,0,.13-.06s0-.22,0-.25a6.23,6.23,0,0,0-.8-.44c-.62-.24-1.24-.47-1.87-.68-.06,0-.17.08-.24.15s0,.09,0,.14a.75.75,0,0,0,.46.58c.63.2,1.27.38,1.91.56A1.63,1.63,0,0,0,45.09,59.1Zm74.66-34.42c-.06.07-.18.16-.17.2a15,15,0,0,0,1.34,2.61.35.35,0,0,0,.11.1l.29.11a.21.21,0,0,0,.14,0c.06-.07.15-.2.13-.24-.48-.85-1-1.7-1.47-2.54a.73.73,0,0,0-.21-.22S119.81,24.68,119.75,24.68ZM130.93,44.9l.45-.1a1.74,1.74,0,0,0,.26-.15.32.32,0,0,0,.12-.4,1.85,1.85,0,0,0-.67-1s-.1,0-.16,0A3.33,3.33,0,0,0,130.93,44.9ZM105.79,30.82a19.58,19.58,0,0,1,.45-2.18c0-.1-.14-.28-.28-.32a.33.33,0,0,0-.35.21A5,5,0,0,0,105.79,30.82ZM73.2,70.37c.09.11.16.3.27.32a6.12,6.12,0,0,0,1,.1s.12-.12.16-.2a.2.2,0,0,0-.05-.14c-.11-.09-.23-.23-.36-.25A1.52,1.52,0,0,0,73.2,70.37Zm48.86-41.23a1.08,1.08,0,0,0,.52.74c.12.06.2,0,.25-.06a.21.21,0,0,0,0-.13.79.79,0,0,0-.4-.59C122.37,29,122.2,29.12,122.06,29.14Z"/><path class="cls-1" d="M93.21,91.07a17.4,17.4,0,0,1-.33-3.16c0-.68-.06-1.36-.1-2a3.41,3.41,0,0,0-.11-.78,9.41,9.41,0,0,1-.24-2.48,7.29,7.29,0,0,0-.17-1.86,2,2,0,0,1,0-.93,6.89,6.89,0,0,0,0-2.64,8.38,8.38,0,0,1,0-1.87c0-.37,0-.73.06-1.1A6.92,6.92,0,0,0,92,72.05c0-.2-.1-.4-.14-.61a.59.59,0,0,1,.36-.62,9.36,9.36,0,0,1,.91-.24,11.44,11.44,0,0,0,3-1,5.4,5.4,0,0,1,.88-.31q.8-.23.9.54A5.86,5.86,0,0,1,98,70.92a17.22,17.22,0,0,0,.07,2c.06,2.24.29,4.47.54,6.7.1.88.11,1.77.15,2.65A11.59,11.59,0,0,0,99,84.79a1.86,1.86,0,0,1,.05.62,5.81,5.81,0,0,0,.32,2.31,7.28,7.28,0,0,1,.16,1.86.67.67,0,0,1-.58.63c-.36,0-.73,0-1.09,0a5.36,5.36,0,0,0-2.12.5,9.29,9.29,0,0,1-.87.35A2.26,2.26,0,0,1,93.21,91.07Zm-.4-19.51c0,.24,0,.44.06.65a10.55,10.55,0,0,1,.06,1.86,32,32,0,0,0,0,5.79c.06,1,.12,2,.12,3a10.39,10.39,0,0,0,.25,2.48,7,7,0,0,1,.26,2.33,5.09,5.09,0,0,0,.3,1.85c.23.82.55,1.11,1.49.76a9.11,9.11,0,0,1,2.7-.79.38.38,0,0,0,.33-.45c-.12-1.4,0-2.82-.22-4.21,0-.21,0-.42,0-.63L98,82.3a5.78,5.78,0,0,1,0-.93,6.57,6.57,0,0,0-.08-1.25,13.29,13.29,0,0,1-.2-2.18,11.31,11.31,0,0,0-.15-2.18c-.1-.62-.18-1.24-.28-1.86a13.22,13.22,0,0,0-.09-2.81,4.63,4.63,0,0,0-.09-.62.51.51,0,0,0-.49-.31,3.81,3.81,0,0,0-.45.13,14.53,14.53,0,0,1-2.8,1A2.14,2.14,0,0,0,92.81,71.56Z"/><path class="cls-1" d="M105.11,66.58c.3-.11.49-.2.69-.25,1.51-.41,2.94-1,4.4-1.6a1.59,1.59,0,0,1,.61-.09.9.9,0,0,1,.73.71c.17,1,.35,2.05.42,3.1s.25,2.17.25,3.27a17.78,17.78,0,0,1,.35,3.57c0,.31.09.62.13.93l.24,1.86c0,.31.1.61.14.92a2.23,2.23,0,0,1,.07.62,15.44,15.44,0,0,0,.07,3.26.87.87,0,0,1-.45.77,17,17,0,0,1-3.59,1,5.7,5.7,0,0,0-1.35.38c-.14,0-.28.13-.42.19a.44.44,0,0,1-.59-.32,26.84,26.84,0,0,1-.31-3.89,8.38,8.38,0,0,0-.15-1.87,12.94,12.94,0,0,1-.2-2.33,19.12,19.12,0,0,0-.19-2.5,17.24,17.24,0,0,0-.29-3c-.28-.9-.36-1.84-.61-2.74A4.13,4.13,0,0,1,105.11,66.58Zm.85.69a5.87,5.87,0,0,0,.14,2.55,6.85,6.85,0,0,1,.16.76c.09,1,.18,2,.25,3,.06.83,0,1.67.16,2.49.21,1.34.28,2.69.45,4,.15,1.19.22,2.39.34,3.58a1.8,1.8,0,0,0,.17.47,6.73,6.73,0,0,1,1.09,0,4.8,4.8,0,0,0,2.42-.5,2,2,0,0,0,1.07-.84c0-.54.11-1.06.1-1.58a18.81,18.81,0,0,0-.1-2.81,32.56,32.56,0,0,1-.3-3.27c0-.57-.14-1.14-.18-1.71-.08-1-.3-2.06-.31-3.11a25.57,25.57,0,0,0-.54-4.18.71.71,0,0,0-.37-.54,3.32,3.32,0,0,0-.68.25,4.27,4.27,0,0,1-1.33.45A7,7,0,0,0,106,67.27Z"/><path class="cls-1" d="M127,60.29a5.8,5.8,0,0,1-.17,1.55,1.61,1.61,0,0,0,0,.62c.13,1.51.28,3,.42,4.52a10,10,0,0,1-.07,2.5,5.22,5.22,0,0,0,0,1.25,18.08,18.08,0,0,1,0,3.75,2.9,2.9,0,0,0,.15,1.54,2.06,2.06,0,0,1,.1.92c0,.58,0,1.15,0,1.73s0,.78-.75.93-1.14.19-1.68.37a8.35,8.35,0,0,1-1.85.27,1.86,1.86,0,0,1-.47,0,.78.78,0,0,1-.61-.44,3.09,3.09,0,0,1-.25-.9c-.07-.57-.08-1.14-.1-1.72,0-.31,0-.63,0-.94,0-1-.15-2.07-.07-3.12s0-2.09,0-3.14a11.11,11.11,0,0,0-.08-1.41,46.07,46.07,0,0,1-.31-4.84,6.25,6.25,0,0,0-.45-2.14.5.5,0,0,1,.38-.59,6.43,6.43,0,0,1,.76-.17,3.33,3.33,0,0,0,1.17-.44A3.3,3.3,0,0,1,124,60a9.63,9.63,0,0,0,2.46-1c.21-.12.56.11.57.37S127,60,127,60.29Zm-4.81,1.13a3.59,3.59,0,0,0-.4,2.27,26.33,26.33,0,0,1,.22,3.43c0,1.66.2,3.33.11,5a18.25,18.25,0,0,0,.09,2.66c.1,1.24.26,2.49.4,3.73a4.11,4.11,0,0,0,.12.61.65.65,0,0,0,.56.48,1.84,1.84,0,0,0,.62,0c.75-.21,1.5-.43,2.24-.7a.8.8,0,0,0,.56-.84l-.09-2.35a15.78,15.78,0,0,0-.07-2.18c-.14-.8.13-1.56,0-2.34a7.53,7.53,0,0,1,0-1.71,13.66,13.66,0,0,0-.06-3.44c-.07-.46-.15-.93-.19-1.39a9.83,9.83,0,0,1,0-2,20,20,0,0,0,0-2.19c0-.16-.27-.34-.46-.35a2.07,2.07,0,0,0-.91.19c-.52.23-1.06.43-1.59.65Z"/><path class="cls-2" d="M163.51,133.46h-.2C131.05,133,41.94,132,17.21,133a8.55,8.55,0,0,1-9.11-7.62c-3-39.62-2.29-71.11-1-111.26A8.19,8.19,0,0,1,9.74,8.37a9.47,9.47,0,0,1,6.77-2.48c18.7.71,38.25.12,58.95-.5,31.59-.95,64.26-1.94,93.39,2.09,2.54.36,5,.8,6.87,2.3,3.17,2.53,3.35,6.81,3.27,10.62-.28,12.18-.55,22.49-.82,32.46s-.54,20.28-.81,32.46c-.19,8.34-.2,24.15-.19,35.32a12.37,12.37,0,0,1-3.77,8.82A14.15,14.15,0,0,1,163.51,133.46ZM55,130.92c44.9,0,107.51.87,108.36.88a12.33,12.33,0,0,0,8.9-3.52,10.69,10.69,0,0,0,3.28-7.64c0-11.18,0-27,.2-35.36.27-12.18.54-22.49.81-32.46s.54-20.28.81-32.46l.83,0-.83,0c.08-3.41-.06-7.23-2.64-9.28-1.56-1.25-3.76-1.64-6.07-2-29-4-61.58-3-93.11-2.08-20.73.62-40.31,1.21-59.07.5a7.87,7.87,0,0,0-5.58,2,6.57,6.57,0,0,0-2.13,4.58c-1.27,40.1-1.94,71.55,1,111.09a6.87,6.87,0,0,0,7.39,6.08C25,131,38.86,130.92,55,130.92Z"/><path class="cls-1" d="M27.37,39.53a24.89,24.89,0,0,0-5.84-1.88,3.43,3.43,0,0,1-1.19-.48.8.8,0,0,1-.28-.71.82.82,0,0,1,.65-.46,15.08,15.08,0,0,1,2.76.33A32.71,32.71,0,0,1,28.22,38c1.58.68,3.27,1.09,4.86,1.73a41.93,41.93,0,0,0,6.19,1.76,3.77,3.77,0,0,1,2.51,1.11c.11.15.29.27.35.44a.65.65,0,0,1,0,.53.65.65,0,0,1-.49.09c-1.67-.38-3.34-.74-5-1.17s-3.21-.88-4.79-1.39S28.87,40.06,27.37,39.53Z"/><path class="cls-1" d="M51.26,38.25c-.54.07-.68-.31-.8-.66-.55-1.63-1.11-3.26-1.6-4.91-.35-1.18-.55-2.39-.87-3.58-.26-1-.62-2-.88-3C46.57,24.07,46,22,45.56,19.94a5.23,5.23,0,0,1,.06-1.67c0-.14.22-.3.37-.36s.29.13.34.25a24.47,24.47,0,0,1,1,2.58c.76,2.63,1.47,5.27,2.17,7.92.21.79.27,1.62.47,2.42.33,1.35.73,2.69,1.09,4A6.09,6.09,0,0,1,51.26,38.25Z"/><path class="cls-1" d="M47.83,43.43a3.71,3.71,0,0,1-.57-.48,39.33,39.33,0,0,0-6.63-7.13A2,2,0,0,1,40,33.9c.09-.6.48-.72,1-.34l.09.07c1.42,1.47,2.86,2.93,4.25,4.43C46.17,39,47,40,47.8,41a6,6,0,0,1,.82,1.59.87.87,0,0,1-.12.79C48.34,43.52,48,43.43,47.83,43.43Z"/><path class="cls-1" d="M31.86,25.05c-.47-.45-1-.88-1.42-1.37a9.3,9.3,0,0,0-2.67-2.36,3.21,3.21,0,0,1-1-1.18.88.88,0,0,1,.06-.72c.05-.09.4-.07.59,0a6.6,6.6,0,0,1,3.12,2.26A11.66,11.66,0,0,1,32,23.53a4.25,4.25,0,0,1,.25,1.33Z"/><path class="cls-1" d="M34.55,28.2c1.63-.14,2.35.8,3.13,1.59.16.16.13.54.09.81,0,.08-.43.22-.5.16C36.4,30,35.56,29.16,34.55,28.2Z"/><path class="cls-1" d="M160.53,37.74a25,25,0,0,1,5.84-1.88,3.69,3.69,0,0,0,1.2-.48.8.8,0,0,0,.27-.72.81.81,0,0,0-.64-.45,15.08,15.08,0,0,0-2.77.33,31.07,31.07,0,0,0-4.74,1.68c-1.58.67-3.27,1.09-4.87,1.73a42.83,42.83,0,0,1-6.19,1.76,3.77,3.77,0,0,0-2.51,1.11c-.11.15-.29.27-.35.44a.63.63,0,0,0,0,.52c.06.1.33.13.49.1,1.66-.38,3.33-.74,5-1.17s3.2-.89,4.78-1.39S159,38.27,160.53,37.74Z"/><path class="cls-1" d="M136.65,36.46c.53.06.67-.32.79-.66.55-1.64,1.11-3.26,1.6-4.91.35-1.18.55-2.4.87-3.58.26-1,.62-2,.88-3,.55-2.06,1.08-4.12,1.55-6.19a5.3,5.3,0,0,0-.06-1.68c0-.13-.22-.29-.37-.35s-.29.13-.33.25a27,27,0,0,0-1,2.58c-.76,2.63-1.47,5.27-2.17,7.91-.21.8-.26,1.63-.46,2.43-.34,1.35-.73,2.69-1.1,4A6.09,6.09,0,0,0,136.65,36.46Z"/><path class="cls-1" d="M140.08,41.64a3.52,3.52,0,0,0,.56-.48A39.33,39.33,0,0,1,147.27,34a2,2,0,0,0,.64-1.92c-.09-.61-.48-.73-1-.35l-.09.07c-1.42,1.48-2.86,2.94-4.25,4.44-.88.94-1.72,1.92-2.51,2.94a6.08,6.08,0,0,0-.82,1.58.89.89,0,0,0,.13.8C139.56,41.73,139.93,41.64,140.08,41.64Z"/><path class="cls-1" d="M156,23.26c.47-.45,1-.88,1.42-1.37a9.63,9.63,0,0,1,2.67-2.37,3.13,3.13,0,0,0,1-1.18.86.86,0,0,0-.06-.71c0-.09-.4-.07-.59,0a6.6,6.6,0,0,0-3.12,2.26,12.2,12.2,0,0,0-1.42,1.86,4.37,4.37,0,0,0-.25,1.34Z"/><path class="cls-1" d="M153.36,26.41c-1.64-.14-2.36.8-3.14,1.59a1.13,1.13,0,0,0-.09.81c0,.08.43.22.5.15C151.5,28.18,152.34,27.37,153.36,26.41Z"/></svg>