<?xml version="1.0" encoding="utf-8"?>
<!-- Generator: Adobe Illustrator 23.0.1, SVG Export Plug-In . SVG Version: 6.00 Build 0)  -->
<svg version="1.1" id="Layer_1" xmlns="http://www.w3.org/2000/svg" xmlns:xlink="http://www.w3.org/1999/xlink" x="0px" y="0px"
	 viewBox="0 0 727.4 121.1" style="enable-background:new 0 0 727.4 121.1;" xml:space="preserve">
<style type="text/css">
	.st0{fill:#CC3366;}
</style>
<title>Artboard 27</title>
<path class="st0" d="M35.4,33.4c0,1,0,2,0,3.1c0,1.8,0.1,3.6,0.2,5.4c0,1.2,0.2,2.5,0.2,3.7c0,0.6,0.1,1.2,0.1,1.8
	c-0.3,0.2-0.5,0.3-0.7,0.4l-0.7,0.4c-0.6-1.1-1.1-2.3-1.5-3.5c-0.8-2.1-1.7-4.2-2.7-6.2c-0.2-0.5-0.5-0.5-1-0.2c0,0.1-0.1,0.3,0,0.4
	c1.5,3.3,2.9,6.7,4.4,10.1c-1.8,1.1-3.8,2-4.8,4.1c-1.6-1.7-3.4-3.4-5.2-4.9c-0.5,0.6-0.5,0.9-0.1,1.4c0.7,0.7,1.4,1.4,2.1,2.1
	c0.9,0.8,1.7,1.7,2.5,2.6c-0.6,1.3-0.6,2.8-1.7,3.9c-0.2,0-0.5-0.1-0.7-0.1c-0.5,0-0.9-0.1-1.4-0.1c-0.3,0-0.6,0.2-0.6,0.5
	c0,0,0,0,0,0c0,0.4,0.2,0.5,0.5,0.6s0.7,0.1,1,0.2c0.4,0,0.8,0.2,1.1,0.4c-0.1,2.5-0.9,4.9-0.7,7.3c-0.2,0.1-0.5,0.2-0.8,0.3
	c-1,0.2-1.9,0.4-2.9,0.6c-0.4,0.1-0.8,0.2-1.1,0.2c-1.4,0.1-2.7,0.4-4,0.8c-0.3,0.1-0.6,0.2-0.4,0.7c0.4,0.2,0.9,0.3,1.4,0.2
	c1.4-0.2,2.8-0.3,4.2-0.6s2.6-0.6,4.1-0.9c0.1,0.4,0.1,0.8,0.1,1.1c0,0.3,0,0.5,0.1,0.8c0.3,0.8,0.6,1.7,0.9,2.5
	c-0.7,0.8-1.3,1.5-1.9,2.2c-0.6,0.8-1.4,1.5-2.2,2.2c-1,0.8-1.8,1.8-2.7,2.8c-0.1,0.2-0.2,0.4-0.3,0.6c-0.1,0.3,0,0.6,0.5,0.6
	c1-1.2,2.1-2.3,3.3-3.2c1-0.8,1.9-1.8,2.7-2.9c0.3-0.3,0.6-0.7,0.9-1c0.8,1.1,1.6,2.1,2.4,3.1c0.2,0.4,0.3,0.8,0.1,1.2
	c-0.5,1.9-1.3,3.8-1.7,5.8c0,0.1-0.1,0.2-0.1,0.4c-0.8,2.3-1.5,4.6-2.2,7c-0.2,0.7-0.4,1.3-0.7,1.9c-0.5,1.1-1,2.3-1.3,3.5
	c-0.2,0.7-0.4,1.3-0.5,2c0,0.2,0.1,0.5,0.3,1.1c0.3-0.5,0.5-0.6,0.5-0.8c0.3-1.2,0.6-2.4,1.2-3.5c0.5-1.6,1.3-3.1,1.7-4.7
	c0.5-1.8,1.2-3.7,1.8-5.5c0.2-0.6,0.4-1.2,0.5-1.8c0.2-1.8,1.2-3.3,1.5-5c0-0.2,0.2-0.3,0.3-0.4c1.1,0.5,2.2,1,3.2,1.5
	c-0.1,1.4-0.3,2.8-0.3,4.1c-0.1,1.4,0,2.8,0.2,4.2c0.3-0.2,0.5-0.2,0.6-0.3c0.1-0.3,0.2-0.7,0.2-1c0-2-0.1-4,0.1-6
	c0-0.3,0-0.6,0.1-0.9c1.1-0.3,1.7-1.3,1.5-2.4c0,0,0,0,0,0c-0.2-1.2-0.1-2.5,0.2-3.7c0-0.3,0-0.5,0-0.8c0-0.7,0-1.3-0.1-2
	c-0.1-1.2-0.1-2.4,0-3.6c0.1-2.4-0.1-4.8-0.1-7.2c0-0.3,0-0.7,0.1-1c0.7-1.2,0.4-2.6,0.5-3.9c0.1-1,0-2.1,0.2-3.2
	c0.2-0.8-0.1-1.6,0.1-2.4c0.3-0.8-0.1-1.8-0.9-2.1c0,0,0,0-0.1,0c0-1.4-0.1-2.8-0.2-4.2c0-2.9-0.1-5.8-0.1-8.7c0-0.2,0-0.4,0-0.7
	c0-0.5-0.3-0.8-0.7-0.7S35.4,33.1,35.4,33.4z M36.1,49.5c0,1.1,0,2.2-0.1,3.3c-0.2,1.7-0.1,3.4-0.9,5c0,0.1-0.1,0.3,0,0.4
	c0,1.2,0,2.5,0.1,3.7c0,2,0.1,4,0.2,6c0,1-0.1,2-0.3,2.9c-0.1,1-0.1,1.9,0,2.9c0,0.4,0.2,0.8,0.2,1.2c0,0.9,0,1.8,0,2.8
	c-1.1-0.2-2.1-0.7-2.9-1.4c-0.3-0.2-0.5-0.4-0.8-0.6c-1-0.6-1.7-1.6-2-2.8c-0.2-1.1-0.6-2.1-1.2-3c-0.1-0.1-0.1-0.2-0.1-0.2
	c0.1-1.3-0.7-2.5-0.8-3.8c-0.2-1.8-0.1-3.7,0.4-5.4c0.5-1.8,1-3.7,1.6-5.5c0.1-0.6,0.5-1.1,0.9-1.6c0.6-0.5,1-1.2,1.6-1.7
	c0.6-0.5,1.2-0.9,1.8-1.3c0.8-0.4,1.6-0.8,2.4-1.2C36,49.4,36.1,49.5,36.1,49.5z"/>
<path class="st0" d="M33.9,90.9c0,0.2,0,0.4,0,0.6c0,0.8,0,1.6,0,2.4c0,3-0.1,6.1-0.1,9.1c0,0.8,0,1.5,0,2.3c0,2.5-0.2,5,0,7.5
	c0.1,2.1,0.1,4.1,0.1,6.2c0,0.5,0,0.9,0.1,1.4c0,0.4,0.3,0.6,0.8,0.6c0.1-0.2,0.1-0.4,0.2-0.6c0.1-1.5,0.2-3,0.2-4.5
	s-0.2-2.7-0.2-4.1c0-1.7,0-3.3,0-5c0-1.4,0-2.7,0-4.1s0.1-2.7,0.2-4c0-0.5-0.1-1-0.1-1.5c0-2,0.1-3.9,0.1-5.9c0-0.2,0-0.3,0-0.5
	c0-0.3-0.2-0.5-0.5-0.5C34.2,90.3,33.9,90.6,33.9,90.9C33.9,90.9,33.9,90.9,33.9,90.9z"/>
<path class="st0" d="M30.8,13.5c0.2-0.3,0.4-0.6,0.5-0.9c0-0.3-0.1-0.6-0.3-0.8c-0.2-0.2-0.6-0.1-0.8,0.1s-0.3,0.4-0.5,0.6l-0.5,0.6
	c-0.6-0.1-0.5-0.7-0.8-1c-0.2-0.2-0.4-0.3-0.6-0.4c-0.4-0.1-0.5,0.3-0.6,0.6c0,0.2,0,0.3,0,0.5c0,0.3,0.1,0.6,0.2,0.9
	c0.2,0.6-0.1,1.2-0.6,1.4c0,0,0,0-0.1,0c-0.3,0.1-0.6,0.2-0.8,0.3c-0.3,0.2-0.5,0.6-0.4,1c0.1,0.3,0.5,0.5,0.9,0.4l0.9-0.2
	c0,0.2,0.1,0.3,0.1,0.5c0.1,0.5,0.2,1,0.3,1.5c0,0.3,0.3,0.5,0.6,0.6c0.3,0,0.6-0.3,0.6-0.7s0-0.8,0-1.1s0-0.5,0-0.7
	c0.5-0.3,1,0,1.4,0.1s0.8,0.1,1-0.4c0.2-0.4,0.1-0.8-0.2-1c-0.3-0.3-0.7-0.6-1.2-1.1C30.1,14.1,30.4,13.8,30.8,13.5z"/>
<path class="st0" d="M29.8,108.1c0.2-0.6,0.4-1.1,0.6-1.7l1.4,0.5c0.6-0.9,0.6-1-1-2.4c0-0.1,0-0.2,0.1-0.3c0.3-0.4,0.5-0.8,0.8-1.1
	s0.4-1,0-1.3s-0.7,0-1,0.3s-0.7,0.8-1.3,0.8c-0.2-0.3-0.3-0.6-0.5-0.9c-0.2-0.3-0.6-0.4-0.9-0.3c-0.3,0.1-0.4,0.5-0.3,0.8
	c0.1,0.5,0.2,1.1,0.3,1.7c-0.8,0.2-1.5,0.2-1.4,1.2l1.9,0.7v1.9c0,0.4,0.2,0.7,0.6,0.7C29.4,108.7,29.7,108.4,29.8,108.1z"/>
<path class="st0" d="M21.7,58.3c0-0.2-0.1-0.5-0.4-0.6c-0.3-0.1-0.6-0.2-0.9-0.2c-0.5,0-1-0.1-1.5-0.1c-1.6-0.2-3.1-0.4-4.7-0.6
	c-2.3-0.2-4.6-0.4-6.9-0.5c-0.8-0.1-1.6,0-2.4,0.4C5.5,57,5.7,57.2,6,57.3c2,0.3,4,0.5,6.1,0.8c2.3,0.2,4.6,0.5,6.9,0.7
	c0.8,0.1,1.5,0.1,2.3,0.1C21.5,58.7,21.6,58.5,21.7,58.3z"/>
<path class="st0" d="M29.1,47c0-0.5-0.1-1.1-0.1-1.7c0.4-0.1,0.9-0.3,1.3-0.5c0.2-0.1,0.3-0.4,0.4-0.6c-0.1-0.2-0.2-0.4-0.5-0.5
	c-0.5-0.2-1.1-0.2-1.5-0.7c0-0.3-0.1-0.7-0.2-1c0-0.3-0.2-0.5-0.5-0.6c-0.2,0-0.4,0.1-0.5,0.3c-0.2,0.2-0.4,0.4-0.5,0.7
	c-0.1,0.3-0.2,0.6-0.4,1c-0.2,0-0.4-0.1-0.5-0.1c-0.2-0.2-0.6-0.1-0.7,0.1c0,0,0,0,0,0.1c-0.2,0.3-0.2,0.7,0.1,0.9
	c0.2,0.2,0.5,0.4,0.8,0.6c-0.2,0.5-0.4,0.9-0.6,1.4c-0.1,0.3,0,0.7,0.3,0.9c0.3,0.2,0.6,0.1,0.8-0.1s0.5-0.4,0.9-0.7
	c0.1,0.3,0.1,0.5,0.2,0.7c0,0.3,0.2,0.5,0.5,0.5c0,0,0,0,0.1,0C28.8,47.7,29.1,47.4,29.1,47C29.1,47.1,29.1,47,29.1,47z"/>
<path class="st0" d="M24.4,25.5c-0.4-0.7-0.7-1.4-1.1-2c-0.3-0.6-0.7-1.3-1.1-1.8c-0.2-0.2-0.5-0.3-0.8-0.4c-0.2,0-0.4,0.3-0.6,0.5
	c0.3,0.3,0.6,0.7,0.9,1.1c0.5,1.3,1.2,2.4,2,3.5c0.1,0.1,0.1,0.2,0.2,0.4c0.7,1.6,1.2,3.4,2.2,4.9c0.1,0.2,0.1,0.3,0.2,0.5
	c0.4,1,0.8,1.9,1.2,2.8c0.1,0.4,0.5,0.7,0.9,0.7c0-0.3,0.2-0.6,0.1-0.9c-0.5-1.4-1.1-2.9-1.7-4.3c-0.5-1.2-1-2.4-1.6-3.6
	C25,26.5,24.7,26,24.4,25.5z"/>
<path class="st0" d="M2.8,65.8c0.2-0.3,0.4-0.7,0.5-1.1c0.3,0.3,0.6,0.6,1,0.9c0.3,0.2,0.7,0.2,0.9-0.1c0,0,0,0,0,0
	c0.2-0.2,0.2-0.6,0-0.8c0,0,0,0,0,0c-0.3-0.4-0.7-0.8-1-1.2C3.9,63.3,3.8,63,4,62.7c0.3-0.2,0.7-0.5,1-0.7c0.3-0.1,0.4-0.5,0.2-0.8
	c0,0,0,0,0,0c-0.1-0.3-0.5-0.4-0.8-0.3C4,61,3.6,61.2,3.1,61.3C3,61,2.8,60.8,2.6,60.5c-0.2-0.2-0.4-0.3-0.6-0.3
	c-0.2,0.1-0.4,0.3-0.4,0.6c0,0.3,0,0.7,0,1C1,62.2,0.1,62.3,0,63.2c0.3,0.9,1.3,0.4,1.7,0.9c0,0.5,0,1,0.1,1.4
	C1.9,65.7,2,65.9,2.2,66C2.4,66,2.7,65.9,2.8,65.8z"/>
<path class="st0" d="M20.5,45.5c0-0.1-0.2-0.2-0.3-0.2l-3.8-3.7c-0.7-0.6-1.4-1.3-2-2c-0.5-0.6-1.1-1-1.8-1.4
	c-0.3-0.2-0.6,0-0.8,0.4c0.1,0.2,0.3,0.4,0.4,0.6c1.3,1.3,2.6,2.7,4,4c0.9,0.9,1.9,1.8,2.8,2.8c0.2,0.2,0.5,0.4,0.7,0.5
	c0.2,0,0.5,0,0.7-0.2C20.6,46.1,20.6,45.8,20.5,45.5z"/>
<path class="st0" d="M35.3,4c0,0.6,0,1.1,0,1.7c0.1,2.3,0.3,4.7,0.5,7c0.1,0.9,0.2,1.8,0.2,2.7l0.3,0.1c0.1-0.2,0.4-0.4,0.4-0.5
	c0-1.4,0.1-2.7,0.1-4.1c0-0.4-0.2-0.7-0.2-1.1c0-1.7,0-3.4,0-5.1c0-0.4,0-0.8-0.1-1.1c-0.1-0.2-0.2-0.3-0.4-0.3
	c-0.2,0-0.4,0.1-0.5,0.2C35.3,3.6,35.3,3.8,35.3,4z"/>
<path class="st0" d="M12.7,70.5c0.3,0,0.6-0.1,0.9-0.2c0.3-0.1,0.5-0.4,0.5-0.7c0-0.3-0.3-0.5-0.6-0.5c0,0,0,0,0,0
	c-0.7,0-1.3,0.1-2,0.2c-1.4,0.3-2.8,0.6-4.2,0.9c-0.4,0.1-0.8,0.2-0.8,0.9c0.6,0.1,1.3,0.1,1.9,0C9.7,70.9,11.2,70.7,12.7,70.5z"/>
<path class="st0" d="M36.1,20.1C36,20.3,36,20.6,36,20.8c0,1.2,0.1,2.4-0.1,3.6c0,1,0,2,0.2,3c0,0.1,0.2,0.3,0.3,0.5
	c0.4-0.3,0.7-0.8,0.6-1.3c-0.1-1.4-0.1-2.8,0-4.2c0-0.7,0-1.4,0-2.2c0-0.2-0.2-0.4-0.4-0.4C36.4,19.8,36.2,19.9,36.1,20.1z"/>
<path class="st0" d="M16.2,85.4c0.7-0.7,1.3-1.4,1.9-2.2c0.2-0.2,0.3-0.5,0.2-0.8c0-0.2-0.3-0.4-0.5-0.7c-0.7,1-1.3,1.8-2,2.7
	s-1.7,1.3-2,2.5c0.8,0.1,0.8,0.1,1.1-0.2S15.8,85.8,16.2,85.4z"/>
<path class="st0" d="M692.1,90.8c0-1,0-2,0-3.1c0-1.8-0.1-3.6-0.2-5.4c-0.1-1.2-0.2-2.5-0.2-3.7c0-0.6,0-1.2-0.1-1.8
	c0.2-0.2,0.5-0.3,0.7-0.4s0.5-0.3,0.7-0.4c0.6,1.1,1.1,2.3,1.5,3.5c0.8,2.1,1.7,4.2,2.8,6.2c0.2,0.4,0.5,0.5,1,0.2
	c0-0.1,0.1-0.3,0-0.4c-1.5-3.4-2.9-6.7-4.5-10.1c1.8-1.1,3.8-2,4.8-4.1c1.6,1.7,3.3,3.4,5.2,4.9c0.5-0.6,0.5-0.9,0.1-1.4
	c-0.7-0.7-1.3-1.4-2.1-2.1c-0.9-0.8-1.7-1.7-2.5-2.6c0.6-1.3,0.6-2.8,1.7-3.9l0.7,0.1c0.5,0,0.9,0.1,1.4,0.1c0.3,0,0.6-0.2,0.6-0.5
	c0,0,0,0,0,0c0-0.4-0.2-0.5-0.5-0.6s-0.7-0.1-1-0.2c-0.4,0-0.8-0.2-1.1-0.4c0.1-2.5,0.9-4.8,0.7-7.3c0.2-0.1,0.5-0.2,0.8-0.3
	c1-0.2,1.9-0.4,2.9-0.6c0.4-0.1,0.8-0.2,1.1-0.2c1.4-0.1,2.7-0.4,4-0.8c0.3-0.1,0.6-0.2,0.4-0.7c-0.4-0.2-0.9-0.3-1.4-0.2
	c-1.4,0.2-2.8,0.3-4.2,0.5s-2.7,0.6-4.1,0.9c-0.1-0.4-0.1-0.7-0.2-1.1c0-0.3,0-0.5-0.1-0.8c-0.3-0.8-0.6-1.7-0.9-2.5
	c0.7-0.8,1.3-1.5,1.8-2.2c0.6-0.8,1.4-1.5,2.2-2.2c1-0.8,1.8-1.8,2.7-2.8c0.1-0.2,0.2-0.4,0.3-0.6c0.1-0.3,0-0.6-0.5-0.6
	c-1,1.2-2.1,2.3-3.3,3.2c-1,0.8-1.9,1.8-2.7,2.9c-0.3,0.4-0.6,0.7-0.9,1c-0.8-1.1-1.6-2.1-2.4-3.1c-0.2-0.4-0.3-0.8-0.1-1.2
	c0.6-1.9,1.3-3.8,1.7-5.8c0-0.1,0-0.3,0.1-0.4c0.8-2.3,1.5-4.6,2.2-7c0.2-0.7,0.4-1.3,0.7-1.9c0.5-1.2,1-2.4,1.3-3.6
	c0.2-0.7,0.4-1.3,0.5-2c0-0.2-0.1-0.5-0.3-1.1c-0.3,0.5-0.5,0.6-0.5,0.8c-0.3,1.2-0.6,2.4-1.2,3.5c-0.5,1.6-1.3,3-1.7,4.7
	c-0.5,1.8-1.2,3.6-1.8,5.5c-0.2,0.6-0.4,1.2-0.5,1.8c-0.2,1.8-1.2,3.3-1.5,5c0,0.2-0.2,0.3-0.3,0.5l-3.2-1.5
	c0.1-1.4,0.3-2.8,0.3-4.1c0.1-1.4,0-2.8-0.2-4.2c-0.3,0.2-0.5,0.2-0.6,0.3c-0.1,0.3-0.2,0.7-0.2,1c0,2,0.1,4-0.1,6
	c0,0.3,0,0.6-0.1,0.9c-1.1,0.3-1.7,1.3-1.5,2.4c0.2,1.2,0.1,2.5-0.2,3.7c0,0.3,0,0.5,0,0.8c0,0.7,0,1.3,0.1,2
	c0.1,1.2,0.1,2.4,0.1,3.5c-0.1,2.4,0.1,4.8,0.1,7.2c0,0.3,0,0.7-0.1,1c-0.7,1.2-0.4,2.6-0.5,3.9c0,1.1-0.1,2.1-0.2,3.2
	c-0.2,0.8,0.1,1.7-0.1,2.4c-0.3,0.8,0.1,1.8,0.9,2.1c0,0,0,0,0.1,0c0,1.4,0.1,2.8,0.2,4.2c0,2.9,0.1,5.8,0.1,8.7c0,0.2,0,0.4,0,0.6
	c0,0.5,0.3,0.8,0.7,0.7S692.1,91.1,692.1,90.8z M691.4,74.7c0-1.1,0-2.2,0.1-3.3c0.2-1.7,0.1-3.4,0.9-5c0-0.1,0-0.3,0-0.4
	c0-1.2,0-2.5,0-3.7c0-2-0.2-4-0.2-5.9c0-1,0-1.9,0.2-2.9c0.1-1,0.1-1.9,0-2.9c0-0.4-0.2-0.8-0.2-1.2c0-0.9,0-1.8,0-2.8
	c1.1,0.2,2.1,0.7,2.9,1.4c0.3,0.2,0.5,0.4,0.8,0.6c1,0.6,1.8,1.6,2.1,2.8c0.2,1.1,0.6,2.1,1.2,3c0.1,0.1,0.1,0.2,0.1,0.2
	c-0.1,1.3,0.7,2.5,0.8,3.8c0.2,1.8,0.1,3.7-0.4,5.5c-0.5,1.8-1,3.6-1.6,5.5c-0.1,0.6-0.5,1.1-0.9,1.6c-0.6,0.5-1,1.2-1.6,1.7
	c-0.6,0.5-1.2,0.9-1.8,1.3c-0.8,0.4-1.6,0.8-2.4,1.2C691.5,74.8,691.3,74.8,691.4,74.7L691.4,74.7z"/>
<path class="st0" d="M693.6,33.3c0-0.2,0-0.4,0-0.6c0-0.8,0-1.6,0-2.4c0-3,0.1-6.1,0.1-9.1c0-0.8,0-1.5,0-2.3c0-2.5,0.2-5,0-7.5
	c-0.1-2-0.1-4.1-0.1-6.2c0-0.5,0-1-0.1-1.4c0-0.3-0.3-0.6-0.7-0.6c0,0-0.1,0-0.1,0c-0.1,0.2-0.1,0.4-0.2,0.6c-0.1,1.5-0.2,3-0.2,4.5
	s0.2,2.7,0.2,4.1c0,1.7,0,3.3,0,5c0,1.4,0,2.7,0,4.1s-0.1,2.6-0.2,4c0,0.5,0.1,1,0.1,1.5c0,2-0.1,3.9-0.1,5.9c0,0.2,0,0.3,0,0.5
	c0,0.3,0.2,0.5,0.5,0.5C693.2,33.9,693.5,33.7,693.6,33.3C693.6,33.4,693.6,33.3,693.6,33.3z"/>
<path class="st0" d="M696.7,110.8c-0.2,0.3-0.4,0.6-0.5,0.9c0,0.3,0.1,0.6,0.3,0.8c0.2,0.2,0.6,0.1,0.8-0.2c0.2-0.2,0.3-0.4,0.5-0.6
	l0.5-0.6c0.6,0.2,0.5,0.7,0.8,1c0.2,0.2,0.4,0.3,0.6,0.4c0.4,0.1,0.5-0.3,0.6-0.6c0-0.2,0-0.3,0-0.5c0-0.3-0.1-0.6-0.2-0.9
	c-0.2-0.6,0-1.2,0.6-1.4c0,0,0,0,0.1,0c0.3-0.1,0.6-0.2,0.8-0.3c0.3-0.2,0.5-0.6,0.4-1c-0.1-0.3-0.5-0.5-0.8-0.4
	c-0.3,0-0.6,0.1-0.9,0.2c0-0.2-0.1-0.3-0.1-0.5c-0.1-0.5-0.2-1-0.3-1.5c0-0.3-0.3-0.5-0.6-0.6c-0.3,0-0.6,0.3-0.6,0.7s0,0.8,0,1.2
	s0,0.5,0,0.7c-0.6,0.3-1-0.1-1.4-0.1s-0.8-0.1-1,0.4c-0.2,0.4-0.1,0.8,0.2,1c0.3,0.3,0.7,0.6,1.2,1.1
	C697.3,110.1,697,110.4,696.7,110.8z"/>
<path class="st0" d="M697.6,16.2c-0.2,0.5-0.4,1.1-0.6,1.6l-1.4-0.5c-0.6,0.9-0.6,1,1,2.4c0,0.1,0,0.2-0.1,0.3
	c-0.3,0.4-0.5,0.8-0.8,1.1s-0.4,1,0,1.3s0.7,0,1-0.3c0.3-0.4,0.8-0.7,1.3-0.8c0.2,0.3,0.3,0.6,0.5,1c0.2,0.3,0.6,0.4,0.9,0.3
	c0.3-0.1,0.4-0.5,0.3-0.8c-0.1-0.5-0.2-1.1-0.3-1.7c0.8-0.1,1.5-0.2,1.4-1.2l-1.9-0.6c0-0.7,0-1.3,0-1.9c0-0.4-0.2-0.7-0.6-0.7
	C698,15.6,697.7,15.8,697.6,16.2C697.6,16.2,697.6,16.2,697.6,16.2z"/>
<path class="st0" d="M705.7,65.9c0,0.2,0.1,0.5,0.3,0.6c0.3,0.1,0.6,0.2,0.9,0.2c0.5,0.1,1,0.1,1.5,0.1c1.6,0.2,3.1,0.4,4.7,0.6
	c2.3,0.2,4.6,0.4,6.9,0.5c0.8,0.1,1.6,0,2.3-0.4c-0.4-0.3-0.7-0.5-0.9-0.5c-2-0.3-4-0.5-6.1-0.8c-2.3-0.3-4.6-0.5-6.9-0.7
	c-0.8-0.1-1.5-0.1-2.3-0.1C706,65.5,705.8,65.7,705.7,65.9z"/>
<path class="st0" d="M698.4,77.2c0,0.5,0.1,1.1,0.1,1.7c-0.4,0.1-0.9,0.3-1.3,0.5c-0.2,0.1-0.3,0.4-0.4,0.6c0.1,0.2,0.2,0.4,0.5,0.5
	c0.5,0.2,1.1,0.2,1.5,0.7c0,0.3,0.1,0.7,0.2,1c0.1,0.5,0.6,0.7,1,0.3c0.2-0.2,0.4-0.4,0.5-0.7c0.1-0.3,0.3-0.7,0.4-1
	c0.2,0,0.4,0.1,0.5,0.1c0.2,0.2,0.6,0.1,0.7-0.1c0,0,0,0,0-0.1c0.2-0.3,0.2-0.7-0.1-0.9c-0.2-0.2-0.5-0.4-0.8-0.6
	c0.2-0.5,0.4-0.9,0.6-1.4c0.1-0.3,0-0.7-0.3-0.9c-0.3-0.2-0.6-0.1-0.8,0.1s-0.5,0.4-0.9,0.7c-0.1-0.3-0.1-0.5-0.2-0.7
	c0-0.3-0.2-0.5-0.5-0.5c0,0-0.1,0-0.1,0c-0.3,0-0.6,0.2-0.6,0.6C698.4,77.2,698.4,77.2,698.4,77.2z"/>
<path class="st0" d="M703,98.8c0.4,0.7,0.7,1.3,1.1,2c0.3,0.6,0.7,1.2,1.2,1.8c0.2,0.2,0.5,0.3,0.8,0.3c0.2,0,0.4-0.3,0.6-0.5
	c-0.3-0.3-0.6-0.7-0.9-1.1c-0.5-1.3-1.2-2.4-2-3.6c-0.1-0.1-0.1-0.2-0.2-0.3c-0.7-1.6-1.2-3.4-2.2-4.9c-0.1-0.2-0.1-0.3-0.2-0.5
	c-0.4-1-0.8-1.9-1.2-2.8c-0.1-0.4-0.5-0.7-0.9-0.7c0,0.3-0.2,0.6-0.1,0.9c0.5,1.4,1.1,2.9,1.7,4.3c0.5,1.2,1,2.4,1.6,3.6
	C702.5,97.8,702.8,98.3,703,98.8z"/>
<path class="st0" d="M724.7,58.5c-0.2,0.3-0.4,0.7-0.5,1c-0.3-0.3-0.7-0.6-1-0.9c-0.3-0.2-0.7-0.2-0.9,0.1c-0.2,0.2-0.2,0.6,0,0.8
	c0,0,0,0,0,0c0.3,0.4,0.7,0.8,1,1.2s0.4,0.5,0.2,0.9c-0.3,0.2-0.7,0.5-1,0.7c-0.3,0.1-0.4,0.5-0.2,0.8c0,0,0,0,0,0
	c0.1,0.3,0.5,0.4,0.8,0.3c0.5-0.1,0.9-0.3,1.4-0.4c0.1,0.3,0.3,0.6,0.5,0.8c0.2,0.2,0.4,0.3,0.7,0.2c0.2-0.1,0.4-0.3,0.4-0.6
	c0-0.3,0-0.7,0-1c0.6-0.4,1.5-0.5,1.5-1.3c-0.3-0.9-1.3-0.4-1.7-0.9c0-0.5,0-1-0.1-1.4c-0.1-0.2-0.2-0.4-0.4-0.4
	C725,58.2,724.8,58.3,724.7,58.5z"/>
<path class="st0" d="M706.9,78.7c0,0.1,0.2,0.2,0.3,0.2l3.8,3.7c0.7,0.6,1.4,1.3,2,2c0.5,0.6,1.1,1,1.8,1.4c0.3,0.2,0.6,0,0.8-0.4
	c-0.1-0.2-0.3-0.4-0.5-0.6c-1.3-1.3-2.6-2.7-4-4c-0.9-0.9-1.9-1.8-2.8-2.8c-0.2-0.2-0.5-0.4-0.7-0.5c-0.2-0.1-0.5,0-0.7,0.2
	C706.8,78.2,706.9,78.5,706.9,78.7z"/>
<path class="st0" d="M692.2,120.3c0-0.6,0-1.1,0-1.7c-0.2-2.3-0.3-4.7-0.5-7c-0.1-0.9-0.2-1.8-0.2-2.7l-0.3-0.1
	c-0.1,0.2-0.4,0.4-0.4,0.5c-0.1,1.3-0.1,2.7-0.1,4.1c0,0.4,0.2,0.8,0.2,1.1c0,1.7,0,3.4,0,5.1c0,0.4,0.1,0.8,0.1,1.1
	c0.1,0.2,0.2,0.3,0.4,0.3c0.2,0,0.4-0.1,0.5-0.2C692.1,120.7,692.2,120.5,692.2,120.3z"/>
<path class="st0" d="M714.7,53.8c-0.3,0-0.6,0.1-0.9,0.2c-0.3,0.1-0.5,0.4-0.5,0.7c0,0.3,0.3,0.5,0.6,0.5c0,0,0,0,0,0
	c0.7,0,1.3-0.1,2-0.2c1.4-0.3,2.8-0.6,4.2-0.9c0.4-0.1,0.8-0.2,0.8-0.8c-0.6-0.1-1.3-0.1-1.9,0C717.7,53.3,716.2,53.5,714.7,53.8z"
	/>
<path class="st0" d="M691.3,104.2c0.1-0.2,0.2-0.5,0.2-0.7c0-1.2-0.1-2.4,0.1-3.6c0-1,0-2-0.2-3c0-0.1-0.2-0.3-0.3-0.5
	c-0.4,0.3-0.7,0.8-0.5,1.3c0.1,1.4,0.1,2.8,0,4.2c0,0.7,0,1.4,0,2.2c0,0.2,0.2,0.3,0.4,0.4C691,104.5,691.2,104.3,691.3,104.2z"/>
<path class="st0" d="M711.3,38.9c-0.7,0.7-1.3,1.4-1.9,2.2c-0.2,0.2-0.2,0.5-0.2,0.8c0,0.2,0.3,0.4,0.5,0.7c0.7-1,1.3-1.8,2-2.7
	s1.7-1.3,2-2.5c-0.8-0.1-0.8-0.1-1.1,0.1S711.7,38.5,711.3,38.9z"/>
<path class="st0" d="M370.7,3c-0.6-0.4-1.3-0.7-2-1.1c-1.1-0.5-2.3-0.7-3.5-0.5c-1.6-0.3-3.2,0.1-4.5,1.2c-0.2-0.2-0.5-0.4-0.8-0.6
	c-1.3-0.6-2.7-0.8-4.1-0.6c-1.7-0.3-3.5,0.1-4.9,1.1c-1.8,1-2.9,3-2.9,5c0.1,1.4,0.7,2.7,1.8,3.6c0.7,0.6,1.6,0.7,2.4,0.4h0.1
	c0.6,0.2,1.2,0.3,1.8,0.1c0.6,0.3,1.1,0.9,1.1,1.5c0,0.2,0.1,0.4,0.1,0.5c0.2,1,0.4,2.1,0.4,3.1c-0.1,2.8,0,5.7,0.3,8.5v0.7
	c0.1,2.2,0.1,4.5,0.1,6.4c0,0.5,0,0.9,0,1.3c0,1-0.1,2,0,3c0.1,1.9,0.1,3.8,0.2,5.7c0.1,1.6,0.1,3.3,0.2,4.9c0,0.4,0,0.8,0,1.2
	c-0.1,0.6-0.1,1.3,0,1.9c0.2,1.8,0.2,3.5,0.1,5.3c0,0.6,0,1.2,0,1.8c0,1.2,0,2.5,0,3.7c0,0.9,0,1.8,0,2.8c0,1.8,0,3.6,0,5.3V73
	c0,0.6,0,1.1,0,1.7c0,0.9,0,1.7,0,2.6c0,0.6-0.1,1.1-0.1,1.7c-0.2,1.3-0.2,2.7,0,4c0,0.1,0,0.2,0,0.3c0,0.1,0,0.3,0,0.4v1.9
	c0,2.4,0,4.8,0.1,7.2c0,0.3,0,0.6,0,0.8c0.1,1.4,0,2.8-0.2,4.2c-0.1,0.4-0.1,0.7-0.1,1.1c0,0.1,0,0.1,0,0.2c0,0.7,0,1.4,0,2
	c0.1,1.5,0,2.9-0.2,4.4c-0.1,0.6,0,1.1,0.2,1.7c0.3,0.6,0,1.4-0.5,1.8c-0.6,0.5-1.2,1-1.7,1.5c-0.5,0.6-1.2,0.9-2,0.8
	c-0.5-0.1-1,0-1.5,0.3c-0.5,0.3-1,0.4-1.5,0.3h-0.3c-0.6,0-1.2,0.1-1.8,0.1h-0.2l-1.1,0.1l-1.1,0.1c-1.5-0.1-3.1-0.4-4.5-1l-0.1-0.2
	c-0.2-0.3-0.4-0.7-0.6-1c-0.5-0.8-0.9-1.7-1-2.6v-0.2c0-0.5-0.1-0.9-0.3-1.4c-0.6-2.1-1-4.2-1.3-6.3l-0.1-1.2c0-0.5-0.1-1-0.2-1.5
	c-0.1-1-0.2-2-0.2-3c0-0.4,0-0.8,0-1.2c-0.1-2.9-0.3-5.8-0.5-8.4c-0.2-2.4-0.4-4.9-0.6-7.4c-0.1-0.5,0-1,0.1-1.5
	c0.2-0.7,0.2-1.3,0.1-2v-0.1c0-0.6-0.1-1.3-0.2-1.9c0-0.4-0.1-0.9-0.1-1.3c0-0.6-0.1-1.3-0.1-2c0-1.1-0.1-2.2-0.2-3.3
	c0-0.1,0-0.3,0-0.4c0.2-1.1,0.2-2.2,0-3.2c0-0.1,0-0.3,0-0.4c-0.2-0.7-0.2-1.5,0.1-2.2c0.2-0.4,0.2-0.8,0.1-1.3v-0.1
	c0-0.4-0.1-0.8-0.1-1.1s-0.1-0.9-0.1-1.3s0-0.7-0.1-1c-0.2-1.3-0.2-2.6,0-3.9c0.2-1,0.1-2.1-0.1-3.1c-0.2-0.7-0.3-1.4-0.2-2.2
	c0-0.2,0-0.4,0-0.6c0-0.6,0-1.2,0-1.8c0-1.3,0-2.6-0.2-3.8c-0.3-2.1-0.3-4.2-0.3-6.3c0-0.9,0-1.8,0-2.7s0-1.6-0.1-2.4
	c0-1.7-0.1-3.4,0-5c0-1.2,0-2.4,0-3.6c0-0.5,0-1.1,0-1.7c0-0.6,0-1.2,0.1-1.8c0-0.3,0-0.5,0.1-0.8s0-0.3,0-0.5
	c0.1-0.4,0.1-0.8,0.1-1.2c-0.1-0.7,0.3-1.3,0.9-1.6c0.2-0.2,0.5-0.3,0.8-0.4c0.3,0,0.7,0,1-0.1h0.1c1.1,0.2,2.2,0,3.2-0.4
	c1.3-0.5,2-1.9,1.6-3.2c-0.2-0.6-0.4-1.2-0.7-1.9l-0.1-0.1c-0.6-1.4-1.9-2.5-3.5-2.7c-0.8-0.1-1.6-0.1-2.3,0
	c-1.1-0.1-2.3-0.1-3.4,0.2c-1,0.2-2,0.7-2.7,1.5L329,3.6c-1.6-1.3-3.7-1.9-5.8-1.6c-1-0.1-2-0.1-3,0.1c-0.4,0.1-0.8,0.2-1.1,0.5
	c-0.5,0.4-1.1,0.9-1.7,1.5c-0.5,0.6-0.8,1.3-0.9,2.1c0,1.4,0.6,2.8,1.7,3.7c1,1,2.4,1.4,3.8,1.2l0.4-0.1c0.6,0.1,1.1,0.2,1.7,0.1
	l1.2-0.2c0.7,0.4,1.1,1,1.2,1.8c0.1,1,0.1,2.1,0,3.2c0,0.5-0.1,0.9-0.1,1.5c0,0.8,0,1.5,0,2.2c0.1,1.2,0.1,2.4,0,3.6
	c-0.2,2.1-0.2,4.3-0.1,6.4c0.1,1.1,0.1,2.1,0.2,3.2c0.2,2.5,0.3,5,0.3,7.5v0.2c-0.1,2.4-0.2,5-0.4,7.4c-0.1,2-0.2,4.1-0.1,6.1v0.6
	c0,0.7,0.1,1.5,0.1,2.2s0.1,1.5,0.1,2.3c0,0.6,0,1.1-0.1,1.7s-0.1,1.1-0.1,1.7c0,1.6,0,3.2,0.1,4.8v2.2v1.5c0,1.1,0.1,2.2,0,3.3
	s-0.1,2.4-0.1,3.5c0,1.7,0,3.4-0.2,5.1c-0.2,2.5-0.1,5.1-0.1,7.6c0,1,0,2.1,0,3.1c0,0.2,0,0.5,0.1,0.7c0,0.1,0,0.1,0,0.2
	c0.1,0.4,0.1,0.9,0.2,1.4c0.1,0.9,0.3,1.9,0.4,2.8c0.2,2.5,0.6,4.9,1.2,7.4l0,0.2c0.1,0.2,0.1,0.5,0.1,0.7c0.5,3.4,1.7,6.6,3.5,9.4
	c0.5,1.1,1.7,1.8,2.9,1.8l0,0c0.6,0,1.3,0.2,1.9,0.5l0.1,0.1c0.6,0.2,1.2,0.3,1.8,0.2c0.4-0.1,0.8-0.1,1.2,0.1
	c1.3,0.5,2.7,0.7,4.1,0.7c0.4,0,0.7,0,1,0c1.5,0.1,3,0,4.4-0.4c0.4-0.1,0.8-0.2,1.3-0.2h0.4c0.1,0,0.3,0.1,0.4,0.1
	c0.6,0.2,1.3,0.2,1.9,0h0.1c0.7,0.3,1.5,0.2,2.1-0.1l0.2-0.1c0.3-0.2,0.5-0.2,0.6-0.2c1.1,0.3,2.3-0.3,2.8-1.4l0.1-0.1
	c0.8-0.2,1.5-0.6,1.9-1.3c0,0,0.1-0.1,0.1-0.2c1.2-1.3,1.9-2.9,2.2-4.6v-0.3c0-0.8,0.2-1.5,0.5-2.2c0.2-0.4,0.3-0.8,0.2-1.3
	c0-0.1,0-0.1,0-0.2s0-0.3,0-0.5c0-0.1,0-0.3,0-0.4c0-0.4,0.1-0.8,0.1-1.2s0.1-0.7,0.1-1.1s0-0.7,0-1c0-0.6,0.1-1.2,0.2-1.8
	c0.3-0.9,0.4-1.9,0.3-2.9c-0.1-0.8,0-1.6,0.1-2.4c0-0.2,0-0.3,0.1-0.5l0.1-0.4c0.2-1.3,0.3-2.7,0.3-4c0-0.6,0.1-1.2,0.1-1.8
	c0.1-0.5,0.1-1,0.2-1.6c0-0.4,0.1-0.9,0.1-1.3s0.1-1.2,0.1-1.9c0-1.6,0-3.2-0.1-4.8c0-0.5,0-1,0-1.5c0-0.3,0-0.6,0-0.9s0-0.7,0-1
	s0-0.5,0-0.7c0-0.7,0-1.5,0.1-2.2c0.3-2.2,0.2-4.5-0.1-6.7c0-0.3-0.1-0.6-0.1-0.8c-0.1-0.6-0.2-1.2-0.1-1.9c0.4-2.8,0.4-5.7-0.1-8.5
	c0-0.3,0-0.5,0-0.8c0-0.2,0-0.4,0-0.7s0-0.3,0-0.5c0.1-0.6,0-1.2-0.2-1.8c-0.2-0.8-0.3-1.6-0.2-2.4c0.2-3.1,0.2-6.3-0.1-9.5
	c-0.1-0.5-0.1-1,0-1.5c0.4-2.1,0.4-4.2,0.2-6.4c0-0.4-0.1-0.8-0.1-1.2c-0.3-1.2-0.2-2.5,0.2-3.6c0.1-0.3,0.1-0.6,0.1-0.9
	c0,0,0,0,0-0.1c0-0.4,0-0.9,0-1.3c0-0.9-0.1-1.9-0.1-2.8s0-1.8,0.1-2.7c0-0.5,0-0.9,0-1.4c0-0.1,0-0.1,0-0.2c0-0.3,0-0.7-0.1-1
	c-0.3-1.5-0.3-3.1,0.1-4.7c0-0.3,0.2-0.5,0.4-0.6c0.4,0.1,0.8,0.3,1.1,0.4c0.6,0.3,1.4,0.3,2,0l0,0c0.7,0.3,1.4,0.3,2.1,0
	c1.9-1,2.8-3.2,2.1-5.3C372.7,5,371.9,3.8,370.7,3z"/>
<path class="st0" d="M675.7,87.5c-0.1-1.1-0.2-2.2-0.3-3.3c-0.1-0.8-0.1-1.6-0.2-2.4v-0.2c0-0.8-0.2-1.5-0.3-2.2
	c-0.6-2-1-4.1-1.3-6.2c-0.2-1.7-0.8-3.4-1.8-4.8c-0.5-0.7-0.9-1.4-1-2.3c-0.1-0.8-0.4-1.6-0.9-2.2c-0.2-0.2-0.3-0.5-0.5-0.8
	s-0.3-0.5-0.4-0.7l-0.1-0.1c-0.2-0.4-0.5-0.8-0.8-1.1c-1.5-1.5-3-3-4.5-4.5L663,56c-0.9-0.8-1.8-1.7-2.5-2.7c-0.6-0.7-1.2-1.4-1.9-2
	c-0.2-0.2-0.4-0.4-0.5-0.5l-0.9-0.8c-0.3-0.3-0.6-0.6-0.9-0.9c-2-2-3.7-4.3-4.9-6.9c-0.1-0.2-0.2-0.4-0.3-0.7
	c-0.4-0.7-0.7-1.4-0.8-2.2c0-0.4-0.1-0.7-0.3-1.1c-1-2.4-1.4-4.9-1.2-7.4c0-0.3,0-0.7,0-1c0.1-0.8,0.1-1.7,0-2.5
	c-0.3-2.2-0.3-4.4,0-6.6c0.1-0.5,0.1-1,0.2-1.4c0.1-1.1,0.2-2.2,0.6-3.3l0.1-0.4c0.3-1.4,0.9-2.6,1.8-3.7c0.2-0.2,0.3-0.4,0.5-0.7
	l0.1-0.1c0.9-1.7,2.6-2.9,4.5-3.2h0.1c0.5,0.1,0.9,0.1,1.4,0l0.4-0.1h0.1h0.2l0.4,0.1c0.5,0.2,0.9,0.4,1.3,0.7
	c0.3,0.2,0.6,0.5,0.9,0.7c0.5,0.5,1.1,0.9,1.7,1.2c0.6,0.3,1,0.8,1.3,1.3c0.1,0.2,0.2,0.3,0.3,0.5c0.1,0.2,0.2,0.4,0.3,0.6
	c0.3,0.6,0.7,1.2,1.2,1.6c0.1,0.8,0.5,1.6,1.1,2.1c0,0,0,0.1,0,0.1l0.2,0.8c0.2,0.6,0.2,1.3,0.3,1.9c0,1.8-0.4,2.8-1.4,3.5
	c-0.5,0.3-1,0.7-1.3,1.2c-0.6,0.9-1.2,1.9-1.8,2.8l-0.2,0.3c-0.7,1.1-1,2.5-1,3.8c-0.1,2.1,1.4,3.9,3.5,4.1c0.5,0.1,0.9,0,1.3-0.2
	c0.2,0.1,0.5,0.1,0.7,0.2c0.6,0.1,1.2,0,1.7-0.3c0.1-0.1,0.2-0.1,0.3-0.1c2-0.5,3.6-2,4.2-4c0.3-0.9,0.5-1.8,0.7-2.7
	c0.5-2.9,0.6-5.9,0.3-8.9c-0.2-3.3-1.3-6.4-3.3-9c-0.2-0.3-0.4-0.6-0.5-0.9c-0.3-1-1-1.9-1.9-2.5l-0.4-0.3c-1.2-0.9-2.4-1.7-3.6-2.5
	c-1.7-1.1-3.7-1.7-5.7-1.9c-0.4,0-0.8,0-1.1-0.1c-0.9-0.5-2-0.6-3-0.4c-1.2-0.3-2.5-0.1-3.6,0.6c-0.5,0.3-1.1,0.5-1.7,0.8
	c-2.1,0.7-3.9,1.9-5.5,3.5c-1.1,1-1.8,2.2-2.2,3.6c-0.4,1.6-0.8,3.3-1.2,5.3c-0.1,0.6-0.2,1.2-0.3,1.7c0,0.4-0.1,0.8-0.2,1.1
	c0,0.2-0.1,0.4-0.1,0.5c-0.4,1.6-0.5,3.2-0.3,4.8c0,0.2,0,0.4,0,0.6c-0.4,1.9-0.5,3.9-0.3,5.9c0,0.3,0,0.6,0,0.9
	c0.1,2.1,0.4,4.2,0.9,6.2c0.5,2.4,1.4,4.8,2.7,6.9l0.1,0.1c0.2,1.2,0.8,2.3,1.7,3.2c0.1,0.1,0.2,0.3,0.3,0.5
	c0.1,0.2,0.3,0.4,0.4,0.7l0.3,0.4c0.9,1.1,1.8,2.3,2.8,3.4c0.4,0.4,0.8,0.8,1.2,1.2s0.6,0.5,0.8,0.8s0.8,0.8,1.1,1.2
	c1.2,1.4,2.5,2.7,4,3.8c0.1,0.1,0.3,0.2,0.4,0.4l0.3,0.3c1.2,1.1,2.2,2.4,3.1,3.7c0.3,0.5,0.7,1,1.1,1.5c0.1,0.1,0.2,0.3,0.3,0.4
	c0.1,0.8,0.4,1.5,0.9,2.1l0.2,0.3c0.2,0.3,0.3,0.7,0.4,1c0,0.2,0.1,0.3,0.1,0.4l0.1,0.2c0.2,0.8,0.7,1.6,1.3,2.1
	c0.1,0.5,0.1,1,0.2,1.5c0.2,1.4,0.4,2.8,0.5,4.2c0.5,3.5,0.5,7.1,0.1,10.6c0,0.3,0,0.6,0,0.9c0,0.1,0,0.1,0,0.2
	c0,0.4,0.1,0.7,0.1,1.1c0.1,0.7,0.1,1.3,0.1,2c0,0.7,0,1.3,0.1,2c0.1,0.9,0.1,1.9,0,2.8c-0.1,0.4-0.1,0.9,0,1.3c0,0.2,0,0.5,0,0.7
	c-0.3,1.6-0.6,3.8-1.1,5.9c-0.1,0.4-0.3,0.9-0.5,1.3c-0.2,0.4-0.4,0.9-0.5,1.3c-0.1,0.4-0.4,0.8-0.7,1.1c-0.1,0.1-0.2,0.2-0.3,0.3
	c-0.4,0.4-0.5,0.4-0.7,0.4c-0.6-0.1-1.1,0.2-1.4,0.7c-0.2,0.4-0.5,0.6-1.1,0.9c-0.4,0.2-0.8,0.4-1.1,0.7c-0.4,0.3-0.9,0.4-1.3,0.5
	l-1.3,0.2c-0.8,0.1-1.5,0.2-2.3,0.3c-0.5-0.2-1-0.6-1.4-1.1c-0.8-1.1-1.9-2-3-2.8c-1.5-1.1-2.7-2.7-3.3-4.5
	c-0.4-0.7-0.3-1.6,0.3-2.1c1.5-1.3,2.6-3,3.2-4.9c0.7-2,0.2-3.6-1.4-4.4c-0.2-0.1-0.4-0.2-0.6-0.4c-2-1.1-4.3-1.4-6.5-0.8
	c-0.1,0-0.2,0.1-0.3,0.1c-1,0.2-1.8,0.8-2.2,1.7c-1.1,2.2-2.2,4.8-1.7,7.7c0.2,1,0.5,2.1,0.9,3.1c0.3,0.8,0.6,1.5,0.9,2.2
	s0.7,1.6,0.9,2.4c0.4,1.5,1.3,2.8,2.4,3.7c0.8,0.5,1.5,1.2,2.1,2c0.5,0.8,1.3,1.5,2.2,1.9c0.6,0.3,1.2,0.7,1.6,1.2
	c0.5,0.5,1.1,0.9,1.9,1c0.9,0.2,1.8,0.5,2.7,1l0.4,0.2l0.4-0.1l1-0.3l0.4,0.2l0.4,0.2l0.4-0.1l1.4-0.4c1.1-0.3,2.2-0.6,3.3-0.9
	c0.5-0.1,0.9-0.3,1.3-0.5c0.4-0.2,0.8-0.3,1.2-0.4c1.4-0.5,2.7-1.2,3.9-2.2c0.8-0.6,1.7-1.4,2.7-2.3l0.1-0.1c1-0.8,1.8-1.8,2.3-2.9
	l0.5-1.2c1.2-2.4,2.1-5,2.6-7.7c0.1-0.7,0.3-1.5,0.4-2.2c0.2-1,0.4-2.1,0.6-3.1c0-0.3,0-0.6,0.1-0.8c-0.1-0.8,0.1-1.5,0.6-2.1
	c0.3-0.3,0.4-0.8,0.4-1.2v-0.1l0.1-0.6c0-0.3,0.1-0.7,0.2-1c0.2-0.7,0.2-1.4,0.1-2.1L675.7,87.5z"/>
<path class="st0" d="M190.6,87.5c-0.1-1.1-0.2-2.2-0.3-3.3c-0.1-0.8-0.1-1.6-0.2-2.4v-0.2c0-0.8-0.2-1.5-0.4-2.2
	c-0.6-2-1-4.1-1.3-6.2c-0.2-1.7-0.8-3.4-1.8-4.8c-0.5-0.7-0.9-1.4-1-2.3c-0.1-0.8-0.4-1.6-0.9-2.2c-0.2-0.2-0.3-0.5-0.5-0.8
	s-0.3-0.5-0.4-0.7v-0.1c-0.2-0.4-0.5-0.8-0.8-1.1c-1.5-1.5-3-3-4.5-4.5l-0.7-0.7c-0.9-0.8-1.8-1.7-2.6-2.7c-0.6-0.7-1.2-1.4-1.9-2
	l-0.5-0.5c-0.3-0.3-0.6-0.6-0.9-0.8s-0.6-0.6-0.9-0.9c-2-2-3.7-4.3-4.9-6.9c-0.1-0.2-0.2-0.4-0.4-0.7c-0.4-0.7-0.7-1.4-0.8-2.2
	c0-0.4-0.1-0.7-0.3-1.1c-1-2.4-1.4-4.9-1.2-7.4c0-0.3,0-0.7,0.1-1c0.1-0.8,0.1-1.7,0-2.5c-0.3-2.2-0.3-4.4,0-6.6
	c0.1-0.5,0.1-1,0.1-1.4c0.1-1.1,0.2-2.2,0.6-3.3l0.1-0.4c0.3-1.4,0.9-2.6,1.8-3.7c0.2-0.2,0.3-0.4,0.5-0.7l0.1-0.1
	c0.9-1.7,2.6-2.9,4.5-3.2h0.1c0.5,0.1,0.9,0.1,1.4,0l0.4-0.1h0.1h0.2l0.4,0.1c0.5,0.2,0.9,0.4,1.3,0.7c0.3,0.2,0.6,0.5,0.9,0.7
	c0.5,0.5,1.1,0.9,1.7,1.2c0.5,0.3,1,0.8,1.3,1.3c0.1,0.2,0.2,0.3,0.4,0.5c0.1,0.2,0.2,0.4,0.3,0.6c0.2,0.7,0.7,1.2,1.2,1.6
	c0.1,0.8,0.5,1.6,1.1,2.1c0,0,0,0.1,0,0.1l0.1,0.8c0.2,0.6,0.2,1.3,0.3,1.9c0.1,1.8-0.4,2.8-1.4,3.5c-0.5,0.3-1,0.7-1.3,1.2
	c-0.6,0.9-1.2,1.9-1.8,2.8l-0.2,0.3c-0.7,1.1-1,2.5-1,3.8c-0.1,2.1,1.4,3.9,3.5,4.1c0.5,0.1,1,0,1.4-0.2c0.2,0.1,0.5,0.1,0.7,0.2
	c0.6,0.1,1.2,0,1.6-0.3c0.1-0.1,0.2-0.1,0.3-0.1c2-0.5,3.6-2,4.2-4c0.3-0.9,0.5-1.8,0.7-2.7c0.5-2.9,0.6-5.9,0.3-8.9
	c-0.2-3.3-1.3-6.4-3.3-9c-0.2-0.3-0.4-0.6-0.5-0.9c-0.3-1-1-1.9-1.9-2.5l-0.4-0.3c-1.2-0.9-2.4-1.7-3.6-2.5C178,2.8,176,2.1,174,2
	c-0.4,0-0.8,0-1.1-0.1c-0.9-0.5-2-0.6-3-0.4c-1.2-0.3-2.5-0.1-3.6,0.6c-0.5,0.3-1.1,0.5-1.7,0.8c-2.1,0.7-3.9,1.9-5.5,3.5
	c-1.1,1-1.8,2.2-2.2,3.6c-0.4,1.6-0.8,3.3-1.2,5.3c-0.1,0.6-0.2,1.2-0.3,1.7c-0.1,0.4-0.1,0.8-0.2,1.1c0,0.2-0.1,0.4-0.1,0.5
	c-0.4,1.6-0.4,3.2-0.2,4.8c0,0.2,0,0.4-0.1,0.6c-0.4,1.9-0.5,3.9-0.4,5.9c0,0.3,0,0.6,0,0.9c0.1,2.1,0.4,4.2,0.9,6.2
	c0.5,2.4,1.4,4.8,2.6,7l0.1,0.1c0.2,1.2,0.8,2.3,1.7,3.2c0.1,0.1,0.2,0.3,0.3,0.5c0.1,0.2,0.3,0.4,0.4,0.7l0.3,0.4
	c0.9,1.1,1.9,2.3,2.8,3.4c0.4,0.4,0.8,0.8,1.2,1.2s0.6,0.5,0.9,0.8s0.8,0.8,1.1,1.2c1.2,1.4,2.5,2.7,4,3.8c0.1,0.1,0.3,0.2,0.4,0.4
	l0.3,0.3c1.2,1.1,2.2,2.4,3.1,3.7c0.4,0.5,0.7,1,1.1,1.5c0.1,0.1,0.2,0.3,0.3,0.4c0.1,0.8,0.4,1.5,0.9,2.1l0.2,0.3
	c0.2,0.3,0.3,0.7,0.4,1c0,0.2,0.1,0.3,0.1,0.4l0.1,0.2c0.2,0.8,0.7,1.6,1.3,2.1c0.1,0.5,0.1,1,0.2,1.5c0.2,1.4,0.4,2.8,0.5,4.2
	c0.5,3.5,0.6,7.1,0.1,10.6c0,0.3,0,0.6,0,0.9c0,0.1,0,0.1,0,0.2c0,0.4,0.1,0.7,0.1,1.1c0.1,0.7,0.1,1.3,0.1,2c0,0.7,0,1.3,0.1,2
	c0.1,0.9,0.1,1.9,0,2.8c-0.1,0.4-0.1,0.9,0,1.3c0,0.2,0,0.5,0,0.7c-0.3,1.6-0.6,3.8-1.1,5.9c-0.1,0.4-0.3,0.9-0.5,1.3
	c-0.2,0.4-0.4,0.9-0.5,1.3c-0.1,0.4-0.4,0.8-0.7,1.1c-0.1,0.1-0.2,0.2-0.3,0.3c-0.4,0.4-0.5,0.4-0.7,0.4c-0.6-0.1-1.1,0.2-1.4,0.7
	c-0.2,0.4-0.6,0.6-1.1,0.9c-0.4,0.2-0.8,0.4-1.1,0.7c-0.4,0.3-0.9,0.4-1.3,0.5l-1.3,0.2c-0.8,0.1-1.5,0.2-2.3,0.3
	c-0.5-0.2-1-0.6-1.4-1.1c-0.8-1.1-1.9-2-3-2.8c-1.5-1.1-2.7-2.7-3.3-4.5c-0.4-0.7-0.3-1.6,0.4-2.1c1.5-1.3,2.5-3,3.2-4.9
	c0.7-2,0.2-3.6-1.4-4.4c-0.2-0.1-0.4-0.2-0.6-0.4c-0.9-1.1-2.4-1.5-3.8-1.1c-0.9-0.3-1.9-0.2-2.8,0.3c-0.1,0-0.2,0.1-0.3,0.1
	c-1,0.2-1.8,0.8-2.2,1.7c-1.1,2.2-2.2,4.8-1.7,7.7c0.2,1,0.5,2.1,0.9,3.1c0.3,0.8,0.6,1.5,0.9,2.2s0.6,1.6,0.9,2.4
	c0.4,1.5,1.3,2.8,2.4,3.7c0.8,0.5,1.5,1.2,2.1,2c0.5,0.8,1.3,1.5,2.2,1.9c0.6,0.3,1.2,0.7,1.6,1.2c0.5,0.5,1.1,0.9,1.9,1
	c0.9,0.2,1.8,0.5,2.6,1l0.4,0.2l0.4-0.1l0.9-0.3l0.4,0.2l0.4,0.2l0.4-0.1l1.4-0.4c1.1-0.3,2.2-0.6,3.3-0.9c0.5-0.1,0.9-0.3,1.3-0.5
	c0.4-0.2,0.8-0.3,1.2-0.4c1.4-0.5,2.7-1.2,3.9-2.2c0.8-0.6,1.7-1.4,2.7-2.3l0.1-0.1c1-0.8,1.8-1.8,2.4-2.9l0.5-1.2
	c1.2-2.4,2.1-5,2.6-7.7c0.1-0.7,0.3-1.5,0.4-2.2c0.2-1,0.4-2.1,0.6-3.1c0-0.3,0.1-0.6,0.1-0.8c-0.1-0.8,0.1-1.5,0.6-2.1
	c0.3-0.3,0.4-0.8,0.4-1.2c0,0,0-0.1,0-0.1l0.1-0.6c0-0.3,0.1-0.7,0.1-1c0.2-0.7,0.2-1.4,0.1-2.1L190.6,87.5z"/>
<path class="st0" d="M244.1,4.3L244.1,4.3c-1.2-1.4-2.9-2.4-4.7-2.6c-1.2-0.2-2.3-0.3-3.5-0.3l-1.1,0c-0.4,0-0.7,0-1.1,0
	c-0.3,0-0.6,0-0.9,0l-0.9-0.1c-1.5-0.1-3.1-0.2-4.6-0.4c-2.6-0.3-5.2-0.4-7.8-0.5h-0.1c-1.5-0.1-3-0.1-4.5-0.1h-0.6
	c-0.6,0-1.1,0-1.5,0c-1.3-0.1-2.6,0.2-3.7,1H209h-0.2c-0.5,0.1-1,0.2-1.5,0.3c-0.3,0-0.6,0.1-0.9,0.1c-1.4,0.1-2.7,0.6-3.9,1.3
	L202.1,3c-0.4,0.2-0.6,0.5-0.8,0.9c-0.8,1.4-1.3,2.9-1.4,4.5c-0.1,1.2,0.1,2.5,0.5,3.6c0.3,0.8,1,1.4,1.9,1.4h0.1
	c0.4,0,0.9,0,1.3-0.1c0.2,0.1,0.5,0.1,0.7,0.1h0.1c1,0.2,2-0.3,2.4-1.2c0-0.1,0.1-0.2,0.2-0.3c0.5-0.9,0.7-1.9,0.5-2.9
	c0,0,0-0.1,0.1-0.4c0.3-0.4,0.5-0.8,0.7-1.2c0.4,0.1,0.9,0,1.2-0.2c0.7-0.3,1.5-0.4,2.2-0.3c0.6,0,1.1-0.1,1.6-0.3l0.3-0.1l0,0
	c0.7,0.2,1.3,0.5,1.9,0.8l0.1,0.2c0.6,1.1,1,1.8,0.7,2.6c-0.3,1.2-0.3,2.5,0,3.7c0.2,1.1,0.3,2.2,0.2,3.4c0,1.2,0,2.5,0.2,3.7v0.1
	c0.4,3,0.8,6.2,0.9,9.3c0.1,2.4,0.1,4.8,0.2,7.1v1c0,0.2,0,0.4,0,0.6c-0.3,0.7-0.4,1.5-0.3,2.3c0.2,2.1,0.1,4.3,0.1,6.4
	c0,0.7,0,1.3,0,1.9c0,0.3,0,0.6,0,1v0.2c0,0.6-0.1,1.2-0.1,1.8c-0.1,1.3-0.1,2.7-0.1,4c0,3,0.1,6,0.1,8.8c0,1.5,0.1,3,0.1,4.4
	c0,0.6,0,1.2,0,1.8c0,1.2,0,2.4,0.1,3.7c0.2,2.8,0.2,5.6,0.2,8.4v0.5c0,0.6,0,1.3,0,1.9c0,1.1-0.1,2.3,0,3.5c0,0.6,0.1,1.2,0.1,1.8
	c0.1,1.2,0.1,2.5,0,3.7c-0.1,0.9-0.1,1.7,0.1,2.6c0.2,1.2,0.1,2.4-0.2,3.5c-0.2,0.7-0.2,1.5,0,2.2c0.4,1.5,0.4,3.1,0.1,4.6l-0.1,0.4
	c-0.1,0.9-0.6,1.7-1.3,2.2c-2.2-0.3-4.4,0.1-6.2,1.4c-0.6,0.8-1,1.8-1.2,2.8c-0.4,1.6,0.1,3.2,1.4,4.3c0.7,0.7,1.6,1.1,2.6,1.2
	c0.5,0,1,0,1.5-0.1c0.2,0,0.4,0.1,0.6,0.1c1.5,0.1,3.1-0.2,4.5-0.9c0.8-0.3,1.4-0.8,2-1.4l0.2,0.4l0.1,0.3l0.3,0.2l0.4,0.3
	c0.3,0.2,0.7,0.5,1.1,0.7c1,0.9,2.4,1.2,3.6,0.8c0.3,0.1,0.7,0.2,1,0.2c0.5,0,1-0.1,1.4-0.3c0.3-0.1,0.6-0.2,0.9-0.2
	c0.5-0.1,1-0.2,1.4-0.4c1.9-1.2,3.1-3.1,3.5-5.3l0,0c0-0.1,0-0.2,0-0.2c0.1-1.1-0.3-2.3-1.2-3c-0.9-0.6-2-0.8-3-0.5
	c-0.7-0.2-1.5-0.2-2.2,0c-0.2,0.1-0.4,0.2-0.6,0.3c-0.8-0.3-1.4-1.1-1.4-2V109c0-0.5,0-1-0.1-1.5c-0.1-0.8-0.1-1.6,0-2.4
	c0.2-1.3,0.1-2.6-0.2-3.8l0,0c0-1-0.1-1.9-0.1-2.9c-0.1-2.5-0.2-5-0.3-7.5c-0.1-1.2,0-2.4,0.1-3.6c0.2-1.6,0.3-3.2,0.3-4.8
	c0-1.3,0.1-2.6,0.1-3.9c0-0.6,0.1-1.3,0.1-2c0-0.7,0-1.3,0-2c0-1-0.1-1.9-0.2-2.9c0-0.2,0-0.4,0-0.7c0-0.7-0.1-1.4-0.3-2.1
	c-0.2-0.7-0.3-1.5-0.3-2.3v-0.5c0-1.1,0-2.2-0.2-3.3c-0.1-0.8-0.2-1.7-0.2-2.5c0-1.3,0-2.6,0.1-3.9c0.1-1.9,0.1-3.8,0-5.7
	c0-0.1,0-0.2,0-0.3c0-0.6-0.1-1.2-0.4-1.7c-0.2-0.2-0.2-0.5-0.1-1v-0.3c0-0.4,0.1-0.7,0.1-1.1c0.1-0.6,0.1-1.2,0.1-1.8
	c0-1.1,0-2.2,0-3.2c0-0.8,0-1.6,0-2.3v-0.5c0-2.3,0-4.7,0-7s0.1-4.6,0.3-6.6c0.1-1.2,0.1-2.5,0.2-3.7c0-0.6,0.1-1.2,0.1-1.9l0.1-0.8
	c0.1-0.8,0.1-1.5,0.1-2.3c0-0.3,0-0.6,0-0.9c-0.1-0.7,0-1.3,0.1-2c0.1-0.4,0.1-0.8,0-1.2c0,0,0-0.1,0-0.1c-0.1-1,0.1-2.1,0.6-2.9
	c0.1-0.3,0.3-0.6,0.4-0.8c0.1-0.2,0.3-0.3,0.5-0.4c0.8-0.5,1.8-0.9,2.7-1l1-0.1c1.3,0,2.6,0.2,3.9,0.3l0.9,0.1
	c0.4,0.1,0.7,0.3,0.9,0.6c0.3,0.4,0.3,1,0.1,1.4c-0.3,0.6-0.4,1.3-0.3,2v0.1c0.1,1,0.6,1.8,1.5,2.2l0.5,0.2l0.5-0.2l0.4-0.2l0.2-0.1
	c0.2,0.1,0.3,0.2,0.5,0.3l0.5,0.2l0.5-0.2l0.5-0.2c0.4-0.2,0.7-0.4,1.1-0.5c0.8-0.3,1.3-1,1.5-1.8c0-0.2,0.1-0.4,0.1-0.5
	c0.3-1.1,0.4-2.3,0.3-3.5C245.3,6.2,244.8,5.1,244.1,4.3z"/>
<path class="st0" d="M475.6,4.3L475.6,4.3c-1.2-1.4-2.9-2.4-4.7-2.6c-1.2-0.2-2.3-0.3-3.5-0.3l-1.1,0c-0.4,0-0.7,0-1.1,0
	c-0.3,0-0.6,0-0.9,0l-0.9-0.1c-1.5-0.1-3-0.2-4.5-0.4c-2.6-0.3-5.3-0.4-7.8-0.5h-0.2c-1.5-0.1-3-0.1-4.5-0.1h-0.5
	c-0.6,0-1.1,0-1.5,0c-1.3-0.1-2.6,0.2-3.7,1h-0.2h-0.2c-0.5,0.1-1,0.2-1.5,0.3c-0.3,0-0.6,0.1-0.9,0.1c-1.4,0.1-2.7,0.6-3.9,1.3
	L433.5,3c-0.4,0.2-0.6,0.5-0.8,0.9c-0.8,1.4-1.3,2.9-1.4,4.5c-0.1,1.2,0.1,2.5,0.5,3.6c0.3,0.8,1,1.4,1.9,1.4h0.1
	c0.4,0,0.9,0,1.3-0.1c0.2,0.1,0.5,0.1,0.7,0.1h0.1c1,0.2,2-0.3,2.4-1.2c0-0.1,0.1-0.2,0.2-0.3C439,11,439.2,10,439,9
	c0,0,0-0.1,0.1-0.4c0.2-0.4,0.5-0.8,0.7-1.2c0.4,0.1,0.9,0,1.2-0.2c0.7-0.3,1.5-0.4,2.2-0.3c0.6,0,1.1-0.1,1.6-0.3l0.3-0.1l0,0
	c0.6,0.2,1.3,0.5,1.9,0.8c0,0.1,0.1,0.1,0.1,0.2c0.6,1.1,1,1.8,0.7,2.6c-0.3,1.2-0.3,2.5,0,3.7c0.2,1.1,0.3,2.2,0.2,3.4
	c0,1.2,0,2.5,0.2,3.7v0.1c0.4,3,0.8,6.2,0.9,9.3c0.1,2.4,0.1,4.8,0.2,7.1v1c0,0.2,0,0.4,0,0.6c-0.3,0.7-0.4,1.5-0.3,2.3
	c0.2,2.1,0.1,4.3,0.1,6.4c0,0.7,0,1.3,0,1.9c0,0.3,0,0.6,0,1v0.2c0,0.6,0,1.2-0.1,1.8c-0.1,1.3-0.1,2.7-0.1,4c0,3,0.1,6,0.1,8.8
	c0,1.5,0,3,0.1,4.4c0,0.6,0,1.2,0,1.8c0,1.2,0,2.4,0.1,3.7c0.2,2.8,0.2,5.6,0.2,8.4v0.5c0,0.6,0,1.3,0,1.9c0,1.1,0,2.3,0,3.5
	c0,0.6,0.1,1.2,0.1,1.8c0.1,1.2,0.1,2.5,0,3.7c-0.1,0.9-0.1,1.7,0.1,2.6c0.2,1.2,0.1,2.4-0.2,3.5c-0.2,0.7-0.2,1.5,0,2.2
	c0.4,1.5,0.4,3.1,0.1,4.6l-0.1,0.4c-0.1,0.9-0.6,1.7-1.3,2.2c-2.2-0.3-4.4,0.2-6.2,1.4c-0.6,0.9-1,1.8-1.2,2.8
	c-0.4,1.6,0.2,3.2,1.4,4.3c0.7,0.7,1.6,1.1,2.6,1.2c0.5,0,1,0,1.5-0.1c0.2,0,0.4,0.1,0.6,0.1c1.5,0.1,3.1-0.2,4.5-0.9
	c0.8-0.4,1.4-0.8,2-1.4l0.2,0.4l0.1,0.3l0.3,0.2l0.4,0.3c0.3,0.2,0.7,0.5,1,0.7c1,0.9,2.4,1.2,3.6,0.8c0.3,0.1,0.7,0.2,1,0.2
	c0.5,0,1-0.1,1.4-0.3c0.3-0.1,0.6-0.2,0.9-0.2c0.5-0.1,1-0.2,1.4-0.4c1.9-1.2,3.1-3.1,3.5-5.3l0,0c0-0.1,0-0.2,0-0.2
	c0.1-1.1-0.3-2.3-1.2-3c-0.9-0.6-2-0.8-3-0.5c-0.7-0.2-1.5-0.2-2.2,0c-0.2,0.1-0.4,0.2-0.6,0.3c-0.8-0.3-1.4-1.1-1.4-2v-0.1
	c0-0.5,0-1-0.1-1.5c-0.1-0.8-0.1-1.6,0-2.4c0.2-1.3,0.1-2.6-0.2-3.8l0,0c0-1-0.1-1.9-0.1-2.9c-0.1-2.5-0.2-5-0.3-7.5
	c-0.1-1.2,0-2.4,0.1-3.6c0.2-1.6,0.3-3.2,0.3-4.8c0-1.3,0.1-2.6,0.1-3.9c0-0.6,0.1-1.3,0.1-2s0-1.4,0-2c0-1-0.1-1.9-0.2-2.9
	c0-0.2,0-0.4,0-0.7c0-0.7-0.1-1.4-0.3-2.1c-0.2-0.7-0.3-1.5-0.3-2.3v-0.5c0-1.1,0-2.2-0.2-3.3c-0.2-0.8-0.2-1.7-0.2-2.5
	c0-1.3,0-2.6,0-3.9c0.1-1.9,0.1-3.8,0-5.7c0-0.1,0-0.2,0-0.3c0-0.6-0.1-1.2-0.5-1.7c-0.2-0.2-0.2-0.5-0.1-1c0-0.1,0-0.2,0-0.3
	c0-0.4,0.1-0.7,0.1-1.1c0.1-0.6,0.1-1.2,0.1-1.8c0-1.1,0-2.2,0-3.2c0-0.8,0-1.6,0-2.3v-0.5c0-2.3,0-4.7,0-7s0.1-4.6,0.2-6.6
	c0.1-1.2,0.2-2.5,0.2-3.7c0-0.6,0.1-1.2,0.1-1.9l0.1-0.8c0-0.8,0.1-1.5,0.1-2.3c0-0.3,0-0.6,0-0.9c-0.1-0.7,0-1.3,0.1-2
	c0.1-0.4,0.1-0.8,0-1.2v-0.1c-0.1-1,0.1-2.1,0.6-2.9c0.1-0.3,0.2-0.6,0.4-0.8c0.1-0.2,0.3-0.3,0.5-0.4c0.8-0.5,1.8-0.9,2.7-1l1-0.1
	c1.3,0,2.6,0.2,3.9,0.3l0.9,0.1c0.4,0.1,0.7,0.3,0.9,0.6c0.3,0.4,0.3,1,0.1,1.4c-0.3,0.6-0.4,1.3-0.2,2v0.1c0.1,1,0.7,1.8,1.6,2.2
	l0.5,0.2l0.5-0.2l0.4-0.2l0.2-0.1c0.2,0.1,0.3,0.2,0.5,0.3l0.5,0.2l0.5-0.2l0.5-0.2c0.3-0.2,0.7-0.4,1.1-0.5c0.7-0.3,1.3-1,1.5-1.8
	c0-0.2,0.1-0.4,0.1-0.5c0.3-1.1,0.4-2.3,0.3-3.5C476.8,6.2,476.3,5.1,475.6,4.3z"/>
<path class="st0" d="M569.5,55.4c-0.1-0.5-1.1-7.6-1.6-10.7c-0.3-2.1-0.3-2.2-0.3-2.3c-0.1-0.5-0.2-1-0.3-1.5
	c-0.2-1.3-0.5-2.6-0.8-3.8c-0.4-1.7-0.8-3.4-1.3-5.1c-0.7-2.1-1.4-4.4-2.5-7.4c-1.4-3.8-2.5-6.9-3.6-9.8c-0.4-1-0.6-2.1-0.8-3.2
	c-0.1-0.9-0.4-1.8-0.8-2.5c-0.7-1.2-1.5-2.4-2.4-3.5L554.5,5c-0.6-0.9-1.6-1.4-2.7-1.5c-0.3-0.1-0.7-0.1-1-0.3
	c-0.3-0.1-0.5-0.2-0.8-0.3l-0.6-0.2c-0.7-0.3-1.5-0.4-2.2-0.5c-0.3,0-0.7-0.1-1-0.3l-0.4-0.1l-0.5-0.2l-0.4,0.3l-0.2,0.1l-0.2,0.1
	L544.1,2l-0.3-0.1l-0.5-0.2L542.8,2l-0.2,0.1c-0.2,0.1-0.4,0.3-0.7,0.4l-0.2,0.2c-0.4,0.4-1,0.8-1.5,1c-0.6,0.2-1.1,0.7-1.4,1.3l0,0
	c-0.2,0.3-0.3,0.6-0.5,0.9c-0.1,0.3-0.3,0.6-0.5,0.9c-0.4,0.6-0.9,1.2-1.3,1.8c-0.6,0.8-1.3,1.7-1.9,2.6c-1,1.7-1.9,3.5-2.7,5.4
	c-0.1,0.2-0.2,0.5-0.3,0.7c-0.2,0.4-0.3,0.9-0.5,1.3c-0.1,0.2-0.1,0.4-0.2,0.6l-0.3,1c-0.2,0.6-0.5,1.3-0.7,1.9
	c-0.6,1.8-1.1,3.4-1.5,4.8l-0.5,1.6c-0.5,1.4-0.9,2.9-1.2,4.4c-0.8,3.4-1.1,6.9-1.1,10.4c0,0,0,0.2,0,0.2s0,0.2,0,0.3
	c-0.4,3.5-1,7-1.9,10.5c-0.7,1.5-1.3,3-1.7,4.5c-0.4,1.7-0.4,3.4-0.1,5.1l0,0.5c0,0.3,0.1,0.5,0.3,0.8c0,0,0,0.1,0.1,0.1
	c0.7,1.7,1.2,3.5,1.5,5.3c0.1,0.8,0.2,1.5,0.4,2.2c0.1,0.5,0.2,1.1,0.3,1.7c0,0.3,0.1,0.7,0.2,1c0.2,0.8,0.3,1.7,0.3,2.6
	c0,1.2,0.2,2.4,0.6,3.5c0.2,0.6,0.3,1.2,0.4,1.8c0.1,0.6,0.3,1.3,0.5,1.9c0.1,0.3,0.2,0.6,0.3,1s0.1,0.5,0.2,0.7
	c0.1,0.4,0.2,0.8,0.3,1.2c0.3,1.1,0.7,2.2,1.1,3.3c0.3,0.8,0.5,1.7,0.8,2.5c0.1,0.2,0.1,0.4,0.1,0.6c0.1,0.6,0.3,1.1,0.6,1.6
	c0.6,0.9,1,1.9,1,2.9c0,0.2,0.1,0.5,0.2,0.7v0.1c0.2,0.5,0.3,1,0.5,1.6c0.4,1.3,0.8,2.4,1,3.7c0.3,1.5,0.8,2.9,1.6,4.1
	c0.5,0.8,1,1.6,1.3,2.5c0.5,1.4,1.3,2.6,2.3,3.7c1.3,1.3,2.5,2.3,3.5,3.1c0.4,0.3,0.9,0.5,1.5,0.7l0.5,0.1l0.4,0.2l0.4-0.2
	c0.3-0.1,0.7-0.1,1.1,0h0.2l0.4,0.2l0.1-0.1c0.3,0,0.5,0,0.8,0c0.3,0,0.5-0.1,0.8-0.1c0.4,0.1,0.9,0.1,1.3,0.1c1,0,1.9-0.4,2.7-0.9
	l0.3-0.2c0.7-0.5,1.4-1,2.2-1.3c0.7-0.3,1.3-0.8,1.8-1.3c1.3-1.3,2.4-2.7,3.3-4.3c0.3-0.7,0.7-1.4,1-2c0.5-1.2,1.1-2.3,1.8-3.4
	c0.2-0.2,0.3-0.5,0.3-0.7V105c0.2-0.5,0.3-0.9,0.5-1.4c0.6-1.6,1-3.2,1.3-4.8c0-0.3,0.1-0.5,0.2-0.8c0.4-1,0.7-2.1,0.9-3.2
	c0-0.2,0.1-0.5,0.1-0.8c0.1-0.8,0.2-1.6,0.3-2.4c0.3-1.8,0.7-3.7,1-5.5c0.1-0.8,0.3-1.6,0.4-2.4c0-0.2,0.2-1,0.4-1.8
	c0.3-1.6,0.6-2.8,0.6-3.1c0.3-1.9,0.5-3.9,0.7-5.8v-0.3c0-0.2,0-0.4,0-0.6c0-0.1,0-0.1,0-0.2c0-0.5,0.1-0.9,0.1-1.4
	c0.1-1.2,0.2-2.4,0.4-3.5c0.2-1.4,0.6-2.8,1-4.2c0.8-2.1,0.7-4.4-0.2-6.5C569.7,56.1,569.5,55.8,569.5,55.4z M558.7,72.1v0.7
	c0.1,2.3,0.1,4.7,0,7.1v0.8c-0.1,1.7-0.2,3.5-0.2,5.3c0,0.2,0,0.3,0,0.5c0.1,0.6,0,1.2-0.2,1.7l-0.1,0.3v0.3c0.1,0.9,0,1.8-0.2,2.7
	c-0.1,0.7-0.2,1.4-0.2,2.1c0,0.4-0.1,0.8-0.2,1.2c-0.2,0.6-0.4,1.3-0.6,1.9c-0.1,0.3-0.2,0.7-0.3,1l-0.1,0.3c0,0.2-0.1,0.3-0.1,0.5
	c-0.7,0.9-1.2,2.1-1.2,3.3c-0.1,0.7-0.3,1.5-0.5,2.2l-0.2,0.5c-0.2,0.6-0.4,1.2-0.5,1.8c-0.3,1.2-1.1,2.3-2.1,3.2
	c-0.7,0.5-1.1,1.4-0.9,2.3c0,0.2-0.3,0.5-0.7,0.7s-0.6,0.3-0.9,0.4c-0.8,0.4-1.6,0.8-2.4,1c-0.6-0.2-1.2-0.5-1.6-1l-0.2-0.2
	c-0.2-0.3-0.5-0.6-0.9-0.8c-1.1-0.6-2-1.5-2.6-2.6c-0.3-0.5-0.7-0.9-1-1.4c0,0,0-0.1,0-0.1l-0.4-0.9c-0.7-1.4-1.4-2.9-2.1-4.4
	c-0.1-0.2-0.1-0.3-0.1-0.5c-0.2-2-0.7-3.9-1.4-5.7l-0.2-0.4c-0.5-1.3-0.8-2.6-1-4c-0.2-1.2-0.5-2.4-0.8-3.6
	c-0.5-1.8-0.9-3.7-1.1-5.6c-0.1-0.6-0.2-1.3-0.4-1.9c-0.2-0.8-0.2-1.7-0.1-2.5c0.2-1.5,0-3.1-0.3-4.6v-0.1c-0.1-0.2-0.1-0.5-0.1-0.7
	c0.3-3,0.6-13.5,0.5-15c-0.1-1.1-0.1-2.2-0.1-3.4c0-0.5,0-0.9,0-1.3c0-0.8,0-1.5,0.1-2.4c0.1-1.1,0.1-2.3,0-3.4c0-1.3,0-2.5,0.2-3.8
	c0.1-0.5,0.1-1,0.2-1.6c0-0.4,0.1-0.7,0.1-1.1c0-0.2,0.1-0.4,0.1-0.7c0-0.1,0-0.3,0-0.4l0,0c0.7-1.3,1.1-2.8,1.2-4.2
	c0.1-0.6,0.2-1.2,0.3-1.8c0.1-0.2,0.1-0.4,0.1-0.6c0.1-0.5,0.2-1,0.4-1.4c0.3-0.4,0.4-0.9,0.5-1.4c0-0.2,0-0.3,0.1-0.5l0.3-1.2
	c0.4-1.4,0.7-2.9,1.2-4.2c0.8-2.9,1.6-5.2,2.3-7.5c0.4-1.1,0.9-2.2,1.4-3.3c0.2-0.3,0.4-0.6,0.6-0.8c0.2-0.2,0.3-0.3,0.5-0.5
	c0.5-0.6,0.9-1.2,1.1-2c0.1-0.5,0.2-0.5,1.1-0.8c0.2-0.1,0.4-0.1,0.6-0.2c0.2-0.1,0.3-0.1,0.5-0.2c0.4,0.2,0.8,0.5,1.1,0.8
	c0.6,0.6,1.2,1.1,1.9,1.6c0.1,0.1,0.2,0.2,0.2,0.3c0.2,0.8,0.6,1.5,1.1,2.1c0.2,0.2,0.4,0.5,0.6,0.8c0.4,0.6,0.3,0.6,0.2,0.8
	c-0.2,0.5-0.2,1.1,0,1.7c0.8,2.5,1.4,5.1,1.8,7.7l0,0c0,0.3,0.1,0.5,0.2,0.8c0.8,2.6,1.4,5.3,1.9,8c0.2,0.8,0.3,1.6,0.5,2.3
	s0.3,1.4,0.5,2.1s0.3,1.4,0.5,2.1s0.2,1.5,0.4,2.3l0.1,0.5c0,0.1,0,0.2,0,0.3c0,0.3,0,0.6,0.1,0.9c0.4,1.6,0.7,3.2,0.8,4.8
	c0.1,0.8,0.1,1.6,0.2,2.4c0,0.3,0.1,0.7,0.1,1c0,0.2,0,0.4,0,0.5c0,0.6,0,1.2,0.1,1.7c0.1,1.4,0.1,2.9,0.2,4.4c0,0.5,0.1,1,0.2,1.5
	c0.1,0.6,0.1,1.2,0.2,1.9c0,1.1-0.1,2.3-0.1,3.4c0,0.8-0.1,1.6-0.1,2.4C558.7,69.5,558.7,70.9,558.7,72.1z"/>
<path class="st0" d="M624.9,13.2c0,0,0-0.1,0-0.1c0-0.4,0.3-0.8,0.7-1c0.9-0.4,1.8-0.8,2.8-1c0.6-0.1,1.1-0.3,1.6-0.5
	c0.5-0.2,0.9-0.7,1.2-1.2c0.7-1.6,0.8-3.3,0.5-5c-0.3-1.1-1-2-1.9-2.5c-1.5-0.9-3.3-1.2-5.1-1h-0.1c-0.6,0-1.2,0-1.9,0
	c-1,0-1.9,0.5-2.5,1.4c-0.2,0.3-0.4,0.6-0.7,0.9c-0.4-0.5-0.9-0.9-1.5-1.3c-0.8-0.4-1.6-0.6-2.5-0.6c-0.4,0-0.8-0.1-1.2-0.2
	c-0.4-0.1-0.9-0.1-1.2,0.1c-0.3,0-0.6-0.1-0.8-0.1c-0.5-0.1-1.1,0-1.5,0.4c-0.3,0.3-0.6,0.5-1,0.8c-0.6,0.4-1.2,0.9-1.7,1.5
	c-0.1,0.2-0.3,0.3-0.4,0.5c-0.9,1-2.2,2.5-1.1,4.2l0.1,0.1c0.1,0.1,0.2,0.3,0.3,0.4l0.6,0.7c0.8,0.9,2,1.3,3.2,0.9h0.1
	c0.7,0.2,1.3,0.2,2,0c0.3-0.1,0.7-0.2,1-0.4l0.2-0.1c0.9,0.4,1.5,1.2,1.7,2.1c0.1,0.4,0.1,0.8,0.1,1.2v0.8c0,1.4,0,2.8,0,4.2
	c-0.1,3.1-0.1,6.2,0.2,9.2v0.5c0,0.5-0.1,1.1-0.2,1.6c-0.1,0.8-0.2,1.6-0.2,2.4c0,0.4,0,0.8,0,1.1c0,0.2,0,0.4-0.1,0.6
	c-0.1,0.4-0.1,0.7-0.1,1.1c0,3.3-0.1,6.7-0.2,9.9c0,1.2-0.1,2.3-0.1,3.5c0,0.5-0.1,1-0.1,1.5c0,0.4-0.1,0.7-0.1,1.1
	c-0.3,1.6-0.3,3.3-0.1,4.9c0,0.2,0,0.4,0,0.7v0.2c0,1.7,0,3.3,0,5c0,2.9,0,5.8,0,8.6v0.2c-0.1-0.4-0.2-0.8-0.4-1.2
	c-0.1-0.3-0.2-0.7-0.2-1c-0.2-1.5-0.6-3.1-1.2-4.5l-0.1-0.3c-0.4-1.2-0.8-2.4-1.2-3.6c-0.2-0.6-0.3-1.2-0.4-1.8s-0.3-1.1-0.4-1.7
	l0-0.2c-0.2-0.5-0.3-0.9-0.4-1.4c0-0.6-0.1-1.1-0.3-1.7c-0.1-0.2-0.1-0.3-0.1-0.5l-0.1-0.5c-0.2-0.7-0.3-1.4-0.5-2.1
	c-0.3-1.2-0.6-2.3-0.9-3.3c-0.1-0.3-0.2-0.7-0.3-1s-0.2-0.5-0.2-0.7c-0.3-1-0.6-2.1-0.8-3.2s-0.5-2.3-0.9-3.4
	c-0.1-0.4-0.2-0.8-0.4-1.3c-0.2-0.9-0.5-1.7-0.8-2.5c-0.2-0.6-0.4-1.3-0.6-1.9c-0.2-0.7-0.4-1.3-0.6-2c-0.8-2-1.5-4.1-2.1-6.2
	c-0.4-1.5-0.9-2.9-1.4-4.3c-0.3-0.8-0.5-1.7-0.7-2.5c-0.1-0.7-0.3-1.4-0.6-2c-0.1-0.3-0.2-0.6-0.3-0.9c0-0.1,0-0.2-0.1-0.4
	c0-0.2,0-0.4-0.1-0.5l-0.1-0.5c-0.1-0.6-0.2-1.2-0.5-1.7c-0.4-0.7-0.7-1.4-0.9-2.1c-0.1-0.4-0.3-0.7-0.4-1.1c-0.4-1-1-1.9-1.6-2.7
	c-0.3-0.4-0.6-0.7-0.9-1.1s-0.7-0.8-0.9-1.1c-0.8-1.1-1.9-1.8-3.2-2l-0.7-0.1c-1.5-0.3-3-0.4-4.5-0.4c-1.1-0.1-2.2-0.1-3.2,0.2
	c-1.1,0.3-2.1,0.9-2.8,1.7C577.7,4,577.5,5,577.8,6l0.1,0.4l1.7,1.2l0.5-0.2c0.3-0.1,0.5-0.2,0.8-0.4l0.8,0.6l0.5-0.2
	c0.2-0.1,0.4-0.2,0.7-0.3c1.3,0.5,2.1,1.7,2.1,3.1c0.1,1,0.1,2.1,0.1,3.2V14c0,0.6,0,1.2,0,1.8c-0.1,1.3,0,2.5,0.1,3.8
	c0.2,1.8,0.2,3.6,0.2,5.6v0.5c-0.1,1.1,0.1,2.2,0.6,3.2c0,0.2,0,0.4,0,0.6v0.1c0,0.5,0,1,0,1.5s0,0.9,0,1.3c0,0.2,0,0.5,0,0.7
	c-0.1,0.8,0,1.6,0.1,2.3c0.3,2.5,0.2,5.1-0.2,7.6c0,0.4-0.1,0.8-0.2,1.3c-0.1,0.8-0.2,1.5-0.3,2.3c0,0.4,0,0.7,0,1.1
	c0,0.3,0,0.6,0,0.8c-0.3,2.1-0.3,4.2-0.3,6.2V55c0,1.2,0,2.4,0,3.6c0,1.8-0.1,3.6,0,5.4s0,3.5,0,5.2c-0.1,2.4,0,4.8,0.1,7.2
	c0,0.2,0,0.3,0,0.5c-0.5,3-0.6,6.1-0.3,9.2c0.2,2.3,0.1,4.6,0.1,6.9s-0.1,4.5,0,6.8c0,0.8,0,1.6,0,2.5c0,0.4,0,0.8,0,1.2
	s0,0.8,0,1.2c-0.1,0.9-0.1,1.8,0,2.7c0.2,1-0.2,2-1,2.6l-0.1,0.1c-0.6,0.5-0.9,0.8-1.4,0.8c-0.2-0.1-0.4-0.1-0.6-0.3
	c-0.8-0.6-1.8-0.7-2.7-0.3c-1.2-0.6-2.7,0-3.3,1.2c-0.6,0.9-0.9,2-0.9,3.1c-0.1,1.4,0.5,2.8,1.7,3.6c0.1,0.1,0.2,0.1,0.2,0.2
	c0.1,0.2,0.3,0.3,0.5,0.4l0.1,0.1c0.4,0.3,0.8,0.5,1.3,0.7h0.1c0.9,0.3,1.8,0.5,2.8,0.5h0.2c0.6,0,1.1,0,1.7,0h0.4
	c1.4,0.2,2.8-0.1,3.9-1c0.2-0.2,0.5-0.4,0.7-0.5l0,0l0.2,0.1l0.9,0.4c0.7,0.3,1.3,0.6,2,0.9c0.7,0.3,1.5,0.5,2.3,0.5
	c0.4,0,0.7,0,1.1-0.1c0.7,0.1,1.4,0.1,2.1,0c1.7-0.1,3.1-1.3,3.5-2.9c0.2-1,0.3-2,0.2-3c0-0.2,0-0.4,0-0.6c0-1.1-0.9-1.9-1.9-1.9
	c0,0,0,0-0.1,0l0,0c-0.4,0-0.9,0.1-1.3,0.1c-0.3-0.1-0.5-0.1-0.8-0.1c-0.4,0-0.8,0-1.2,0.1c-0.9-0.5-1.6-1.4-1.6-2.5
	c0-0.4-0.1-0.7-0.1-1.1s-0.1-0.6-0.1-0.9c0-0.1,0-0.2,0-0.3c-0.1-0.4-0.1-0.7,0-1.1c0.3-1.1,0.4-2.2,0.1-3.3c-0.1-0.7-0.1-1.3,0-2
	c0.1-0.8,0.1-1.7,0-2.5c-0.1-0.5-0.1-1-0.1-1.4c0-0.2,0-0.4,0-0.6v-0.6c0-0.4,0-0.8,0-1.1c-0.2-1.4-0.1-2.9,0.1-4.3
	c0.1-0.5,0.1-0.9,0.1-1.4c-0.2-1.9-0.2-3.9-0.1-5.8c0-0.5,0-0.9,0-1.4c-0.1-0.9,0-1.9,0.3-2.8c0.1-0.3,0.2-0.6,0.1-0.8V78
	c0-0.4,0-0.8,0.1-1.2c0.1-1,0.1-2,0-3c-0.2-1.8-0.2-3.6-0.2-5.4c0-2-0.1-4-0.2-6c0.3-0.9,0.3-1.9,0.1-2.8c0-0.2-0.1-0.5-0.1-0.7
	c-0.1-1-0.1-2.1,0-3c0-0.5,0.1-1.1,0.1-1.7v-0.4c0.1-1.5,0.1-3,0-4.5c-0.1-1.7-0.1-3.5,0.1-5.2v-0.2v-0.2c-0.2-1.9-0.2-3.8,0-5.7
	c0.1,0.2,0.3,0.4,0.5,0.6c0.7,0.6,1.2,1.5,1.4,2.4c0.1,0.3,0.2,0.6,0.3,0.9c0.6,1.6,1.1,3.2,1.6,4.9c0.2,0.6,0.3,1.2,0.5,1.8
	s0.4,1.4,0.6,2.1c0.4,1.2,0.7,2.5,1.2,3.8c0.4,1.1,0.7,2.2,1,3.3c0.1,0.4,0.2,0.8,0.3,1.2c0.1,0.3,0.2,0.5,0.2,0.8
	c0.2,0.7,0.4,1.5,0.6,2.4c0.1,0.4,0.2,0.7,0.2,1.1c0.1,0.6,0.2,1.2,0.4,1.7s0.3,1.3,0.5,1.9s0.4,1.3,0.5,1.9s0.2,1,0.3,1.5
	c0,0.3,0.1,0.6,0.2,0.9c0.4,1.6,0.8,3.2,1.4,4.8l0.1,0.2c0.2,0.4,0.3,0.9,0.4,1.4c0.3,1.2,0.8,2.3,1.4,3.3c0.4,1.8,0.9,3.5,1.5,5.2
	c0.2,1.4,0.6,2.8,0.9,4.2c0.6,2.2,1,4.4,1.2,6.7c0,0.5,0.1,1,0.2,1.5c0.2,0.6,0.2,1.3,0.1,1.9c-0.1,0.3-0.1,0.7,0,1c0,0,0,0.1,0,0.1
	c0.1,0.5,0.2,0.9,0.2,1.4c0.2,1,0.4,2,0.5,3c0.2,2.2,0.7,4.4,1.4,6.5c0.5,1.7,1.5,3.2,2.8,4.3c1.5,1.2,3.4,2,5.3,2.1
	c0.4,0.1,0.9,0,1.3-0.1l0.8,0.1c1,0.1,2.1-0.2,2.9-0.8l0.6-0.3c0.7-0.4,1.2-0.9,1.6-1.5c0.1-0.2,0.2-0.3,0.4-0.5
	c0.9-1,1.1-2.5,0.5-3.7c-0.5-1.6-1.9-2.7-3.6-2.7c-0.7-0.1-1.3-0.2-1.9-0.5c-0.6-0.2-0.8-0.5-0.8-0.9c-0.1-0.6-0.3-1.1-0.7-1.6
	c-0.5-0.7-0.7-1.6-0.6-2.5c0-0.5,0-1,0-1.5c0-0.7,0-1.3-0.1-2c0-1.2-0.1-2.5-0.1-3.7s0-2.3,0-3.5c0-1.6,0.1-3.2,0-4.8
	c0-0.7,0-1.5,0-2.2c0.1-1.8,0-3.6-0.3-5.3c0-0.1,0-0.2,0-0.3c0.4-0.8,0.6-1.7,0.6-2.6c0-1,0-2,0-3c0-0.5,0-1.1,0-1.6
	c0-0.2,0-0.3,0-0.5c0-0.2,0-0.3,0-0.5c0.3-1.4,0.4-2.9,0.3-4.3c0-0.8,0-1.5,0-2.3c0.1-1.1,0.1-2.1,0.1-3.2c0-0.8,0-1.6,0-2.4
	s0-1.4,0.1-2.1l0.1-1.8c0-0.5,0-0.9,0.1-1.3s0.1-1.1,0.1-1.7c0-0.4,0.1-0.8,0.3-1.2c0.3-0.7,0.3-1.5,0.2-2.2
	c-0.1-0.4-0.1-0.8-0.1-1.2c0-0.2,0-0.4,0-0.5c0-0.5,0-1.1,0.1-1.7c0.1-1,0.1-2.1,0-3.1c0-0.1,0-0.2,0-0.2c0.2-0.7,0.3-1.5,0.3-2.3
	l0.7-1.4c-0.2-1.9-0.3-3.8-0.2-5.7v-1.2c0-0.4,0-0.8,0.1-1.2s0-1,0.1-1.5c0-0.2,0-0.4,0-0.5v-0.3l0.1-1.1h-0.5c0-0.6,0-1.2,0-1.8
	s0-1.3,0-1.9c0-0.5,0-1-0.1-1.4c0-0.7-0.1-1.3-0.1-1.9c0-0.3,0-0.7,0-1c-0.1-0.6,0-1.3,0.1-1.9c0.2-0.7,0.3-1.5,0.1-2.2
	c-0.1-0.4-0.1-0.8,0-1.2C624.7,13.6,624.8,13.4,624.9,13.2z"/>
<path class="st0" d="M79.3,114c0.1-1.1-0.3-2.3-1.2-3c-0.9-0.6-2-0.8-3-0.5c-0.7-0.2-1.5-0.2-2.2,0c-0.2,0.1-0.4,0.2-0.6,0.3
	c-0.8-0.3-1.4-1.1-1.4-2v-0.1c0-0.5,0-1-0.1-1.5c-0.1-0.8-0.1-1.6,0-2.4c0.2-1.3,0.1-2.6-0.2-3.8l0,0c0-1-0.1-1.9-0.1-2.9
	c-0.1-2.5-0.2-5-0.3-7.5c-0.1-1.2,0-2.4,0.1-3.6c0.2-1.6,0.3-3.2,0.3-4.8c0-1.3,0.1-2.6,0.1-3.9c0-0.6,0.1-1.3,0.1-2s0-1.4,0-2.1
	c0-0.9-0.1-1.9-0.2-2.9c0-0.2,0-0.4,0-0.7c0-0.7-0.1-1.4-0.3-2.1c-0.2-0.7-0.3-1.5-0.3-2.3V66c0-0.8,0-1.7-0.1-2.5H70
	c0-1.1,0-6.4-0.1-7.5c0-1.5-0.1-3-0.1-4.4c0-0.6,0-1.2,0-1.8c0-1.2,0-2.4-0.1-3.7c-0.2-2.8-0.2-5.6-0.2-8.4v-0.5c0-0.6,0-1.3,0-1.9
	c0-1.1,0-2.3,0-3.5c0-0.6-0.1-1.2-0.1-1.8c-0.1-1.2-0.1-2.5,0-3.7c0.1-0.9,0.1-1.7-0.1-2.6c-0.2-1.2-0.1-2.4,0.2-3.5
	c0.2-0.7,0.2-1.5,0-2.2c-0.4-1.5-0.4-3.1-0.1-4.6l0.1-0.4c0.1-0.9,0.6-1.7,1.3-2.2c0.7,0.2,1.5,0.2,2.2,0c1.5,0.4,3.1-0.2,3.9-1.5
	c0.6-0.9,1-1.8,1.2-2.8c0.4-1.6-0.2-3.2-1.4-4.3C76.1,1.4,75.2,1,74.2,1c-0.5,0-1,0-1.5,0.1C72.5,1,72.3,1,72.1,1
	c-1.5-0.1-3.1,0.2-4.5,0.9c-0.8,0.4-1.4,0.8-2,1.4l-0.2-0.4l-0.1-0.3L65,2.5l-0.4-0.3c-0.3-0.2-0.7-0.5-1-0.7
	c-1-0.9-2.4-1.2-3.7-0.8c-0.3-0.1-0.7-0.2-1-0.2c-0.5,0-1,0.1-1.4,0.3C57.2,0.9,56.9,1,56.7,1c-0.5,0.1-1,0.2-1.4,0.4
	c-1.9,1.2-3.1,3.1-3.5,5.3l0,0c0,0.1,0,0.2,0,0.2c-0.1,1.1,0.3,2.3,1.2,3c0.9,0.6,2,0.8,3,0.5c0.7,0.2,1.5,0.2,2.2,0
	c0.2-0.1,0.4-0.2,0.6-0.3c0.8,0.3,1.4,1.1,1.4,2v0.1c0,0.5,0,1,0.1,1.5c0.1,0.8,0.1,1.6,0,2.4c-0.2,1.3-0.1,2.6,0.2,3.8l0,0
	c0,1,0.1,1.9,0.1,2.9c0.1,2.5,0.2,5,0.3,7.5c0.1,1.2,0,2.4-0.1,3.6c-0.2,1.6-0.3,3.2-0.3,4.8c0,1.3-0.1,2.6-0.1,3.9
	c0,0.6-0.1,1.3-0.1,2s0,1.4,0,2c0,1,0.1,1.9,0.2,2.9c0,0.2,0,0.4,0,0.7c0,0.7,0.1,1.4,0.3,2.1c0.2,0.7,0.3,1.5,0.3,2.3v0.5
	c0,0.9,0,4.7,0.1,6.6H61c0,1.1,0,2.3,0.1,3.4c0,1.5,0,3,0.1,4.4c0,0.6,0,1.2,0,1.8c0,1.2,0,2.4,0.1,3.7c0.2,2.8,0.2,5.6,0.2,8.4v0.5
	c0,0.7,0,1.3,0,1.9c0,1.1,0,2.3,0,3.5c0,0.6,0.1,1.2,0.1,1.8c0.1,1.2,0.1,2.5,0,3.7c-0.1,0.9-0.1,1.7,0.1,2.6
	c0.2,1.2,0.1,2.4-0.2,3.5c-0.2,0.7-0.2,1.5,0,2.2c0.4,1.5,0.4,3.1,0.1,4.6l-0.1,0.4c-0.1,0.9-0.6,1.7-1.3,2.2
	c-0.7-0.2-1.5-0.2-2.2,0c-1.5-0.5-3.1,0.1-4,1.4c-0.6,0.8-1,1.8-1.2,2.8c-0.4,1.6,0.2,3.2,1.4,4.3c0.7,0.7,1.6,1.2,2.6,1.2
	c0.5,0,1,0,1.5-0.1c0.2,0,0.4,0.1,0.6,0.1c1.5,0.1,3.1-0.2,4.5-0.9c0.8-0.4,1.4-0.8,2-1.4l0.2,0.4l0.1,0.3l0.3,0.2
	c0.1,0.1,0.2,0.2,0.4,0.3c0.3,0.2,0.7,0.5,1,0.7c1,0.9,2.4,1.2,3.6,0.8c0.3,0.1,0.7,0.2,1,0.2c0.5,0,1-0.1,1.4-0.3
	c0.3-0.1,0.6-0.2,0.9-0.2c0.5-0.1,1-0.2,1.4-0.4c1.9-1.2,3.1-3.1,3.5-5.3l0,0C79.2,114.3,79.3,114.1,79.3,114z"/>
<path class="st0" d="M512.5,114c0.1-1.1-0.3-2.3-1.2-3c-0.9-0.6-2-0.8-3-0.5c-0.7-0.2-1.5-0.2-2.2,0c-0.2,0.1-0.4,0.2-0.6,0.3
	c-0.8-0.3-1.4-1.1-1.4-2v-0.1c0-0.5,0-1-0.1-1.5c-0.1-0.8-0.1-1.6,0-2.4c0.2-1.3,0.1-2.6-0.2-3.8l0,0c0-1-0.1-1.9-0.1-2.9
	c-0.1-2.5-0.2-5-0.3-7.5c-0.1-1.2,0-2.4,0.1-3.6c0.2-1.6,0.3-3.2,0.3-4.8c0-1.3,0-2.6,0.1-3.9c0-0.6,0.1-1.3,0.1-2s0-1.4,0-2.1
	c0-0.9-0.1-1.9-0.2-2.9c0-0.2,0-0.4,0-0.7c0-0.7-0.1-1.4-0.3-2.1c-0.2-0.7-0.3-1.5-0.3-2.3V66c0-0.8,0-1.7-0.1-2.5h0.1
	c0-1.1,0-6.4-0.1-7.5c0-1.5,0-3-0.1-4.4c0-0.6,0-1.2,0-1.8c0-1.2,0-2.4-0.1-3.7c-0.2-2.8-0.2-5.6-0.2-8.4v-0.5c0-0.6,0-1.3,0-1.9
	c0-1.1,0-2.3,0-3.5c0-0.6-0.1-1.2-0.1-1.8c-0.1-1.2-0.1-2.5,0-3.7c0.1-0.9,0.1-1.7-0.1-2.6c-0.2-1.2-0.1-2.4,0.2-3.5
	c0.2-0.7,0.2-1.5,0-2.2c-0.4-1.5-0.4-3.1-0.1-4.6l0.1-0.4c0.1-0.9,0.6-1.7,1.3-2.2c2.2,0.3,4.4-0.2,6.2-1.4c0.6-0.9,1-1.8,1.2-2.8
	c0.4-1.6-0.1-3.3-1.4-4.4c-0.7-0.7-1.6-1.2-2.6-1.2c-0.5,0-1,0-1.5,0.1c-0.2,0-0.4-0.1-0.6-0.1c-1.5-0.1-3.1,0.2-4.5,0.9
	c-0.8,0.4-1.4,0.8-2,1.4l-0.2-0.4l-0.1-0.3l-0.3-0.2l-0.4-0.3c-0.3-0.2-0.7-0.5-1-0.7c-1-0.9-2.4-1.2-3.6-0.8
	c-0.3-0.1-0.7-0.2-1-0.2c-0.5,0-1,0.1-1.4,0.3c-0.3,0.1-0.6,0.2-0.9,0.2c-0.5,0.1-1,0.2-1.4,0.4c-1.9,1.2-3.1,3.1-3.5,5.3l0,0
	c0,0.1,0,0.2,0,0.2c-0.1,1.1,0.3,2.3,1.2,3c0.9,0.6,2,0.8,3,0.5c0.7,0.2,1.5,0.2,2.2,0c0.2-0.1,0.4-0.2,0.6-0.3
	c0.8,0.3,1.4,1.1,1.4,2v0.1c0,0.5,0,1,0.1,1.5c0.1,0.8,0.1,1.6,0,2.4c-0.2,1.3-0.1,2.6,0.2,3.8l0,0c0,1,0.1,1.9,0.1,2.9
	c0.1,2.5,0.2,5,0.3,7.5c0.1,1.2,0,2.4-0.1,3.6c-0.2,1.6-0.3,3.2-0.3,4.8c0,1.3-0.1,2.6-0.1,3.9c0,0.6-0.1,1.3-0.1,2s0,1.4,0,2
	c0,1,0.1,1.9,0.2,2.9c0,0.2,0,0.4,0,0.7c0,0.7,0.1,1.4,0.3,2.1c0.2,0.7,0.3,1.5,0.3,2.3V55c0,0.9,0,4.7,0.1,6.6h-0.1
	c0,1.1,0,2.3,0.1,3.4c0,1.5,0,3,0.1,4.4c0,0.6,0,1.2,0,1.8c0,1.2,0,2.4,0.1,3.7c0.2,2.8,0.2,5.6,0.2,8.4v0.5c0,0.7,0,1.3,0,1.9
	c0,1.1,0,2.3,0,3.5c0,0.6,0.1,1.2,0.1,1.8c0.1,1.2,0.1,2.5,0,3.7c-0.1,0.9-0.1,1.7,0.1,2.6c0.2,1.2,0.1,2.4-0.2,3.5
	c-0.2,0.7-0.2,1.5,0,2.2c0.4,1.5,0.4,3.1,0.1,4.6l-0.1,0.4c-0.1,0.9-0.6,1.7-1.3,2.2c-2.2-0.3-4.4,0.2-6.2,1.4
	c-0.6,0.8-1,1.8-1.2,2.8c-0.4,1.6,0.2,3.2,1.4,4.3c0.6,0.7,1.5,1.2,2.5,1.2c0.5,0,1,0,1.5-0.1c0.2,0,0.4,0.1,0.6,0.1
	c1.5,0.1,3.1-0.2,4.5-0.9c0.8-0.4,1.4-0.8,2-1.4l0.2,0.4l0.1,0.3l0.3,0.2l0.4,0.3c0.3,0.2,0.7,0.5,1,0.7c1,0.9,2.4,1.2,3.6,0.8
	c0.3,0.1,0.7,0.2,1,0.2c0.5,0,1-0.1,1.4-0.3c0.3-0.1,0.6-0.2,0.9-0.2c0.5-0.1,1-0.2,1.4-0.4c1.9-1.2,3.1-3.1,3.5-5.3l0,0
	C512.4,114.3,512.5,114.1,512.5,114z"/>
<path class="st0" d="M136,13.2c0,0,0-0.1,0-0.1c0-0.4,0.3-0.8,0.7-1c0.9-0.4,1.8-0.8,2.8-1c0.6-0.1,1.1-0.3,1.6-0.5
	c0.5-0.2,0.9-0.7,1.1-1.2c0.7-1.6,0.8-3.3,0.5-5c-0.3-1.1-1-2-1.9-2.5c-1.5-0.9-3.3-1.2-5.1-1h-0.1c-0.6,0-1.3,0-1.9,0
	c-1,0-2,0.6-2.5,1.5c-0.2,0.3-0.4,0.6-0.6,0.9c-0.4-0.5-0.9-1-1.5-1.3c-0.8-0.4-1.6-0.6-2.5-0.6c-0.4,0-0.8-0.1-1.2-0.2
	c-0.4-0.1-0.9-0.1-1.2,0.1c-0.3,0-0.6-0.1-0.8-0.1c-0.5-0.1-1.1,0-1.5,0.4c-0.3,0.3-0.6,0.5-1,0.8c-0.6,0.4-1.2,0.9-1.7,1.5
	c-0.1,0.2-0.3,0.3-0.4,0.5c-0.9,1-2.2,2.5-1.2,4.2l0.1,0.1c0.1,0.1,0.2,0.3,0.3,0.4l0.6,0.7c0.8,0.9,2,1.3,3.2,0.9h0.1
	c0.7,0.2,1.3,0.2,2,0c0.3-0.1,0.7-0.2,1-0.4l0.2-0.1c0.9,0.4,1.5,1.2,1.7,2.1c0.1,0.4,0.1,0.8,0.1,1.2v0.8c0,1.4,0,2.8,0,4.2
	c-0.1,3.1-0.1,6.2,0.2,9.2v0.5c0,0.5-0.1,1.1-0.2,1.6c-0.1,0.8-0.2,1.6-0.2,2.4c0,0.4,0,0.8,0,1.1c0,0.2,0,0.4-0.1,0.6
	c-0.1,0.4-0.1,0.7-0.1,1.1c0,3.3-0.1,6.7-0.2,9.9c-0.1,1.2-0.1,2.3-0.1,3.5c0,0.5-0.1,1-0.1,1.5c0,0.4-0.1,0.7-0.1,1.1
	c-0.3,1.6-0.3,3.3-0.1,4.9c0,0.2,0,0.4,0,0.7v0.2c0,1.7,0,3.3,0,5c0,2.9,0,5.8,0,8.6v0.2c-0.1-0.4-0.2-0.8-0.4-1.2
	c-0.1-0.3-0.2-0.7-0.2-1c-0.2-1.5-0.6-3.1-1.2-4.5l-0.1-0.3c-0.4-1.2-0.8-2.4-1.2-3.6c-0.2-0.6-0.3-1.2-0.4-1.8s-0.3-1.1-0.4-1.7
	l-0.1-0.2c-0.2-0.5-0.2-1-0.2-1.4c0-0.6-0.1-1.1-0.3-1.7c-0.1-0.2-0.1-0.3-0.2-0.5l-0.1-0.5c-0.2-0.7-0.3-1.4-0.5-2.1
	c-0.3-1.2-0.6-2.3-0.9-3.3c-0.1-0.3-0.2-0.7-0.3-1s-0.2-0.5-0.2-0.7c-0.3-1-0.6-2.1-0.8-3.2s-0.5-2.3-0.9-3.4
	c-0.1-0.4-0.2-0.8-0.4-1.3c-0.2-0.9-0.5-1.7-0.8-2.5c-0.2-0.6-0.4-1.3-0.6-1.9c-0.2-0.7-0.4-1.3-0.6-2c-0.8-2-1.5-4.1-2.1-6.2
	c-0.4-1.5-0.9-2.9-1.4-4.3c-0.3-0.8-0.5-1.7-0.7-2.5c-0.1-0.7-0.3-1.4-0.6-2c-0.1-0.3-0.2-0.6-0.3-0.9c0-0.1,0-0.2,0-0.4
	c0-0.2,0-0.4-0.1-0.6l-0.1-0.5c-0.1-0.6-0.2-1.2-0.5-1.7c-0.4-0.7-0.7-1.4-0.9-2.1c-0.1-0.4-0.3-0.7-0.4-1.1c-0.4-1-1-1.9-1.6-2.7
	c-0.3-0.4-0.6-0.7-0.9-1.1s-0.7-0.8-0.9-1.1c-0.8-1.1-1.9-1.8-3.2-2l-0.7-0.1c-1.5-0.3-3-0.4-4.5-0.4c-1.1-0.1-2.2-0.1-3.2,0.2
	c-1.1,0.3-2.1,0.9-2.8,1.7C89,3.9,88.7,5,88.9,6L89,6.4l1.7,1.2l0.5-0.2C91.5,7.3,91.8,7.2,92,7l0.8,0.6l0.5-0.2
	c0.2-0.1,0.5-0.2,0.7-0.3c1.3,0.5,2.1,1.7,2.1,3.1c0.1,1,0.1,2.1,0.1,3.2V14c0,0.6,0,1.2,0,1.8c-0.1,1.3,0,2.5,0.1,3.8
	c0.2,1.8,0.2,3.6,0.2,5.6v0.5c-0.1,1.1,0.1,2.2,0.6,3.2c0,0.2,0,0.4,0,0.6v0.1c0,0.5,0,1,0,1.5s0,0.9-0.1,1.3c0,0.2,0,0.5,0,0.7
	c0,0.8,0,1.6,0.1,2.3c0.3,2.5,0.2,5.1-0.2,7.6c0,0.4-0.1,0.8-0.2,1.3c-0.1,0.8-0.2,1.5-0.3,2.3c0,0.4,0,0.7,0,1.1c0,0.3,0,0.6,0,0.8
	c-0.3,2.1-0.3,4.2-0.3,6.2V55c0,1.2,0,2.4,0,3.6c0,1.8-0.1,3.6,0,5.4s0,3.5,0,5.2c-0.1,2.4,0,4.8,0.1,7.2c0,0.2,0,0.3,0,0.5
	c-0.5,3-0.6,6.1-0.3,9.2c0.2,2.3,0.1,4.6,0.1,6.9s-0.1,4.5,0,6.8c0,0.8,0,1.6,0,2.5c0,0.4,0,0.8,0,1.2s0,0.8,0,1.2
	c-0.1,0.9-0.1,1.8,0,2.7c0.2,1-0.2,2-1,2.6l-0.1,0.1c-0.6,0.5-0.9,0.8-1.4,0.8c-0.2-0.1-0.4-0.1-0.6-0.3c-0.8-0.6-1.8-0.7-2.7-0.3
	c-1.2-0.5-2.7,0-3.2,1.2c-0.6,0.9-0.9,2-0.9,3.1c-0.1,1.4,0.6,2.8,1.8,3.6c0.1,0.1,0.2,0.1,0.2,0.2c0.1,0.2,0.3,0.3,0.5,0.4l0.1,0.1
	c0.4,0.3,0.8,0.5,1.3,0.7h0.1c0.9,0.3,1.8,0.5,2.8,0.5h0.2c0.6,0,1.1,0,1.7,0h0.4c1.4,0.2,2.8-0.1,3.9-1c0.2-0.2,0.5-0.4,0.7-0.5
	l0,0l0.2,0.1l0.9,0.4c0.7,0.3,1.3,0.6,2,0.9c0.7,0.3,1.5,0.5,2.3,0.5c0.4,0,0.7,0,1.1-0.1c0.7,0.1,1.4,0.1,2.1,0
	c1.7-0.1,3.1-1.3,3.5-2.9c0.2-1,0.3-2,0.2-3c0-0.2,0-0.4,0-0.6c0-1.1-0.9-1.9-1.9-1.9c0,0,0,0-0.1,0l0,0c-0.4,0-0.9,0.1-1.3,0.1
	c-0.2-0.1-0.5-0.1-0.8-0.1c-0.4,0-0.8,0-1.2,0.1c-0.9-0.5-1.6-1.4-1.6-2.5c0-0.4-0.1-0.7-0.1-1.1s-0.1-0.6-0.1-0.9
	c0-0.1,0-0.2,0-0.3c-0.1-0.4-0.1-0.7,0-1.1c0.3-1.1,0.4-2.2,0.1-3.3c-0.1-0.7-0.1-1.3,0-2c0.1-0.8,0.1-1.7,0-2.5
	c-0.1-0.4-0.1-0.9-0.1-1.3c0-0.2,0-0.4,0-0.6v-0.6c0-0.4,0-0.8,0-1.1c-0.2-1.4-0.1-2.9,0.1-4.3c0.1-0.5,0.1-0.9,0.1-1.4
	c-0.2-1.9-0.2-3.9-0.1-5.8c0-0.5,0-0.9,0-1.4c-0.1-0.9,0-1.9,0.3-2.8c0.1-0.3,0.2-0.6,0.1-0.8v-0.1c0-0.4,0-0.8,0.1-1.2
	c0.1-1,0.1-2,0-3c-0.2-1.8-0.2-3.6-0.2-5.4c0-2-0.1-4-0.2-6c0.3-0.9,0.3-1.9,0.1-2.8c0-0.2-0.1-0.5-0.1-0.7c-0.1-1-0.1-2.1-0.1-3
	c0-0.5,0.1-1.1,0.1-1.7v-0.4c0.1-1.5,0.1-3,0-4.5c-0.1-1.8-0.1-3.6,0.2-5.4v-0.2v-0.2c-0.2-1.9-0.2-3.8,0-5.7
	c0.1,0.2,0.3,0.4,0.5,0.6c0.7,0.6,1.2,1.5,1.4,2.4c0.1,0.3,0.2,0.6,0.3,0.9c0.6,1.6,1.1,3.2,1.6,4.9c0.2,0.6,0.3,1.2,0.5,1.8
	s0.4,1.4,0.6,2.1c0.4,1.2,0.7,2.5,1.2,3.8c0.4,1.1,0.7,2.2,1,3.3c0.1,0.4,0.2,0.8,0.3,1.2c0.1,0.3,0.2,0.5,0.2,0.8
	c0.2,0.7,0.4,1.5,0.6,2.4c0.1,0.4,0.2,0.7,0.2,1.1c0.1,0.6,0.2,1.2,0.4,1.7s0.3,1.3,0.5,1.9s0.4,1.3,0.5,1.9s0.2,1,0.3,1.5
	c0.1,0.3,0.1,0.6,0.2,0.9c0.3,1.6,0.8,3.2,1.4,4.8l0.1,0.2c0.2,0.4,0.3,0.9,0.4,1.4c0.3,1.2,0.7,2.3,1.3,3.4
	c0.4,1.8,0.9,3.5,1.5,5.2c0.2,1.4,0.6,2.8,0.9,4.2c0.6,2.2,1,4.4,1.2,6.7c0,0.5,0.1,1,0.2,1.5c0.2,0.6,0.2,1.3,0.1,1.9
	c-0.1,0.3-0.1,0.7,0,1c0,0,0,0.1,0,0.1c0.1,0.5,0.2,0.9,0.2,1.4c0.2,1,0.4,2,0.5,3c0.2,2.2,0.7,4.4,1.4,6.5c0.5,1.7,1.5,3.2,2.8,4.3
	c1.5,1.2,3.4,2,5.3,2.1c0.4,0.1,0.9,0,1.3-0.1l0.8,0.1c1,0.1,2.1-0.2,2.9-0.8l0.6-0.3c0.7-0.4,1.2-0.9,1.6-1.5
	c0.1-0.2,0.2-0.3,0.4-0.5c0.9-1,1.1-2.5,0.5-3.7c-0.5-1.6-1.9-2.7-3.6-2.7c-0.7-0.1-1.3-0.2-1.9-0.5c-0.6-0.2-0.8-0.5-0.8-0.9
	c-0.1-0.6-0.3-1.1-0.7-1.6c-0.5-0.7-0.7-1.6-0.6-2.5c0-0.5,0-1,0-1.5c0-0.7-0.1-1.3-0.1-2c-0.1-1.2-0.1-2.5-0.1-3.7s0-2.3,0.1-3.5
	c0-1.6,0.1-3.2,0-4.8c0-0.7,0-1.5,0-2.2c0.1-1.8,0-3.6-0.3-5.3c0-0.1,0-0.2,0-0.3c0.4-0.8,0.6-1.7,0.6-2.6c0-1,0-2,0-3
	c0-0.5,0-1.1,0-1.6c0-0.2,0-0.4,0-0.5c0-0.2,0-0.3,0-0.5c0.3-1.4,0.4-2.9,0.3-4.3c0-0.8,0-1.5,0-2.3c0.1-1.1,0.1-2.1,0.1-3.2
	c0-0.8,0-1.6,0-2.4s0.1-1.4,0.1-2.1l0.1-1.8c0-0.5,0.1-0.9,0.1-1.3s0.1-1.1,0.1-1.7c0-0.4,0.1-0.8,0.2-1.2c0.3-0.7,0.4-1.5,0.2-2.2
	c-0.1-0.4-0.1-0.8-0.1-1.2c0-0.2,0-0.4,0-0.5c0-0.5,0-1.1,0.1-1.7c0.1-1,0.1-2.1,0-3.1c0-0.1,0-0.2,0-0.2c0.2-0.7,0.3-1.5,0.3-2.3
	l0.7-1.4c-0.1-1.9-0.1-3.8,0.1-5.8v-1.1c0-0.4,0.1-0.8,0.1-1.2s0.1-1,0.1-1.5c0-0.2,0-0.4,0-0.5s0-0.2,0-0.3l0.1-1.1h-0.4
	c0-0.6,0-1.2,0-1.8s0-1.3,0-1.9c0-0.5,0-1-0.1-1.4c0-0.7-0.1-1.3-0.1-1.9c0-0.3,0-0.7,0-1c-0.1-0.6,0-1.3,0.1-1.9
	c0.2-0.7,0.3-1.5,0.1-2.2c-0.1-0.4-0.1-0.8,0-1.2C136,13.6,136,13.4,136,13.2z"/>
<path class="st0" d="M427,16.2c0-0.1-0.1-0.1-0.1-0.2l0,0l-0.2-0.9c-0.2-0.8-0.4-1.6-0.7-2.3c-0.2-0.7-0.5-1.3-0.9-1.9l-0.1-0.3
	l0.1-0.2l-2.4-2.8l-0.8-0.9l0,0c-0.4-0.4-0.8-0.8-1.3-1.1l-0.2-0.2l-1.1-0.7c-0.1-0.1-0.2-0.1-0.4-0.1l0,0c-0.2-0.6-0.7-1-1.2-1
	c-0.2,0-0.3,0-0.5,0.1c-0.2-0.1-0.5-0.2-0.7-0.3c-0.5-0.2-0.8-0.4-0.9-0.6l-0.3-0.5h-0.8c-0.4-0.4-1-0.7-1.5-0.8l-0.4-0.2
	c-0.6-0.3-1.2-0.5-1.9-0.5h-0.3L409,0.2c-0.4,0-0.8,0.1-1.2,0.3h-0.1c-0.3-0.2-0.5-0.3-0.8-0.4L404,0.3l-1.2,0.1L401.6,1h-0.1h-0.2
	c-0.2,0-0.3,0-0.5,0c-0.3,0-0.6,0.1-0.8,0.2c-0.9,0.5-1.7,1-2.5,1.6l-0.6,0.4h-0.3l-1.2,1.3l-0.1,0.2L395,4.9
	c-0.4,0.2-0.7,0.4-1.1,0.7l-1.6,1.1l-0.1,0.2c-0.2,0.2-0.4,0.4-0.5,0.6l-2,2.6l-1.2,1.4l-0.1,0.2v0.2l-0.1,0.1c0,0.1,0,0.1,0,0.1
	l0,0c-0.8,0.5-1.3,1.4-1.3,2.3l0,0h-0.5l-0.6,1.4c-0.3,0.6-0.5,1.3-0.8,1.9c-0.1,0.3-0.2,0.5-0.2,0.8c0,0.1,0,0.2,0,0.3l-0.3,1.3
	c-0.2,0.7-0.4,1.4-0.5,2.1c0,0,0,0,0,0.1h-0.2l-0.3,0.3l0.1,1.5l0,0c-0.6,0.8-0.8,1.8-0.4,2.7c0,0.1,0.1,0.2,0.1,0.4s0,0.1,0,0.2
	c-0.4,0.6-0.6,1.3-0.5,2c0,0.2,0,0.4,0,0.6c-0.3,1.2-0.4,2.5-0.5,3.8c0,0.5,0,1-0.1,1.4l-0.1,0.2l0,0l0,0l-0.2,0.3l0.2,1.6
	c-0.2,0.7-0.2,1.4,0.1,2c0,0,0,0.5-0.1,0.7c0,0.3-0.1,0.7-0.1,1c-0.2,0.5-0.2,1,0,1.5c0,0.1,0.1,0.2,0.1,0.3
	c-0.4,0.3-0.7,0.9-0.5,1.4c0,0.1,0,0.3,0,0.4l0.3,0c0,0.2-0.1,0.5-0.1,0.8c-0.2,0.9-0.2,1.8,0,2.7c-0.4,1-0.4,2.1,0,3.1
	c-0.1,0.2-0.1,0.3-0.2,0.5c-0.4,0.6-0.5,1.3-0.2,2c0.1,0.2,0.1,0.2,0,0.7c-0.1,0.3-0.2,0.6-0.2,0.9c0,0.5,0,1,0,1.5l-0.2,0.1
	l0.2,0.7l0,1.2h0.1c0,0.1,0,0.2,0,0.2c-0.1,0.6,0,1.3,0.1,1.9l-0.1,0.1l-0.1,0.1c0.1,0.7,0.3,1.4,0.5,2c0.1,0.2,0.2,0.4,0.3,0.6
	c0,0.4-0.1,0.8-0.1,1.2c-0.1,0.4-0.1,0.8-0.2,1.2s0,0.9,0,1.4c0,0.5,0,1,0,1.5l0,0.4c-0.3,0.9-0.3,1.9,0,2.9
	c-0.2,0.2-0.3,0.4-0.3,0.7c-0.1,1.2-0.2,2.5-0.1,3.7v0.2c0,0.6,0.1,1.2,0.4,1.7c-0.1,0.2-0.2,0.5-0.2,0.7c0,0.3-0.1,0.6,0,0.9
	c0,0.2,0,0.5,0,0.7c-0.2,1.3-0.3,2.7-0.1,4.1V85c0.1,1.2,0.1,2.5,0,3.7c-0.1,0.7-0.1,1.5,0,2.2c0.1,0.6,0.1,1.2,0,1.7
	c-0.1,1.1-0.1,2.2,0.1,3.2c0,0.4,0.1,0.8,0.1,1.2l0.1,1h0.2l0.1,0.4h-0.3l0.2,0.7l0.4,1c0.1,0.2,0.2,0.4,0.3,0.7l0.3,0.6h0.2
	l0.3,1.6l0,0c0,1,0.3,1.9,0.9,2.7l0.2,0.3c0.9,1.6,2,3,3.2,4.3l0.2,0.3c0.2,0.2,0.5,0.5,0.8,0.8l0.8,1.3l0.3,0.2h0.3
	c0.2,0.4,0.6,0.6,1.1,0.6c0.2,0.2,2.2,1.8,2.2,1.8l0.6,0.4l0.4,0.3c0.5,0.3,0.9,0.7,1.3,1c0.1,0.1,0.3,0.2,0.5,0.3l1.1,0.7h1
	c0.1,0.1,0.3,0.2,0.5,0.3l0.8,0.3c0.3,0.3,7.1,1.9,7.1,1.9l0,0l1.2,0.4l1.3-0.2h0.1c0.2,0,0.3,0,0.5-0.1h1.5l0.8-0.6
	c0.1,0,0.2,0,0.2,0h0.5l0.3-0.2c0.4-0.3,0.8-0.5,1.3-0.6c0.9-0.2,1.7-0.8,2.4-1.5l0.4-0.1c0.4-0.1,0.8-0.3,1.1-0.5l1.2-0.6l0.5-0.8
	l1.1-1.2h0.1c0.6-0.1,1.1-0.4,1.3-1c0.2-0.3,0.4-0.6,0.5-0.9c0.2-0.5,0.5-0.9,0.9-1.3c0.5-0.5,0.8-1.2,1-1.9c0-0.2,0.1-0.3,0.2-0.5
	c0.3-0.8,0.5-1.5,0.7-2.3c0.6-1.5,0.7-3.2,0.4-4.7v-0.4l-0.6-1.4c-0.1-0.7,0-1.5,0.1-2.2v-0.2l0.2-0.2l-0.2-0.4l-1.1-1.2l0,0v-0.1
	l0.2-0.4l-0.1-0.4l-0.2-0.8l-0.8-0.2h-0.2c-0.1-0.4-0.4-0.8-0.8-1l-1.3-0.7l-0.5,0.1c-0.5,0-1,0.2-1.5,0.4c-0.3,0.1-0.5,0.3-0.7,0.5
	l-0.5-0.5l-0.7,0.8c-0.1,0.2-0.3,0.3-0.4,0.5c-0.2,0.3-0.4,0.5-0.7,0.7c-0.5,0.2-0.8,0.7-0.9,1.2l-0.8,1l-0.1,0.1l0,0l-0.1,0.1l0,0
	l-0.7,0.6l0.4,1.4l-0.1,0.1l0.5,0.8l0.4,0.5h0.3c0,0.7,0.5,1.4,1.1,1.7c0.1,0.1,0.2,0.2,0.3,0.3l0.3,0.3l1,1.2l0.2,1.2
	c-0.4,0.2-0.8,0.6-0.9,1.1c-0.2,0.7-0.5,1.5-0.7,2.2s-0.5,1.6-0.8,2.4h-0.1c-0.4,0-0.7,0.1-1,0.4l-0.1,0.7v-0.4
	c-0.8,0.1-1.5,0.3-2.2,0.7c-0.4,0.2-0.8,0.4-1.2,0.5l-0.3,0.1c-0.8,0.2-1.6,0.3-2.5,0.3c-0.2,0-0.5,0-0.7,0c-0.2,0-0.4,0-0.7,0h-0.3
	l-0.2-0.3l-0.5,0.2l0,0l-1.5-0.4c-0.3-0.4-1.4-0.6-1.4-0.6l-0.2,0.1c-0.1-0.1-0.2-0.1-0.3-0.2c-0.2-0.1-0.4-0.3-0.6-0.4
	c-0.3-0.2-0.7-0.3-1-0.4c-0.3-0.1-0.5-0.1-0.8-0.2c-0.3,0-0.6-0.1-0.9-0.3c-0.9-0.6-1.8-1.2-2.6-1.8l-2.2-1.9
	c-0.5-0.7-1.1-1.5-1.7-2.4c-0.1-0.2-0.3-0.5-0.3-0.7c-0.1-0.2-0.3-0.7-0.3-0.8c0-0.1-0.1-0.2-0.1-0.2c-0.2-1.5-1.1-2.7-2.5-3.3
	l-0.1-0.4c-0.2-0.5-0.4-1-0.5-1.4v-1.3l0.3-0.1l-0.2-0.8v-0.1l-0.1-0.1v-0.1v-0.6l0.1-0.1l-0.2-0.6l0,0l0.4,0.2v-1
	c0.2-0.2,0.4-0.6,0.4-0.9c0,0,0,0,0-0.1l0.1-0.1l-0.1-0.2c-0.1-0.2-0.1-0.3-0.2-0.4v-0.2c0.4-0.5,0.4-1.1,0.1-1.6l-0.2-0.3
	c0.2-0.3,0.3-0.7,0.2-1.1l0.2-1.1h-0.5l0.1-0.6v-1.8l-0.1-0.2c0.3-0.5,0.4-1.1,0.2-1.7l0.1-2.4c0-0.1,0-0.1,0-0.2l0.2-1.4l0.2-1.6
	l0,0l0,0l-0.5-0.2c0-0.2,0-0.4-0.1-0.6c0-0.1-0.1-0.2-0.2-0.3l0,0c0.4-0.2,0.6-0.6,0.6-1l0.1-0.5l-0.3-0.4l-0.1-0.1l0.1-0.2l0.2-1.3
	l-0.1-1.3l0.2-0.2l-0.1-0.3v-0.2V70l-0.2-1.3c0-0.1,0.1-0.2,0.1-0.4l0-0.1l0,0c0.1-0.2,0.1-0.5,0-0.7c0.2-0.2,0.3-0.5,0.3-0.8
	c0-0.4-0.1-0.8-0.3-1.2l0.3-0.5l-0.2-0.1c0-0.1,0-0.2,0-0.3c0.2-0.5,0.3-1,0.1-1.5l0.2-1.7c0-0.2-0.1-0.4-0.2-0.6l0,0
	c0.1-0.3,0.1-0.6,0-0.9l0.2-1.3c0-0.1,0-0.1,0-0.2c0-0.2-0.1-0.3-0.1-0.5c0,0,0.2-0.9,0-1c0-0.1,0-0.3,0.1-0.4l0.1-0.2v-0.9h-0.1
	l0-0.5l0.1,0.1v-0.4l0.2-1.8l-0.4-1.8l-0.1-0.2c0-0.1,0.1-0.2,0.1-0.3c0-0.2,0-0.3,0-0.5l-0.1-1.1c0.4-0.5,0.4-1.2,0-1.7v-1
	l-0.1-0.3c-0.3-0.7-0.3-1.5-0.1-2.3l0.3-0.5l-0.3-0.3l0,0l-0.1-0.2c0-0.2,0-0.3,0-0.5c-0.1-0.5-0.1-1,0-1.5c0.5-1.2,0.7-2.5,0.8-3.8
	l0.1-0.8c0-0.1,0-0.2,0.1-0.2c0-0.1,0.1-0.2,0.1-0.4s0-0.4,0.1-0.6v-0.1c0.4-0.4,0.6-1,0.4-1.5c-0.1-0.5-0.1-0.9,0-1.4
	c0-0.3,0.1-0.7,0.2-1s0.1-0.7,0.2-1.1l0.1-0.6c0.1-0.9,0.2-1.8,0.1-2.7c0-0.1,0-0.2,0-0.2c0.1-0.6-0.1-1.2-0.4-1.7l0.2-0.6l-0.2-0.1
	c0.1-0.2,0.1-0.5,0.1-0.7c0.6-0.2,0.7-0.8,0.8-1.2c0.1-0.2,0.1-0.4,0.2-0.7c0.1-0.4,0.2-0.8,0.3-1.1c0.2-0.4,0.4-0.8,0.6-1.2
	c0.4-0.7,0.8-1.4,1-2.2c0.5-1.5,1.2-2.9,2.2-4.1c0.2-0.3,0.4-0.6,0.5-0.9l0,0c0.4-0.1,0.7-0.3,1-0.5c0.2-0.2,0.5-0.4,0.7-0.7
	l0.2-0.3c0.1,0,0.2,0,0.4,0h0.5l0.3-0.2c0.4-0.3,0.7-0.5,1.1-0.7c0.6-0.4,1.3-0.8,1.8-1.3c0.1,0,0.2,0,0.3,0c0.2,0,0.4-0.1,0.6-0.1
	l1.4-0.6c0.1-0.2,0.1-0.2,0.2-0.2c0.2,0,0.4,0.1,0.6,0.1c0.3,0.1,0.6,0.1,0.8,0.2c0.3,0,0.5-0.1,0.7-0.3h0.2
	c0.8,0.1,1.6,0.1,2.3,0.2h0.4c0.4,0,0.8,0.1,1.2,0.3c0.1,0.1,0.2,0.1,0.2,0.2c0.1,0.7,1.6,1.1,1.6,1.1h0.1c1-0.9,4.3,4.4,4.3,4.4
	c0.2,0.3,0.4,0.6,0.7,0.7l0.1,0.1c-0.2,0.3-0.3,0.7-0.5,1c-0.3,0.5-0.5,1-0.8,1.6c-0.1,0.2-0.2,0.4-0.2,0.6
	c-0.1,0.4-0.2,0.6-0.3,0.6h-0.2l-1.1,1.1l-0.1,0l-0.1-0.1l-0.6,0.5h-0.4V20l-0.3,0.2v0.5V21l-0.1-0.2l0.1,1.1l-0.4,0.3l0.5,0.6v0.4
	l0,0l0.1,1.7l0.1,1.1l-0.3,0.2l2.1,1.6l0.7,1.1c0.1,0.2,0.3,0.3,0.5,0.4l0,0.1l1.6,0.5c0.2,0.1,0.4,0.1,0.6,0.1h0.6h0.1h0.1
	c0.1,0,0.3,0,0.4-0.1l0.2,0.3l0.9-0.7c0.3-0.1,0.5-0.4,0.6-0.7c0.8-0.4,1.6-0.9,2.2-1.6c0.1-0.2,0.2-0.4,0.3-0.6v-0.1
	c0.6-0.1,1.1-0.7,1-1.3c0.2-0.3,0.3-0.6,0.3-0.9c0.3-0.2,0.5-0.5,0.5-0.8l0-0.8c0.1-1.7,0.2-3.5,0.2-5.2
	C427.4,17.1,427.2,16.6,427,16.2z"/>
<path class="st0" d="M262.7,118.4L262.7,118.4L262.7,118.4z"/>
<path class="st0" d="M282,1.9L282,1.9L282,1.9z"/>
<path class="st0" d="M313,118.6L313,118.6L313,118.6z"/>
<path class="st0" d="M265.2,29.7h-0.1H265.2z"/>
<path class="st0" d="M264.8,48.6L264.8,48.6L264.8,48.6L264.8,48.6L264.8,48.6L264.8,48.6z"/>
<path class="st0" d="M297.6,5L297.6,5L297.6,5z"/>
<path class="st0" d="M309.9,105.9L309.9,105.9L309.9,105.9L309.9,105.9z"/>
<path class="st0" d="M308.7,45.8L308.7,45.8L308.7,45.8L308.7,45.8z"/>
<path class="st0" d="M297.8,16.8L297.8,16.8L297.8,16.8z"/>
<path class="st0" d="M299.6,23L299.6,23L299.6,23L299.6,23L299.6,23z"/>
<path class="st0" d="M255.4,112.1L255.4,112.1L255.4,112.1L255.4,112.1z"/>
<path class="st0" d="M256.4,2.1l-0.3,0.1l0,0l-0.3-0.4c-0.1,0.1-0.2,0.3-0.3,0.4c-0.2,0.3-0.5,0.5-0.8,0.7c-0.1,0.1-0.4,0-0.4,0
	c-0.3,0.8-0.5,1.7-0.8,2.5l0,0l0,0h0.1l0,0l0,0l0.1,0.1l-0.1,0.2V5.6h-0.1c-0.1,0.5-0.2,1-0.2,1.5s0,1.2,0,1.7l0,0l0.3,0.2
	c-0.9,1,0.4,1.3,0.7,1.9l0,0l1,1l0,0c0.1-0.1,0.2-0.4,0.4-0.4c0.9,0.1,1.7,0.2,2.6,0.4c1.2,0.3,2.5,0,3.4-0.9
	c0.2-0.1,0.3-0.1,0.5-0.1c0.3,0.2,0.7,0.4,1,0.6l0,0H263h0.2c0.1-0.1,0.2-0.2,0.3-0.2c0.5,0.4,0.8,0.9,0.9,1.5v-0.1
	c-0.1,0-0.2-0.1-0.2-0.1c-0.1,0-0.1,0.1-0.1,0.2c0,0.1,0.1,0.1,0.1,0.2c0.1,0,0.2,0,0.3-0.1c0.1,0.5,0.1,1.1,0,1.6h-0.1v0.1l0,0l0,0
	l0.1,1.4l0,0c0,0.1,0,0.2-0.1,0.3s-0.1-0.1-0.2-0.1c0,0-0.1,0.1-0.1,0.1c0.3,0.6,0.5,1.3,0.7,1.9c0.1,0.5-1,1-0.1,1.6
	c0,0.1-0.1,0.2-0.1,0.3c-0.1,0.2-0.1,0.4-0.1,0.5c0.2,1.3,0.4,2.5,0.6,3.8l-0.5,0.2c0.2,0.5,0.4,1,0.6,1.5h-0.5l0,0
	c0,0.5,0,1.1,0.2,1.6c0.2,0.6-0.5,1.4,0.4,1.8l0,0c-1,0.7-0.5,1.5-0.2,2.4c0.1,0.1,0.1,0.3,0.1,0.5l-0.2,0.1l-0.2-0.2l0.1,0.2l0,0
	v0.9c0,0,0,0,0-0.1v-0.1c-0.1,0.1-0.2,0.1-0.2,0.2c-0.1,0.8,0.2,3.2-0.2,3.5l0,0l0,0l0,0l0,0c0.1,0.4,0.2,0.7,0.2,1.1
	c0.2,0.9,0.3,1.8,0.3,2.7c0,0.9-0.2,1.8-0.3,2.7c0,0.1,0.2,0.2,0.4,0.3c-0.1,0.3-0.2,0.7-0.2,1.1c0,1.1,0.1,2.2,0.1,3.3
	c0,0.2-0.1,0.3-0.2,0.5l0,0v0v-0.1c0.1,0,0.4,0.1,0.4,0.1c0,1.6-0.4,3.1-0.3,4.8c0,1.7-0.1,3.4-0.2,5.2c-0.1,4.6-0.1,9.2-0.1,13.7
	c0,2.2,0.2,4.4,0.1,6.7c0,1,0.5,2.1-0.2,3.1c0,0,0.1,0.2,0.2,0.3l0,0c0.1,0.9,0.1,1.7,0.1,2.6c0.1,1-0.5,2.2,0.3,3.1
	c-0.9,0.2-0.5,0.9-0.6,1.4c0,0.8,0,1.5,0,2.2c0.5-0.7,0.6,0.3,0.4,0.4c-0.7,0.6-0.3,1.4-0.5,2c-0.1,0.3-0.5,0.5-0.5,0.8
	c0,1.1,0.4,2.3,0.2,3.4c-0.4,1.5,0.1,2.9-0.4,4.4c-0.2,1.1-0.3,2.3-0.2,3.5h0.1l0,0c-0.1,0.7-0.8,1.4,0.2,2.1c0.2,0.1,0.1,0.7,0.2,1
	c0,0.1-0.1,0.2-0.1,0.3l-0.3-0.3l0,0h-0.1l0,0c-0.2,0.1-0.4,0.2-0.6,0.1c-1.5-0.4-3.1-0.8-4.6,0c-0.1,0-0.2-0.1-0.3-0.2l0,0
	c-0.2,0.2-0.4,0.4-0.5,0.7c-0.1,0-0.2-0.1-0.2-0.1l0,0l-0.6,0.2l0.2,0.4l0,0c-0.1,0.1-0.2,0.2-0.2,0.2c-0.7-0.5-0.7,0.2-0.9,0.5
	c-0.2,0.2-0.3,0.3-0.5,0.4h0.9l-0.7,0.5c0.2,0.7-0.8,1.2-0.1,1.9c-0.1,0.1-0.2,0.1-0.2,0.2s-0.2,0.3-0.2,0.3
	c0.4,0.4,0.8,0.8,1.1,1.3c0.3,0.5,0.6,1.1,1,1.6c0,0.1,0.2,0.2,0.2,0.2c0.8-0.5,0.9,0.3,1.2,0.6c0,0,0.2-0.1,0.4-0.2l0,0l0.7,0.3
	l0,0c1-0.4,2,0.8,3-0.1l0.1,0.1c1,0,1.6-0.8,2.3-1.3s1.3-0.8,2-1.2c0.1-0.1,0.2,0,0.4,0s0.1,0.3,0,0.4c-0.3,0.4-0.6,0.8,0.3,0.7
	c0.1,0,0.2,0,0.3,0c0.6,0.7,1.4,1.1,2.3,1.4c0.6,0.3,1-0.2,1.4,0c1,0.5,2.2-0.4,3.2,0.4c0.5,0.4,0.8-0.5,1-0.3
	c0.6,0.7,1.5,0.1,2.1,0.5c0.2,0.1,0.4,0,0.6-0.1c0.6-0.5,1.1-1.1,1.6-1.6c0,0,0.2,0,0.3,0c0.2-0.9,0.3-1.8,0.5-2.6
	c0.4-1.7-0.5-3.4-2.1-3.9c-0.7-0.2-1.3,0.1-1.8,0c-1.6-0.4-2.6,0.4-3.7,1.2c-0.3,0.1-0.7,0.1-1,0c-0.1,0-0.1-0.4-0.2-0.7l0,0V111h0
	c-0.2-0.3-0.7-0.7-0.7-1c0-1.4-1-2.7-0.4-4.3c0.1-0.8,0.1-1.7-0.1-2.5c-0.1-1.3-0.3-2.7-0.3-4c0.1-0.9,0.2-1.8,0.4-2.7l0,0v-0.2
	c-0.2-1.1-0.1-2.3,0.3-3.4c0.1-0.2,0.1-0.5,0.1-0.7l-0.2,0.1l-0.3,0.2c0-0.1-0.2-0.3-0.1-0.3c0.5-0.8,0.6-1.9,0.2-2.8
	c0-0.1,0-0.2,0-0.3c0.4-0.4,0.4-0.4,0.3-0.7c-0.1-0.5-0.2-1-0.2-1.5c0.1-1.9,0.3-3.9,0.4-5.8c0-0.7,0-1.4,0-2.1c0-0.7,0-1.3-0.1-2
	c-0.1-0.5,0.6-0.7,0.2-1.5s0-1.8,0-2.8l0.2-0.1c0.1,0.3,3.1,0.1,3.1,0.1c0.2-0.1,4.3-0.4,5.1,0.2c0.2,0.1,0.5,0.2,0.8,0.1
	c0.9-0.3,1.9-0.7,2.6,0.3c0,0,0.1,0,0.2,0c0.5,0,1,0.3,1.3,0.7c0.1,0.1,0.4,0.1,0.7,0.2c0.1-1,0.7-0.2,1-0.2s0.8,0.2,1.2,0.3
	c0.6,0,1.2,0,1.7-0.1c1.3-0.3,2.5-0.6,3.8-0.9c0,0.1,0.1,0.4,0.3,0.7c0.2,0.5,0.8,1,0.6,1.4c-0.2,0.8,0.2,1,0.6,1.4
	c0.1,0.1,0.1,0.3,0.2,0.5c-1.1,0.2,0.2,0.5,0,0.8c0.6,0.4-0.1,1.4,0.8,1.7v0.1c-0.8,0.4,0,1,0,1.5c0.1,0.9,0.2,1.8,0.4,2.7
	c0.1-0.3,0.1-0.4,0.2-0.6c0.2,0.5,0.6,1.3,0.4,1.5c-0.6,0.5-0.2,1,0,1.3c0.3,0.8,0.8,1.5,1.2,2.3s0.8,1.4,0.7,2
	c-0.1,0.8-0.2,1.3,0.6,1.8c0,0,0,0.2,0,0.2c-0.7,0.6,0.2,0.9,0.2,1.3c0.1,0.8-0.2,1.8,0.8,2.2c0,0,0,0.3,0,0.4
	c-0.5,0.8,0,1.2,0.4,1.7c0.1,0.2,0.1,0.5,0.1,0.7l0,0V99l0,0l0,0c0.1,1.2,0.4,2.3,1,3.3c0.1,0.4,0.2,0.8,0.2,1.2l0,0
	c0,0.1-0.1,0.3-0.1,0.4l0,0l0.4-0.1c0.1,0.4,0.2,0.7,0.3,0.9c0,0.1,0,0.1,0,0.2c0,0.3-0.2,0.7-0.1,0.9c0.3,0.7,0.6,1.3,0.9,1.9
	c0.1,0.1,0.1,0.2,0.2,0.3c0.5,1.2,1,2.4,1.5,3.7c0,0.1-0.1,0.3-0.2,0.4l-0.2-0.4l-0.2,0.1l0.4,0.6l0,0c0.2,0.3,0.4,0.6,0.6,0.9l0,0
	c0.1,0.2,0.3,0.4,0.5,0.5c0.4,0.2,0.7,0.5,1.1,0.7l0,0c0.7,0.4,1.4,1,1.9,1.5c0.5,0.6,1.2,1,1.9,1.1c0.3,0.1,0.6,0.5,0.9,0.7l0,0
	l1.3,0.4l0,0c0.1,0.1,0.2,0.2,0.3,0.2c0.7,0,1.4-0.2,1.9,0.1s0.6,0.7,1,0c0.6,0.4,0.5-0.4,0.6-0.4c1.2,0.2,1.6-0.7,2-1.6
	c0.2-0.9,0.3-1.9,0.1-2.8l0,0l0,0l0.4-0.3l-0.4-0.1l0,0l0,0c-0.1-0.2-0.3-0.4-0.4-0.7c-0.5-1.2-0.6-2.6-2.1-3.2
	c-0.5-0.3-1.1-0.4-1.8-0.4c-0.8,0.3-1.7,0.4-2.5,0.3c-0.6-0.1-0.9,0.2-1.1,0.7c-0.2-0.7-0.5-1.3-0.6-2c0-0.5-0.1-1.1-0.3-1.6
	c-0.1-0.2-0.7-0.2-0.3-0.7l0,0l0,0l0,0l-0.3-0.6l0,0l0,0l0,0l0,0c-0.9,0,0-0.7-0.4-0.9l0,0h0.1l-0.1-0.1l0,0l0,0
	c-0.3-0.4-0.5-0.8-0.8-1.2c-0.1-0.2-0.2-0.5-0.2-0.8c0.1-0.4-0.7-0.7-0.1-1.2l0,0l-0.8-0.8l0,0h0.3v-0.1l-0.3,0.1
	c-0.1-0.7-0.2-1.4-0.4-2.1c-0.3-1.2-0.7-2.3-1-3.5c0-0.2,0-0.5,0-0.7l0,0l0,0c-0.2-0.3-0.4-0.6-0.4-0.8c0.1-0.4,0.1-0.7-0.3-1
	c-0.2-0.2-0.1-0.8-0.3-1.1s-0.6-0.6,0.2-0.7c-0.1-0.1-0.1-0.2-0.2-0.3c-0.2-0.5-1-0.8-0.7-1.6l0,0l0-0.3H304l0.1,0.2
	c-0.1-0.1-0.4-0.2-0.4-0.4c-0.2-1-0.4-1.9-0.7-2.8c-0.5-1.5-0.8-3.1-1.2-4.7l0,0c-0.1-0.2-0.2-0.3-0.3-0.5c-0.7-2.2-1.4-4.4-2-6.6
	c-0.5-1.7-0.9-3.4-1.4-5.1c0-0.2,0-0.5,0.2-0.7c0.5-0.5,1.5-0.6,1.3-1.7c0,0,0.2-0.2,0.2-0.1c0.9,0.6,0.5-0.3,0.7-0.6
	c0.6-0.4,1.3-0.5,1.6-1.2c0.5-0.8,1.1-1.6,1.7-2.4l0,0l0,0l0,0l1.1-1.3c0.2-0.1,0.9,0.1,0.6-0.5c-0.2-0.4-0.1-0.6,0.2-0.9
	s-0.3-1.2,0.7-1.2c-0.3-0.9,0.5-1.7,0.5-2.6c0-0.3,0.1-0.5,0.2-0.7c0.6-0.5,0.1-0.6,0-0.8c0.3-0.3,0.5-0.6,0.6-1
	c0-0.3-0.3-0.6-0.5-0.9c-0.1-0.2-0.1-0.5,0-0.8c0.8,0,0.5-0.7,0.5-1c0-0.7-0.2-1.3,0.6-1.7c0.1,0,0-0.5,0.1-0.8
	c0.2-0.6-0.5-1.4,0.4-1.8l0,0l0,0l0,0c-0.5-0.4-0.3-2.2-0.3-2.5c0-0.5,0.2-0.9,0.3-1.4c0.1-1-0.2-1.9-0.1-3c0.3-1.3,0.3-2.6,0.2-3.9
	c-0.1-1.6-0.1-3.2,0.1-4.9c0-2.1,0-4.2-0.1-6.3c0-0.5-1.4-3.7-1.6-4.4s-0.2-1.5-0.4-2.2c-0.2-1-0.6-1.9-0.9-2.9
	c-0.6-1.9-4.3-6.6-5.6-7.2c-0.5-0.3-1.4-1.4-1.5-1.4c-1.1-0.5-2.1-1-3.1-1.6c-0.1-0.1-1.2-0.5-1.3-0.6c-0.5-0.3-1.1-0.5-1.7-0.7
	c-1.4-0.1-2.8-0.1-4.3-0.1l0,0c-0.6-0.3-1.2-0.5-1.8-0.6c-1.5,0.1-3-1-4.5-0.2c-0.1-0.1-0.1-0.2-0.2-0.3C281,2,279.9,2,278.8,2.1
	c-0.9,0-1.9,0.2-2.8,0.5c-0.6,0.3-0.8,0.5-1-0.3c-0.4,0.4-0.3,1.2-1.2,0.8c-0.5-0.2-1.1-0.3-1.6-0.3l-3.7,3.1l0,0L268,6.7
	c-0.1,0.1-0.2,0.2-0.3,0.4l-0.5,0.4c-0.1-0.2-0.2-0.4-0.3-0.6c-0.3-0.9-0.9-4.1-2-3.4c-0.1,0-0.3-0.1-0.4-0.2c-0.7-0.3-1.3-0.7-2-1
	c-0.2-0.1-4.8-0.2-5.5-0.3l0,0h0l0,0 M305,60.4l-0.1,0.1l0-0.2L305,60.4z M265.2,26.3L265.2,26.3L265.2,26.3z M257,110.4v-0.1h0
	C257,110.3,256.9,110.4,257,110.4L257,110.4z M265.2,32.5L265.2,32.5L265.2,32.5L265.2,32.5z M265.2,43.8L265.2,43.8L265.2,43.8
	L265.2,43.8z M268.6,5.9L268.6,5.9C268.6,5.9,268.6,5.9,268.6,5.9L268.6,5.9z M279.9,72.4L279.9,72.4L279.9,72.4L279.9,72.4z
	 M294,63c-1.4,1.5-3.3,2.4-5.3,2.4c-1.3,0.1-2.6,0.3-3.9,0.5h-0.1c-1.4-0.1-2.8-0.3-4.3-0.3c-1.1,0-2.3,0.1-3.5,0.1
	c-0.5,0-1,0-1.5-0.2c-0.7-0.2-1.5-0.2-2.3-0.2c-0.6-0.1-1.1-1.3-0.7-1.8c0-0.1,0.2-0.1,0.2-0.2c0.3-0.6-0.9-0.9-0.3-1.8
	c0.2-0.3-0.2-1.1-0.3-1.7c0.7-0.2,0.7-0.5,0.1-1.3c-0.1-0.2-0.1-0.4,0-0.5c0.8-0.6,0.3-1.2,0-1.8c-0.1-0.1-0.2-0.3-0.1-0.4
	c0.4-0.9,0.4-0.9-0.2-1.6l0,0c0-0.1,0.1-0.3,0.1-0.3c0.2,0.1,0.5-1.4,0.4-1.8c-0.1-0.6-0.2-1.9-0.2-1.9c0.1-0.6,0.2-1.2,0.2-1.8
	c0-0.9,0-1.9-0.1-2.8c0-0.2-0.1-0.4-0.2-0.6l0,0c0.1-0.3,0.8-0.7-0.1-0.9c0-0.1,0-0.3,0-0.4c0.5-0.4,0.5-0.5,0.1-1
	c-0.1-0.1-0.1-0.2-0.2-0.3c1-0.9,0.2-7.8-0.1-9.1c-0.2-1,0.4-2.1-0.2-3.1c-0.1-0.1,0-0.3,0-0.5c0.2-0.8,0.2-1.6,0.1-2.4
	c-0.5-1.5,0.1-3,0-4.4s0.4-3.2,0.4-4.8s0-3.3-0.1-5c0-0.2,0.1-0.3,0.1-0.5h-0.1l0,0l0.4,0.1c0-0.8,0.5-1.6,1.2-2l0,0l0,0l0,0
	l1.4-1.2l0,0c1.8-0.1,3.7-0.2,5.5-0.2c2.1-0.1,4.3-0.1,6.4,0.1c1.9,0.3,3.7,0.6,5.5,1.1c0.1,0,0.2,0.2,0.3,0.2
	c0.4,0.2,0.8,0.5,1.2,0.8c0.1,0.1,0.2,0.4,0.3,0.7s0.5,0.8,0.7,1.2v0.1l0,0l0,0l0.6-0.5c0,0.3-0.1,0.7-0.1,1.1
	c0,0.1,0.1,0.2,0.2,0.2c1.3,0.2,1.4,0.3,1.2,1.6c0,0.4,0.5,0.8,0.8,1.2c0.5,0,1,0,0.5,0.8c-0.2,0.2,0.4,0.9,0.3,1.3
	c-0.2,0.9,0.8,0.2,0.6,0.6l-0.4,1.5l0,0l0,0v-0.1c1,0.2,1.1,0.5,0.7,1.4c-0.1,0.1,0.1,0.4,0.2,0.6l0,0l0,0v0.1l0,0l0,0
	c0.1,0.5,0.2,0.9,0.3,1.3l0,0c0.7,0.6,0.4,1.8,0.8,2.3c0.7,1,0,1.9,0.5,2.9c0.4,0.6-0.1,1.6-0.3,2.5c0,0.2,0,0.4,0,0.6
	c0.1,0.1,0.4,0.2,0.4,0.3c-0.2,0.8-0.2,1.6-0.1,2.4c0.3,0.7,0.3,1.4,0,2c-0.3,0.5,0,1.3,0.1,2c0,0.2-0.1,0.5-0.1,0.7
	c-0.1,0.9-0.1,1.8-0.2,2.7l0,0c0,0.3,0,0.7,0,1c-0.1,0.9,1.1,2,1.1,2l0,0l0,0l0,0l0.4,1.3l-0.2-0.3l0,0l0,0l0,0
	c-0.5,0.4-0.5,0.4-0.1,0.8c0,0-0.1,0.3-0.2,0.4l0,0c-0.1,0.3-0.2,0.5-0.2,0.8s-0.2,0.7-0.3,1.1l0,0l0,0v0c0.1,0.2,0.4,0.3,0.4,0.4
	s-0.2,0.3-0.4,0.4c0.7,0.6-0.3,1-0.2,1.5l0,0c-0.5,1.5-0.9,2.9-1.4,4.4c-0.1,0.3-0.5,0.5-0.7,0.7C297.3,59.4,295.6,61.1,294,63z
	 M310.9,110.3L310.9,110.3l0.2,0L310.9,110.3z"/>
<path class="st0" d="M297.6,5L297.6,5L297.6,5L297.6,5z"/>
<path class="st0" d="M256.5,2L256.5,2L256.5,2L256.5,2L256.5,2z"/>
<path class="st0" d="M272.5,2.7L272.5,2.7l-0.3,0l0,0L272.5,2.7z"/>
<path class="st0" d="M307.3,115.1C307.3,115.1,307.3,115.1,307.3,115.1l-0.1-0.2l0,0C307.2,114.9,307.2,115,307.3,115.1z"/>
<path class="st0" d="M264.7,32.4L264.7,32.4l0.1,0.1L264.7,32.4L264.7,32.4z"/>
<path class="st0" d="M264.6,26.4L264.6,26.4L264.6,26.4L264.6,26.4z"/>
<path class="st0" d="M301.6,80.6L301.6,80.6L301.6,80.6L301.6,80.6z"/>
<path class="st0" d="M305.8,93.8v0.1V93.8L305.8,93.8z"/>
<path class="st0" d="M255.4,12L255.4,12L255.4,12L255.4,12z"/>
<polygon class="st0" points="308.1,101 308.1,101.1 308.1,101 "/>
<path class="st0" d="M302.1,103.7L302.1,103.7L302.1,103.7L302.1,103.7z"/>
<polygon class="st0" points="302.1,104.1 302.1,104 302.1,104.1 "/>
<path class="st0" d="M253.4,9L253.4,9L253.4,9C253.4,9,253.4,9,253.4,9z"/>
<path class="st0" d="M258.1,109.3L258.1,109.3L258.1,109.3L258.1,109.3z"/>
<path class="st0" d="M257.3,109.8L257.3,109.8z"/>
<path class="st0" d="M257.3,109.8L257.3,109.8L257.3,109.8z"/>
<path class="st0" d="M253.6,5.5v0.1l0.1-0.1L253.6,5.5z"/>
<path class="st0" d="M280.4,117.3L280.4,117.3L280.4,117.3L280.4,117.3L280.4,117.3z"/>
<path class="st0" d="M288.5,2.8L288.5,2.8L288.5,2.8L288.5,2.8z"/>
<path class="st0" d="M259.6,118.4L259.6,118.4C259.6,118.4,259.6,118.4,259.6,118.4z"/>
<path class="st0" d="M262.7,118.4L262.7,118.4v0.2V118.4z"/>
<path class="st0" d="M297.6,16.9L297.6,16.9L297.6,16.9L297.6,16.9z"/>
<path class="st0" d="M297.8,16.8L297.8,16.8L297.8,16.8L297.8,16.8z"/>
<path class="st0" d="M300.9,32.7L300.9,32.7L300.9,32.7L300.9,32.7z"/>
<path class="st0" d="M300.9,32.7L300.9,32.7L300.9,32.7z"/>
<path class="st0" d="M301.3,51L301.3,51L301.3,51L301.3,51L301.3,51z"/>
<path class="st0" d="M301,52.5L301,52.5L301,52.5L301,52.5z"/>
</svg>
