<?xml version="1.0" encoding="utf-8"?>
<!-- Generator: Adobe Illustrator 23.0.1, SVG Export Plug-In . SVG Version: 6.00 Build 0)  -->
<svg version="1.1" id="Layer_1" xmlns="http://www.w3.org/2000/svg" xmlns:xlink="http://www.w3.org/1999/xlink" x="0px" y="0px"
	 viewBox="0 0 239.3 35.1" style="enable-background:new 0 0 239.3 35.1;" xml:space="preserve">
<style type="text/css">
	.st0{fill:#CC3366;}
</style>
<title>Artboard 32</title>
<path class="st0" d="M98,2.3c1,0,1.9,0,2.9,0c1.7,0,3.3-0.1,5-0.2c1.2,0,2.3-0.2,3.4-0.2c0.6,0,1.1-0.1,1.7-0.1
	c0.1,0.2,0.3,0.4,0.4,0.6c0.1,0.2,0.2,0.5,0.3,0.7c-1,0.5-2.1,1-3.2,1.4c-2,0.7-3.9,1.6-5.8,2.5c-0.4,0.2-0.5,0.5-0.2,0.9
	c0.1,0,0.2,0.1,0.3,0l9.4-4c1,1.7,1.9,3.5,3.8,4.5c-1.6,1.5-3.1,3.1-4.5,4.8c0.6,0.4,0.8,0.5,1.3,0.1c0.7-0.6,1.3-1.3,1.9-1.9
	c0.7-0.8,1.6-1.6,2.4-2.3c1.2,0.6,2.6,0.6,3.6,1.6c0,0.2-0.1,0.4-0.1,0.7c0,0.4-0.1,0.9-0.1,1.3c0,0.3,0.1,0.6,0.4,0.6c0,0,0,0,0,0
	c0.3,0,0.5-0.2,0.6-0.5s0.1-0.6,0.2-0.9c0-0.4,0.1-0.7,0.4-1c2.3,0.1,4.5,0.8,6.8,0.6c0.1,0.2,0.2,0.5,0.3,0.7
	c0.2,0.9,0.4,1.8,0.6,2.7c0.1,0.3,0.2,0.7,0.2,1.1c0.1,1.3,0.4,2.5,0.7,3.7c0.1,0.3,0.2,0.5,0.7,0.4c0.2-0.4,0.3-0.9,0.2-1.3
	c-0.2-1.3-0.3-2.6-0.5-3.9s-0.5-2.5-0.8-3.8l1-0.1c0.2,0,0.5,0,0.7-0.1c0.8-0.3,1.5-0.6,2.3-0.9c0.7,0.6,1.4,1.2,2.1,1.7
	c0.7,0.6,1.4,1.3,2,2c0.8,0.9,1.7,1.7,2.5,2.5c0.2,0.1,0.3,0.2,0.5,0.3c0.3,0.1,0.6,0,0.6-0.4c-1.1-0.9-2.1-2-3-3.1
	c-0.8-1-1.7-1.8-2.7-2.5c-0.3-0.2-0.6-0.5-0.9-0.8c1-0.8,1.9-1.5,2.8-2.2c0.3-0.2,0.8-0.3,1.1-0.1c1.8,0.5,3.5,1.2,5.3,1.6
	c0.1,0,0.2,0,0.4,0.1c2.1,0.7,4.3,1.4,6.4,2.1c0.6,0.2,1.2,0.4,1.8,0.7c1.1,0.5,2.2,0.9,3.3,1.2c0.6,0.2,1.2,0.3,1.8,0.4
	c0.2,0,0.5-0.1,1-0.3c-0.4-0.3-0.6-0.5-0.7-0.5c-1.1-0.2-2.2-0.6-3.2-1.1c-1.5-0.5-2.8-1.2-4.3-1.6c-1.7-0.5-3.4-1.1-5.1-1.6
	c-0.5-0.2-1.1-0.4-1.7-0.5c-1.6-0.2-3.1-1.1-4.7-1.3c-0.1,0-0.2-0.2-0.4-0.3c0.5-1,0.9-2,1.4-3c1.3,0.1,2.6,0.3,3.8,0.3
	c1.3,0.1,2.6,0,3.9-0.2c-0.1-0.3-0.2-0.5-0.3-0.5c-0.3-0.1-0.6-0.2-0.9-0.2c-1.9,0-3.7,0.1-5.6-0.1l-0.8-0.1c-0.2-1-1.3-1.6-2.3-1.4
	C137.2,1,136,1,134.9,0.7c-0.2,0-0.5,0-0.7,0c-0.6,0-1.3,0-1.9,0.1c-1.1,0.1-2.2,0.1-3.3,0.1c-2.2-0.1-4.4,0.1-6.7,0.1
	c-0.3,0-0.6,0-0.9-0.1c-1.1-0.7-2.4-0.4-3.6-0.5c-1-0.1-2,0-2.9-0.2c-0.7-0.2-1.5,0.1-2.2-0.1c-0.8-0.3-1.7,0.1-2,0.9
	c0,0,0,0.1,0,0.1c-1.3,0-2.6,0.1-3.9,0.1c-2.7,0-5.4,0.1-8.1,0.1c-0.2,0-0.4,0-0.6,0c-0.5,0-0.7,0.3-0.7,0.6S97.8,2.3,98,2.3z
	 M113,1.6c1,0,2,0,3.1,0.1c1.6,0.2,3.2,0.1,4.7,0.9c0.1,0,0.3,0,0.4,0c1.2,0,2.3,0,3.5,0c1.8,0,3.7-0.1,5.5-0.2c0.9,0,1.8,0,2.7,0.2
	c0.9,0.1,1.8,0.1,2.7,0c0.4,0,0.8-0.1,1.1-0.2c0.8,0,1.6,0,2.6,0c-0.2,1-0.6,1.9-1.3,2.7c-0.2,0.2-0.4,0.5-0.5,0.8
	c-0.6,1-1.5,1.6-2.6,1.9c-1,0.2-1.9,0.6-2.8,1.1c-0.1,0.1-0.1,0.1-0.2,0.1c-1.2-0.1-2.3,0.6-3.5,0.8c-1.7,0.2-3.4,0.1-5-0.4
	c-1.7-0.4-3.4-1-5.1-1.5c-0.6-0.1-1.1-0.4-1.4-0.9c-0.5-0.5-1.1-0.9-1.6-1.4c-0.5-0.5-0.9-1.1-1.3-1.7c-0.4-0.7-0.7-1.5-1.1-2.2
	C112.9,1.8,112.9,1.6,113,1.6z"/>
<path class="st0" d="M151.4,3.7c0.2,0,0.4,0,0.6,0c0.8,0,1.5,0,2.2,0l8.4,0.1c0.7,0,1.4,0,2.1,0c2.3,0,4.6,0.1,7,0
	c1.9-0.1,63.8-0.1,65.7-0.1c0.4,0,0.9,0,1.3-0.1c0.3,0,0.6-0.2,0.5-0.7c-0.2-0.1-0.3-0.1-0.5-0.2c-1.4-0.1-62.8-0.2-64.1-0.2
	s-2.5,0.1-3.8,0.2c-1.5,0-3.1,0-4.6,0c-1.3,0-2.5,0-3.8,0s-2.4-0.1-3.7-0.2c-0.5,0-1,0.1-1.4,0.1l-5.5-0.1c-0.2,0-0.3,0-0.5,0
	c-0.2,0-0.4,0.2-0.5,0.5C150.9,3.4,151.1,3.7,151.4,3.7z"/>
<path class="st0" d="M79.6,6.6c-0.2-0.2-0.5-0.4-0.8-0.4c-0.3,0-0.5,0.1-0.7,0.3C77.8,6.7,78,7,78.2,7.2s0.4,0.3,0.5,0.5l0.6,0.5
	c-0.1,0.6-0.7,0.4-1,0.7C78.1,9,78,9.2,77.9,9.4c0,0.3,0.2,0.5,0.5,0.6c0.2,0.1,0.4,0.1,0.6,0c0.3-0.1,0.5-0.1,0.8-0.2
	c0.5-0.2,1.1,0,1.3,0.5c0,0,0,0.1,0,0.1c0.1,0.2,0.2,0.6,0.3,0.8c0.2,0.3,0.6,0.5,0.9,0.4c0.3-0.1,0.5-0.5,0.4-0.8
	c0-0.3-0.1-0.5-0.2-0.9L83,9.8l1.4-0.3c0.3,0,0.5-0.3,0.5-0.5c0-0.3-0.2-0.6-0.6-0.6s-0.7,0-1.1,0s-0.5,0-0.7,0
	c-0.3-0.5,0-0.9,0.1-1.3s0.1-0.7-0.3-0.9c-0.3-0.2-0.8-0.1-1,0.2c-0.3,0.3-0.6,0.6-1,1.1C80.1,7.2,79.9,6.9,79.6,6.6z"/>
<path class="st0" d="M167.3,7.5c-0.5-0.2-1-0.4-1.5-0.6l0.4-1.3C165.4,5,165.3,5,164,6.5c-0.1,0-0.2,0-0.3-0.1
	c-0.4-0.2-0.7-0.5-1.1-0.8s-0.9-0.3-1.2,0s0,0.7,0.2,0.9s0.7,0.6,0.8,1.2c-0.3,0.2-0.6,0.3-0.9,0.5c-0.3,0.2-0.4,0.5-0.3,0.8
	c0.1,0.3,0.4,0.3,0.7,0.3l1.5-0.3c0.1,0.7,0.2,1.4,1.2,1.3l0.6-1.7h1.8c0.3,0,0.6-0.2,0.7-0.6C167.8,7.8,167.6,7.5,167.3,7.5
	C167.3,7.5,167.3,7.5,167.3,7.5z"/>
<path class="st0" d="M121.2,15c-0.2,0-0.4,0.1-0.5,0.3c-0.1,0.3-0.2,0.5-0.2,0.8c0,0.5-0.1,1-0.1,1.4c-0.2,1.5-0.4,2.9-0.5,4.4
	c-0.2,2.1-0.3,4.2-0.5,6.4c-0.1,0.8,0,1.5,0.4,2.2c0.2-0.4,0.5-0.6,0.5-0.8c0.3-1.9,0.5-3.8,0.7-5.6c0.2-2.1,0.4-4.2,0.6-6.4
	c0.1-0.7,0.1-1.4,0.1-2.1C121.5,15.2,121.4,15.1,121.2,15z"/>
<path class="st0" d="M110.7,8.1c-0.5,0-1,0-1.6,0.1c-0.1-0.4-0.3-0.8-0.4-1.2c-0.1-0.2-0.3-0.3-0.6-0.3c-0.2,0.1-0.4,0.2-0.5,0.4
	c-0.2,0.5-0.2,1-0.7,1.4c-0.3,0.1-0.6,0.1-0.9,0.2c-0.5,0.1-0.6,0.5-0.2,0.9c0.2,0.2,0.4,0.4,0.7,0.5c0.3,0.1,0.6,0.2,0.9,0.3
	c0,0.2-0.1,0.3-0.1,0.5c-0.2,0.2-0.1,0.5,0.1,0.7c0,0,0,0,0.1,0c0.3,0.2,0.6,0.1,0.9-0.1c0.2-0.2,0.4-0.5,0.5-0.7
	c0.5,0.2,0.9,0.4,1.3,0.5c0.3,0.1,0.7,0,0.8-0.3c0.2-0.3,0.1-0.5-0.1-0.8s-0.4-0.5-0.6-0.8c0.3-0.1,0.4-0.1,0.6-0.2
	c0.3,0,0.5-0.2,0.5-0.5c0,0,0,0,0-0.1C111.3,8.4,111,8.1,110.7,8.1C110.7,8.1,110.7,8.1,110.7,8.1z"/>
<path class="st0" d="M90.7,12.4c-0.6,0.3-1.2,0.6-1.9,1c-0.6,0.3-1.2,0.7-1.7,1.1c-0.2,0.2-0.3,0.4-0.3,0.7c0,0.2,0.3,0.3,0.5,0.6
	c0.3-0.3,0.6-0.6,1-0.8c1.2-0.5,2.3-1.1,3.3-1.8c0.1-0.1,0.3-0.1,0.4-0.2c1.6-0.5,3.1-1.2,4.5-2.1c0.1-0.1,0.3-0.1,0.4-0.1
	c0.9-0.4,1.8-0.7,2.6-1.1c0.4-0.1,0.6-0.5,0.6-0.9c-0.3,0-0.6-0.2-0.8-0.1c-1.3,0.5-2.7,1-4,1.6c-1.1,0.5-2.2,1-3.4,1.4
	C91.6,11.9,91.2,12.2,90.7,12.4z"/>
<path class="st0" d="M128.1,32.5c-0.3-0.2-0.7-0.3-1-0.5c0.3-0.3,0.6-0.6,0.9-1c0.2-0.3,0.2-0.6-0.1-0.9c-0.2-0.2-0.6-0.2-0.7,0
	c0,0,0,0,0,0c-0.3,0.3-0.7,0.6-1.1,0.9s-0.5,0.4-0.8,0.2c-0.2-0.3-0.4-0.7-0.7-1c-0.1-0.3-0.4-0.4-0.7-0.2c0,0,0,0,0,0
	c-0.3,0.2-0.3,0.4-0.3,0.7s0.2,0.8,0.4,1.3c-0.3,0.1-0.5,0.2-0.7,0.4c-0.2,0.2-0.2,0.4-0.2,0.6c0.1,0.2,0.3,0.3,0.5,0.4
	c0.3,0,0.6,0,0.9,0c0.4,0.5,0.5,1.3,1.2,1.4c0.8-0.3,0.4-1.2,0.9-1.6c0.4,0,0.9,0,1.3-0.1c0.2-0.1,0.3-0.2,0.4-0.4
	C128.2,32.8,128.2,32.6,128.1,32.5z"/>
<path class="st0" d="M109.3,16c-0.1,0-0.2,0.2-0.2,0.2l-3.5,3.5c-0.6,0.7-1.2,1.3-1.8,1.8c-0.5,0.5-1,1-1.3,1.7
	c-0.2,0.3,0,0.5,0.4,0.8c0.2-0.1,0.4-0.3,0.6-0.4c1.2-1.2,2.5-2.4,3.7-3.7c0.9-0.9,1.7-1.7,2.6-2.6c0.2-0.2,0.4-0.4,0.4-0.7
	c0.1-0.2,0-0.5-0.2-0.6C109.8,16,109.5,16,109.3,16z"/>
<path class="st0" d="M0.8,2.4c0.5,0,71,0,71.6,0c2.2-0.1,4.3-0.3,6.5-0.4c0.8,0,1.6-0.1,2.5-0.2l0.1-0.3c-0.2-0.1-0.3-0.4-0.5-0.4
	C79.6,1.1,78.3,1,77.1,1c-0.3,0-0.7,0.2-1,0.2c-1.6,0-73.2,0-74.7,0c-0.4,0-0.7,0-1.1,0.1C0.1,1.4,0,1.5,0,1.7
	c0,0.2,0.1,0.4,0.2,0.5C0.4,2.3,0.6,2.4,0.8,2.4z"/>
<path class="st0" d="M132.4,23.3c0-0.3-0.1-0.6-0.1-0.8c-0.1-0.3-0.3-0.5-0.6-0.4c-0.3,0-0.5,0.3-0.5,0.6c0,0,0,0,0,0
	c0,0.6,0.1,1.3,0.2,1.9c0.2,1.3,0.5,2.6,0.8,3.9c0.1,0.4,0.2,0.8,0.8,0.8c0.1-0.6,0.1-1.2,0-1.7C132.8,26.1,132.6,24.7,132.4,23.3z"
	/>
<path class="st0" d="M85.7,1.6c0.2,0.1,0.5,0.1,0.7,0.1c1.1,0,2.2,0,3.3,0.1c0.9,0,1.9,0,2.8-0.2c0.1,0,0.2-0.2,0.4-0.3
	c-0.3-0.4-0.8-0.6-1.2-0.5c-1.3,0.1-2.6,0.1-3.9,0c-0.7,0-1.3,0-2,0c-0.2,0-0.3,0.2-0.4,0.4C85.5,1.3,85.6,1.5,85.7,1.6z"/>
<path class="st0" d="M146.2,20.1c-0.7-0.6-1.3-1.2-2-1.8c-0.2-0.2-0.5-0.2-0.8-0.2c-0.2,0-0.4,0.3-0.7,0.5c0.9,0.6,1.7,1.2,2.5,1.8
	s1.2,1.5,2.3,1.9c0.1-0.8,0.1-0.8-0.1-1S146.6,20.5,146.2,20.1z"/>
</svg>
